<svg version="1" xmlns="http://www.w3.org/2000/svg" width="1065.333" height="1065.333" viewBox="0 0 799.000000 799.000000"><path d="M384.7.6c-.1.1-5.4.5-11.7.8-6.4.4-12.7.8-14 1-2.4.4-11.7 1.5-17 2.1-1.4.1-3.8.5-5.5.8-1.6.4-4.6.9-6.5 1.2-1.9.3-6.6 1.3-10.5 2.1-3.8.8-8.1 1.7-9.5 2-1.4.3-5.9 1.4-10 2.5s-8.3 2.2-9.3 2.4c-6.6 1.5-33.1 10.7-43.7 15.2-1.9.8-4.4 1.9-5.5 2.3-10.7 4.5-38.3 18.6-47 24.1-5.4 3.3-31.2 20.5-32.6 21.7-.8.6-7.5 6.1-14.9 12.1-12.6 10.2-33.2 29.7-44.3 42-28.2 31.1-56 75.2-71.2 112.9-2.6 6.4-5.1 12.6-5.6 13.7-3.9 9.1-14.2 43.7-16.3 55-2.4 12.6-5.6 32-6.2 37-.3 3.3-.8 7.3-1 9C1.5 368.2.7 387.9.7 401c.1 82.4 25.6 162.3 73.5 230 22.3 31.6 57.1 67 88.1 89.8 9.6 7.1 23.1 16.3 25.7 17.5.8.4 5.6 3.2 10.5 6.3 11 6.7 39.6 20.9 52.5 25.9 27 10.6 58.4 19.4 82 23 2.5.4 5.4.9 6.5 1.2 1.1.2 4.3.6 7 .9 2.8.3 6.1.7 7.4.9 11.6 2 65.9 2.8 81.1 1.2 4.1-.5 9.3-1 11.5-1.2 3.8-.4 17.1-2.4 20.6-3 .9-.2 3.3-.6 5.3-.9 1.9-.3 5.7-1.1 8.3-1.7 2.7-.6 5.9-1.3 7.3-1.5 5.4-1.1 21.9-5.5 29.5-7.9 4.4-1.5 8.7-2.8 9.5-3 2.6-.6 19.6-7.1 31-12 10.8-4.6 38-18.2 40.1-20.1.8-.8 1.8-1.4 2.2-1.4 3.3 0 44.6-29 57.6-40.5 16.4-14.4 33.8-31.6 42.6-42 2.8-3.3 5.8-6.9 6.9-8 4.7-5.2 22.2-29.3 29.7-41 9.7-15.2 24.8-44.2 31.5-60.5 9.8-23.9 20.2-58.9 23.4-78.5.5-3.3 1.2-6.9 1.4-8 .2-1.1.7-4 1.1-6.5.3-2.5.8-5.7 1.1-7.1 3.5-22.5 4-80.5.9-98.9-.3-1.4-.7-4.8-1-7.5C794 334 790.4 316 786 299c-1.6-6.3-3.2-12.3-3.4-13.3-1.8-6.8-10.6-31.1-15.5-42.5-7.7-17.9-19-39.9-26.9-52.2-20.1-31.4-32.1-46.7-55.2-70.3-16.8-17.2-41.3-38.2-57-48.7-1.2-.8-3.3-2.3-4.5-3.3-1.3-.9-2.8-1.7-3.3-1.7-.6 0-1.2-.4-1.4-.8-.9-2.3-52.9-31.2-56.1-31.2-.2 0-2.6-1-5.3-2.2-2.7-1.2-5.1-2.3-5.4-2.3-.3-.1-2.3-.9-4.5-1.9-8.1-3.5-36.4-12.6-50-16-14.2-3.6-37.4-8-48.1-9.1-3.2-.3-7.5-.8-9.4-1.1-8.5-1.2-54.4-2.7-55.3-1.8z"/></svg>