<svg id="Layer_1" data-name="Layer 1" xmlns="http://www.w3.org/2000/svg" viewBox="0 0 225.76 70"><defs><style>.cls-1{fill:#a4b3ff}.cls-2{fill:#fff}</style></defs><title>logo_white</title><path d="M220.94 32v-.4h.49v-.36h-.49v-1h-.45v.9h-1.8l-.29-.2v-.68l-.61.08v.49h-2.16v-1.19h-.57l-.45.57v.45h-2.9v-.32h-1.47l-.24-.41v-.57h-1.06v.33l-.61.16v.37h-.53v-.41h-.4v.37h-1.06l-.45.61a3.57 3.57 0 0 1-1.59-.16v-.82s.33-.41.57-.78a1.46 1.46 0 0 0 .49-.41c.16-.24.45 0 .45 0V28l-.24-.24a3.69 3.69 0 0 0-3.55-3 4.18 4.18 0 0 0-4.3 4.63l-1 .43s-3.06 3.06-4 3.92c0 0-1.47 6.67-2.26 8.08a3.35 3.35 0 0 0-.67 2l-.31.49.24.37-.03.32-.31.18v.72l.31.37a10.79 10.79 0 0 0 .12 1.16c.06.18-3.37 7-4.47 10.83a8.89 8.89 0 0 1-1.77 1 8.73 8.73 0 0 0-2.57 2.13 2.6 2.6 0 0 1-.92.92.89.89 0 0 0-.37.86 20 20 0 0 0 .24 3.31 4.59 4.59 0 0 0 1.71 1.1 4.11 4.11 0 0 0 2.26-.49 6.68 6.68 0 0 0 .24-2.57c-.06-.55 2.51-.18 2.88-.31s.67-.24 1.41-1.47 2.08-3.31 2.33-3.61a5.11 5.11 0 0 0 .31-1.22c.12-.24 3.61-6.12 4-6.92a1.32 1.32 0 0 1 1.35.37c.37.61 2.57 3.51 2.94 4.12s1.67 1.14 2 1.75a7.09 7.09 0 0 1 .53 2.73 13.5 13.5 0 0 0 .37 3.14 7.77 7.77 0 0 1 .29 1.92l.37.41h-.37a6.4 6.4 0 0 0-.16 2.16 10.38 10.38 0 0 0 3.1 2.29 10.07 10.07 0 0 0 2.49 0c.24 0 .29-1.26.12-1.67a18.94 18.94 0 0 1-1.43-2.37 19.88 19.88 0 0 1 .2-4.2.6.6 0 0 0-.2-.65s0-1.88-.08-2.24a10.33 10.33 0 0 0 .12-2 9.23 9.23 0 0 0-1-1.84 25.64 25.64 0 0 0-2-2.65 1.71 1.71 0 0 1-.12-.94l.49-.24.24-.73-3.31-4.81-1.18-.12a9.69 9.69 0 0 1 0-2.53 5 5 0 0 0 1.14-.29c.29-.16.53-2.86.73-3s1.88-.12 2.57-.33a2.19 2.19 0 0 1 1.06-.33c.37.08.78-.49 1.26-.49a2.32 2.32 0 0 0 1.22-.08c.29-.2.78-1.31 1.18-1.43s.61-.2.61-.2l.45-.69v.82l1.93.04a4.72 4.72 0 0 1 .12-1.59l.61.12a9.75 9.75 0 0 0 1.67 4.49l1.1-.65s-1.84-3-1.31-4.65h.37v.29h.82v-.46h.9V34h.49v-.6h.53V33h2.37v-.46h.33v.41h.37v-.45h2V32h-1.47zm-13.47 1.75a2.6 2.6 0 0 0-.57.33 4.38 4.38 0 0 0-1.26 0 6.61 6.61 0 0 0-.78.73 1 1 0 0 1-1.67-.65 4.76 4.76 0 0 1 1.92-1.16 11.56 11.56 0 0 1 2.65.08l.2.37a.6.6 0 0 1-.48.32z"/><path class="cls-1" d="M187.16 11.49h38.6l-2.2 10h-36.08s2.86-7.23-.32-10z"/><path d="M79.51 28.73a1.06 1.06 0 0 0 .37.56 1.49 1.49 0 0 0 .62.25 3.93 3.93 0 0 0 .71.07H97.4l-1.69 5.91H79.18a8.21 8.21 0 0 1-2.85-.46 4.32 4.32 0 0 1-2-1.39 4.5 4.5 0 0 1-.88-2.35 8.8 8.8 0 0 1 .43-3.32l2.18-9a11.08 11.08 0 0 1 3.28-5.66A7.61 7.61 0 0 1 82.09 12a13.88 13.88 0 0 1 3.57-.46h16.92l-1.69 5.91h-16.2a4.56 4.56 0 0 0-.74.07 2.75 2.75 0 0 0-.78.25 2.25 2.25 0 0 0-.69.56 2.5 2.5 0 0 0-.49 1l-2.43 8.41a1.75 1.75 0 0 0-.05.99zm39.1-.64a1.33 1.33 0 0 0 .05-.84 1 1 0 0 0-.37-.47 1.41 1.41 0 0 0-.56-.22 3.16 3.16 0 0 0-.51-.05h-9.73a8.21 8.21 0 0 1-2.85-.46 4.13 4.13 0 0 1-2.84-3.68 8.74 8.74 0 0 1 .39-3.29 11.45 11.45 0 0 1 1.5-3.31 9.62 9.62 0 0 1 2.21-2.35 8.92 8.92 0 0 1 2.76-1.42 10.7 10.7 0 0 1 3.13-.46h16.11l-1.69 5.91h-15.77a3.84 3.84 0 0 0-.54.05 2.26 2.26 0 0 0-.68.22 2.23 2.23 0 0 0-.63.47 1.84 1.84 0 0 0-.42.78 1.57 1.57 0 0 0 0 .84.92.92 0 0 0 .34.47 1.27 1.27 0 0 0 .54.22 3.2 3.2 0 0 0 .51.05h9.39a8.21 8.21 0 0 1 2.85.46 4.13 4.13 0 0 1 2.84 3.68 8.74 8.74 0 0 1-.39 3.29 11.46 11.46 0 0 1-1.5 3.31 9.61 9.61 0 0 1-2.21 2.35 9 9 0 0 1-2.74 1.39 10.54 10.54 0 0 1-3.11.46H97.92l1.69-5.91h16.74a3.81 3.81 0 0 0 .54-.05 2.25 2.25 0 0 0 1.3-.69 1.86 1.86 0 0 0 .42-.75zm6.7 3.15l1.69-5.92h5.61l-1.69 5.92h-5.61zm2.55-8.51l1.69-5.91h5.61l-1.69 5.91h-5.61zm35.76-6.97a9.63 9.63 0 0 1 2.21-2.35 8.91 8.91 0 0 1 2.75-1.41 10.7 10.7 0 0 1 3.12-.46h10a8.21 8.21 0 0 1 2.86.46 4.21 4.21 0 0 1 1.94 1.39 4.6 4.6 0 0 1 .86 2.35 8.81 8.81 0 0 1-.39 3.31l-2.57 9a11.45 11.45 0 0 1-1.5 3.31 9.6 9.6 0 0 1-2.21 2.35 9 9 0 0 1-2.69 1.36 10.54 10.54 0 0 1-3.11.46h-10a8.21 8.21 0 0 1-2.85-.46 4.32 4.32 0 0 1-2-1.39 4.5 4.5 0 0 1-.88-2.35 8.8 8.8 0 0 1 .39-3.31l2.57-9a11.45 11.45 0 0 1 1.5-3.26zm17.72 3.58a1.91 1.91 0 0 0 .07-1 1 1 0 0 0-.35-.56 1.51 1.51 0 0 0-.62-.25 4 4 0 0 0-.71-.07h-9.36a4.56 4.56 0 0 0-.74.07 2.75 2.75 0 0 0-.78.25 2.25 2.25 0 0 0-.69.56 2.5 2.5 0 0 0-.49 1l-2.43 8.41a1.76 1.76 0 0 0-.05 1 1.06 1.06 0 0 0 .37.56 1.49 1.49 0 0 0 .62.25 3.92 3.92 0 0 0 .71.07h9.36a4.52 4.52 0 0 0 .74-.07 2.73 2.73 0 0 0 .78-.25 2.08 2.08 0 0 0 .68-.56 2.65 2.65 0 0 0 .47-1z"/><path class="cls-2" d="M209.5 14.3a2.8 2.8 0 0 1 .64-.68 2.6 2.6 0 0 1 .8-.4 3.12 3.12 0 0 1 .91-.13h2.92a2.39 2.39 0 0 1 .83.13 1.23 1.23 0 0 1 .57.4 1.34 1.34 0 0 1 .25.68 2.57 2.57 0 0 1-.11 1l-.75 2.61a3.34 3.34 0 0 1-.44 1 2.8 2.8 0 0 1-.64.68 2.61 2.61 0 0 1-.8.4 3.07 3.07 0 0 1-.91.13h-2.92a2.39 2.39 0 0 1-.83-.13 1.26 1.26 0 0 1-.57-.4 1.31 1.31 0 0 1-.26-.68 2.56 2.56 0 0 1 .11-1l.75-2.61a3.34 3.34 0 0 1 .45-1zm5.16 1a.56.56 0 0 0 0-.29.29.29 0 0 0-.1-.16.44.44 0 0 0-.18-.07h-3.16a.8.8 0 0 0-.23.07.66.66 0 0 0-.2.16.73.73 0 0 0-.14.29l-.65 2.49a.51.51 0 0 0 0 .29.31.31 0 0 0 .11.16.43.43 0 0 0 .18.07h3.16a.8.8 0 0 0 .23-.07.61.61 0 0 0 .2-.16.77.77 0 0 0 .14-.29z"/><path d="M83.72 60.44a1.32 1.32 0 0 0 .05-.84 1 1 0 0 0-.37-.47 1.42 1.42 0 0 0-.56-.22 3.17 3.17 0 0 0-.51-.05H73a8.21 8.21 0 0 1-2.85-.46 4.13 4.13 0 0 1-2.84-3.68 8.74 8.74 0 0 1 .39-3.29 11.45 11.45 0 0 1 1.5-3.31 9.62 9.62 0 0 1 2.21-2.35 8.92 8.92 0 0 1 2.75-1.39 10.7 10.7 0 0 1 3.13-.46H93.7L92 49.84H76a3.84 3.84 0 0 0-.54.05 2.26 2.26 0 0 0-.68.22 2.24 2.24 0 0 0-.63.47 1.84 1.84 0 0 0-.42.78 1.57 1.57 0 0 0 0 .84.92.92 0 0 0 .34.47 1.27 1.27 0 0 0 .54.22 3.2 3.2 0 0 0 .51.05h9.59a8.21 8.21 0 0 1 2.85.46 4.13 4.13 0 0 1 2.84 3.68 8.75 8.75 0 0 1-.4 3.3 11.45 11.45 0 0 1-1.5 3.31A9.61 9.61 0 0 1 86.3 66a9 9 0 0 1-2.74 1.39 10.54 10.54 0 0 1-3.11.46H63.72L65.4 62h16.06a3.81 3.81 0 0 0 .54-.09 2.25 2.25 0 0 0 1.3-.69 1.85 1.85 0 0 0 .42-.78zM92 67.88l6.86-24h5.61l-2.6 9h13.23l2.6-9h5.61l-6.86 24h-5.61l2.57-9h-13.22l-2.57 9H92zm35.43-19.77a9.63 9.63 0 0 1 2.21-2.35 8.91 8.91 0 0 1 2.75-1.39 10.7 10.7 0 0 1 3.12-.46h10a8.21 8.21 0 0 1 2.86.46 4.21 4.21 0 0 1 1.94 1.39 4.6 4.6 0 0 1 .86 2.35 8.81 8.81 0 0 1-.39 3.31l-2.57 9a11.45 11.45 0 0 1-1.5 3.31 9.6 9.6 0 0 1-2.17 2.27 9 9 0 0 1-2.74 1.39 10.54 10.54 0 0 1-3.11.46h-10a8.21 8.21 0 0 1-2.85-.46 4.32 4.32 0 0 1-2-1.39 4.5 4.5 0 0 1-.88-2.35 8.8 8.8 0 0 1 .39-3.31l2.57-9a11.46 11.46 0 0 1 1.51-3.23zm17.72 3.58a1.91 1.91 0 0 0 .07-1 1 1 0 0 0-.35-.56 1.51 1.51 0 0 0-.62-.25 4 4 0 0 0-.71-.07h-9.36a4.56 4.56 0 0 0-.74.07 2.75 2.75 0 0 0-.78.25 2.25 2.25 0 0 0-.69.56 2.5 2.5 0 0 0-.49 1L129 60.11a1.76 1.76 0 0 0-.05 1 1.06 1.06 0 0 0 .37.56 1.49 1.49 0 0 0 .62.25 3.93 3.93 0 0 0 .71.07H140a4.52 4.52 0 0 0 .74-.07 2.73 2.73 0 0 0 .78-.25 2.08 2.08 0 0 0 .68-.56 2.65 2.65 0 0 0 .47-1zm-3.41-32.35a2.5 2.5 0 0 1 .49-1 2.25 2.25 0 0 1 .69-.56 2.74 2.74 0 0 1 .78-.25 4.56 4.56 0 0 1 .74-.07h16.83l1.73-5.89h-17.21a10.7 10.7 0 0 0-3.12.46 8.91 8.91 0 0 0-2.75 1.39 9.63 9.63 0 0 0-2.21 2.35 11.46 11.46 0 0 0-1.5 3.31l-2.13 9a8.8 8.8 0 0 0-.39 3.31 4.5 4.5 0 0 0 .88 2.35 4.32 4.32 0 0 0 2 1.39 8.21 8.21 0 0 0 2.85.46h16.85l.72-2.7 2.58-9.89.7-2.63H154l-.05.21-1.48 5.91-.78 3.11H141.4a3.92 3.92 0 0 1-.71-.07 1.49 1.49 0 0 1-.62-.25 1.06 1.06 0 0 1-.37-.56 1.76 1.76 0 0 1 .05-1zm36.91 26.78a4 4 0 0 0-1.87-1.66 6.94 6.94 0 0 0-2.84-.54h-16.83l-2 8.41-4.44 15.55h5.61l4.63-16.18a2.5 2.5 0 0 1 .49-1 2.25 2.25 0 0 1 .69-.56 2.75 2.75 0 0 1 .78-.25 4.56 4.56 0 0 1 .74-.07h8.62a1.8 1.8 0 0 1 .49.08.88.88 0 0 1 .49.41 1.94 1.94 0 0 1 .22 1 3.26 3.26 0 0 1-.32 1.17 8.22 8.22 0 0 1-.73 1.81 4.31 4.31 0 0 1-.76 1 1.54 1.54 0 0 1-.71.41 2.87 2.87 0 0 1-.54.07h-7.53l-1.72 5.91h7.52a10.35 10.35 0 0 0 3.13-.47 8.23 8.23 0 0 0 2.8-1.55 11 11 0 0 0 2.35-2.82 18.29 18.29 0 0 0 1.79-4.27 10.76 10.76 0 0 0 .62-3.55 5.9 5.9 0 0 0-.68-2.9z"/><path class="cls-2" d="M200.64 13.72a1.17 1.17 0 0 0-.55-.48 2 2 0 0 0-.83-.16h-4.91l-.58 2.45-1.29 4.53h1.63l1.35-4.72a.73.73 0 0 1 .14-.29.66.66 0 0 1 .2-.16.8.8 0 0 1 .23-.07h2.87a.26.26 0 0 1 .14.12.56.56 0 0 1 .06.28 1 1 0 0 1-.09.34 2.39 2.39 0 0 1-.21.53 1.26 1.26 0 0 1-.22.29.45.45 0 0 1-.21.12H196l-.5 1.72h2.19a3 3 0 0 0 .91-.14 2.4 2.4 0 0 0 .82-.45 3.2 3.2 0 0 0 .68-.82 5.33 5.33 0 0 0 .52-1.25 3.14 3.14 0 0 0 .18-1 1.72 1.72 0 0 0-.16-.84z"/><path d="M69.07 38.66h110.5v1.39H69.07z"/><path class="cls-2" d="M208.32 13.72a1.17 1.17 0 0 0-.55-.48 2 2 0 0 0-.83-.16H202l-.58 2.45-1.29 4.53h1.63l1.35-4.72a.73.73 0 0 1 .14-.29.66.66 0 0 1 .2-.16.8.8 0 0 1 .23-.07h2.87a.26.26 0 0 1 .14.12.56.56 0 0 1 .06.28 1 1 0 0 1-.09.34 2.39 2.39 0 0 1-.21.53 1.26 1.26 0 0 1-.22.29.45.45 0 0 1-.21.12h-2.35l-.5 1.72h2.16v.07l-.52 1.74h1.62s1.18-1.86.37-2.16a2.55 2.55 0 0 0 .34-.23 3.2 3.2 0 0 0 .68-.82 5.33 5.33 0 0 0 .52-1.25 3.14 3.14 0 0 0 .18-1 1.72 1.72 0 0 0-.2-.85z"/><path d="M54.3 11.45C49.25 6.65 37.24.19 29.77 0v36.12z"/><path class="cls-1" d="M0 38.63a28.94 28.94 0 0 0 8 19.28l10.83-10.86a13.65 13.65 0 0 1-3.49-8.43H0zm9 20.31a28.94 28.94 0 0 0 19.28 8V51.58a13.65 13.65 0 0 1-8.43-3.49zM8 17.88a28.94 28.94 0 0 0-8 19.28h15.34a13.65 13.65 0 0 1 3.49-8.43zm20.3-9.02A28.94 28.94 0 0 0 9 16.84L19.87 27.7a13.65 13.65 0 0 1 8.43-3.5V8.86zm1.47 58.07a28.94 28.94 0 0 0 19.28-8L38.19 48.09a13.65 13.65 0 0 1-8.43 3.49v15.35zm9.46-19.88l10.85 10.86a28.94 28.94 0 0 0 8-19.28H42.72a13.65 13.65 0 0 1-3.49 8.42zm18.84-9.89a28.94 28.94 0 0 0-8-19.28L39.23 28.73a13.65 13.65 0 0 1 3.49 8.43h15.35z"/></svg>