<svg xmlns="http://www.w3.org/2000/svg" viewBox="0 0 1187.9 282.66"><defs><style>.cls-1{fill:#102948}.cls-G{fill:#cf3c3a}.cls-3{fill:#59595b}</style></defs><g id="Слой_2" data-name="Слой 2"><g id="Слой_1-2" data-name="Слой 1"><path id="g" d="M242.48 131.53l-.48-25.3c9-.33 18-.67 27-.47 8.19.27 16.38.87 25 2 26.44 3.6 43.62 17.12 52.08 34a58.25 58.25 0 0 1 6.06 28.77 62.84 62.84 0 0 1-8.52 28.84C332.86 218.11 312 233 281.44 235.5a149.74 149.74 0 0 1-20.44.5c-22.84-1-41.49-7.59-54.81-19.85s-21.58-30.44-23.58-54.35c-1.8-20.78-.4-45.42-.4-66.67 0-21.51 4.4-39.36 11.92-53.55a75.12 75.12 0 0 1 30.44-31.17C237 3.4 251.47 0 266.92 0c21.84 0 42.36 6.66 61.47 16.85v29.64c-3.06.53-6.13 1-9.12 1.47-4-12.59-12.65-19.31-25.24-22.78a57.7 57.7 0 0 0-25.24-1 56.77 56.77 0 0 0-24.64 10.46c-23.78 17.85-22.11 42.42-22.78 68.6-1 33.57-2.33 84 14.05 97 9.12 8.19 24.24 12.85 36.36 11.79a44.68 44.68 0 0 0 33.57-18.58 50.76 50.76 0 0 0 8.72-21.51 42.4 42.4 0 0 0-2-22.11 34.33 34.33 0 0 0-21.18-20.45c-6.46-2.13-16.25-4.53-25-4.06-6.46.27-11.32 1.93-15.72 6.73-2.53-.13-5.13-.27-7.66-.47z" class="cls-1"/><path id="a" d="M128.2 123.76l-14 .67h-.07c-3.53.07-7.26.2-11 .2-14.25.2-28.5.4-41.82 4.93a34 34 0 0 0-21.25 20.38A42.88 42.88 0 0 0 38 172a51 51 0 0 0 8.72 21.58 45.19 45.19 0 0 0 33.57 18.65A53.28 53.28 0 0 0 99.74 210a47 47 0 0 0 16.45-9.12l.07-.13c15.92-12.65 14.52-33.23 13-56.48-.47-6.66-1-13.52-1.07-20.45M58.27 108c9.39-1.27 18.71-1.27 28.17-1.13 8.92 0 17.85.07 26.64-1.07a29 29 0 0 0 7.86-2 16 16 0 0 0 5.19-3.4 14.49 14.49 0 0 0 2.8-5.53 33.75 33.75 0 0 0 1.07-8.94c0-23.84-8.92-39.76-21.38-49.22a53.61 53.61 0 0 0-24.38-10.25 59 59 0 0 0-25.31 1.33c-13 3.6-22.38 10.66-26.57 23.78l-9.12-1.4v-29.7C42.95 9.88 64.33 3 86.84 3c15 0 29.17 3.26 41.36 9.92a73.41 73.41 0 0 1 29.7 30.24c7.33 13.85 11.52 31.3 11.52 52.48v47.22c.13 3.4.27 6.79.33 10.12 1 29.1 1.73 53.68 29.9 76.12l4.06 3.33-5.13.87c-15.32 2.73-26.64 1.73-35.16-2a34.44 34.44 0 0 1-16.58-15.32 63.4 63.4 0 0 1-13.92 10.19 71.75 71.75 0 0 1-20.45 7.13 164.87 164.87 0 0 1-20.65 2.53 140.53 140.53 0 0 1-21.18-.13c-30.5-2.6-51.42-17.32-62.14-36.1a64.39 64.39 0 0 1-8.44-28.82A59 59 0 0 1 6.12 142c8.39-17 25.71-30.44 52.15-34z" class="cls-G"/><path id="d" d="M527.73 167.85c0-16.64 0-27.9-.11-33.49-.32-5.58-.74-8.74-1.47-9.79s-2.74-1.68-6.21-2.21c-2.21-.32-3.26-1.26-3.26-2.42 0-.95.21-1.68 1.16-1.79.74-.32 3.16-.53 7.37-.53h23.06l-.32 61.49-.54 38.22c0 5.9.63 9.69 1.68 11.16s3.37 2.53 7 2.95c2.11.32 3.16 1.05 3.16 2.42 0 1.68-1 2.42-3.37 2.42h-28.16v-11.9a27.25 27.25 0 0 1-9 10 23.72 23.72 0 0 1-12.53 3.26A30.64 30.64 0 0 1 483 227.45c-6.63-6.95-10.11-15.79-10.11-26.64 0-11.9 3.9-21.69 11.58-29.27 7.48-7.69 16.11-11.58 25.38-11.58a24.56 24.56 0 0 1 17.9 7.9m-31.38 30.43c0 11 1.47 19.06 4.32 24.22 3 5.05 6.63 7.69 11.16 7.69 4.32 0 8.11-2.42 11.16-7.27s4.63-13.79 4.63-26.43c0-10.53-1.37-18.22-3.9-23.48s-6.53-7.79-11.79-7.79-9.16 2.63-11.69 8.21-3.89 13.9-3.89 24.85z" class="cls-3"/><path id="p" d="M1132.67 170.69a32.81 32.81 0 0 1 9.9-7.9 25.57 25.57 0 0 1 11.16-2.63c8.11 0 15.79 3.47 23.17 10.74 7.16 7.06 11 16.22 11 27.38a38.57 38.57 0 0 1-11 27.17c-7.27 7.69-15.79 11.48-25.69 11.48a34.45 34.45 0 0 1-10.32-1.47 43.59 43.59 0 0 1-9.48-4.53c0 23 .63 36.54 1.9 40.43s4.63 5.9 10.21 6c2.11.11 2.95 1 2.95 2.42s-1.37 2.21-4 2.21c-1.58 0-3.9 0-7.27-.11-6.63-.42-12.64-.74-17.58-.74-3.47 0-7.48.11-12.32.53-2.42.21-3.9.32-4.74.32-2.84 0-4.42-.74-4.42-2.21s1.58-2.32 4.95-2.53c5.26-.53 8.42-3.79 9.48-9.69s1.47-26.11 1.47-60.76l-.42-28.22c0-5.48-.74-9.06-2.11-10.53a8.42 8.42 0 0 0-6.32-2.84c-2.11-.32-3.37-1.05-3.37-2.63s1.37-2.42 3.79-2.42c10.21 0 19.9-.21 29.06-.74l.11 8.74c0 .32-.11 1.26-.11 2.53m30.64 30.54c0-10.53-1.47-18.64-4.63-24.32-3.05-5.9-7.06-8.74-12-8.74-5.16 0-9 3.05-11.48 9.16-2.74 6.21-3.9 15.48-3.9 28 0 9.79 1.16 16.53 3.79 20.11 2.42 3.79 6.32 5.58 11.69 5.58 5.58 0 9.69-2.42 12.53-7.48 2.63-4.95 4-12.32 4-22.32z" class="cls-3"/><path id="u" d="M1045.69 161.22c.32 5.9.42 14 .42 24.43 0 15.48.21 25.59.53 29.9s1.37 7.48 3.26 9.79a9.48 9.48 0 0 0 6.95 3.26 14.82 14.82 0 0 0 9-3.47 18.6 18.6 0 0 0 6.95-8.63c1.58-3.69 2.32-9.69 2.32-17.9l.11-19.16c0-5.05-.32-8.42-.84-10s-2.42-2.63-5.58-2.63c-3.47-.32-5.16-1.16-5.16-2.63a1.85 1.85 0 0 1 1.26-2c2.21-.21 4.32-.32 6.53-.32 8 0 15.48-.32 22.43-.63.32 2.32.53 14.64.53 37.07 0 17.9.11 27.8.42 29.48s2.21 2.53 5.58 2.84c2.11.32 2.95 1.05 2.95 2.53 0 1.68-1.05 2.42-3.47 2.42h-2.11c-1.58-.11-3.37-.11-5.69-.11h-12.64a18.64 18.64 0 0 1-2.42.11c-1.05 0-1.79-.11-2.11-.63a17.14 17.14 0 0 1-.32-3.26 64.35 64.35 0 0 1 .63-9.06 48 48 0 0 1-12.64 10.85 28.64 28.64 0 0 1-13.79 3.58q-22.11 0-22.11-24.64v-26.77c0-9.37-.32-14.74-1.05-16.43-.63-1.47-2.42-2.53-5.26-2.84-2.63-.42-3.79-1.16-3.79-2.21 0-1.68 1-2.42 3.26-2.42 15.48 0 24.11-.21 25.9-.53z" class="cls-3"/><path id="o" d="M1021.37 196.49c0 10.64-4 20-11.9 28.43-8 8.11-18.11 12.32-30.22 12.32-11.16 0-20.64-3.47-28.22-10.42s-11.37-16.22-11.37-27.69c0-11.79 3.9-21.27 12-28.54s17.9-10.85 29.38-10.85c11.9 0 21.48 3.47 29 10.21 7.58 6.95 11.37 15.69 11.37 26.54m-24 5.79a67 67 0 0 0-4.74-25.69c-3.16-7.48-7.69-11.37-13.58-11.37-5 0-9.16 2.63-12 7.9-2.84 5.48-4.21 13-4.21 22.64 0 10.53 1.68 19.06 4.84 25.8s7.48 10.11 13.16 10.11c5.48 0 9.69-2.74 12.32-8.11s4.21-12.32 4.21-21.27z" class="cls-3"/><path id="r" d="M903.64 177c3-5.79 6.21-10.21 10-13.16a19.68 19.68 0 0 1 12.64-4.21c4.32 0 7.79 1.16 10.53 3.69a13.3 13.3 0 0 1 3.9 9.48 10.9 10.9 0 0 1-2.84 7.69 9.19 9.19 0 0 1-7 3.16 7.63 7.63 0 0 1-5-1.47 18.16 18.16 0 0 1-4.21-5.58c-2.11-3.79-3.9-5.69-5.58-5.69-2.11 0-4.53 2.21-7.27 6.42-2.63 4.42-4 12.85-4 25.27 0 15.79.63 24.53 1.68 26.32s3.26 2.53 7.06 2.53c3.16 0 4.63.95 4.63 2.74 0 1.47-1.47 2.42-4.63 2.42a46 46 0 0 1-7.58-.63 75.23 75.23 0 0 0-8.42-.42c-5.69 0-11.37.32-17 .74-2.42.21-3.79.21-4.21.21-2.42 0-3.58-.95-3.58-2.74 0-1.47 1.26-2.42 4.21-2.42s4.63-.74 5.79-2 1.68-3.69 1.68-7.79l.46-21.56c0-4.42-.21-9.79-.42-16.43-.21-.74 0-4.95-.53-9.79-.74-7.69-1.58-5.58-5.37-7.79a2.4 2.4 0 0 1-.74-2c0-1.68 1.47-2.42 4.32-2.42 5.26-.11 8.11-.53 21-1.9z" class="cls-3"/><path id="gg" d="M845.94 167.43c6.74-6 12.74-9.06 17.9-9.06a11.71 11.71 0 0 1 8.21 3.05 8.48 8.48 0 0 1 3.37 6.74 8.65 8.65 0 0 1-2.32 5.9 7.89 7.89 0 0 1-6.11 2.53c-3.58 0-6.32-1.9-8-5.9-1-2.53-2.11-3.9-3.16-3.9s-3.47 1.37-6.74 4.21a28 28 0 0 1 4.53 15 25.67 25.67 0 0 1-4.74 14.85c-3.16 4.53-6.84 7.79-11.27 9.58-4.53 2-10.64 3.37-19 4.11q-10.27.95-12.64 3.16c-1.47 1.68-2.42 3.26-2.42 5.26 0 2.21 1.68 3.79 4.84 4.53s11.79 1.16 25.9 1.68c21.8.53 32.64 7.79 32.64 21.27 0 9.27-4.11 16.85-12.21 23.06-8.11 6-20.43 9.16-36.85 9.16-12.32 0-21.17-1.79-26.75-5.37s-8.11-7.9-8.11-12.85a15.73 15.73 0 0 1 6.63-13c4.42-3.58 11.27-6.42 20.11-8.42-6.74-.74-11.9-2.11-15.37-4.42a10.4 10.4 0 0 1-5-9.37 13.69 13.69 0 0 1 4.74-10.42c3.16-2.84 8-4.95 14.22-6.42-6.53-2.11-11.48-4.95-14.74-8.85a21.86 21.86 0 0 1-5-14.43c0-8.42 3.26-15.48 9.9-21.27s15.06-8.42 24.85-8.42a36.92 36.92 0 0 1 12.64 2 28.09 28.09 0 0 1 9.9 6m-36.49 18.22c0 7.37 1.16 13.06 3.69 17.16s5.48 6.11 9 6.11a8.92 8.92 0 0 0 8.11-5.26c1.79-3.47 2.74-8.74 2.74-15.58 0-7.37-1-13.27-3.37-17.48-2.11-4.21-5-6.32-8.21-6.32-3.47 0-6.32 1.79-8.63 5.69s-3.26 9.06-3.26 15.69M800 262.2c0 3.9 2 7.37 5.9 10.32s9.27 4.42 16.53 4.42c8.53 0 15.69-2 21.38-5.9s8.53-8.53 8.53-14c0-4.21-2.21-7.48-6.84-9.48a45.11 45.11 0 0 0-17.5-3.16c-8.63 0-15.37 1.79-20.32 5.16-5.16 3.26-7.69 7.69-7.69 12.64z" class="cls-3"/><path id="r-2" d="M719.69 177c2.84-5.79 6.21-10.21 10-13.16a20.34 20.34 0 0 1 12.43-4.21c4.53 0 8 1.16 10.53 3.69a12.9 12.9 0 0 1 4.11 9.48 11.39 11.39 0 0 1-2.84 7.69 9.36 9.36 0 0 1-7 3.16 7.46 7.46 0 0 1-5-1.47 18.16 18.16 0 0 1-4.21-5.58c-2.11-3.79-3.9-5.69-5.58-5.69-2.11 0-4.53 2.21-7.27 6.42-2.63 4.42-4 12.85-4 25.27 0 15.79.42 24.53 1.47 26.32s3.47 2.53 7.06 2.53c3.16 0 4.84.95 4.84 2.74 0 1.47-1.47 2.42-4.63 2.42a46 46 0 0 1-7.58-.63 77.11 77.11 0 0 0-8.53-.42c-5.79 0-11.27.32-17.06.74-2.21.21-3.69.21-4 .21-2.42 0-3.69-.95-3.69-2.74 0-1.47 1.37-2.42 4.21-2.42s4.74-.74 5.79-2 1.58-3.69 1.58-7.79l.53-21.59c0-4.42-.21-9.79-.63-16.43s-.63-10.42-1-11.58a5.63 5.63 0 0 0-2.21-3.37 7.44 7.44 0 0 0-4.84-1.79 9.87 9.87 0 0 1-3.9-.74 2.11 2.11 0 0 1-.74-1.9c0-1.68 1.37-2.42 4.21-2.42 5.37-.21 14.43-.74 27.27-2.11z" class="cls-3"/><path id="e" d="M644.5 196.17v3.58c0 8.32 1.9 15.16 5.9 21a19.39 19.39 0 0 0 16.32 8.42c7 0 13.9-3.05 20.64-9.06a6.24 6.24 0 0 1 2.84-1.79c1.58 0 2.32.74 2.32 2.42 0 1.16-1.68 3.37-5.16 6.74a34 34 0 0 1-12.74 7.52 49.54 49.54 0 0 1-15.69 2.63c-11.69 0-20.85-3.69-27.69-10.85a36.24 36.24 0 0 1-9.9-25.48c0-11.69 3.79-21.59 11.48-29.48s17-11.78 28.64-11.78c10.74 0 18.85 3.37 24.53 10.74s8.42 14 8.42 20.64c0 2-.53 3.37-1.58 3.58-1 .53-4.74.63-10.74.63zm.63-6.32c8.42 0 13.37.11 14.74.11 6.63 0 10.53-.42 12-1.37s2.21-2.84 2.21-5.69a19.71 19.71 0 0 0-4-12.43c-2.84-3.79-6-5.58-9.79-5.58-8.85 0-14 8.42-15.16 25z" class="cls-3"/><path id="v" d="M597.86 212.5c3.79-7.9 7.27-16.32 10.53-25.17s4.84-14.53 4.84-16.64-1.37-3.69-4.11-4.42c-2.53-.63-3.69-1.68-3.69-2.95s1-2.11 3.16-2.11h22.32c1.9 0 2.74.84 2.74 2.42 0 1.26-1.16 2-3.58 2.42-5.58.95-10.11 6-13.69 15.16-4.21 10.74-8.11 20.53-11.9 29.48s-6.63 15.48-8.74 19.48a19.41 19.41 0 0 1-2.42 4.32 2.42 2.42 0 0 1-1.47.42q-1 0-2.21-1.58a131.31 131.31 0 0 1-7.69-16l-16.74-39.7c-2.84-6.74-2.21-9.16-10.85-11.16-3.58-2.63.63-4.63 4.42-4.74l21.48-.63c3.79-.11 5.69.74 5.69 2q0 2.37-3.16 2.84c-3 .32-4.53 1.58-4.53 4.21 0 1.47 2.42 7.37 7.27 17.9 4.84 10.32 9.06 18.43 12.32 24.43z" class="cls-3"/><path id="aa" d="M446.65 227.24a39.09 39.09 0 0 1-10.86 7.69 24.67 24.67 0 0 1-11 2.63c-5.9 0-10.32-1.9-13.69-5.26a19.58 19.58 0 0 1-4.84-13 18.77 18.77 0 0 1 3-10.53 21.48 21.48 0 0 1 7.16-7.27c2.84-1.79 7.69-3.79 14.32-6.11 5.37-2 9.16-3.47 11-4.74a13.07 13.07 0 0 0 4.84-4.74 19.1 19.1 0 0 0 1.9-8.63 13.69 13.69 0 0 0-3-9c-1.79-2.42-4.53-3.47-7.79-3.47-3 0-5 .74-6.21 2.11a16.13 16.13 0 0 0-2.74 7.16c-1.37 6.63-5 10-10.64 10a9.48 9.48 0 0 1-6-2.11 7.2 7.2 0 0 1-2.63-6.11c0-5.48 3-9.58 9.06-12.43s13.27-4.11 21.69-4.11c7.16 0 13.06 1.05 17.58 3.37s7.37 4.63 8.74 7.69c1.16 2.84 1.9 7.37 1.9 13.48l-.21 20.43c0 10.85.42 17.8 1.16 20.74.63 3.16 2.21 4.74 4.53 4.74a3.58 3.58 0 0 0 1.47-.21c1 0 2-.11 2.32-.11 2.32 0 3.58.63 3.58 1.9a2.53 2.53 0 0 1-1.47 2.32c-1 .63-3.9 1.37-9 2.21a71.36 71.36 0 0 1-13.37 1.58c-3.9 0-6.74-.84-8.11-2.42s-2.42-4.11-2.74-7.9m1.26-34.54c-1.58 1.68-4.84 3.9-10.11 6.63-4.63 2.53-8 4.74-9.58 6.74s-2.42 4.95-2.42 8.74c0 4 .84 7.16 2.53 9.27a7.78 7.78 0 0 0 6.32 3.16c3.26 0 6.42-1.58 9.37-4.63s4.32-8.53 4.32-16.32c0-2.42-.11-6.95-.42-13.58z" class="cls-3"/></g></g></svg>