<svg xmlns="http://www.w3.org/2000/svg" viewBox="0 0 1878.24 1356.28"><defs><style>.cls-1{fill:#59595b}.cls-G{fill:#102948}.cls-3{fill:#cf3c3a}</style></defs><title>aglogo</title><g id="Слой_2" data-name="Слой 2"><g id="Слой_1-2" data-name="Слой 1"><path id="d" class="cls-1" d="M291.82 1080.54c0-40 0-67.06-.25-80.47-.76-13.41-1.77-21-3.54-23.53s-6.58-4-14.93-5.31c-5.31-.76-7.84-3-7.84-5.82 0-2.28.51-4 2.78-4.3 1.77-.76 7.59-1.27 17.71-1.27h55.42l-.76 147.79-1.29 91.86c0 14.17 1.52 23.28 4 26.82s8.1 6.07 16.7 7.09c5.06.76 7.59 2.53 7.59 5.82 0 4-2.53 5.82-8.1 5.82H291.8v-28.6a65.49 65.49 0 0 1-21.51 24 57 57 0 0 1-30.11 7.84 73.64 73.64 0 0 1-55.93-24.55c-15.94-16.7-24.29-38-24.29-64 0-28.6 9.36-52.13 27.84-70.35 18-18.47 38.72-27.84 61-27.84a59 59 0 0 1 43 19m-75.41 73.13c0 26.32 3.54 45.8 10.38 58.2 7.34 12.15 15.94 18.47 26.82 18.47 10.38 0 19.49-5.82 26.82-17.46s11.13-33.15 11.13-63.52c0-25.31-3.29-43.78-9.36-56.43s-15.69-18.73-28.34-18.73-22 6.33-28.09 19.74-9.34 33.4-9.34 59.72z"/><path id="p" class="cls-1" d="M1745.64 1087.37a78.85 78.85 0 0 1 23.79-19 61.44 61.44 0 0 1 26.82-6.33c19.49 0 38 8.35 55.67 25.81 17.21 17 26.32 39 26.32 65.8a92.7 92.7 0 0 1-26.32 65.29c-17.46 18.47-38 27.58-61.75 27.58a82.8 82.8 0 0 1-24.8-3.54 104.76 104.76 0 0 1-22.78-10.88c0 55.17 1.52 87.81 4.56 97.17s11.13 14.17 24.55 14.42c5.06.25 7.09 2.28 7.09 5.82s-3.29 5.31-9.62 5.31c-3.8 0-9.36 0-17.46-.25-15.94-1-30.37-1.77-42.26-1.77-8.35 0-18 .25-29.61 1.27-5.82.51-9.36.76-11.39.76-6.83 0-10.63-1.77-10.63-5.31s3.8-5.57 11.89-6.07c12.65-1.27 20.24-9.11 22.78-23.28s3.54-62.76 3.54-146l-1-67.82c0-13.16-1.77-21.76-5.06-25.31a20.24 20.24 0 0 0-15.18-6.83c-5.06-.76-8.1-2.53-8.1-6.33s3.29-5.82 9.11-5.82c24.55 0 47.83-.51 69.84-1.77l.25 21c0 .76-.25 3-.25 6.07m73.64 73.39c0-25.31-3.54-44.79-11.13-58.46-7.34-14.17-17-21-28.85-21-12.4 0-21.51 7.34-27.58 22-6.58 14.93-9.36 37.2-9.36 67.31 0 23.53 2.78 39.73 9.11 48.33 5.82 9.11 15.18 13.41 28.09 13.41 13.41 0 23.28-5.82 30.11-18 6.33-11.89 9.62-29.61 9.62-53.65z"/><path id="u" class="cls-1" d="M1536.62 1064.59c.76 14.17 1 33.66 1 58.71 0 37.2.51 61.49 1.27 71.87s3.29 18 7.84 23.53a22.78 22.78 0 0 0 16.7 7.84 35.61 35.61 0 0 0 21.51-8.35 44.69 44.69 0 0 0 16.7-20.75c3.8-8.86 5.57-23.28 5.57-43l.25-46.06c0-12.15-.76-20.24-2-24s-5.82-6.33-13.41-6.33c-8.35-.76-12.4-2.78-12.4-6.33a4.45 4.45 0 0 1 3-4.81c5.31-.51 10.38-.76 15.69-.76 19.23 0 37.2-.76 53.9-1.52.76 5.57 1.27 35.18 1.27 89.08 0 43 .25 66.81 1 70.86s5.31 6.07 13.41 6.83c5.06.76 7.09 2.53 7.09 6.07 0 4-2.53 5.82-8.35 5.82h-5.06c-3.8-.25-8.1-.25-13.67-.25h-30.37a44.77 44.77 0 0 1-5.82.25c-2.53 0-4.3-.25-5.06-1.52a41.19 41.19 0 0 1-.76-7.84 154.62 154.62 0 0 1 1.52-21.76 115.29 115.29 0 0 1-30.37 26.06 68.83 68.83 0 0 1-33.15 8.6q-53.14 0-53.14-59.22v-64.28c0-22.52-.76-35.43-2.53-39.48-1.52-3.54-5.82-6.07-12.65-6.83-6.33-1-9.11-2.78-9.11-5.31 0-4 2.53-5.82 7.84-5.82 37.2 0 58-.51 62.25-1.27z"/><path id="o" class="cls-1" d="M1478.16 1149.37c0 25.56-9.62 48.08-28.6 68.33-19.23 19.49-43.53 29.61-72.63 29.61-26.82 0-49.6-8.35-67.82-25.05s-27.33-39-27.33-66.55c0-28.34 9.36-51.12 28.85-68.58s43-26.06 70.6-26.06c28.6 0 51.62 8.35 69.59 24.55 18.22 16.7 27.33 37.71 27.33 63.77m-57.7 13.92a161 161 0 0 0-11.39-61.75c-7.59-18-18.47-27.33-32.64-27.33-12.15 0-22 6.33-28.85 19-6.83 13.16-10.12 31.13-10.12 54.41 0 25.31 4 45.8 11.64 62s18 24.29 31.63 24.29c13.16 0 23.28-6.58 29.61-19.49s10.12-29.61 10.12-51.12z"/><path id="r" class="cls-1" d="M1195.24 1102.55c7.09-13.92 14.93-24.55 24-31.63a47.3 47.3 0 0 1 30.37-10.12c10.38 0 18.73 2.78 25.31 8.86a32 32 0 0 1 9.36 22.78 26.19 26.19 0 0 1-6.83 18.47 22.09 22.09 0 0 1-16.7 7.59 18.35 18.35 0 0 1-11.89-3.54 43.65 43.65 0 0 1-10.12-13.41c-5.06-9.11-9.36-13.67-13.41-13.67-5.06 0-10.88 5.31-17.46 15.44-6.33 10.63-9.62 30.87-9.62 60.73 0 38 1.52 59 4 63.26s7.84 6.07 17 6.07c7.59 0 11.13 2.28 11.13 6.58 0 3.54-3.54 5.82-11.13 5.82a110.68 110.68 0 0 1-18.22-1.52 180.82 180.82 0 0 0-20.24-1c-13.67 0-27.33.76-40.74 1.77-5.82.51-9.11.51-10.12.51-5.82 0-8.6-2.28-8.6-6.58 0-3.54 3-5.82 10.12-5.82s11.13-1.77 13.92-4.81 4-8.86 4-18.73l.76-51.88c0-10.63-.51-23.53-1-39.48-.51-1.77 0-11.89-1.27-23.53-1.77-18.47-3.8-13.41-12.91-18.73a5.77 5.77 0 0 1-1.77-4.81c0-4 3.54-5.82 10.38-5.82 12.65-.25 19.49-1.27 50.36-4.56z"/><path id="gg" class="cls-1" d="M1056.57 1079.53c16.2-14.42 30.62-21.76 43-21.76a28.14 28.14 0 0 1 19.74 7.34 20.37 20.37 0 0 1 8.1 16.2 20.78 20.78 0 0 1-5.57 14.17 19 19 0 0 1-14.68 6.07c-8.6 0-15.18-4.56-19.23-14.17-2.53-6.07-5.06-9.36-7.59-9.36s-8.35 3.29-16.2 10.12a67.29 67.29 0 0 1 10.88 35.93 61.7 61.7 0 0 1-11.39 35.68c-7.59 10.88-16.45 18.73-27.08 23-10.88 4.81-25.56 8.1-45.55 9.87q-24.67 2.28-30.37 7.59c-3.54 4-5.82 7.84-5.82 12.65 0 5.31 4 9.11 11.64 10.88s28.34 2.78 62.25 4c52.38 1.27 78.45 18.73 78.45 51.12 0 22.27-9.87 40.49-29.35 55.42-19.49 14.42-49.09 22-88.57 22-29.61 0-50.86-4.3-64.28-12.91s-19.49-19-19.49-30.87a37.81 37.81 0 0 1 15.94-31.13c10.63-8.6 27.08-15.44 48.33-20.24-16.2-1.77-28.6-5.06-37-10.63a25 25 0 0 1-12.1-22.5 32.9 32.9 0 0 1 11.37-25.07c7.59-6.83 19.23-11.89 34.16-15.44-15.69-5.06-27.58-11.89-35.43-21.26a52.54 52.54 0 0 1-11.89-34.67c0-20.24 7.84-37.2 23.79-51.12s36.19-20.24 59.72-20.24a88.72 88.72 0 0 1 30.37 4.81 67.52 67.52 0 0 1 23.79 14.42m-87.81 43.78c0 17.71 2.78 31.38 8.86 41.25s13.16 14.68 21.51 14.68a21.43 21.43 0 0 0 19.49-12.65c4.3-8.35 6.58-21 6.58-37.45 0-17.71-2.53-31.89-8.1-42-5.06-10.12-11.89-15.18-19.74-15.18-8.35 0-15.18 4.3-20.75 13.67s-7.84 21.76-7.84 37.71m-22.52 184c0 9.36 4.81 17.71 14.17 24.8s22.27 10.63 39.73 10.63c20.5 0 37.71-4.81 51.37-14.17s20.5-20.5 20.5-33.66c0-10.12-5.31-18-16.45-22.78a108.41 108.41 0 0 0-42-7.59c-20.75 0-37 4.3-48.84 12.4-12.4 7.84-18.47 18.47-18.47 30.37z"/><path id="r-2" class="cls-1" d="M753.15 1102.55c6.83-13.92 14.93-24.55 24-31.63a48.89 48.89 0 0 1 29.86-10.1c10.88 0 19.23 2.78 25.31 8.86a31 31 0 0 1 9.87 22.78 27.38 27.38 0 0 1-6.83 18.47 22.5 22.5 0 0 1-16.7 7.59 17.92 17.92 0 0 1-11.89-3.54 43.65 43.65 0 0 1-10.12-13.41c-5.06-9.11-9.36-13.67-13.41-13.67-5.06 0-10.88 5.31-17.46 15.44-6.33 10.63-9.62 30.87-9.62 60.73 0 38 1 59 3.54 63.26s8.35 6.07 17 6.07c7.59 0 11.64 2.28 11.64 6.58 0 3.54-3.54 5.82-11.13 5.82a110.68 110.68 0 0 1-18.22-1.52 185.33 185.33 0 0 0-20.5-1c-13.92 0-27.08.76-41 1.77-5.31.51-8.86.51-9.62.51-5.82 0-8.86-2.28-8.86-6.58 0-3.54 3.29-5.82 10.12-5.82s11.39-1.77 13.92-4.81 3.8-8.86 3.8-18.73l1.27-51.88c0-10.63-.51-23.53-1.52-39.48s-1.52-25.05-2.28-27.84a13.54 13.54 0 0 0-5.31-8.1 17.89 17.89 0 0 0-11.64-4.3 23.71 23.71 0 0 1-9.36-1.77 5.06 5.06 0 0 1-1.77-4.56c0-4 3.29-5.82 10.12-5.82 12.91-.51 34.67-1.77 65.54-5.06z"/><path id="e" class="cls-1" d="M572.46 1148.61v8.6c0 20 4.56 36.44 14.17 50.36a46.59 46.59 0 0 0 39.23 20.25c16.7 0 33.4-7.34 49.6-21.76a15 15 0 0 1 6.83-4.3c3.8 0 5.57 1.77 5.57 5.82 0 2.78-4 8.1-12.4 16.2a81.64 81.64 0 0 1-30.62 18 119.06 119.06 0 0 1-37.71 6.33c-28.09 0-50.11-8.86-66.55-26.06a87.1 87.1 0 0 1-23.79-61.24c0-28.09 9.11-51.88 27.58-70.86s41-28.34 68.83-28.34c25.81 0 45.3 8.1 59 25.81s20.24 33.66 20.24 49.6c0 4.81-1.27 8.1-3.8 8.6-2.53 1.27-11.39 1.52-25.81 1.52zm1.52-15.18c20.24 0 32.14.25 35.43.25 15.94 0 25.31-1 28.85-3.29s5.31-6.83 5.31-13.67a47.37 47.37 0 0 0-9.62-29.86c-6.83-9.11-14.42-13.41-23.53-13.41-21.26 0-33.66 20.24-36.44 60z"/><path id="v" class="cls-1" d="M460.36 1187.82c9.11-19 17.46-39.22 25.31-60.48s11.64-34.92 11.64-40-3.29-8.86-9.87-10.63c-6.07-1.52-8.86-4-8.86-7.09s2.28-5.06 7.59-5.06h53.65c4.56 0 6.58 2 6.58 5.82 0 3-2.78 4.81-8.6 5.82-13.41 2.28-24.29 14.42-32.9 36.44-10.12 25.81-19.49 49.35-28.6 70.86s-15.94 37.2-21 46.82a46.64 46.64 0 0 1-5.82 10.38 5.82 5.82 0 0 1-3.54 1q-2.53 0-5.31-3.8a315.56 315.56 0 0 1-18.47-38.46L381.92 1104c-6.83-16.2-5.31-22-26.07-26.82-8.6-6.33 1.52-11.13 10.63-11.39l51.62-1.52c9.11-.25 13.67 1.77 13.67 4.81q0 5.69-7.59 6.83c-7.09.76-10.88 3.8-10.88 10.12 0 3.54 5.82 17.71 17.46 43 11.64 24.8 21.76 44.29 29.61 58.71z"/><path id="aa" class="cls-1" d="M97 1223.26a93.94 93.94 0 0 1-26.09 18.47 59.29 59.29 0 0 1-26.32 6.33c-14.17 0-24.8-4.56-32.9-12.65A47 47 0 0 1 0 1204.28 45.12 45.12 0 0 1 7.1 1179a51.62 51.62 0 0 1 17.21-17.46c6.83-4.3 18.47-9.11 34.42-14.68 12.91-4.81 22-8.35 26.32-11.39A31.41 31.41 0 0 0 96.69 1124a45.9 45.9 0 0 0 4.56-20.75 32.9 32.9 0 0 0-7.09-21.48c-4.3-5.82-10.88-8.35-18.73-8.35-7.09 0-12.15 1.77-14.93 5.06a38.77 38.77 0 0 0-6.58 17.21c-3.29 15.94-11.89 24-25.56 24a22.78 22.78 0 0 1-14.42-5.06A17.31 17.31 0 0 1 7.61 1100c0-13.16 7.34-23 21.76-29.86s31.89-9.87 52.13-9.87c17.21 0 31.38 2.53 42.26 8.1s17.71 11.13 21 18.47c2.78 6.83 4.56 17.71 4.56 32.39l-.51 49.09c0 26.06 1 42.77 2.78 49.85 1.52 7.59 5.31 11.39 10.88 11.39a8.6 8.6 0 0 0 3.54-.51c2.53 0 4.81-.25 5.57-.25 5.57 0 8.6 1.52 8.6 4.56a6.07 6.07 0 0 1-3.54 5.57c-2.53 1.52-9.36 3.29-21.51 5.31a171.5 171.5 0 0 1-32.14 3.8c-9.36 0-16.2-2-19.49-5.82s-5.82-9.87-6.58-19m3-83c-3.8 4-11.64 9.36-24.29 15.94-11.13 6.07-19.23 11.39-23 16.2s-5.82 11.89-5.82 21c0 9.62 2 17.21 6.07 22.27a18.7 18.7 0 0 0 15.18 7.59c7.84 0 15.44-3.8 22.52-11.13s10.38-20.5 10.38-39.22c0-5.82-.25-16.7-1-32.64z"/><path id="g" class="cls-G" d="M1191.41 499.77l-1.77-96.16c34.16-1.27 68.33-2.53 102.49-1.77 31.13 1 62.25 3.29 94.9 7.59 100.46 13.67 165.75 65 197.89 129.31a221.33 221.33 0 0 1 23 109.32 238.79 238.79 0 0 1-32.39 109.57c-40.72 71.11-119.92 127.55-236.08 137.19a569 569 0 0 1-77.69 1.77c-86.8-3.8-157.66-28.85-208.27-75.41-51.12-47.07-82-115.65-89.58-206.5-6.83-79-1.52-172.59-1.52-253.31 0-81.74 16.7-149.56 45.3-203.46 28.09-52.64 68.07-92.62 115.65-118.43C1170.66 12.91 1225.58 0 1284.29 0c83 0 160.95 25.31 233.57 64v112.61c-11.64 2-23.28 3.8-34.67 5.57-15.18-47.83-48.08-73.39-95.91-86.55a219.22 219.22 0 0 0-95.91-3.8 215.71 215.71 0 0 0-93.63 39.73c-90.34 67.82-84 161.2-86.55 260.65-3.8 127.54-8.86 319.36 53.4 368.45 34.67 31.13 92.11 48.84 138.17 44.79 56.69-4.3 100-32.39 127.54-70.6a192.86 192.86 0 0 0 33.15-81.74 161.12 161.12 0 0 0-7.59-84c-13.16-34.67-39.73-63-80.47-77.69-24.55-8.1-61.75-17.21-95.15-15.44-24.55 1-43 7.34-59.72 25.56-9.62-.51-19.49-1-29.1-1.77z"/><path id="a" class="cls-3" d="M757.17 468.39L704 470.92h-.25c-13.41.25-27.58.76-41.75.76-54.15.76-108.31 1.52-158.92 18.73a129.06 129.06 0 0 0-80.72 77.41 162.92 162.92 0 0 0-7.84 83.76 193.87 193.87 0 0 0 33.15 82 171.7 171.7 0 0 0 127.54 70.86 202.45 202.45 0 0 0 73.89-8.62 178.56 178.56 0 0 0 62.51-34.67l.25-.51c60.48-48 55.14-126.24 49.34-214.56-1.77-25.31-3.8-51.37-4-77.69m-265.71-60c35.68-4.81 71.11-4.81 107-4.3 33.91 0 67.82.25 101.22-4a110.23 110.23 0 0 0 29.86-7.59 60.73 60.73 0 0 0 19.74-12.91 55 55 0 0 0 10.63-21 128.23 128.23 0 0 0 4-33.91c0-90.59-33.91-151.08-81.23-187a203.71 203.71 0 0 0-92.62-39 224.36 224.36 0 0 0-96.09 5c-49.6 13.67-85 40.49-101 90.34-11.39-1.77-23-3.54-34.67-5.31V75.9C433.25 35.66 514.48 9.35 600 9.35c56.94 0 110.84 12.4 157.15 37.71A278.92 278.92 0 0 1 870 161.94c27.84 52.64 43.78 118.94 43.78 199.41v179.41c.51 12.91 1 25.81 1.27 38.46 3.8 110.59 6.58 204 113.62 289.25l15.44 12.65-19.49 3.29c-58.18 10.41-101.2 6.59-133.62-7.59-28.6-12.4-48.84-32.9-63-58.2a240.91 240.91 0 0 1-52.89 38.72 272.62 272.62 0 0 1-77.69 27.08A626.46 626.46 0 0 1 619 894a534 534 0 0 1-80.47-.51c-115.9-9.87-195.36-65.8-236.1-137.16A244.66 244.66 0 0 1 270.3 647a224.13 224.13 0 0 1 23-109.32c31.89-64.48 97.7-115.6 198.15-129.27z"/></g></g></svg>