<svg xmlns="http://www.w3.org/2000/svg" viewBox="0 0 1338.09 897.18"><defs><style>.cls-1{fill:#102948}.cls-2{fill:#cf3c3a}</style></defs><title>62323</title><g id="Слой_2" data-name="Слой 2"><g id="Слой_1-2" data-name="Слой 1"><path id="g" class="cls-1" d="M921.33 499.77l-1.77-96.16c34.16-1.27 68.33-2.53 102.49-1.77 31.13 1 62.25 3.29 94.9 7.59 100.46 13.67 165.75 65 197.89 129.31a221.33 221.33 0 0 1 23 109.32 238.79 238.79 0 0 1-32.39 109.57c-40.72 71.11-119.92 127.55-236.08 137.19a569 569 0 0 1-77.69 1.77c-86.8-3.8-157.66-28.85-208.27-75.41-51.12-47.07-82-115.65-89.58-206.5-6.83-79-1.52-172.59-1.52-253.31 0-81.74 16.7-149.56 45.3-203.46 28.09-52.64 68.07-92.62 115.65-118.43C900.58 12.91 955.5 0 1014.21 0c83 0 160.95 25.31 233.57 64v112.61c-11.64 2-23.28 3.8-34.67 5.57-15.18-47.83-48.08-73.39-95.91-86.55a219.22 219.22 0 0 0-95.91-3.8 215.71 215.71 0 0 0-93.63 39.73c-90.34 67.82-84 161.2-86.55 260.65-3.8 127.54-8.86 319.36 53.4 368.45 34.67 31.13 92.11 48.84 138.17 44.79 56.69-4.3 100-32.39 127.54-70.6a192.86 192.86 0 0 0 33.15-81.74 161.12 161.12 0 0 0-7.59-84c-13.16-34.67-39.73-63-80.47-77.69-24.55-8.1-61.75-17.21-95.15-15.44-24.55 1-43 7.34-59.72 25.56-9.62-.51-19.49-1-29.1-1.77z"/><path id="a" class="cls-2" d="M487.09 468.39l-53.17 2.53h-.25c-13.41.25-27.58.76-41.75.76-54.15.76-108.31 1.52-158.92 18.73a129.06 129.06 0 0 0-80.72 77.41 162.92 162.92 0 0 0-7.84 83.76 193.87 193.87 0 0 0 33.15 82 171.7 171.7 0 0 0 127.54 70.86 202.45 202.45 0 0 0 73.87-8.62 178.56 178.56 0 0 0 62.51-34.67l.25-.51c60.48-48 55.14-126.24 49.34-214.56-1.77-25.31-3.8-51.37-4-77.69m-265.71-60c35.68-4.81 71.11-4.81 107-4.3 33.91 0 67.82.25 101.22-4a110.23 110.23 0 0 0 29.86-7.59 60.73 60.73 0 0 0 19.74-12.91 55 55 0 0 0 10.63-21 128.23 128.23 0 0 0 4-33.91c0-90.59-33.91-151.08-81.23-187a203.71 203.71 0 0 0-92.62-39 224.36 224.36 0 0 0-96.09 5c-49.6 13.67-85 40.49-101 90.34-11.39-1.77-23-3.54-34.67-5.31V75.9C163.17 35.66 244.4 9.35 329.92 9.35c56.94 0 110.84 12.4 157.15 37.71a278.92 278.92 0 0 1 112.85 114.88c27.84 52.64 43.78 118.94 43.78 199.41v179.41c.51 12.91 1 25.81 1.27 38.46 3.8 110.59 6.58 204 113.62 289.25L774 881.12l-19.49 3.29c-58.18 10.41-101.2 6.59-133.62-7.59-28.6-12.4-48.84-32.9-63-58.2A240.91 240.91 0 0 1 505 857.34a272.62 272.62 0 0 1-77.69 27.08 626.46 626.46 0 0 1-78.39 9.58 534 534 0 0 1-80.47-.51c-115.9-9.87-195.36-65.8-236.1-137.16A244.66 244.66 0 0 1 .22 647a224.13 224.13 0 0 1 23-109.32c31.89-64.48 97.7-115.6 198.15-129.27z"/></g></g></svg>