<svg xmlns="http://www.w3.org/2000/svg" viewBox="0 0 3726.35 1547.67"><defs><style>.cls-originColor{fill:#59595b}.cls-G{fill:#102948}.cls-three{fill:#cf3c3a}.cls-4{fill:#b9473f}.cls-5{fill:#fff}.cls-6{fill:#1f3051}</style></defs><g id="Слой_2" data-name="Слой 2"><g id="Слой_1-2" data-name="Слой 1"><path id="d" d="M291.82 1181.72c0-40 0-67.06-.25-80.47-.76-13.41-1.77-21-3.54-23.53s-6.58-4-14.93-5.31c-5.31-.76-7.84-3-7.84-5.82 0-2.28.51-4 2.78-4.3 1.77-.76 7.59-1.27 17.71-1.27h55.42l-.76 147.79-1.29 91.86c0 14.17 1.52 23.28 4 26.82s8.1 6.07 16.7 7.09c5.06.76 7.59 2.53 7.59 5.82 0 4-2.53 5.82-8.1 5.82H291.8v-28.6a65.49 65.49 0 0 1-21.51 24 57 57 0 0 1-30.11 7.84 73.64 73.64 0 0 1-55.93-24.55c-15.94-16.7-24.29-38-24.29-64 0-28.6 9.36-52.13 27.84-70.35 18-18.47 38.72-27.84 61-27.84a59 59 0 0 1 43 19m-75.41 73.13c0 26.32 3.54 45.8 10.38 58.2 7.34 12.15 15.94 18.47 26.82 18.47 10.38 0 19.49-5.82 26.82-17.46s11.13-33.15 11.13-63.52c0-25.31-3.29-43.78-9.36-56.43s-15.69-18.73-28.34-18.73-22 6.33-28.09 19.74-9.34 33.4-9.34 59.72z" class="cls-originColor"/><path id="p" d="M1745.64 1188.55a78.85 78.85 0 0 1 23.79-19 61.44 61.44 0 0 1 26.82-6.33c19.49 0 38 8.35 55.67 25.81 17.21 17 26.32 39 26.32 65.8a92.7 92.7 0 0 1-26.32 65.29c-17.46 18.47-38 27.58-61.75 27.58a82.8 82.8 0 0 1-24.8-3.54 104.76 104.76 0 0 1-22.78-10.88c0 55.17 1.52 87.81 4.56 97.17s11.13 14.17 24.55 14.42c5.06.25 7.09 2.28 7.09 5.82s-3.29 5.31-9.62 5.31c-3.8 0-9.36 0-17.46-.25-15.94-1-30.37-1.77-42.26-1.77-8.35 0-18 .25-29.61 1.27-5.82.51-9.36.76-11.39.76-6.83 0-10.63-1.77-10.63-5.31s3.8-5.57 11.89-6.07c12.65-1.27 20.24-9.11 22.78-23.28s3.54-62.76 3.54-146l-1-67.82c0-13.16-1.77-21.76-5.06-25.31a20.24 20.24 0 0 0-15.18-6.83c-5.06-.76-8.1-2.53-8.1-6.33s3.29-5.82 9.11-5.82c24.55 0 47.83-.51 69.84-1.77l.25 21c0 .76-.25 3-.25 6.07m73.64 73.39c0-25.31-3.54-44.79-11.13-58.46-7.34-14.17-17-21-28.85-21-12.4 0-21.51 7.34-27.58 22-6.58 14.93-9.36 37.2-9.36 67.31 0 23.53 2.78 39.73 9.11 48.33 5.82 9.11 15.18 13.41 28.09 13.41 13.41 0 23.28-5.82 30.11-18 6.33-11.89 9.62-29.61 9.62-53.65z" class="cls-originColor"/><path id="u" d="M1536.62 1165.77c.76 14.17 1 33.66 1 58.71 0 37.2.51 61.49 1.27 71.87s3.29 18 7.84 23.53a22.78 22.78 0 0 0 16.7 7.84 35.61 35.61 0 0 0 21.51-8.35 44.69 44.69 0 0 0 16.7-20.75c3.8-8.86 5.57-23.28 5.57-43l.25-46.06c0-12.15-.76-20.24-2-24s-5.82-6.33-13.41-6.33c-8.35-.76-12.4-2.78-12.4-6.33a4.45 4.45 0 0 1 3-4.81c5.31-.51 10.38-.76 15.69-.76 19.23 0 37.2-.76 53.9-1.52.76 5.57 1.27 35.18 1.27 89.08 0 43 .25 66.81 1 70.86s5.31 6.07 13.41 6.83c5.06.76 7.09 2.53 7.09 6.07 0 4-2.53 5.82-8.35 5.82h-5.06c-3.8-.25-8.1-.25-13.67-.25h-30.37a44.77 44.77 0 0 1-5.82.25c-2.53 0-4.3-.25-5.06-1.52a41.19 41.19 0 0 1-.76-7.84 154.62 154.62 0 0 1 1.52-21.76 115.29 115.29 0 0 1-30.37 26.06 68.83 68.83 0 0 1-33.15 8.6q-53.14 0-53.14-59.22v-64.28c0-22.52-.76-35.43-2.53-39.48-1.52-3.54-5.82-6.07-12.65-6.83-6.33-1-9.11-2.78-9.11-5.31 0-4 2.53-5.82 7.84-5.82 37.2 0 58-.51 62.25-1.27z" class="cls-originColor"/><path id="o" d="M1478.16 1250.55c0 25.56-9.62 48.08-28.6 68.33-19.23 19.49-43.53 29.61-72.63 29.61-26.82 0-49.6-8.35-67.82-25.05s-27.33-39-27.33-66.55c0-28.34 9.36-51.12 28.85-68.58s43-26.06 70.6-26.06c28.6 0 51.62 8.35 69.59 24.55 18.22 16.7 27.33 37.71 27.33 63.77m-57.7 13.92a161 161 0 0 0-11.39-61.75c-7.59-18-18.47-27.33-32.64-27.33-12.15 0-22 6.33-28.85 19-6.83 13.16-10.12 31.13-10.12 54.41 0 25.31 4 45.8 11.64 62s18 24.29 31.63 24.29c13.16 0 23.28-6.58 29.61-19.49s10.12-29.61 10.12-51.12z" class="cls-originColor"/><path id="r" d="M1195.24 1203.73c7.09-13.92 14.93-24.55 24-31.63a47.3 47.3 0 0 1 30.37-10.12c10.38 0 18.73 2.78 25.31 8.86a32 32 0 0 1 9.36 22.78 26.19 26.19 0 0 1-6.83 18.47 22.09 22.09 0 0 1-16.7 7.59 18.35 18.35 0 0 1-11.89-3.54 43.65 43.65 0 0 1-10.12-13.41c-5.06-9.11-9.36-13.67-13.41-13.67-5.06 0-10.88 5.31-17.46 15.44-6.33 10.63-9.62 30.87-9.62 60.73 0 38 1.52 59 4 63.26s7.84 6.07 17 6.07c7.59 0 11.13 2.28 11.13 6.58 0 3.54-3.54 5.82-11.13 5.82a110.68 110.68 0 0 1-18.22-1.52 180.82 180.82 0 0 0-20.24-1c-13.67 0-27.33.76-40.74 1.77-5.82.51-9.11.51-10.12.51-5.82 0-8.6-2.28-8.6-6.58 0-3.54 3-5.82 10.12-5.82s11.13-1.77 13.92-4.81 4-8.86 4-18.73l.76-51.88c0-10.63-.51-23.53-1-39.48-.51-1.77 0-11.89-1.27-23.53-1.77-18.47-3.8-13.41-12.91-18.73a5.77 5.77 0 0 1-1.77-4.81c0-4 3.54-5.82 10.38-5.82 12.65-.25 19.49-1.27 50.36-4.56z" class="cls-originColor"/><path id="gg" d="M1056.57 1180.71c16.2-14.42 30.62-21.76 43-21.76a28.14 28.14 0 0 1 19.74 7.34 20.37 20.37 0 0 1 8.1 16.2 20.78 20.78 0 0 1-5.57 14.17 19 19 0 0 1-14.68 6.07c-8.6 0-15.18-4.56-19.23-14.17-2.53-6.07-5.06-9.36-7.59-9.36s-8.35 3.29-16.2 10.12a67.29 67.29 0 0 1 10.88 35.93 61.7 61.7 0 0 1-11.39 35.68c-7.59 10.88-16.45 18.73-27.08 23-10.88 4.81-25.56 8.1-45.55 9.87q-24.67 2.28-30.37 7.59c-3.54 4-5.82 7.84-5.82 12.65 0 5.31 4 9.11 11.64 10.88s28.34 2.78 62.25 4c52.38 1.27 78.45 18.73 78.45 51.12 0 22.27-9.87 40.49-29.35 55.42-19.49 14.42-49.09 22-88.57 22-29.61 0-50.86-4.3-64.28-12.91s-19.49-19-19.49-30.87a37.81 37.81 0 0 1 15.94-31.13c10.63-8.6 27.08-15.44 48.33-20.24-16.2-1.77-28.6-5.06-37-10.63a25 25 0 0 1-12.15-22.52 32.9 32.9 0 0 1 11.42-25.05c7.59-6.83 19.23-11.89 34.16-15.44-15.69-5.06-27.58-11.89-35.43-21.26a52.54 52.54 0 0 1-11.89-34.67c0-20.24 7.84-37.2 23.79-51.12s36.19-20.24 59.72-20.24a88.72 88.72 0 0 1 30.37 4.81 67.52 67.52 0 0 1 23.79 14.42m-87.81 43.78c0 17.71 2.78 31.38 8.86 41.25s13.16 14.68 21.51 14.68a21.43 21.43 0 0 0 19.49-12.65c4.3-8.35 6.58-21 6.58-37.45 0-17.71-2.53-31.89-8.1-42-5.06-10.12-11.89-15.18-19.74-15.18-8.35 0-15.18 4.3-20.75 13.67s-7.84 21.76-7.84 37.71m-22.52 184c0 9.36 4.81 17.71 14.17 24.8s22.27 10.63 39.73 10.63c20.5 0 37.71-4.81 51.37-14.17s20.5-20.5 20.5-33.66c0-10.12-5.31-18-16.45-22.78a108.41 108.41 0 0 0-42-7.59c-20.75 0-37 4.3-48.84 12.4-12.4 7.84-18.47 18.47-18.47 30.37z" class="cls-originColor"/><path id="r-2" d="M753.15 1203.73c6.83-13.92 14.93-24.55 24-31.63A48.89 48.89 0 0 1 807 1162c10.88 0 19.23 2.78 25.31 8.86a31 31 0 0 1 9.87 22.78 27.38 27.38 0 0 1-6.83 18.47 22.5 22.5 0 0 1-16.7 7.59 17.92 17.92 0 0 1-11.89-3.54 43.65 43.65 0 0 1-10.12-13.41c-5.06-9.11-9.36-13.67-13.41-13.67-5.06 0-10.88 5.31-17.46 15.44-6.33 10.63-9.62 30.87-9.62 60.73 0 38 1 59 3.54 63.26s8.35 6.07 17 6.07c7.59 0 11.64 2.28 11.64 6.58 0 3.54-3.54 5.82-11.13 5.82a110.68 110.68 0 0 1-18.22-1.52 185.33 185.33 0 0 0-20.5-1c-13.92 0-27.08.76-41 1.77-5.31.51-8.86.51-9.62.51-5.82 0-8.86-2.28-8.86-6.58 0-3.54 3.29-5.82 10.12-5.82s11.39-1.77 13.92-4.81 3.8-8.86 3.8-18.73l1.27-51.88c0-10.63-.51-23.53-1.52-39.48s-1.52-25.05-2.28-27.84a13.54 13.54 0 0 0-5.31-8.1 17.89 17.89 0 0 0-11.64-4.3 23.71 23.71 0 0 1-9.36-1.77 5.06 5.06 0 0 1-1.77-4.56c0-4 3.29-5.82 10.12-5.82 12.91-.51 34.67-1.77 65.54-5.06z" class="cls-originColor"/><path id="e" d="M572.46 1249.79v8.6c0 20 4.56 36.44 14.17 50.36a46.59 46.59 0 0 0 39.23 20.25c16.7 0 33.4-7.34 49.6-21.76a15 15 0 0 1 6.83-4.3c3.8 0 5.57 1.77 5.57 5.82 0 2.78-4 8.1-12.4 16.2a81.64 81.64 0 0 1-30.62 18 119.06 119.06 0 0 1-37.71 6.33c-28.09 0-50.11-8.86-66.55-26.06a87.1 87.1 0 0 1-23.79-61.23c0-28.09 9.11-51.88 27.58-70.86s41-28.34 68.83-28.34c25.81 0 45.3 8.1 59 25.81s20.24 33.66 20.24 49.6c0 4.81-1.27 8.1-3.8 8.6-2.53 1.27-11.39 1.52-25.81 1.52zm1.52-15.18c20.24 0 32.14.25 35.43.25 15.94 0 25.31-1 28.85-3.29s5.31-6.83 5.31-13.67A47.37 47.37 0 0 0 634 1188c-6.83-9.11-14.42-13.41-23.53-13.41-21.26 0-33.66 20.24-36.44 60z" class="cls-originColor"/><path id="v" d="M460.36 1289c9.11-19 17.46-39.22 25.31-60.48s11.64-34.92 11.64-40-3.29-8.86-9.87-10.63c-6.07-1.52-8.86-4-8.86-7.09s2.28-5.06 7.59-5.06h53.65c4.56 0 6.58 2 6.58 5.82 0 3-2.78 4.81-8.6 5.82-13.41 2.28-24.29 14.42-32.9 36.44-10.12 25.81-19.49 49.35-28.6 70.86s-15.94 37.2-21 46.82a46.64 46.64 0 0 1-5.82 10.38 5.82 5.82 0 0 1-3.54 1q-2.53 0-5.31-3.8a315.56 315.56 0 0 1-18.47-38.46l-40.24-95.4c-6.83-16.2-5.31-22-26.07-26.82-8.6-6.33 1.52-11.13 10.63-11.39l51.62-1.52c9.11-.25 13.67 1.77 13.67 4.81q0 5.69-7.59 6.83c-7.09.76-10.88 3.8-10.88 10.12 0 3.54 5.82 17.71 17.46 43 11.64 24.8 21.76 44.29 29.61 58.71z" class="cls-originColor"/><path id="aa" d="M97 1324.44a93.94 93.94 0 0 1-26.09 18.47 59.29 59.29 0 0 1-26.32 6.33c-14.17 0-24.8-4.56-32.9-12.65A47 47 0 0 1 0 1305.46a45.12 45.12 0 0 1 7.09-25.31 51.62 51.62 0 0 1 17.21-17.46c6.83-4.3 18.47-9.11 34.42-14.68 12.91-4.81 22-8.35 26.32-11.39a31.41 31.41 0 0 0 11.64-11.39 45.9 45.9 0 0 0 4.56-20.75 32.9 32.9 0 0 0-7.08-21.48c-4.3-5.82-10.88-8.35-18.73-8.35-7.09 0-12.15 1.77-14.93 5.06a38.77 38.77 0 0 0-6.58 17.21c-3.29 15.94-11.89 24-25.56 24a22.78 22.78 0 0 1-14.42-5.06 17.31 17.31 0 0 1-6.33-14.66c0-13.16 7.34-23 21.76-29.86s31.89-9.87 52.13-9.87c17.21 0 31.38 2.53 42.26 8.1s17.71 11.13 21 18.47c2.78 6.83 4.56 17.71 4.56 32.39l-.51 49.09c0 26.06 1 42.77 2.78 49.85 1.52 7.59 5.31 11.39 10.88 11.39a8.6 8.6 0 0 0 3.54-.51c2.53 0 4.81-.25 5.57-.25 5.57 0 8.6 1.52 8.6 4.56a6.07 6.07 0 0 1-3.54 5.57c-2.53 1.52-9.36 3.29-21.51 5.31a171.5 171.5 0 0 1-32.14 3.8c-9.36 0-16.2-2-19.49-5.82s-5.82-9.87-6.58-19m3-83c-3.8 4-11.64 9.36-24.29 15.94-11.13 6.07-19.23 11.39-23 16.2s-5.82 11.89-5.82 21c0 9.62 2 17.21 6.07 22.27a18.7 18.7 0 0 0 15.18 7.59c7.84 0 15.44-3.8 22.52-11.13s10.38-20.5 10.38-39.22c0-5.82-.25-16.7-1-32.64z" class="cls-originColor"/><path id="g" d="M1191.41 601l-1.77-96.16c34.16-1.27 68.33-2.53 102.49-1.77 31.13 1 62.25 3.29 94.9 7.59 100.46 13.67 165.75 65 197.89 129.31a221.33 221.33 0 0 1 23 109.32 238.79 238.79 0 0 1-32.39 109.57c-40.72 71.11-119.92 127.55-236.08 137.19a569 569 0 0 1-77.69 1.77c-86.8-3.8-157.66-28.85-208.27-75.41-51.12-47.07-82-115.65-89.58-206.5-6.83-79-1.52-172.59-1.52-253.31 0-81.74 16.7-149.56 45.3-203.46 28.09-52.64 68.07-92.62 115.65-118.43 47.32-26.57 102.24-39.48 160.95-39.48 83 0 160.95 25.31 233.57 64v112.56c-11.64 2-23.28 3.8-34.67 5.57-15.18-47.83-48.08-73.39-95.91-86.55a219.22 219.22 0 0 0-95.91-3.8 215.71 215.71 0 0 0-93.63 39.73c-90.34 67.82-84 161.2-86.55 260.65-3.8 127.54-8.86 319.36 53.4 368.45 34.67 31.13 92.11 48.84 138.17 44.79 56.69-4.3 100-32.39 127.54-70.6a192.86 192.86 0 0 0 33.15-81.74 161.12 161.12 0 0 0-7.59-84c-13.16-34.67-39.73-63-80.47-77.69-24.55-8.1-61.75-17.21-95.15-15.44-24.55 1-43 7.34-59.72 25.56-9.62-.51-19.49-1-29.1-1.77z" class="cls-G"/><path id="a" d="M757.17 569.57L704 572.1h-.25c-13.41.25-27.58.76-41.75.76-54.15.76-108.31 1.52-158.92 18.73A129.06 129.06 0 0 0 422.37 669a162.92 162.92 0 0 0-7.84 83.76 193.87 193.87 0 0 0 33.15 82 171.7 171.7 0 0 0 127.54 70.86 202.45 202.45 0 0 0 73.89-8.62 178.56 178.56 0 0 0 62.51-34.67l.25-.51c60.48-48 55.14-126.24 49.34-214.56-1.77-25.31-3.8-51.37-4-77.69m-265.71-60c35.68-4.81 71.11-4.81 107-4.3 33.91 0 67.82.25 101.22-4a110.23 110.23 0 0 0 29.86-7.59 60.73 60.73 0 0 0 19.74-12.91 55 55 0 0 0 10.63-21 128.23 128.23 0 0 0 4-33.91c0-90.59-33.91-151.08-81.23-187a203.71 203.71 0 0 0-92.62-39 224.36 224.36 0 0 0-96.09 5c-49.6 13.67-85 40.49-101 90.34-11.39-1.77-23-3.54-34.67-5.31V177.08c74.91-40.24 156.14-66.55 241.67-66.55 56.94 0 110.84 12.4 157.15 37.71A278.92 278.92 0 0 1 870 263.12c27.84 52.64 43.78 118.94 43.78 199.41v179.41c.51 12.91 1 25.81 1.27 38.46 3.8 110.59 6.58 204 113.62 289.25l15.44 12.65-19.49 3.29C966.44 996 923.42 992.18 891 978c-28.6-12.4-48.84-32.9-63-58.2a240.91 240.91 0 0 1-52.89 38.72 272.62 272.62 0 0 1-77.69 27.08 626.46 626.46 0 0 1-78.42 9.61 534 534 0 0 1-80.47-.51c-115.9-9.87-195.36-65.8-236.1-137.16a244.66 244.66 0 0 1-32.13-109.32 224.13 224.13 0 0 1 23-109.32c31.89-64.52 97.7-115.64 198.15-129.31z" class="cls-three"/><path d="M2079.58 1547.42h-21.29V.17h21.29z" class="cls-4"/><path d="M2058.29 1547.67h-21.81V.42h21.81z" class="cls-5"/><path d="M2036.49 1547.42h-36.28V.17h36.28z" class="cls-6"/><path d="M2267.45 1159.54q3-6.7 7.92-21.1t4.93-15.7q0-3.31-5-4-3.79-.57-3.79-2.7 0-2.29 3-2.29 1.21 0 3 .18a44 44 0 0 0 5.8.46q2.5 0 6.45-.37 2.82-.28 3.22-.28 2.66 0 2.66 2.42 0 1.53-2.74 2.34a11.35 11.35 0 0 0-5.2 3.33q-2.22 2.44-4.88 10.64l-16.45 44.71q-2.5 7.67-4.76 7.67-1.78 0-3.47-4l-16.9-36.88-1.86-4.28-11.38 27.71q-6.35 15.06-7.23 16.15a2.41 2.41 0 0 1-1.77 1.09q-1.7 0-3.48-4-3-6.86-7.27-15.65l-17.76-36.31q-3.31-6.67-4.84-8.26a7.47 7.47 0 0 0-4.11-2.08q-3.06-.56-3.06-2.5 0-2.18 3.3-2.18 2 0 7.25.45 3.95.36 7.33.36 4.27 0 12.41-.63 2.34-.18 3.71-.18 3.63 0 3.63 2.42 0 2-3.55 2.34-4.27.41-4.27 3.64 0 2.91 17.21 38.73 9.54-22.35 9.54-27.76a19.66 19.66 0 0 0-2.29-8.69q-2.29-4.63-6.32-5.84-2.66-.8-2.66-2.66 0-2.18 3-2.18 1 0 3.3.18 6.61.54 14.51.54 3.22 0 8.87-.54 2.26-.18 3.63-.18 2.82 0 2.82 2.26 0 1.93-2.9 2.42-4.84.74-4.84 3.88a16.5 16.5 0 0 0 1.7 6.54zm58.29-13.27q-.08 2.34-.08 3.39 0 11.45 5.6 19.38a17.58 17.58 0 0 0 15.11 7.94q9.75 0 19.18-8.46 1.93-1.69 2.74-1.69 2.1 0 2.1 2.26 0 1.77-4.84 6.37a31.27 31.27 0 0 1-11.85 6.93 45.58 45.58 0 0 1-14.51 2.34q-16.44 0-25.75-10a33.64 33.64 0 0 1-9.31-23.66q0-16.36 10.68-27.44t26.64-11.08q15 0 22.85 10.08t7.86 19.18q0 2.9-1.53 3.47t-9.91.56zm.48-5.88q11.93.16 13.78.16 9.11 0 11.16-1.29t2.06-5.24a19 19 0 0 0-3.79-11.69q-3.79-5.08-9-5.08-12.43 0-14.21 23.14zm84.45-22.39a35.72 35.72 0 0 1 9.19-4.07 36.33 36.33 0 0 1 9.83-1.33 30.51 30.51 0 0 1 23.21 10.1q9.43 10.1 9.43 25.16a36.92 36.92 0 0 1-4.63 18.4 37.59 37.59 0 0 1-12.78 13.45 34.17 34.17 0 0 1-18.78 5.19 36.85 36.85 0 0 1-12.65-2 69.78 69.78 0 0 1-13-6.81 3.52 3.52 0 0 0-1.61-.65q-1.69 0-2.5 3.14-1.53 5.4-3.39 5.4a1.67 1.67 0 0 1-1.81-1.21q-.36-1.21-.36-10.71l.64-58.47q0-30-.64-32.86t-6.13-3.38q-3.47-.32-3.47-2.34 0-2.18 3.14-2.18 1.77 0 7.66.4 4.43.24 7.74.24l8.06-.24q3 0 3 2.26l.08 3.87q.01 32.98-.23 38.64zm14 .65a13.51 13.51 0 0 0-9 3.46q-4 3.46-5.08 16.46t-1 20.25q0 11.51 4.23 16.14a13.16 13.16 0 0 0 10 4.63q7.33 0 11.93-8.45t4.59-21.49q0-13-4.11-22t-11.54-9zm108.65 41.89a23.09 23.09 0 0 1-3 11.28 24 24 0 0 1-9.11 9.07 27.51 27.51 0 0 1-14.23 3.59q-10.16 0-17.17-4.19-3.06-1.77-3.95-1.77t-1.61 1.35q-1.29 3.17-3.06 3.17a1.56 1.56 0 0 1-1.49-.8q-.44-.8-.73-7.19t-.28-15.15q0-3.37 1.93-3.37t4.11 5q7.74 18.13 21.12 18.14a13 13 0 0 0 7.94-2.42 8.19 8.19 0 0 0 3.26-7 8.73 8.73 0 0 0-3-6.65q-3-2.78-11.57-7-12.9-6.37-17.65-11.12t-4.84-12.65a18.14 18.14 0 0 1 7-14.79q7-5.68 17.25-5.68a32.91 32.91 0 0 1 16.52 4.84 4 4 0 0 0 1.85.65q1 0 1.61-1.77.8-2.26 2.34-2.26a1.52 1.52 0 0 1 1.45.73q.4.73 1.13 7.54a110.47 110.47 0 0 1 .73 11.32q0 3.14-1.85 3.14t-4-4.55q-6.85-15-19.75-15a11.71 11.71 0 0 0-7.58 2.34q-2.9 2.34-2.9 5 0 3.39 3.71 6.21t14.43 7.82a116.28 116.28 0 0 1 12.78 6.49 18.9 18.9 0 0 1 6.09 6.61 17.83 17.83 0 0 1 2.52 9.07zm43.68-48.36q.32 11.29.32 40.22l-.24 17.33q0 5.24 1.73 7t5.68 2.34q4.51.57 4.51 2.58 0 2.18-3.55 2.18-1.69 0-5.88-.24-8.87-.57-17.57-.56a86.2 86.2 0 0 0-8.71.45 33.14 33.14 0 0 1-3.63.36q-3.55 0-3.55-2.18t4.67-2.5q6.21-.56 6.93-4.15t.73-14.55q0-14.19-.44-26.08t-1.65-13.58q-1.21-1.69-6.29-2.26-3.95-.4-3.95-2.34t4-2.26l1.69-.16zm-1.13-27.24a11.63 11.63 0 1 1-3.43-8.22 11.17 11.17 0 0 1 3.4 8.21zm55.25 28.61q4.92-.24 15.07-.24a29.72 29.72 0 0 1 7.58.81q-1.21 6-2.14 6.45t-20.51 1.53l-.89 35.55a57.91 57.91 0 0 0 .77 11.12 10.8 10.8 0 0 0 3.51 6 10.32 10.32 0 0 0 7.09 2.42q3.71 0 10.56-3.95a3.93 3.93 0 0 1 1.77-.56q1.53 0 1.53 1.61 0 2.34-6.53 6.37a28.57 28.57 0 0 1-15.31 4q-10.4 0-16.32-5.08t-5.92-21.44q0-18 .65-36a107 107 0 0 1-11.28-.4q-3.31-.4-3.3-2.34 0-1.61 3.79-2.58a35 35 0 0 0 13.42-6.13q5.92-4.43 10.12-14.1a35.68 35.68 0 0 1 2.3-4.8 2 2 0 0 1 1.73-.85q2.34 0 2.34 3.87zm57.88 32.72q-.08 2.34-.08 3.39 0 11.45 5.6 19.38a17.58 17.58 0 0 0 15.11 7.94q9.75 0 19.18-8.46 1.93-1.69 2.74-1.69 2.09 0 2.1 2.26 0 1.77-4.84 6.37a31.28 31.28 0 0 1-11.85 6.93 45.58 45.58 0 0 1-14.51 2.34q-16.44 0-25.75-10a33.64 33.64 0 0 1-9.31-23.66q0-16.36 10.68-27.44t26.64-11.08q15 0 22.85 10.08t7.86 19.18q0 2.9-1.53 3.47t-9.91.56zm.48-5.88q11.93.16 13.78.16 9.11 0 11.16-1.29t2.06-5.24a19 19 0 0 0-3.79-11.69q-3.79-5.08-9-5.08-12.48 0-14.26 23.14zm156.68-20.48q0-23.29-.24-31.07t-1.29-9.11q-1-1.33-5.72-2.14-3.14-.48-3.14-2.26a1.61 1.61 0 0 1 1.09-1.73 35.83 35.83 0 0 1 7-.36h21.28l-.16 57.23-.4 35.55q0 8.22 1.41 10.4t6.49 2.82q3 .32 3 2.26 0 2.1-3.14 2.1h-26.12v-11a24.58 24.58 0 0 1-8.46 9.27 21.77 21.77 0 0 1-11.61 3.06q-12.33 0-21.64-9.58t-9.31-24.72q0-16.58 10.64-27.25t23.7-10.67a22.4 22.4 0 0 1 9.07 1.81 23.61 23.61 0 0 1 7.55 5.39zm-29.26 28.33q0 15.38 4.07 22.5t10.36 7.12q6 0 10.36-6.8t4.31-24.59q0-14.49-3.63-21.73t-11-7.25q-7.25 0-10.88 7.69t-3.59 23.06zm93.1-1.97q-.08 2.34-.08 3.39 0 11.45 5.6 19.38a17.58 17.58 0 0 0 15.11 7.94q9.75 0 19.18-8.46 1.94-1.69 2.74-1.69 2.1 0 2.1 2.26 0 1.77-4.84 6.37a31.27 31.27 0 0 1-11.85 6.93 45.58 45.58 0 0 1-14.51 2.34q-16.44 0-25.75-10a33.64 33.64 0 0 1-9.31-23.66q0-16.36 10.68-27.44t26.64-11.08q15 0 22.85 10.08t7.86 19.18q0 2.9-1.53 3.47t-9.91.56zm.48-5.88q11.93.16 13.78.16 9.11 0 11.16-1.29t2.06-5.24a19 19 0 0 0-3.79-11.69q-3.79-5.08-9-5.08-12.47 0-14.24 23.14zm98.65 21.19q5.22-11.2 9.73-23.58t4.5-15.39q0-3.26-3.71-4.24-3.55-1-3.55-2.66 0-2 2.9-2 1.45 0 6 .45 4.11.36 5.72.36a38.23 38.23 0 0 0 6.61-.54 18 18 0 0 1 2.66-.27q2.5 0 2.5 2.34 0 1.75-3.38 2.34-7.66 1.2-12.73 14.1-5.79 14.75-11.06 27.32t-8.08 18.18q-2.82 5.6-3.42 6a2.45 2.45 0 0 1-1.49.44q-1.07 0-2.05-1.53t-8.32-16.2l-18.62-37.08q-4-7.92-6.13-9.48a11.24 11.24 0 0 0-3.63-2q-3.14-.73-3.14-2.26 0-2.26 3.06-2.26 1.29 0 4 .22 6.53.59 12.74.59 2.5 0 5.64-.22 5.72-.51 6.85-.51 5.32 0 5.32 1.85 0 2.26-3 2.58-4.19.39-4.19 3.87 0 2.1 6.79 16.6t11.48 22.98zm56.67-15.31q-.08 2.34-.08 3.39 0 11.45 5.6 19.38a17.58 17.58 0 0 0 15.11 7.94q9.75 0 19.18-8.46 1.94-1.69 2.74-1.69 2.1 0 2.1 2.26 0 1.77-4.84 6.37a31.27 31.27 0 0 1-11.85 6.93 45.58 45.58 0 0 1-14.51 2.34q-16.44 0-25.75-10a33.64 33.64 0 0 1-9.31-23.66q0-16.36 10.68-27.44t26.64-11.08q15 0 22.85 10.08t7.86 19.18q0 2.9-1.53 3.47t-9.91.56zm.48-5.88q11.93.16 13.78.16 9.11 0 11.16-1.29t2.06-5.24a19 19 0 0 0-3.79-11.69q-3.79-5.08-9-5.08-12.43 0-14.2 23.14zm86.39-67.55l.24 67.63q.08 32.4 1.69 35.38t6.45 3.22q5.64.24 5.64 2.26 0 2.5-3.47 2.5-1 0-2.82-.16-7.82-.65-15.15-.65-11.93 0-17.65.63a26.74 26.74 0 0 1-2.9.18q-3.63 0-3.63-2.18t4.11-2.34q4.43-.24 6.49-1.61a5.62 5.62 0 0 0 2.5-3.83 87.56 87.56 0 0 0 .44-11.5l-.32-31.7.24-25.17q0-15.65-1.49-19t-8.83-4.56q-4.43-.64-4.43-2.58a1.64 1.64 0 0 1 1-1.65 20.46 20.46 0 0 1 5-.77 161 161 0 0 0 26.89-4.1zm101.13 73.75q0 14.83-11 26.36t-28 11.53q-15.64 0-26.28-9.67t-10.73-25.81q0-16.36 11.24-26.48t27.36-10.12q16.36 0 26.88 9.55t10.53 24.64zm-22.25 5.53a62.45 62.45 0 0 0-4.39-23.93q-4.39-10.69-12.61-10.69-7.25 0-11.2 7.47t-3.95 20.94q0 14.69 4.47 24.09t12.29 9.4q7.66 0 11.53-7.51t3.86-19.77zm62.68-29.39a31.1 31.1 0 0 1 9.27-7.43 22.8 22.8 0 0 1 10.4-2.48q11.28 0 21.48 10t10.2 25.51a35.49 35.49 0 0 1-10.13 25.27q-10.13 10.68-23.93 10.68a32.34 32.34 0 0 1-9.53-1.41 35.69 35.69 0 0 1-9-4.23q0 32.18 1.78 37.53t9.57 5.67q2.84.08 2.84 2.18t-3.79 2.18q-2.18 0-6.69-.22-9.43-.59-16.44-.59-4.76 0-11.53.56-3.3.24-4.19.24-4.19 0-4.19-2.1 0-1.93 4.51-2.34 7.33-.73 8.79-9t1.45-56.46l-.48-26.28q0-7.66-1.84-9.91t-5.84-2.66q-3-.32-3-2.26 0-2.34 3.46-2.34 14.23 0 26.85-.64l.16 8.12q-.02.46-.18 2.41zm28.61 28.41q0-14.65-4.31-22.74t-11.24-8.09q-7.09 0-10.68 8.61t-3.59 25.92q0 13.68 3.47 18.79t11 5.11q7.66 0 11.49-6.92t3.86-20.68zm65.43-26.39a44.24 44.24 0 0 1 11.74-9.39 25.76 25.76 0 0 1 12.06-3.1 26.76 26.76 0 0 1 9.2 1.77q4.84 1.77 10.57 8.3a43.45 43.45 0 0 1 11.92-7.62 32.49 32.49 0 0 1 12.56-2.54q11 0 16.19 6t5.07 17.92l-.4 27.28q0 11.54 1.12 13.28t6.08 2.46q2.8.48 2.8 2.18 0 2.5-3.3 2.5-.56 0-1.61-.09-6.76-.64-14.72-.63-4.34 0-10.46.45-3.78.27-4.34.27-4 0-4-2.26 0-2 2.66-2.34 4.59-.65 5.64-1.61t1.61-7.46q.56-6.5.56-21.91 0-14.12-.73-19.37t-3.3-8a8.42 8.42 0 0 0-6.45-2.78 12 12 0 0 0-7.05 2.62 34.61 34.61 0 0 0-7.37 7.94q-2.5 12.49-2.5 35.92 0 9.94 1.45 12t6.61 2.66q3.06.32 3.06 2.1 0 2.5-3.87 2.5-.89 0-6.21-.36-7.34-.45-10.4-.45-5.24 0-12.41.63-1.86.18-2.82.18-3.55 0-3.55-2.34 0-2.1 3.47-2.34 4.59-.32 5.8-5.12t1.21-33.62q0-11.86-2.1-16.34a7.09 7.09 0 0 0-6.85-4.48q-8.22 0-13 8.7t-4.75 33.66q0 11.71 1.49 14.33t5.6 2.87q3.06.16 3.06 2.1 0 2.58-3.3 2.58a16.11 16.11 0 0 1-2.26-.27 129.67 129.67 0 0 0-14.35-.54 117.67 117.67 0 0 0-13.94.63q-1.94.18-2.9.18-2.66 0-2.66-2.34 0-2.18 3-2.34 4.84-.24 6-1.69t1.69-8.11q.56-6.66.56-25.06 0-14.36-.36-18a8 8 0 0 0-2.66-5.57 9.84 9.84 0 0 0-6.33-2q-3.31-.08-3.3-2.18t3.3-2.26q4.27-.24 12.65-1.09t14.51-.85q1 2.34 1 7.74-.07 1.32.01 4.7zm132.64 21.52q-.08 2.34-.08 3.39 0 11.45 5.6 19.38a17.58 17.58 0 0 0 15.11 7.94q9.75 0 19.18-8.46 1.94-1.69 2.74-1.69 2.09 0 2.1 2.26 0 1.77-4.84 6.37a31.27 31.27 0 0 1-11.85 6.93 45.58 45.58 0 0 1-14.51 2.34q-16.44 0-25.75-10a33.64 33.64 0 0 1-9.31-23.66q0-16.36 10.68-27.44t26.64-11.08q15 0 22.85 10.08t7.86 19.18q0 2.9-1.53 3.47t-9.91.56zm.48-5.88q11.93.16 13.78.16 9.11 0 11.16-1.29t2.06-5.24a19 19 0 0 0-3.79-11.69q-3.79-5.08-9-5.08-12.43 0-14.2 23.14zm85.42-12.5a40.69 40.69 0 0 1 11.89-11.61 26.13 26.13 0 0 1 13.74-3.87 20.87 20.87 0 0 1 11.2 3.14 16.43 16.43 0 0 1 6.89 7.5q1.81 4.35 1.81 12.33l-.72 32.16q0 6.61 1.21 8.79t5.08 2.82q3.22.57 3.22 2.58t-3.14 2.1q-2.66 0-11.69-.65-3.14-.16-5.08-.16t-10.64.81h-4q-3.31 0-3.3-2.18 0-1.77 3-2.34a10.16 10.16 0 0 0 4.35-1.86q1.61-1.29 2.14-12.67t.52-22.6q0-12.43-2-17t-7.54-4.6q-6.85 0-12.7 10t-5.84 30.83a59.8 59.8 0 0 0 .81 11.69q.8 3.63 2 4.55t5 1.57q2.25.4 2.26 2.34 0 2.26-3.3 2.26-1.61 0-3.55-.15-7.74-.66-8.38-.66a182.13 182.13 0 0 0-19 .81 15.5 15.5 0 0 1-1.93.16q-3 0-3-2.34 0-2 2.66-2.34 4.11-.48 5.56-2.26t2.14-11.1q.68-9.32.68-22.23 0-16.46-1.21-20.38t-5.8-5.69q-3.31-1.29-3.3-2.5 0-1.94 4.75-1.93a180.11 180.11 0 0 0 21.68-1 45.27 45.27 0 0 1 3.53 15.68zm95.19-14.34q4.92-.24 15.07-.24a29.73 29.73 0 0 1 7.58.81q-1.21 6-2.14 6.45t-20.51 1.53l-.89 35.55a58 58 0 0 0 .77 11.12 10.8 10.8 0 0 0 3.51 6 10.32 10.32 0 0 0 7.09 2.42q3.71 0 10.56-3.95a3.93 3.93 0 0 1 1.77-.56q1.53 0 1.53 1.61 0 2.34-6.53 6.37a28.57 28.57 0 0 1-15.31 4q-10.4 0-16.32-5.08t-5.92-21.44q0-18 .64-36a107 107 0 0 1-11.28-.4q-3.31-.4-3.3-2.34 0-1.61 3.79-2.58a35 35 0 0 0 13.42-6.13q5.93-4.43 10.12-14.1a35.64 35.64 0 0 1 2.3-4.8 2 2 0 0 1 1.73-.85q2.34 0 2.34 3.87zM2211.36 1301.6a31.1 31.1 0 0 1 9.27-7.43 22.8 22.8 0 0 1 10.4-2.48q11.28 0 21.48 10t10.2 25.51a35.49 35.49 0 0 1-10.13 25.27q-10.13 10.68-23.93 10.68a32.35 32.35 0 0 1-9.53-1.41 35.7 35.7 0 0 1-9-4.23q0 32.18 1.78 37.53t9.56 5.67q2.84.08 2.84 2.18t-3.79 2.18q-2.18 0-6.69-.22-9.43-.59-16.44-.59-4.76 0-11.53.56-3.31.24-4.19.24-4.19 0-4.19-2.1 0-1.93 4.51-2.34 7.33-.73 8.79-9t1.45-56.46l-.48-26.28q0-7.66-1.84-9.91t-5.84-2.66q-3-.32-3-2.26 0-2.34 3.46-2.34 14.23 0 26.85-.64l.16 8.12q-.01.47-.17 2.41zM2240 1330q0-14.65-4.31-22.74t-11.24-8.09q-7.09 0-10.68 8.61t-3.59 25.92q0 13.68 3.47 18.79t11 5.11q7.66 0 11.49-6.92T2240 1330zm62.26-37.34q.4 8.3.4 22.65 0 21.76.4 27.85t3.18 9.15a8.36 8.36 0 0 0 6.33 3.06 14.44 14.44 0 0 0 8.5-3.14 18.59 18.59 0 0 0 6.37-8.22q2.06-5.08 2.06-16.6l.16-17.81q0-7.09-.77-9.35t-5.2-2.42q-4.84-.24-4.84-2.5a1.61 1.61 0 0 1 1.17-1.73 29.47 29.47 0 0 1 6.17-.36q11.2 0 20.88-.56.32 3.14.32 34.42 0 25.15.48 27.45t5.24 2.7q2.82.32 2.82 2.34 0 2.34-3.22 2.34-.65 0-2-.08-2.26-.16-5.32-.16-10.72 0-11.85.08-1.29.08-2.18.08-1.53 0-1.89-.52a7.4 7.4 0 0 1-.36-3.1 64.46 64.46 0 0 1 .56-8.46 41 41 0 0 1-11.73 10.16 26.51 26.51 0 0 1-12.94 3.39q-20.55 0-20.55-23.05v-24.91q0-12.9-.93-15.11t-4.88-2.78q-3.55-.48-3.55-2.1 0-2.18 3.14-2.18 21.61-.04 24.03-.53zm93.74 4.19a35.72 35.72 0 0 1 9.19-4.07 36.33 36.33 0 0 1 9.83-1.33 30.51 30.51 0 0 1 23.21 10.1q9.43 10.1 9.43 25.16a36.92 36.92 0 0 1-4.63 18.4 37.59 37.59 0 0 1-12.78 13.45 34.17 34.17 0 0 1-18.78 5.19 36.85 36.85 0 0 1-12.65-2 69.78 69.78 0 0 1-13-6.81 3.52 3.52 0 0 0-1.61-.65q-1.69 0-2.5 3.14-1.53 5.4-3.39 5.4a1.67 1.67 0 0 1-1.81-1.21q-.36-1.21-.36-10.71l.64-58.47q0-30-.64-32.86t-6.13-3.38q-3.47-.32-3.47-2.34 0-2.18 3.14-2.18 1.77 0 7.66.4 4.43.24 7.74.24l8.06-.24q3 0 3 2.26l.08 3.87q-.02 33-.23 38.64zm14 .65a13.51 13.51 0 0 0-9 3.46q-4 3.46-5.08 16.46t-1 20.25q0 11.51 4.23 16.14a13.16 13.16 0 0 0 10 4.63q7.33 0 11.93-8.45t4.59-21.49q0-13-4.11-22t-11.56-9zm76.46-45.78l.24 67.63q.08 32.4 1.69 35.38t6.45 3.22q5.64.24 5.64 2.26 0 2.5-3.47 2.5-1 0-2.82-.16-7.82-.65-15.15-.65-11.93 0-17.65.63a26.74 26.74 0 0 1-2.9.18q-3.63 0-3.63-2.18t4.11-2.34q4.43-.24 6.49-1.61a5.62 5.62 0 0 0 2.5-3.83 87.56 87.56 0 0 0 .44-11.5l-.32-31.7.24-25.17q0-15.65-1.49-19t-8.83-4.56q-4.43-.64-4.43-2.58a1.64 1.64 0 0 1 1-1.65 20.45 20.45 0 0 1 5-.77 161 161 0 0 0 26.89-4.1zm52.85 39.28q.32 11.29.32 40.22l-.24 17.33q0 5.24 1.73 7t5.68 2.34q4.51.57 4.51 2.58 0 2.18-3.55 2.18-1.69 0-5.88-.24-8.87-.57-17.57-.56a86.2 86.2 0 0 0-8.71.45 33.14 33.14 0 0 1-3.63.36q-3.55 0-3.55-2.18t4.67-2.5q6.21-.56 6.93-4.15t.73-14.55q0-14.19-.44-26.08t-1.65-13.58q-1.21-1.69-6.29-2.26-3.95-.4-3.95-2.34t4-2.26l1.69-.16zm-1.13-27.24a11.63 11.63 0 1 1-3.43-8.22 11.17 11.17 0 0 1 3.43 8.27zm80.74 75.65a23.09 23.09 0 0 1-3 11.28 24 24 0 0 1-9.11 9.07 27.51 27.51 0 0 1-14.23 3.59q-10.16 0-17.17-4.19-3.06-1.77-3.95-1.77t-1.61 1.35q-1.29 3.17-3.06 3.17a1.56 1.56 0 0 1-1.49-.8q-.44-.8-.73-7.19t-.28-15.15q0-3.37 1.93-3.37t4.11 5q7.74 18.13 21.12 18.14a13 13 0 0 0 7.94-2.42 8.19 8.19 0 0 0 3.26-7 8.73 8.73 0 0 0-3-6.65q-3-2.78-11.57-7-12.9-6.37-17.65-11.12t-4.84-12.65a18.14 18.14 0 0 1 7-14.79q7-5.68 17.25-5.68a32.91 32.91 0 0 1 16.52 4.84 4 4 0 0 0 1.85.65q1 0 1.61-1.77.8-2.26 2.34-2.26a1.52 1.52 0 0 1 1.45.73q.4.73 1.13 7.54a110.47 110.47 0 0 1 .73 11.32q0 3.14-1.85 3.14t-3.95-4.51q-6.85-15-19.75-15a11.71 11.71 0 0 0-7.58 2.34q-2.9 2.34-2.9 5 0 3.39 3.71 6.21t14.43 7.82a116.28 116.28 0 0 1 12.78 6.49 18.9 18.9 0 0 1 6.09 6.61 17.83 17.83 0 0 1 2.47 9.03zm43.25-87.41q-.32 8.06-.32 13.86l.08 21.52q0 13.86.24 17a33.5 33.5 0 0 1 10.6-9.79 25.91 25.91 0 0 1 12.86-3.26 23.05 23.05 0 0 1 10.72 2.62 17.56 17.56 0 0 1 7.86 8.71q2.78 6.09 2.78 21.26l-.24 25.34q0 8.31 6.53 9 2.58.24 2.58 2.18 0 2.34-2.74 2.34a21.74 21.74 0 0 1-2.18-.16 160.38 160.38 0 0 0-16.68-.65q-1.86 0-6.69.48-3.39.32-5.88.32-3.31 0-3.3-2.18 0-1.85 3.71-2.42t4.76-4.6q1-4 1-24.46 0-18.65-1.89-24.38t-7.7-5.73q-4.84 0-9.51 4.87t-6.13 13.56a133 133 0 0 0-1.45 21.41 87.79 87.79 0 0 0 .64 11.39q.64 4.87 1.81 6.08a6.81 6.81 0 0 0 4 1.61q3.06.32 3.06 2.58 0 2.1-3.47 2.1-2.58 0-7.5-.44-4-.37-7.17-.37a101.51 101.51 0 0 0-11.85.64 64.1 64.1 0 0 1-7.17.32 2 2 0 0 1-2.34-2.26q0-1.85 3.3-2.34 4.11-.48 5.68-3.43t2.14-21.24q.56-18.3.56-55.94 0-11.53-1.77-15a9.78 9.78 0 0 0-6-4.8q-4-1.29-4-3 0-2.18 3.47-2.18 12.37.04 27.6-.56zm93.83 39q.32 11.29.32 40.22l-.24 17.33q0 5.24 1.73 7t5.68 2.34q4.51.57 4.51 2.58 0 2.18-3.55 2.18-1.69 0-5.88-.24-8.87-.57-17.57-.56a86.2 86.2 0 0 0-8.71.45 33.14 33.14 0 0 1-3.63.36q-3.55 0-3.55-2.18t4.67-2.5q6.21-.56 6.93-4.15t.72-14.55q0-14.19-.44-26.08t-1.65-13.58q-1.21-1.69-6.29-2.26-4-.4-4-2.34t4-2.26l1.69-.16zm-1.13-27.24a11.63 11.63 0 1 1-3.42-8.22 11.17 11.17 0 0 1 3.46 8.27zm51.77 43.01a40.67 40.67 0 0 1 11.89-11.61 26.13 26.13 0 0 1 13.74-3.87 20.87 20.87 0 0 1 11.2 3.14 16.43 16.43 0 0 1 6.89 7.5q1.81 4.35 1.81 12.33l-.73 32.16q0 6.61 1.21 8.79t5.08 2.82q3.22.57 3.22 2.58t-3.14 2.1q-2.66 0-11.69-.65-3.14-.16-5.08-.16t-10.64.81h-3.95q-3.31 0-3.3-2.18 0-1.77 3-2.34a10.16 10.16 0 0 0 4.35-1.86q1.61-1.29 2.14-12.67t.52-22.6q0-12.43-2-17t-7.54-4.6q-6.85 0-12.7 10t-5.84 30.83a59.8 59.8 0 0 0 .81 11.69q.8 3.63 2 4.55t5 1.57q2.26.4 2.26 2.34 0 2.26-3.3 2.26-1.61 0-3.55-.15-7.74-.66-8.38-.66a182.13 182.13 0 0 0-19 .81 15.5 15.5 0 0 1-1.93.16q-3 0-3-2.34 0-2 2.66-2.34 4.11-.48 5.56-2.26t2.14-11.1q.68-9.32.69-22.23 0-16.46-1.21-20.38t-5.8-5.69q-3.31-1.29-3.3-2.5 0-1.94 4.76-1.93a180.09 180.09 0 0 0 21.68-1 45.29 45.29 0 0 1 3.47 15.68zm123.05-8.3q9.51-8.38 16.6-8.38a11.14 11.14 0 0 1 7.78 2.74 8.29 8.29 0 0 1 3 6.29 8.19 8.19 0 0 1-2.1 5.44 7.12 7.12 0 0 1-5.72 2.46q-5.08 0-7.33-5.48-1.53-3.63-3-3.63-1.69 0-6.37 3.87a24.64 24.64 0 0 1 4.27 13.86 24 24 0 0 1-4.35 13.9 24.59 24.59 0 0 1-10.52 9q-6.17 2.66-17.53 3.71-9.75.89-11.85 3a6.7 6.7 0 0 0-2.18 4.84q0 3.22 4.43 4.19t24.1 1.53q30.31 1 30.31 19.91 0 12.9-11.32 21.4t-34.22 8.5q-17.25 0-24.91-5t-7.66-11.81q0-7.17 6.25-12.13t18.74-7.78q-9.51-1-14.27-4.15a9.91 9.91 0 0 1-4.76-8.66 12.53 12.53 0 0 1 4.43-9.74q4.43-3.94 13.22-6-9.19-2.82-13.82-8.23a20 20 0 0 1-4.63-13.47q0-11.69 9.35-19.64t23.05-7.94a35.14 35.14 0 0 1 11.77 1.85 25.34 25.34 0 0 1 9.24 5.55zm-42.69 88.17q0 5.48 5.44 9.59t15.35 4.11q12 0 19.95-5.48t7.94-13q0-6-6.37-8.91t-16.36-2.86q-11.85 0-18.9 4.72t-7.05 11.83zm8.62-71.29q0 10.42 3.51 16.11t8.34 5.69q5 0 7.5-4.89t2.5-14.66q0-10.34-3-16.23t-7.78-5.9q-4.84 0-7.94 5.33t-3.08 14.55zm145.25-63.35q-.32 8.06-.32 13.86l.08 21.52q0 13.86.24 17a33.5 33.5 0 0 1 10.6-9.79 25.91 25.91 0 0 1 12.86-3.26 23.06 23.06 0 0 1 10.72 2.62 17.56 17.56 0 0 1 7.86 8.71q2.78 6.09 2.78 21.26l-.24 25.34q0 8.31 6.53 9 2.58.24 2.58 2.18 0 2.34-2.74 2.34a21.74 21.74 0 0 1-2.18-.16 160.41 160.41 0 0 0-16.64-.62q-1.86 0-6.69.48-3.39.32-5.88.32-3.31 0-3.3-2.18 0-1.85 3.71-2.42t4.75-4.6q1-4 1-24.46 0-18.65-1.89-24.38t-7.7-5.76q-4.84 0-9.51 4.87t-6.13 13.56a133.09 133.09 0 0 0-1.45 21.41 87.79 87.79 0 0 0 .64 11.39q.64 4.87 1.81 6.08a6.82 6.82 0 0 0 4 1.61q3.06.32 3.06 2.58 0 2.1-3.47 2.1-2.58 0-7.5-.44-4-.37-7.17-.37a101.51 101.51 0 0 0-11.85.64 64.1 64.1 0 0 1-7.17.32 2 2 0 0 1-2.34-2.26q0-1.85 3.3-2.34 4.11-.48 5.68-3.43t2.14-21.24q.56-18.3.56-55.94 0-11.53-1.77-15a9.78 9.78 0 0 0-6-4.8q-4-1.29-4-3 0-2.18 3.47-2.18 12.34.04 27.57-.56zm142.13 73.47q0 14.83-11 26.36t-28 11.53q-15.64 0-26.28-9.67t-10.72-25.81q0-16.36 11.24-26.48t27.36-10.12q16.36 0 26.88 9.55t10.52 24.64zm-22.25 5.53a62.47 62.47 0 0 0-4.39-23.93q-4.39-10.69-12.61-10.69-7.25 0-11.2 7.47t-3.95 20.94q0 14.69 4.47 24.09t12.29 9.4q7.66 0 11.53-7.51t3.88-19.77zm61.91-38.34q.4 8.3.4 22.65 0 21.76.4 27.85t3.18 9.15a8.36 8.36 0 0 0 6.33 3.06 14.44 14.44 0 0 0 8.5-3.14 18.59 18.59 0 0 0 6.37-8.22q2.06-5.08 2.05-16.6l.16-17.81q0-7.09-.77-9.35t-5.2-2.42q-4.84-.24-4.84-2.5a1.61 1.61 0 0 1 1.17-1.73 29.47 29.47 0 0 1 6.17-.36q11.2 0 20.88-.56.32 3.14.32 34.42 0 25.15.48 27.45t5.24 2.7q2.82.32 2.82 2.34 0 2.34-3.22 2.34-.65 0-2-.08-2.26-.16-5.32-.16-10.72 0-11.85.08-1.29.08-2.18.08-1.53 0-1.89-.52a7.42 7.42 0 0 1-.36-3.1 64.46 64.46 0 0 1 .56-8.46 41 41 0 0 1-11.73 10.16 26.51 26.51 0 0 1-12.94 3.39q-20.55 0-20.55-23.05v-24.91q0-12.9-.93-15.11t-4.88-2.78q-3.55-.48-3.55-2.1 0-2.18 3.14-2.18 21.62-.04 24.04-.53zm122.89 46.75a23.08 23.08 0 0 1-3 11.28 24 24 0 0 1-9.11 9.07 27.51 27.51 0 0 1-14.23 3.59q-10.16 0-17.17-4.19-3.06-1.77-4-1.77t-1.61 1.35q-1.29 3.17-3.06 3.17a1.56 1.56 0 0 1-1.49-.8q-.44-.8-.73-7.19t-.28-15.15q0-3.37 1.93-3.37t4.11 5q7.74 18.13 21.12 18.14a13 13 0 0 0 7.94-2.42 8.19 8.19 0 0 0 3.26-7 8.73 8.73 0 0 0-3-6.65q-3-2.78-11.57-7-12.9-6.37-17.65-11.12t-4.84-12.65a18.14 18.14 0 0 1 7-14.79q7-5.68 17.25-5.68A32.92 32.92 0 0 1 3333 1296a4 4 0 0 0 1.85.65q1 0 1.61-1.77.8-2.26 2.34-2.26a1.52 1.52 0 0 1 1.45.73q.4.73 1.13 7.54a110.34 110.34 0 0 1 .73 11.32q0 3.14-1.85 3.14t-3.95-4.51q-6.85-15-19.75-15a11.71 11.71 0 0 0-7.58 2.34q-2.9 2.34-2.9 5 0 3.39 3.71 6.21t14.43 7.82a116.24 116.24 0 0 1 12.78 6.49 18.9 18.9 0 0 1 6.09 6.61 17.84 17.84 0 0 1 2.46 9.1zm37.53-14.27q-.08 2.34-.08 3.39 0 11.45 5.6 19.38a17.58 17.58 0 0 0 15.11 7.94q9.75 0 19.18-8.46 1.94-1.69 2.74-1.69 2.1 0 2.1 2.26 0 1.77-4.84 6.37a31.27 31.27 0 0 1-11.85 6.93 45.58 45.58 0 0 1-14.51 2.34q-16.44 0-25.75-10a33.64 33.64 0 0 1-9.31-23.66q0-16.36 10.68-27.44t26.64-11.08q15 0 22.85 10.08t7.86 19.18q0 2.9-1.53 3.47t-9.91.56zm.48-5.88q11.93.16 13.78.16 9.11 0 11.16-1.29t2.06-5.24a19 19 0 0 0-3.79-11.69q-3.79-5.08-9-5.08-12.43.01-14.21 23.14zM2213.7 945.87a44.24 44.24 0 0 1 11.74-9.39 25.76 25.76 0 0 1 12.06-3.1 26.76 26.76 0 0 1 9.2 1.77q4.84 1.77 10.57 8.3a43.46 43.46 0 0 1 11.92-7.62 32.5 32.5 0 0 1 12.56-2.54q11 0 16.19 6t5.07 17.92l-.4 27.28q0 11.54 1.12 13.28t6.08 2.46q2.8.48 2.8 2.18 0 2.5-3.3 2.5-.56 0-1.61-.09-6.76-.64-14.72-.63-4.34 0-10.46.45-3.78.27-4.34.27-4 0-4-2.26 0-2 2.66-2.34 4.59-.65 5.64-1.61t1.61-7.46q.56-6.5.56-21.91 0-14.12-.73-19.37t-3.3-8a8.42 8.42 0 0 0-6.45-2.78 12 12 0 0 0-7.05 2.62 34.61 34.61 0 0 0-7.37 7.94q-2.5 12.49-2.5 35.92 0 9.94 1.45 12t6.61 2.66q3.06.32 3.06 2.1 0 2.5-3.87 2.5-.89 0-6.21-.36-7.34-.45-10.4-.45-5.24 0-12.41.63-1.86.18-2.82.18-3.55 0-3.55-2.34 0-2.1 3.47-2.34 4.59-.32 5.8-5.12t1.21-33.62q0-11.86-2.1-16.34a7.09 7.09 0 0 0-6.85-4.48q-8.22 0-13 8.7T2212.9 983q0 11.71 1.49 14.33t5.6 2.87q3.06.16 3.06 2.1 0 2.58-3.3 2.58a16.12 16.12 0 0 1-2.26-.27 129.7 129.7 0 0 0-14.35-.54 117.66 117.66 0 0 0-13.94.63q-1.93.18-2.9.18-2.66 0-2.66-2.34 0-2.18 3-2.34 4.84-.24 6-1.69t1.69-8.11q.56-6.66.56-25.06 0-14.36-.36-18a8 8 0 0 0-2.66-5.57 9.84 9.84 0 0 0-6.33-2q-3.31-.08-3.3-2.18t3.3-2.26q4.27-.24 12.65-1.09t14.51-.85q1 2.34 1 7.74-.08 1.36 0 4.74zm187.05 21.85q0 14.83-11 26.36t-28 11.53q-15.64 0-26.28-9.67t-10.64-25.79q0-16.36 11.24-26.48t27.36-10.12q16.36 0 26.88 9.55t10.44 24.62zm-22.25 5.53a62.46 62.46 0 0 0-4.39-23.93q-4.39-10.69-12.61-10.69-7.25 0-11.2 7.47t-3.95 20.9q0 14.69 4.47 24.09t12.29 9.4q7.66 0 11.53-7.51t3.87-19.74zm63.9-34.15a35.72 35.72 0 0 1 9.19-4.07 36.33 36.33 0 0 1 9.83-1.33 30.51 30.51 0 0 1 23.21 10.1q9.43 10.1 9.43 25.16a36.92 36.92 0 0 1-4.63 18.4 37.59 37.59 0 0 1-12.78 13.45 34.17 34.17 0 0 1-18.78 5.19 36.85 36.85 0 0 1-12.65-2 69.79 69.79 0 0 1-13-6.81 3.52 3.52 0 0 0-1.61-.65q-1.69 0-2.5 3.14-1.53 5.4-3.39 5.4a1.67 1.67 0 0 1-1.81-1.21q-.36-1.21-.36-10.71l.64-58.47q0-30-.64-32.86t-6.13-3.38q-3.47-.32-3.47-2.34 0-2.18 3.14-2.18 1.77 0 7.66.4 4.43.24 7.74.24l8.06-.24q3 0 3 2.26l.08 3.87q.01 33-.23 38.64zm14 .65a13.51 13.51 0 0 0-9 3.46q-4 3.46-5.08 16.46t-1 20.25q0 11.51 4.23 16.14a13.16 13.16 0 0 0 10 4.63q7.33 0 11.93-8.45t4.59-21.49q0-13-4.11-22t-11.54-9zm81.24-6.45q.32 11.29.32 40.22l-.24 17.33q0 5.24 1.73 7t5.68 2.34q4.51.57 4.51 2.58 0 2.18-3.55 2.18-1.69 0-5.88-.24-8.87-.57-17.57-.56a86.2 86.2 0 0 0-8.71.45 33.12 33.12 0 0 1-3.63.36q-3.55 0-3.55-2.18t4.67-2.5q6.21-.56 6.93-4.15t.73-14.55q0-14.19-.44-26.08t-1.64-13.57q-1.21-1.69-6.29-2.26-3.95-.4-3.95-2.34t4-2.26l1.69-.16zm-1.13-27.24a11.63 11.63 0 1 1-3.43-8.22 11.17 11.17 0 0 1 3.43 8.22zM2589.2 894l.24 67.63q.08 32.4 1.69 35.38t6.45 3.22q5.64.24 5.64 2.26 0 2.5-3.47 2.5-1 0-2.82-.16-7.82-.65-15.15-.65-11.93 0-17.65.63a26.76 26.76 0 0 1-2.9.18q-3.63 0-3.63-2.18t4.11-2.34q4.43-.24 6.49-1.61a5.62 5.62 0 0 0 2.5-3.83 87.56 87.56 0 0 0 .44-11.5l-.32-31.7.24-25.17q0-15.65-1.49-19t-8.83-4.56q-4.43-.64-4.43-2.58a1.64 1.64 0 0 1 1-1.65 20.45 20.45 0 0 1 5-.77 161 161 0 0 0 26.89-4.1zm46.72 73.4q-.08 2.34-.08 3.39 0 11.45 5.6 19.38a17.58 17.58 0 0 0 15.11 7.94q9.75 0 19.18-8.46 1.93-1.69 2.74-1.69 2.1 0 2.1 2.26 0 1.77-4.84 6.37a31.27 31.27 0 0 1-11.85 6.93 45.58 45.58 0 0 1-14.51 2.34q-16.44 0-25.75-10a33.64 33.64 0 0 1-9.31-23.66q0-16.36 10.68-27.44t26.64-11.08q15 0 22.85 10.08t7.86 19.18q0 2.9-1.53 3.47t-9.91.56zm.48-5.88q11.93.16 13.78.16 9.11 0 11.16-1.29t2.06-5.24a19 19 0 0 0-3.79-11.69q-3.79-5.08-9-5.08-12.43 0-14.2 23.13zm142.86 34.97a38.45 38.45 0 0 1-10.08 7.13 24 24 0 0 1-10.24 2.38q-8.22 0-12.69-5a17.39 17.39 0 0 1-4.47-12.07 18.16 18.16 0 0 1 2.69-9.81 19.9 19.9 0 0 1 6.68-6.7 82.37 82.37 0 0 1 13.15-5.69 66.89 66.89 0 0 0 10.34-4.32 12.71 12.71 0 0 0 4.38-4.6 15.37 15.37 0 0 0 1.77-7.83 12.77 12.77 0 0 0-2.65-8.46 9 9 0 0 0-7.3-3.17q-4 0-5.7 2a15.38 15.38 0 0 0-2.57 6.66q-1.85 9.15-9.91 9.15a8.56 8.56 0 0 1-5.64-1.93 6.8 6.8 0 0 1-2.34-5.56q0-7.74 8.42-11.57t20.11-3.83q10.08 0 16.4 3.06t8.1 7.09q1.77 4 1.77 12.57l-.16 19.1q0 15.07 1 19.34t4.31 4.27q.48 0 1.29-.08 1.61-.16 2.18-.16 3.3 0 3.3 1.85a2.43 2.43 0 0 1-1.37 2.06q-1.37.85-8.26 2.14a68.39 68.39 0 0 1-12.45 1.29q-5.56 0-7.62-2.12t-2.44-7.19zm1-32.32q-1.93 2.34-9.27 6.22-6.69 3.56-8.95 6.3t-2.26 8.16q0 5.66 2.38 8.61a7.24 7.24 0 0 0 5.84 3q4.67 0 8.71-4.32t4-15.23q.08-3.4-.4-12.69zm67.74-20.31a31.1 31.1 0 0 1 9.27-7.43 22.8 22.8 0 0 1 10.4-2.48q11.28 0 21.48 10t10.2 25.51a35.49 35.49 0 0 1-10.13 25.27q-10.13 10.68-23.93 10.68a32.34 32.34 0 0 1-9.53-1.41 35.69 35.69 0 0 1-9-4.23q0 32.18 1.78 37.53t9.57 5.67q2.84.08 2.84 2.18t-3.79 2.18q-2.18 0-6.69-.22-9.43-.59-16.44-.59-4.76 0-11.53.56-3.3.24-4.19.24-4.19 0-4.19-2.1 0-1.93 4.51-2.34 7.33-.73 8.79-9t1.45-56.46l-.48-26.28q0-7.66-1.84-9.91t-5.84-2.66q-3-.32-3-2.26 0-2.34 3.46-2.34 14.23 0 26.85-.64l.16 8.12q-.03.46-.18 2.41zm28.61 28.41q0-14.65-4.31-22.74t-11.3-8.09q-7.09 0-10.68 8.61t-3.55 26q0 13.68 3.47 18.79t11 5.11q7.66 0 11.49-6.92t3.86-20.71zm63.08-28.41a31.11 31.11 0 0 1 9.27-7.43 22.8 22.8 0 0 1 10.4-2.48q11.28 0 21.48 10t10.2 25.51a35.49 35.49 0 0 1-10.13 25.27q-10.13 10.68-23.93 10.68a32.35 32.35 0 0 1-9.53-1.41 35.72 35.72 0 0 1-9-4.23q0 32.18 1.78 37.53t9.56 5.67q2.84.08 2.84 2.18t-3.79 2.18q-2.18 0-6.69-.22-9.43-.59-16.44-.59-4.76 0-11.53.56-3.31.24-4.19.24-4.19 0-4.19-2.1 0-1.93 4.51-2.34 7.33-.73 8.79-9t1.45-56.46l-.48-26.28q0-7.66-1.84-9.91t-5.84-2.66q-3-.32-3-2.26 0-2.34 3.46-2.34 14.23 0 26.85-.64l.16 8.12q-.01.46-.17 2.41zm28.61 28.41q0-14.65-4.31-22.74t-11.24-8.09q-7.09 0-10.68 8.61t-3.59 26q0 13.68 3.47 18.79t11 5.11q7.66 0 11.49-6.92t3.86-20.71zm65.42-78.27l.24 67.63q.08 32.4 1.69 35.38t6.45 3.22q5.64.24 5.64 2.26 0 2.5-3.47 2.5-1 0-2.82-.16-7.82-.65-15.15-.65-11.93 0-17.65.63a26.76 26.76 0 0 1-2.9.18q-3.63 0-3.63-2.18t4.11-2.34q4.43-.24 6.49-1.61a5.62 5.62 0 0 0 2.5-3.83 87.56 87.56 0 0 0 .44-11.5l-.32-31.7.24-25.17q0-15.65-1.49-19t-8.83-4.56q-4.43-.64-4.43-2.58a1.64 1.64 0 0 1 1-1.65 20.46 20.46 0 0 1 5-.77 161 161 0 0 0 26.89-4.1zm52.85 39.3q.32 11.29.32 40.22l-.24 17.33q0 5.24 1.73 7t5.68 2.34q4.51.57 4.51 2.58 0 2.18-3.55 2.18-1.69 0-5.88-.24-8.87-.57-17.57-.56a86.18 86.18 0 0 0-8.71.45 33.12 33.12 0 0 1-3.63.36q-3.55 0-3.55-2.18t4.67-2.5q6.21-.56 6.93-4.15t.73-14.55q0-14.19-.44-26.08t-1.65-13.58q-1.21-1.69-6.29-2.26-3.95-.4-3.95-2.34t4-2.26l1.69-.16zm-1.13-27.24a11.63 11.63 0 1 1-3.43-8.22 11.17 11.17 0 0 1 3.43 8.22zm25.85 64a36.09 36.09 0 0 1 10.4-26q10.4-10.8 26.12-10.8a33.34 33.34 0 0 1 18.18 5q7.86 5 7.86 11.73a8.39 8.39 0 0 1-2.38 6.33 8.29 8.29 0 0 1-6 2.3q-6.93 0-9.91-10-1.61-5.5-3.55-7.85a7.23 7.23 0 0 0-5.8-2.35q-6.61 0-10 6.62t-3.34 19.85q0 15.18 5.48 24.25t14.19 9.08q11.61 0 16.37-13.78 1.53-4.35 3.63-4.35 2.26 0 2.26 2.42 0 7-7.14 15.19t-21.33 8.18q-15.56 0-25.32-10.12t-9.72-25.7zm116.85 26.43a38.48 38.48 0 0 1-10.08 7.13 24 24 0 0 1-10.24 2.38q-8.22 0-12.7-5a17.39 17.39 0 0 1-4.47-12.07 18.16 18.16 0 0 1 2.69-9.81 19.9 19.9 0 0 1 6.68-6.7 82.43 82.43 0 0 1 13.15-5.69 66.94 66.94 0 0 0 10.34-4.32 12.71 12.71 0 0 0 4.38-4.6 15.38 15.38 0 0 0 1.77-7.83 12.77 12.77 0 0 0-2.65-8.46 9 9 0 0 0-7.3-3.17q-4 0-5.7 2a15.4 15.4 0 0 0-2.57 6.66q-1.86 9.15-9.91 9.15a8.56 8.56 0 0 1-5.64-1.93 6.81 6.81 0 0 1-2.34-5.56q0-7.74 8.42-11.57t20.11-3.83q10.08 0 16.4 3.06t8.1 7.09q1.77 4 1.77 12.57l-.16 19.1q0 15.07 1 19.34t4.31 4.27q.48 0 1.29-.08 1.61-.16 2.18-.16 3.3 0 3.3 1.85a2.43 2.43 0 0 1-1.37 2.06q-1.37.85-8.26 2.14a68.4 68.4 0 0 1-12.45 1.29q-5.56 0-7.62-2.12t-2.43-7.19zm1-32.32q-1.94 2.34-9.27 6.22-6.69 3.56-8.95 6.3t-2.26 8.16q0 5.66 2.38 8.61a7.24 7.24 0 0 0 5.84 3q4.67 0 8.71-4.32t4-15.23q.08-3.4-.41-12.69zm70.46-29.5q4.92-.24 15.07-.24a29.72 29.72 0 0 1 7.58.81q-1.21 6-2.14 6.45t-20.51 1.53l-.89 35.55a58 58 0 0 0 .77 11.12 10.8 10.8 0 0 0 3.51 6 10.32 10.32 0 0 0 7.09 2.42q3.71 0 10.56-4a3.94 3.94 0 0 1 1.77-.56q1.53 0 1.53 1.61 0 2.34-6.53 6.37a28.57 28.57 0 0 1-15.31 4q-10.4 0-16.32-5.08t-5.92-21.44q0-18 .64-36a107 107 0 0 1-11.28-.4q-3.31-.4-3.3-2.34 0-1.61 3.79-2.58a35 35 0 0 0 13.42-6.13q5.93-4.43 10.12-14.1a35.64 35.64 0 0 1 2.3-4.8 2 2 0 0 1 1.73-.85q2.34 0 2.34 3.87zm63.98-1.37q.32 11.29.32 40.22l-.24 17.33q0 5.24 1.73 7t5.68 2.34q4.51.57 4.51 2.58 0 2.18-3.55 2.18-1.69 0-5.88-.24-8.87-.57-17.57-.56a86.18 86.18 0 0 0-8.71.45 33.12 33.12 0 0 1-3.63.36q-3.55 0-3.55-2.18t4.67-2.5q6.21-.56 6.93-4.15t.73-14.55q0-14.19-.44-26.08t-1.65-13.58q-1.21-1.69-6.29-2.26-3.95-.4-3.95-2.34t4-2.26l1.69-.16zm-1.13-27.24a11.63 11.63 0 1 1-3.43-8.22 11.17 11.17 0 0 1 3.43 8.22zM3464 967.72q0 14.83-11 26.36t-28 11.53q-15.64 0-26.28-9.67t-10.72-25.8q0-16.36 11.24-26.48t27.36-10.12q16.36 0 26.88 9.55t10.52 24.63zm-22.25 5.53a62.47 62.47 0 0 0-4.39-23.93q-4.39-10.69-12.61-10.69-7.25 0-11.2 7.47t-3.91 20.9q0 14.69 4.47 24.09t12.29 9.4q7.66 0 11.53-7.51t3.87-19.74zm64.12-24.25a40.67 40.67 0 0 1 11.89-11.61 26.13 26.13 0 0 1 13.74-3.87 20.87 20.87 0 0 1 11.2 3.14 16.43 16.43 0 0 1 6.89 7.5q1.81 4.35 1.81 12.33l-.73 32.16q0 6.61 1.21 8.79t5.08 2.82q3.22.57 3.22 2.58T3557 1005q-2.66 0-11.69-.65-3.14-.16-5.08-.16t-10.64.81h-3.95q-3.31 0-3.3-2.18 0-1.77 3-2.34a10.16 10.16 0 0 0 4.35-1.86q1.61-1.29 2.14-12.67t.52-22.6q0-12.43-2-17t-7.54-4.6q-6.85 0-12.7 10t-5.84 30.83a59.8 59.8 0 0 0 .81 11.69q.8 3.63 2 4.55t5 1.57q2.26.4 2.26 2.34 0 2.26-3.3 2.26-1.61 0-3.55-.15-7.74-.66-8.38-.66a182.15 182.15 0 0 0-19 .81 15.5 15.5 0 0 1-1.93.16q-3 0-3-2.34 0-2 2.66-2.34 4.11-.48 5.56-2.26t2.14-11.1q.68-9.32.69-22.23 0-16.46-1.21-20.38t-5.8-5.69q-3.31-1.29-3.3-2.5 0-1.94 4.76-1.93a180.09 180.09 0 0 0 21.68-1 45.29 45.29 0 0 1 3.51 15.62zm120.71 32.66a23.08 23.08 0 0 1-3 11.28 24 24 0 0 1-9.11 9.07 27.51 27.51 0 0 1-14.23 3.59q-10.16 0-17.17-4.19-3.06-1.77-4-1.77t-1.61 1.35q-1.29 3.17-3.06 3.17a1.56 1.56 0 0 1-1.49-.8q-.44-.8-.72-7.19t-.28-15.15q0-3.37 1.93-3.37t4.11 5q7.74 18.13 21.12 18.14a13 13 0 0 0 7.94-2.42 8.19 8.19 0 0 0 3.26-7 8.73 8.73 0 0 0-3-6.65q-3-2.78-11.57-7-12.9-6.37-17.65-11.12t-4.84-12.65a18.14 18.14 0 0 1 7-14.79q7-5.68 17.25-5.68a32.92 32.92 0 0 1 16.54 4.82 4 4 0 0 0 1.85.65q1 0 1.61-1.77.8-2.26 2.34-2.26a1.52 1.52 0 0 1 1.45.73q.4.73 1.13 7.54a110.54 110.54 0 0 1 .72 11.32q0 3.14-1.85 3.14t-3.95-4.51q-6.85-15-19.75-15a11.71 11.71 0 0 0-7.58 2.34q-2.9 2.34-2.9 5 0 3.39 3.71 6.21t14.43 7.82A116.25 116.25 0 0 1 3618 966a18.89 18.89 0 0 1 6.09 6.61 17.83 17.83 0 0 1 2.49 9.05zM2211.39 767a44.24 44.24 0 0 1 11.74-9.39 25.76 25.76 0 0 1 12.06-3.1 26.76 26.76 0 0 1 9.2 1.77q4.84 1.77 10.57 8.3a43.46 43.46 0 0 1 11.92-7.62 32.5 32.5 0 0 1 12.56-2.54q11 0 16.19 6t5.07 17.92l-.4 27.28q0 11.54 1.12 13.28t6.08 2.46q2.8.48 2.8 2.18 0 2.5-3.3 2.5-.56 0-1.61-.09-6.76-.64-14.72-.63-4.34 0-10.46.45-3.78.27-4.34.27-4 0-4-2.26 0-2 2.66-2.34 4.59-.65 5.64-1.61t1.61-7.46q.56-6.5.56-21.91 0-14.12-.73-19.37t-3.3-8a8.42 8.42 0 0 0-6.45-2.78 12 12 0 0 0-7.05 2.62 34.61 34.61 0 0 0-7.37 7.94q-2.5 12.49-2.5 35.92 0 9.94 1.45 12t6.61 2.66q3.06.32 3.06 2.1 0 2.5-3.87 2.5-.89 0-6.21-.36-7.34-.45-10.4-.45-5.24 0-12.41.63-1.86.18-2.82.18-3.55 0-3.55-2.34 0-2.1 3.47-2.34 4.59-.32 5.8-5.12t1.21-33.62q0-11.86-2.1-16.34a7.09 7.09 0 0 0-6.85-4.48q-8.22 0-13 8.7t-4.76 33.66q0 11.71 1.49 14.33t5.6 2.87q3.06.16 3.06 2.1 0 2.58-3.3 2.58a16.12 16.12 0 0 1-2.26-.27 129.7 129.7 0 0 0-14.35-.54 117.66 117.66 0 0 0-13.94.63q-1.93.18-2.9.18-2.66 0-2.66-2.34 0-2.18 3-2.34 4.84-.24 6-1.69t1.69-8.11q.56-6.66.56-25.06 0-14.36-.36-18a8 8 0 0 0-2.66-5.57 9.84 9.84 0 0 0-6.33-2q-3.31-.08-3.3-2.18t3.3-2.26q4.27-.24 12.65-1.09t14.51-.85q1 2.34 1 7.74-.06 1.32.02 4.7zM2344 788.52q-.08 2.34-.08 3.39 0 11.45 5.6 19.38a17.58 17.58 0 0 0 15.11 7.94q9.75 0 19.18-8.46 1.93-1.69 2.74-1.69 2.1 0 2.1 2.26 0 1.77-4.84 6.37a31.27 31.27 0 0 1-11.85 6.93 45.58 45.58 0 0 1-14.51 2.34q-16.44 0-25.75-10a33.64 33.64 0 0 1-9.31-23.66q0-16.36 10.68-27.44t26.64-11.08q15 0 22.85 10.08t7.86 19.18q0 2.9-1.53 3.47t-9.89.47zm.48-5.88q11.93.16 13.78.16 9.11 0 11.16-1.29t2.06-5.24a19 19 0 0 0-3.79-11.69q-3.79-5.08-9-5.08-12.41 0-14.18 23.14zm110.6-20.48q0-23.29-.24-31.07t-1.29-9.11q-1-1.33-5.72-2.14-3.14-.48-3.14-2.26a1.61 1.61 0 0 1 1.09-1.73 35.83 35.83 0 0 1 7-.36H2474l-.16 57.23-.4 35.55q0 8.22 1.41 10.4t6.49 2.82q3 .32 3 2.26 0 2.1-3.14 2.1h-26.12v-11a24.58 24.58 0 0 1-8.46 9.27 21.77 21.77 0 0 1-11.61 3.06q-12.33 0-21.64-9.58t-9.37-24.77q0-16.58 10.64-27.25t23.7-10.67a22.41 22.41 0 0 1 9.07 1.81 23.61 23.61 0 0 1 7.67 5.44zm-29.26 28.33q0 15.38 4.07 22.5t10.36 7.12q6 0 10.36-6.8t4.31-24.59q0-14.49-3.63-21.73t-11-7.25q-7.25 0-10.88 7.69t-3.59 23.06zm99.18-36.06q.32 11.29.32 40.22l-.24 17.33q0 5.24 1.73 7t5.68 2.34q4.51.57 4.51 2.58 0 2.18-3.55 2.18-1.69 0-5.88-.24-8.87-.57-17.57-.56a86.2 86.2 0 0 0-8.71.45 33.12 33.12 0 0 1-3.63.36q-3.55 0-3.55-2.18t4.67-2.5q6.21-.56 6.93-4.15t.73-14.55q0-14.19-.44-26.08t-1.65-13.58q-1.21-1.69-6.29-2.26-3.95-.4-3.95-2.34t4-2.26l1.69-.16zm-1.13-27.24a11.63 11.63 0 1 1-3.43-8.22 11.17 11.17 0 0 1 3.44 8.21zm63.02 90.43a38.46 38.46 0 0 1-10.08 7.13 24 24 0 0 1-10.24 2.38q-8.22 0-12.69-5a17.39 17.39 0 0 1-4.47-12.07 18.16 18.16 0 0 1 2.69-9.81 19.9 19.9 0 0 1 6.68-6.7 82.39 82.39 0 0 1 13.15-5.69 66.9 66.9 0 0 0 10.34-4.32 12.71 12.71 0 0 0 4.38-4.6 15.38 15.38 0 0 0 1.77-7.83 12.77 12.77 0 0 0-2.65-8.46 9 9 0 0 0-7.3-3.17q-4 0-5.7 2a15.39 15.39 0 0 0-2.57 6.66q-1.86 9.15-9.91 9.15a8.56 8.56 0 0 1-5.64-1.93 6.81 6.81 0 0 1-2.34-5.56q0-7.74 8.42-11.57t20.11-3.83q10.08 0 16.4 3.06t8.1 7.09q1.77 4 1.77 12.57l-.16 19.1q0 15.07 1 19.34t4.31 4.27q.48 0 1.29-.08 1.61-.16 2.18-.16 3.3 0 3.3 1.85a2.43 2.43 0 0 1-1.37 2.06q-1.37.85-8.26 2.14A68.39 68.39 0 0 1 2597 827q-5.56 0-7.62-2.12t-2.49-7.26zm1-32.32q-1.93 2.34-9.27 6.22-6.69 3.56-8.95 6.3t-2.26 8.16q0 5.66 2.38 8.61a7.24 7.24 0 0 0 5.84 3q4.67 0 8.71-4.32t4-15.23q.08-3.4-.4-12.69zm-376.53-199.19a31.1 31.1 0 0 1 9.27-7.43 22.8 22.8 0 0 1 10.4-2.48q11.28 0 21.48 10t10.2 25.51a35.49 35.49 0 0 1-10.13 25.29q-10.13 10.68-23.93 10.68a32.35 32.35 0 0 1-9.53-1.41 35.7 35.7 0 0 1-9-4.23q0 32.18 1.78 37.53t9.56 5.67q2.84.08 2.84 2.18t-3.79 2.18q-2.18 0-6.69-.22-9.43-.59-16.44-.59-4.76 0-11.53.56-3.31.24-4.19.24-4.19 0-4.19-2.1 0-1.93 4.51-2.34 7.33-.73 8.79-9t1.45-56.46l-.48-26.28q0-7.66-1.84-9.91t-5.84-2.66q-3-.32-3-2.26 0-2.34 3.46-2.34 14.23 0 26.85-.64l.16 8.12q-.01.44-.17 2.39zm28.64 28.41q0-14.65-4.31-22.74t-11.24-8.09q-7.09 0-10.68 8.61t-3.59 25.92q0 13.68 3.47 18.79t11 5.11q7.66 0 11.49-6.92t3.86-20.68zm63.14-22.69q4-8.14 9.27-12.17a18.7 18.7 0 0 1 11.69-4q6.12 0 9.79 3.55a11.83 11.83 0 0 1 3.67 8.87 10.35 10.35 0 0 1-2.62 7.13 8.26 8.26 0 0 1-6.41 2.94 7.35 7.35 0 0 1-4.67-1.45 17.61 17.61 0 0 1-3.95-5.16q-2.9-5.32-5.08-5.32-3 0-6.77 6t-3.79 23.42q0 22 1.49 24.43t6.57 2.45q4.43 0 4.43 2.42 0 2.26-4.35 2.26-2.42 0-7-.44-4.19-.37-7.9-.37-8 0-15.8.56-3.31.24-3.87.24-3.39 0-3.39-2.54 0-2.21 3.95-2.38t5.4-1.81q1.53-1.65 1.53-7.2l.32-20.12q0-6.12-.48-15.21a100.37 100.37 0 0 0-.89-10.83 5.72 5.72 0 0 0-2.06-3.1 7.91 7.91 0 0 0-4.47-1.61 11.72 11.72 0 0 1-3.67-.77 1.92 1.92 0 0 1-.77-1.81q0-2.18 4-2.26 7.42-.08 25.23-1.93zM2420.55 610q0 14.83-11 26.36t-28 11.53q-15.64 0-26.28-9.67t-10.64-25.79q0-16.36 11.24-26.48t27.36-10.12q16.36 0 26.88 9.55t10.44 24.62zm-22.25 5.53a62.46 62.46 0 0 0-4.39-23.93q-4.39-10.69-12.61-10.69-7.25 0-11.2 7.47t-3.95 20.94q0 14.69 4.47 24.09t12.29 9.4q7.66 0 11.53-7.51t3.87-19.8zm89.21-32.24q0-23.29-.24-31.07t-1.29-9.11q-1-1.33-5.72-2.14-3.14-.48-3.14-2.26a1.61 1.61 0 0 1 1.09-1.73 35.83 35.83 0 0 1 7-.36h21.28l-.16 57.23-.4 35.55q0 8.22 1.41 10.4t6.49 2.82q3 .32 3 2.26 0 2.1-3.14 2.1h-26.18V636a24.58 24.58 0 0 1-8.46 9.27 21.77 21.77 0 0 1-11.61 3.06q-12.33 0-21.64-9.58t-9.31-24.75q0-16.58 10.64-27.25t23.7-10.67a22.41 22.41 0 0 1 9.07 1.81 23.61 23.61 0 0 1 7.61 5.4zm-29.26 28.33q0 15.38 4.07 22.5t10.36 7.12q6 0 10.36-6.8t4.31-24.59q0-14.49-3.63-21.73t-11-7.25q-7.25 0-10.88 7.69t-3.59 23.06zm95.41-34.45q.4 8.3.4 22.65 0 21.76.4 27.85t3.18 9.15a8.36 8.36 0 0 0 6.33 3.06 14.44 14.44 0 0 0 8.5-3.14 18.59 18.59 0 0 0 6.37-8.22q2.06-5.08 2.06-16.6l.16-17.81q0-7.09-.77-9.35t-5.2-2.42q-4.84-.24-4.84-2.5a1.61 1.61 0 0 1 1.17-1.73 29.47 29.47 0 0 1 6.17-.36q11.2 0 20.88-.56.32 3.14.32 34.42 0 25.15.48 27.45t5.24 2.7q2.82.32 2.82 2.34 0 2.34-3.22 2.34-.65 0-2-.08-2.26-.16-5.32-.16-10.72 0-11.85.08-1.29.08-2.18.08-1.53 0-1.89-.52a7.4 7.4 0 0 1-.36-3.1 64.46 64.46 0 0 1 .56-8.46 41 41 0 0 1-11.73 10.16 26.51 26.51 0 0 1-12.94 3.39q-20.55 0-20.55-23v-25q0-12.9-.93-15.11t-4.88-2.78q-3.55-.48-3.55-2.1 0-2.18 3.14-2.18 21.61-.01 24.03-.49zm68 35.14a36.09 36.09 0 0 1 10.4-26q10.4-10.8 26.11-10.8a33.34 33.34 0 0 1 18.18 5q7.86 5 7.86 11.73a8.39 8.39 0 0 1-2.38 6.33 8.29 8.29 0 0 1-6 2.3q-6.93 0-9.91-10-1.61-5.5-3.55-7.85a7.23 7.23 0 0 0-5.8-2.35q-6.61 0-10 6.62t-3.34 19.85q0 15.18 5.48 24.25t14.19 9.08q11.61 0 16.37-13.78 1.53-4.35 3.63-4.35 2.26 0 2.26 2.42 0 7-7.14 15.19t-21.33 8.18q-15.56 0-25.32-10.12t-9.71-25.7zm109.11-35.39q4.91-.24 15.07-.24a29.72 29.72 0 0 1 7.58.81q-1.21 6-2.14 6.45t-20.51 1.53l-.89 35.55a57.87 57.87 0 0 0 .77 11.12 10.8 10.8 0 0 0 3.51 6 10.32 10.32 0 0 0 7.09 2.42q3.71 0 10.56-4a3.93 3.93 0 0 1 1.77-.56q1.53 0 1.53 1.61 0 2.34-6.53 6.37a28.57 28.57 0 0 1-15.31 4q-10.4 0-16.32-5.08t-5.95-21.4q0-18 .65-36a107 107 0 0 1-11.28-.4q-3.31-.4-3.3-2.34 0-1.61 3.79-2.58a35 35 0 0 0 13.42-6.13q5.92-4.43 10.12-14.1a35.72 35.72 0 0 1 2.3-4.8 2 2 0 0 1 1.73-.85q2.34 0 2.34 3.87zm63.97-1.37q.32 11.29.32 40.22l-.24 17.33q0 5.24 1.73 7t5.68 2.34q4.51.57 4.51 2.58 0 2.18-3.55 2.18-1.69 0-5.88-.24-8.87-.57-17.57-.56a86.18 86.18 0 0 0-8.71.45 33.12 33.12 0 0 1-3.63.36q-3.55 0-3.55-2.18t4.67-2.5q6.21-.56 6.93-4.15t.73-14.55q0-14.19-.44-26.08t-1.65-13.58q-1.21-1.69-6.29-2.26-3.95-.4-3.95-2.34t4-2.26l1.69-.16zm-1.13-27.24a11.63 11.63 0 1 1-3.43-8.22 11.17 11.17 0 0 1 3.43 8.22zM2895.22 610q0 14.83-11 26.36t-28 11.53q-15.64 0-26.28-9.67t-10.64-25.79q0-16.36 11.24-26.48t27.36-10.12q16.36 0 26.88 9.55t10.44 24.62zm-22.22 5.5a62.47 62.47 0 0 0-4.39-23.93q-4.39-10.69-12.61-10.69-7.25 0-11.2 7.47t-3.95 20.94q0 14.69 4.47 24.09t12.29 9.4q7.66 0 11.53-7.51t3.86-19.77zm64-24.23a40.67 40.67 0 0 1 11.89-11.61 26.13 26.13 0 0 1 13.74-3.87 20.87 20.87 0 0 1 11.2 3.14 16.43 16.43 0 0 1 6.89 7.5q1.81 4.35 1.81 12.33l-.73 32.16q0 6.61 1.21 8.79t5.08 2.82q3.22.57 3.22 2.58t-3.14 2.1q-2.66 0-11.69-.65-3.14-.16-5.08-.16t-10.64.81h-3.95q-3.31 0-3.3-2.18 0-1.77 3-2.34a10.16 10.16 0 0 0 4.35-1.86q1.61-1.29 2.14-12.67t.52-22.6q0-12.43-2-17T2954 584q-6.85 0-12.7 10t-5.84 30.83a59.8 59.8 0 0 0 .81 11.69q.8 3.63 2 4.55t5 1.57q2.26.4 2.26 2.34 0 2.26-3.3 2.26-1.61 0-3.55-.15-7.74-.66-8.38-.66a182.15 182.15 0 0 0-19 .81 15.5 15.5 0 0 1-1.93.16q-3 0-3-2.34 0-2 2.66-2.34 4.11-.48 5.56-2.26t2.14-11.1q.68-9.32.69-22.23 0-16.46-1.21-20.38t-5.8-5.69q-3.31-1.29-3.3-2.5 0-1.94 4.76-1.93a180.09 180.09 0 0 0 21.68-1 45.29 45.29 0 0 1 3.45 15.64zm-725-194.59q.32 11.29.32 40.22l-.24 17.33q0 5.24 1.73 7t5.68 2.34q4.51.57 4.51 2.58 0 2.18-3.55 2.18-1.69 0-5.88-.24-8.87-.57-17.57-.56a86.19 86.19 0 0 0-8.71.45 33.14 33.14 0 0 1-3.63.36q-3.55 0-3.55-2.18t4.67-2.5q6.21-.56 6.93-4.15t.73-14.55q0-14.19-.44-26.08t-1.65-13.58q-1.21-1.69-6.29-2.26-3.95-.4-3.95-2.34t4-2.26l1.69-.16zm-1.13-27.24a11.63 11.63 0 1 1-3.43-8.22 11.17 11.17 0 0 1 3.46 8.22zm51.76 42.96a40.67 40.67 0 0 1 11.89-11.61 26.13 26.13 0 0 1 13.74-3.87 20.87 20.87 0 0 1 11.2 3.14 16.43 16.43 0 0 1 6.89 7.5q1.81 4.35 1.81 12.33l-.73 32.16q0 6.61 1.21 8.79t5.08 2.82q3.22.57 3.22 2.58t-3.14 2.1q-2.66 0-11.69-.65-3.14-.16-5.08-.16t-10.64.81h-3.95q-3.31 0-3.3-2.18 0-1.77 3-2.34a10.16 10.16 0 0 0 4.35-1.86q1.61-1.29 2.14-12.67t.52-22.6q0-12.43-2-17t-7.54-4.6q-6.85 0-12.69 10t-5.84 30.83a59.84 59.84 0 0 0 .81 11.69q.8 3.63 2 4.55t5 1.57q2.26.4 2.26 2.34 0 2.26-3.3 2.26-1.61 0-3.55-.15-7.74-.66-8.38-.66a182.15 182.15 0 0 0-19 .81 15.49 15.49 0 0 1-1.93.16q-3 0-3-2.34 0-2 2.66-2.34 4.11-.48 5.56-2.26t2.14-11.1q.68-9.32.69-22.23 0-16.46-1.21-20.38t-5.8-5.69q-3.31-1.29-3.3-2.5 0-1.94 4.76-1.93a180.09 180.09 0 0 0 21.68-1 45.27 45.27 0 0 1 3.46 15.68zm116.84-7.98q0-23.29-.24-31.07t-1.29-9.11q-1-1.33-5.72-2.14-3.14-.48-3.14-2.26a1.61 1.61 0 0 1 1.09-1.73 35.83 35.83 0 0 1 7-.36h21.28l-.16 57.23-.4 35.55q0 8.22 1.41 10.4t6.49 2.82q3 .32 3 2.26 0 2.1-3.14 2.1h-26.12v-11a24.58 24.58 0 0 1-8.46 9.27 21.77 21.77 0 0 1-11.61 3.06q-12.33 0-21.64-9.58t-9.31-24.72q0-16.58 10.64-27.25t23.7-10.67a22.41 22.41 0 0 1 9.07 1.81 23.61 23.61 0 0 1 7.55 5.39zm-29.26 28.33q0 15.38 4.07 22.5t10.36 7.12q6 0 10.36-6.8t4.31-24.57q0-14.49-3.63-21.73t-11-7.25q-7.25 0-10.88 7.69t-3.58 23zm93.07-1.98q-.08 2.34-.08 3.39 0 11.45 5.6 19.38a17.58 17.58 0 0 0 15.11 7.94q9.75 0 19.18-8.46 1.93-1.69 2.74-1.69 2.1 0 2.1 2.26 0 1.77-4.84 6.37a31.27 31.27 0 0 1-11.85 6.93 45.58 45.58 0 0 1-14.51 2.34q-16.44 0-25.75-10a33.64 33.64 0 0 1-9.31-23.66q0-16.36 10.68-27.44T2459 397q15 0 22.85 10.08t7.86 19.18q0 2.9-1.53 3.47t-9.91.56zm.48-5.88q11.93.16 13.78.16 9.11 0 11.16-1.29t2.06-5.24a19 19 0 0 0-3.79-11.69q-3.79-5.08-9-5.08-12.43 0-14.2 23.14zM2558.2 445a23.09 23.09 0 0 1-3 11.28 24 24 0 0 1-9.11 9.07 27.51 27.51 0 0 1-14.23 3.59q-10.16 0-17.17-4.19-3.06-1.77-3.95-1.77t-1.61 1.35q-1.29 3.17-3.06 3.17a1.56 1.56 0 0 1-1.49-.8q-.44-.8-.73-7.19t-.28-15.15q0-3.37 1.93-3.37t4.11 5q7.74 18.13 21.12 18.14a13 13 0 0 0 7.94-2.42 8.19 8.19 0 0 0 3.26-7 8.73 8.73 0 0 0-3-6.65q-3-2.78-11.57-7-12.9-6.37-17.65-11.12t-4.84-12.65a18.14 18.14 0 0 1 7-14.79q7-5.68 17.25-5.68a32.91 32.91 0 0 1 16.52 4.84 4 4 0 0 0 1.85.65q1 0 1.61-1.77.8-2.26 2.34-2.26a1.52 1.52 0 0 1 1.45.73q.4.73 1.13 7.54a110.48 110.48 0 0 1 .73 11.32q0 3.14-1.85 3.14t-3.9-4.51q-6.85-15-19.75-15a11.71 11.71 0 0 0-7.58 2.34q-2.9 2.34-2.9 5 0 3.39 3.71 6.21t14.43 7.82a116.29 116.29 0 0 1 12.78 6.49 18.9 18.9 0 0 1 6.09 6.61 17.83 17.83 0 0 1 2.42 9.03zm43.66-48.32q.32 11.29.32 40.22l-.24 17.33q0 5.24 1.73 7t5.68 2.34q4.51.57 4.51 2.58 0 2.18-3.55 2.18-1.69 0-5.88-.24-8.87-.57-17.57-.56a86.19 86.19 0 0 0-8.71.45 33.14 33.14 0 0 1-3.63.36q-3.55 0-3.55-2.18t4.67-2.5q6.21-.56 6.93-4.15t.73-14.55q0-14.19-.44-26.08t-1.65-13.58q-1.21-1.69-6.29-2.26-3.95-.4-3.95-2.34t4-2.26l1.69-.16zm-1.13-27.24a11.63 11.63 0 1 1-3.43-8.22 11.17 11.17 0 0 1 3.43 8.22zm83.07 34.65q9.51-8.38 16.6-8.38a11.14 11.14 0 0 1 7.78 2.74 8.29 8.29 0 0 1 3 6.29 8.19 8.19 0 0 1-2.1 5.44 7.12 7.12 0 0 1-5.72 2.46q-5.08 0-7.33-5.48-1.53-3.63-3-3.63-1.69 0-6.37 3.87a24.64 24.64 0 0 1 4.27 13.86 24 24 0 0 1-4.35 13.9 24.59 24.59 0 0 1-10.52 9q-6.17 2.66-17.53 3.71-9.75.89-11.85 3a6.7 6.7 0 0 0-2.18 4.84q0 3.22 4.43 4.19t24.1 1.53q30.31 1 30.31 19.91 0 12.9-11.32 21.4t-34.22 8.5q-17.25 0-24.91-5t-7.66-11.81q0-7.17 6.25-12.13t18.74-7.78q-9.51-1-14.27-4.15a9.91 9.91 0 0 1-4.76-8.66 12.53 12.53 0 0 1 4.43-9.74q4.43-3.94 13.22-6-9.19-2.82-13.82-8.23a20 20 0 0 1-4.63-13.47q0-11.69 9.35-19.64t23.05-7.94a35.14 35.14 0 0 1 11.77 1.85 25.33 25.33 0 0 1 9.24 5.55zm-42.64 88.18q0 5.48 5.44 9.59T2662 506q12 0 19.95-5.48t7.94-13q0-6-6.37-8.91t-16.36-2.86q-11.85 0-18.9 4.72t-7.05 11.83zm8.62-71.29q0 10.42 3.51 16.11t8.34 5.69q5 0 7.5-4.89t2.5-14.66q0-10.34-3-16.23t-7.78-5.9q-4.84 0-7.94 5.33t-3.12 14.57zm97.83-8.58a40.68 40.68 0 0 1 11.89-11.61 26.13 26.13 0 0 1 13.74-3.87 20.87 20.87 0 0 1 11.2 3.14 16.43 16.43 0 0 1 6.89 7.5q1.81 4.35 1.81 12.33l-.73 32.16q0 6.61 1.21 8.79t5.08 2.82q3.22.57 3.22 2.58t-3.14 2.1q-2.66 0-11.69-.65-3.14-.16-5.08-.16t-10.64.81h-3.95q-3.31 0-3.3-2.18 0-1.77 3-2.34a10.16 10.16 0 0 0 4.35-1.86q1.61-1.29 2.14-12.67t.52-22.6q0-12.43-2-17t-7.54-4.6q-6.85 0-12.69 10t-5.84 30.83a59.88 59.88 0 0 0 .81 11.69q.81 3.63 2 4.55t5 1.57q2.26.4 2.26 2.34 0 2.26-3.3 2.26-1.61 0-3.55-.15-7.74-.66-8.38-.66a182.16 182.16 0 0 0-19 .81 15.49 15.49 0 0 1-1.93.16q-3 0-3-2.34 0-2 2.66-2.34 4.11-.48 5.56-2.26t2.14-11.1q.68-9.32.68-22.23 0-16.46-1.21-20.38t-5.8-5.69q-3.31-1.29-3.3-2.5 0-1.94 4.75-1.93a180.08 180.08 0 0 0 21.68-1 45.24 45.24 0 0 1 3.48 15.68zm-536.25-184.04a31.1 31.1 0 0 1 9.27-7.43 22.8 22.8 0 0 1 10.4-2.48q11.28 0 21.48 10t10.2 25.51a35.49 35.49 0 0 1-10.13 25.27q-10.13 10.68-23.93 10.68a32.35 32.35 0 0 1-9.53-1.41 35.7 35.7 0 0 1-9-4.23q0 32.18 1.78 37.53t9.56 5.67q2.84.08 2.84 2.18t-3.79 2.18q-2.18 0-6.69-.22-9.43-.59-16.44-.59-4.76 0-11.53.56-3.31.24-4.19.24-4.19 0-4.19-2.1 0-1.93 4.51-2.34 7.33-.73 8.79-9t1.45-56.46l-.48-26.28q0-7.66-1.84-9.91t-5.84-2.66q-3-.32-3-2.26 0-2.34 3.46-2.34 14.23 0 26.85-.64l.16 8.12q-.01.46-.17 2.41zm28.64 28.41q0-14.65-4.31-22.74t-11.24-8.09q-7.09 0-10.68 8.61t-3.59 25.92q0 13.68 3.47 18.79t11 5.11q7.66 0 11.49-6.92t3.86-20.68zm63.14-22.68q4-8.14 9.27-12.17a18.7 18.7 0 0 1 11.69-4q6.12 0 9.79 3.55a11.83 11.83 0 0 1 3.67 8.87 10.35 10.35 0 0 1-2.62 7.13 8.26 8.26 0 0 1-6.41 2.94 7.35 7.35 0 0 1-4.67-1.45 17.61 17.61 0 0 1-3.95-5.16q-2.9-5.32-5.08-5.32-3 0-6.77 6t-3.79 23.42q0 22 1.49 24.43t6.57 2.45q4.43 0 4.43 2.42 0 2.26-4.35 2.26-2.42 0-7-.44-4.19-.37-7.9-.37-8 0-15.8.56-3.31.24-3.87.24-3.39 0-3.39-2.54 0-2.21 3.95-2.38t5.4-1.81q1.53-1.65 1.53-7.2l.32-20.12q0-6.12-.48-15.21a100.37 100.37 0 0 0-.89-10.83 5.72 5.72 0 0 0-2.06-3.1 7.91 7.91 0 0 0-4.47-1.61 11.72 11.72 0 0 1-3.67-.77 1.92 1.92 0 0 1-.77-1.81q0-2.18 4-2.26 7.42-.08 25.23-1.93zm72.28-16.29q.32 11.29.32 40.22l-.24 17.33q0 5.24 1.73 7t5.68 2.34q4.51.57 4.51 2.58 0 2.18-3.55 2.18-1.69 0-5.88-.24-8.87-.57-17.57-.56a86.19 86.19 0 0 0-8.71.45 33.14 33.14 0 0 1-3.63.36q-3.55 0-3.55-2.18t4.67-2.5q6.21-.56 6.93-4.15t.73-14.55q0-14.19-.44-26.08t-1.65-13.58q-1.21-1.69-6.29-2.26-3.95-.4-3.95-2.34t4-2.26l1.69-.16zm-1.13-27.24a11.63 11.63 0 1 1-3.43-8.22 11.17 11.17 0 0 1 3.43 8.22zm51.71 42.96a40.67 40.67 0 0 1 11.89-11.61 26.13 26.13 0 0 1 13.74-3.87 20.87 20.87 0 0 1 11.2 3.14 16.43 16.43 0 0 1 6.89 7.5q1.81 4.35 1.81 12.33l-.73 32.16q0 6.61 1.21 8.79t5.08 2.82q3.22.57 3.22 2.58t-3.14 2.1q-2.66 0-11.69-.65-3.14-.16-5.08-.16t-10.64.81h-3.95q-3.31 0-3.3-2.18 0-1.77 3-2.34a10.16 10.16 0 0 0 4.35-1.86q1.61-1.29 2.14-12.67t.52-22.6q0-12.43-2-17t-7.54-4.6q-6.85 0-12.69 10t-5.83 30.79a59.84 59.84 0 0 0 .81 11.69q.8 3.63 2 4.55t5 1.57q2.26.4 2.26 2.34 0 2.26-3.3 2.26-1.61 0-3.55-.15-7.74-.66-8.38-.66a182.15 182.15 0 0 0-19 .81 15.49 15.49 0 0 1-1.93.16q-3 0-3-2.34 0-2 2.66-2.34 4.11-.48 5.56-2.26t2.14-11.1q.68-9.32.69-22.23 0-16.46-1.21-20.38t-5.8-5.69q-3.31-1.29-3.3-2.5 0-1.94 4.76-1.93a180.09 180.09 0 0 0 21.68-1 45.27 45.27 0 0 1 3.45 15.72zm95.25-14.35q4.92-.24 15.07-.24a29.72 29.72 0 0 1 7.58.81q-1.21 6-2.14 6.45t-20.51 1.53l-.89 35.55a57.91 57.91 0 0 0 .77 11.12 10.8 10.8 0 0 0 3.51 6 10.32 10.32 0 0 0 7.09 2.42q3.71 0 10.56-4a3.93 3.93 0 0 1 1.77-.56q1.53 0 1.53 1.61 0 2.34-6.53 6.37a28.57 28.57 0 0 1-15.31 4q-10.4 0-16.32-5.08t-5.92-21.44q0-18.05.65-36a107 107 0 0 1-11.28-.4q-3.31-.4-3.3-2.34 0-1.61 3.79-2.58a35 35 0 0 0 13.42-6.13q5.92-4.43 10.12-14.1a35.68 35.68 0 0 1 2.3-4.8 2 2 0 0 1 1.73-.85q2.34 0 2.34 3.87zM2260.32 73.35q0 14.83-11 26.36t-28 11.53q-15.64 0-26.28-9.67t-10.73-25.8q0-16.36 11.24-26.48t27.36-10.12q16.36 0 26.88 9.55t10.53 24.63zm-22.25 5.53a62.46 62.46 0 0 0-4.39-23.93q-4.39-10.69-12.61-10.69-7.25 0-11.2 7.47t-3.95 20.94q0 14.69 4.47 24.09t12.29 9.4q7.66 0 11.53-7.51t3.86-19.78zM2300 40.54q.4 8.3.4 22.65 0 21.76.4 27.85t3.18 9.15a8.36 8.36 0 0 0 6.33 3.06 14.44 14.44 0 0 0 8.5-3.14 18.59 18.59 0 0 0 6.37-8.22q2.06-5.08 2.06-16.6l.16-17.81q0-7.09-.77-9.35t-5.2-2.42q-4.84-.24-4.84-2.5a1.61 1.61 0 0 1 1.17-1.73 29.47 29.47 0 0 1 6.17-.36q11.2 0 20.88-.56.32 3.14.32 34.42 0 25.15.48 27.45t5.24 2.7q2.82.32 2.82 2.34 0 2.34-3.22 2.34-.65 0-2-.08-2.26-.16-5.32-.16-10.72 0-11.85.08-1.29.08-2.18.08-1.53 0-1.89-.52a7.4 7.4 0 0 1-.36-3.1 64.46 64.46 0 0 1 .56-8.46 41 41 0 0 1-11.73 10.16 26.51 26.51 0 0 1-12.94 3.39q-20.55 0-20.55-23.05v-25q0-12.9-.93-15.11t-4.88-2.78q-3.55-.48-3.55-2.1 0-2.18 3.14-2.18 21.56.02 24.03-.44zm97.37-.24q4.92-.24 15.07-.24a29.72 29.72 0 0 1 7.58.81q-1.21 6-2.14 6.45t-20.51 1.53l-.89 35.55a57.91 57.91 0 0 0 .77 11.12 10.8 10.8 0 0 0 3.51 6 10.32 10.32 0 0 0 7.09 2.42q3.71 0 10.56-3.95a3.93 3.93 0 0 1 1.77-.56q1.53 0 1.53 1.61 0 2.34-6.53 6.37a28.57 28.57 0 0 1-15.31 4q-10.4 0-16.32-5.08t-5.92-21.44q0-18 .65-36a107 107 0 0 1-11.28-.4q-3.31-.4-3.3-2.34 0-1.61 3.79-2.58a35 35 0 0 0 13.42-6.13q5.9-4.44 10.1-14.15a35.68 35.68 0 0 1 2.3-4.8 2 2 0 0 1 1.73-.85q2.34 0 2.34 3.87zm87.51 6.37q0-23.29-.24-31.07t-1.29-9.11q-1-1.33-5.72-2.14-3.14-.48-3.14-2.26a1.61 1.61 0 0 1 1.09-1.73 35.83 35.83 0 0 1 7-.36h21.28l-.16 57.23-.4 35.55q0 8.22 1.41 10.4t6.49 2.82q3 .32 3 2.26 0 2.1-3.14 2.1h-26.12v-11a24.58 24.58 0 0 1-8.46 9.27 21.77 21.77 0 0 1-11.61 3.06q-12.33 0-21.64-9.58t-9.31-24.72q0-16.58 10.64-27.25t23.7-10.67a22.41 22.41 0 0 1 9.07 1.81 23.61 23.61 0 0 1 7.55 5.39zM2455.62 75q0 15.38 4.07 22.5t10.36 7.12q6 0 10.36-6.8t4.31-24.59q0-14.49-3.63-21.73t-11-7.25q-7.25 0-10.88 7.69T2455.62 75zm147.47-1.65q0 14.83-11 26.36t-28 11.53q-15.64 0-26.28-9.67t-10.64-25.79q0-16.36 11.24-26.48t27.36-10.12q16.36 0 26.88 9.55t10.44 24.62zm-22.25 5.53a62.46 62.46 0 0 0-4.39-23.93q-4.39-10.69-12.61-10.69-7.25 0-11.2 7.47t-3.95 20.94q0 14.69 4.47 24.09t12.29 9.4q7.66 0 11.53-7.51t3.87-19.78zm113.95-5.53q0 14.83-11 26.36t-28 11.53q-15.64 0-26.28-9.67t-10.64-25.79q0-16.36 11.24-26.48t27.36-10.12q16.36 0 26.88 9.55t10.44 24.62zm-22.25 5.53a62.46 62.46 0 0 0-4.39-23.93q-4.39-10.69-12.61-10.69-7.25 0-11.2 7.47t-3.95 20.94q0 14.69 4.47 24.09t12.29 9.4q7.66 0 11.53-7.51t3.86-19.78zm62.77-23.67q4-8.14 9.27-12.17a18.7 18.7 0 0 1 11.69-4q6.12 0 9.79 3.55a11.83 11.83 0 0 1 3.67 8.87 10.35 10.35 0 0 1-2.62 7.13 8.26 8.26 0 0 1-6.41 2.94A7.35 7.35 0 0 1 2756 60a17.6 17.6 0 0 1-3.95-5.16q-2.9-5.32-5.08-5.32-3 0-6.77 6T2736.44 79q0 22 1.49 24.43t6.57 2.45q4.43 0 4.43 2.42 0 2.26-4.35 2.26-2.42 0-7-.44-4.19-.37-7.9-.37-8 0-15.8.56-3.31.24-3.87.24-3.39 0-3.39-2.54 0-2.21 3.95-2.38t5.4-1.81q1.53-1.65 1.53-7.2l.32-20.12q0-6.12-.48-15.21a100.37 100.37 0 0 0-.89-10.83 5.72 5.72 0 0 0-2.06-3.1 7.91 7.91 0 0 0-4.47-1.61 11.72 11.72 0 0 1-3.67-.77 1.92 1.92 0 0 1-.77-1.81q0-2.18 4-2.26 7.42-.08 25.23-1.93zM2205.91 1504q-.08 2.34-.08 3.39 0 11.45 5.6 19.38a17.58 17.58 0 0 0 15.11 7.94q9.75 0 19.18-8.46 1.93-1.69 2.74-1.69 2.1 0 2.1 2.26 0 1.77-4.84 6.37a31.27 31.27 0 0 1-11.85 6.93 45.58 45.58 0 0 1-14.51 2.34q-16.44 0-25.75-10a33.64 33.64 0 0 1-9.31-23.66q0-16.36 10.68-27.44t26.64-11.08q15 0 22.85 10.08t7.86 19.18q0 2.9-1.53 3.47t-9.91.56zm.48-5.88q11.93.16 13.78.16 9.11 0 11.16-1.29t2.06-5.24a19 19 0 0 0-3.79-11.69q-3.79-5.08-9-5.08-12.43 0-14.2 23.15zm98.68 21.21q5.22-11.2 9.73-23.58t4.5-15.39q0-3.26-3.71-4.24-3.55-1-3.55-2.66 0-2 2.9-2 1.45 0 6 .45 4.11.36 5.72.36a38.23 38.23 0 0 0 6.61-.54 18 18 0 0 1 2.66-.27q2.5 0 2.5 2.34 0 1.75-3.38 2.34-7.65 1.2-12.73 14.1-5.79 14.75-11.06 27.32t-8.08 18.18q-2.81 5.6-3.42 6a2.45 2.45 0 0 1-1.49.44q-1.07 0-2.05-1.53t-8.32-16.2l-18.63-37.08q-4-7.92-6.13-9.48a11.24 11.24 0 0 0-3.63-2q-3.14-.73-3.14-2.26 0-2.26 3.06-2.26 1.29 0 4 .22 6.53.59 12.73.59 2.5 0 5.64-.22 5.72-.51 6.85-.51 5.32 0 5.32 1.85 0 2.26-3 2.58-4.19.39-4.19 3.87 0 2.1 6.79 16.6t11.5 22.98zm56.67-15.33q-.08 2.34-.08 3.39 0 11.45 5.6 19.38a17.58 17.58 0 0 0 15.11 7.94q9.75 0 19.18-8.46 1.93-1.69 2.74-1.69 2.1 0 2.1 2.26 0 1.77-4.84 6.37a31.27 31.27 0 0 1-11.85 6.93 45.58 45.58 0 0 1-14.51 2.34q-16.44 0-25.75-10a33.64 33.64 0 0 1-9.31-23.66q0-16.36 10.68-27.44t26.64-11.08q15 0 22.85 10.08t7.86 19.18q0 2.9-1.53 3.47t-9.91.56zm.48-5.88q11.93.16 13.78.16 9.11 0 11.16-1.29t2.06-5.24a19 19 0 0 0-3.79-11.69q-3.79-5.08-9-5.08-12.42 0-14.2 23.15zm85.42-12.48a40.67 40.67 0 0 1 11.89-11.61 26.13 26.13 0 0 1 13.74-3.87 20.87 20.87 0 0 1 11.2 3.14 16.43 16.43 0 0 1 6.89 7.5q1.81 4.35 1.81 12.33l-.73 32.16q0 6.61 1.21 8.79t5.08 2.82q3.22.57 3.22 2.58t-3.14 2.1q-2.66 0-11.69-.65-3.14-.16-5.08-.16t-10.64.81h-3.95q-3.31 0-3.3-2.18 0-1.77 3-2.34a10.16 10.16 0 0 0 4.35-1.86q1.61-1.29 2.14-12.67t.52-22.6q0-12.43-2-17t-7.54-4.6q-6.85 0-12.69 10t-5.84 30.83a59.84 59.84 0 0 0 .81 11.69q.8 3.63 2 4.55t5 1.57q2.26.4 2.26 2.34 0 2.26-3.3 2.26-1.61 0-3.55-.15-7.74-.66-8.38-.66a182.13 182.13 0 0 0-19 .81 15.5 15.5 0 0 1-1.93.16q-3 0-3-2.34 0-2 2.66-2.34 4.11-.48 5.56-2.26t2.14-11.1q.68-9.32.69-22.23 0-16.46-1.21-20.38t-5.8-5.69q-3.31-1.29-3.3-2.5 0-1.94 4.76-1.93a180.09 180.09 0 0 0 21.68-1 45.27 45.27 0 0 1 3.46 15.68zm95.24-14.35q4.92-.24 15.07-.24a29.72 29.72 0 0 1 7.58.81q-1.21 6-2.14 6.45t-20.51 1.53l-.89 35.55a57.91 57.91 0 0 0 .77 11.12 10.8 10.8 0 0 0 3.51 6 10.32 10.32 0 0 0 7.09 2.42q3.71 0 10.56-3.95a3.93 3.93 0 0 1 1.77-.56q1.53 0 1.53 1.61 0 2.34-6.53 6.37a28.57 28.57 0 0 1-15.31 4q-10.4 0-16.32-5.08t-5.92-21.44q0-18.05.65-36a107 107 0 0 1-11.28-.4q-3.31-.4-3.3-2.34 0-1.61 3.79-2.58a35 35 0 0 0 13.42-6.13q5.92-4.43 10.12-14.1a35.68 35.68 0 0 1 2.3-4.8 2 2 0 0 1 1.73-.85q2.34 0 2.34 3.87z" class="cls-originColor"/></g></g></svg>