<?xml version="1.0" standalone="no"?>
<!DOCTYPE svg PUBLIC "-//W3C//DTD SVG 20010904//EN"
 "http://www.w3.org/TR/2001/REC-SVG-20010904/DTD/svg10.dtd">
<svg version="1.0" xmlns="http://www.w3.org/2000/svg"
 width="1724.000000pt" height="1724.000000pt" viewBox="0 0 1724.000000 1724.000000"
 preserveAspectRatio="xMidYMid meet">
<metadata>
Created by potrace 1.11, written by Peter Selinger 2001-2013
</metadata>
<g transform="translate(0.000000,1724.000000) scale(0.100000,-0.100000)"
fill="#000000" stroke="none">
<path d="M8539 15749 c-16 -17 -29 -35 -29 -40 0 -23 -102 -215 -193 -364
-249 -407 -305 -516 -384 -748 -79 -237 -117 -557 -91 -762 34 -262 61 -362
171 -645 70 -182 109 -310 141 -470 8 -41 18 -88 22 -105 3 -16 8 -95 9 -175
3 -117 0 -159 -16 -218 -49 -191 -181 -368 -326 -438 -78 -37 -216 -43 -312
-13 -64 19 -133 52 -161 77 -62 54 -97 96 -123 152 -28 58 -32 76 -34 165 -3
140 24 254 97 411 74 159 46 192 -157 192 -169 0 -300 -41 -452 -142 -175
-117 -295 -264 -351 -431 -19 -56 -24 -90 -24 -175 1 -129 19 -201 84 -335 53
-110 100 -176 190 -272 45 -48 60 -71 60 -93 0 -44 -31 -59 -135 -65 -151 -9
-248 -16 -285 -20 -19 -2 -69 -7 -110 -10 -41 -4 -84 -9 -94 -11 -11 -2 -47
-6 -80 -9 -34 -3 -68 -7 -76 -10 -8 -2 -35 -7 -60 -10 -25 -3 -70 -10 -100
-15 -94 -16 -114 -19 -155 -25 -22 -4 -47 -8 -55 -10 -8 -2 -31 -7 -50 -10
-295 -50 -577 -177 -810 -364 -76 -61 -237 -217 -295 -286 -72 -86 -154 -205
-204 -298 -45 -84 -109 -230 -116 -267 -2 -8 -10 -40 -19 -70 -49 -171 -63
-463 -30 -625 2 -11 6 -34 8 -51 9 -60 48 -211 83 -313 147 -437 374 -725 715
-910 111 -60 321 -131 458 -155 19 -3 44 -8 55 -10 38 -7 110 -16 180 -21 39
-3 95 -7 125 -10 30 -2 89 -7 130 -10 179 -14 239 -22 410 -60 41 -9 137 -47
178 -71 143 -84 236 -243 246 -419 9 -170 -65 -285 -239 -373 -120 -61 -249
-91 -405 -95 -78 -1 -268 10 -280 18 -3 2 -30 6 -60 10 -30 3 -62 8 -70 10 -8
2 -31 7 -50 10 -165 27 -372 81 -540 142 -106 38 -420 184 -485 225 -205 132
-266 172 -350 236 -55 42 -102 78 -105 81 -3 3 -45 40 -95 81 -423 353 -713
726 -854 1100 -35 94 -38 100 -76 185 -43 97 -58 124 -88 161 -51 62 -89 44
-170 -79 -79 -121 -119 -217 -150 -362 -20 -92 -16 -341 8 -440 35 -153 45
-230 32 -269 -16 -46 -97 -72 -313 -102 -156 -21 -440 -111 -589 -187 -192
-98 -262 -157 -605 -513 -371 -385 -692 -622 -988 -729 -72 -27 -102 -53 -102
-88 0 -53 84 -143 198 -213 213 -131 436 -132 696 -4 55 28 110 50 122 50 31
0 53 -34 114 -180 28 -69 59 -141 67 -160 21 -48 191 -391 203 -410 5 -8 38
-62 73 -120 204 -336 419 -569 702 -758 304 -203 706 -359 1234 -477 9 -2 76
-18 149 -34 73 -17 145 -33 160 -36 36 -6 55 -11 137 -30 39 -9 77 -18 85 -20
229 -52 518 -154 685 -244 97 -52 100 -53 129 -30 32 25 29 51 -19 152 -38 80
-135 255 -164 293 -9 12 -23 32 -31 44 -34 52 -131 169 -185 223 -187 190
-395 319 -648 402 -59 19 -118 37 -132 39 -158 30 -171 32 -227 40 -47 7 -126
34 -154 53 -12 8 -27 27 -32 43 -9 24 -6 34 14 61 13 18 28 35 32 38 29 21
121 148 148 206 46 98 64 175 65 280 0 109 -10 166 -55 299 -68 204 -137 311
-240 375 -94 58 -167 31 -181 -67 -2 -15 -7 -47 -10 -72 -18 -120 -74 -231
-154 -301 -202 -179 -577 -175 -767 8 -77 74 -111 147 -140 303 -10 56 -11
208 -1 274 21 143 98 307 198 421 126 143 347 255 559 283 105 14 309 5 417
-17 151 -31 445 -139 653 -240 33 -16 60 -28 60 -26 0 1 177 -85 393 -192 215
-108 433 -213 482 -235 189 -84 443 -170 599 -203 115 -25 221 -45 266 -50 30
-4 66 -9 80 -12 14 -2 135 -6 270 -8 316 -4 458 15 689 92 371 122 642 368
815 739 66 140 88 231 92 389 4 153 -11 248 -59 375 -90 238 -302 524 -472
637 -128 85 -296 138 -468 147 -42 2 -84 9 -92 16 -22 19 -18 61 10 103 50 72
139 223 171 287 28 57 38 84 61 175 13 47 11 196 -3 256 -32 144 -134 294
-267 393 -64 49 -164 102 -207 111 -8 2 -35 8 -58 13 -65 15 -212 12 -289 -5
-132 -30 -271 -92 -292 -131 -17 -31 17 -82 89 -134 96 -71 157 -134 188 -197
24 -50 27 -66 26 -156 0 -84 -5 -110 -26 -159 -71 -164 -222 -290 -403 -336
-157 -39 -338 25 -485 170 -94 93 -125 145 -155 266 -45 177 -51 364 -14 509
5 22 12 50 14 62 10 45 74 172 123 244 105 156 252 280 439 373 76 38 236 101
283 111 8 2 58 15 111 28 52 14 115 28 140 32 55 8 82 12 139 20 105 15 166
22 270 30 41 3 93 8 115 10 22 2 76 7 120 10 76 6 105 9 193 20 89 11 128 16
142 20 8 2 35 6 60 9 25 3 55 8 66 10 12 2 39 7 60 10 334 53 661 172 849 308
96 70 127 82 163 64 37 -19 68 -54 86 -96 43 -103 -40 -401 -154 -555 -144
-196 -338 -308 -695 -404 -212 -58 -238 -123 -116 -296 99 -140 235 -248 380
-299 80 -28 96 -31 221 -31 121 0 211 8 232 21 4 3 33 7 65 10 74 8 92 -9 102
-93 14 -119 4 -1020 -14 -1273 -2 -25 -6 -85 -9 -135 -3 -49 -8 -106 -10 -125
-2 -19 -7 -71 -11 -115 -3 -44 -8 -91 -10 -105 -2 -14 -6 -54 -9 -90 -4 -36
-8 -76 -10 -90 -3 -14 -7 -48 -10 -76 -3 -29 -7 -62 -10 -75 -3 -13 -8 -43
-10 -67 -5 -36 -26 -167 -41 -247 -49 -272 -147 -580 -250 -790 -196 -400
-520 -677 -965 -829 -111 -37 -348 -100 -415 -110 -22 -3 -51 -8 -64 -10 -13
-3 -49 -8 -80 -12 -31 -3 -64 -8 -75 -10 -46 -9 -234 -17 -366 -17 -173 0
-308 9 -455 28 -22 3 -58 8 -80 11 -22 3 -47 7 -55 9 -8 2 -36 6 -61 9 -37 5
-108 19 -300 61 -90 19 -171 42 -256 71 -92 32 -104 34 -130 22 -31 -15 -49
-54 -40 -89 11 -42 349 -375 497 -491 30 -23 57 -45 60 -48 3 -3 37 -28 75
-56 288 -210 509 -314 760 -358 81 -14 342 -15 415 -1 688 130 1105 275 1475
513 63 41 109 75 282 210 78 60 120 56 157 -17 17 -33 23 -122 11 -182 -105
-545 -412 -900 -1075 -1242 -187 -96 -448 -194 -590 -221 -164 -31 -200 -46
-200 -87 0 -43 10 -58 49 -78 76 -39 342 -129 431 -147 14 -3 44 -9 68 -15 23
-5 59 -12 78 -15 20 -3 46 -7 57 -9 46 -10 168 -18 247 -19 205 0 356 32 545
115 145 63 166 66 184 22 18 -44 26 -97 36 -228 17 -231 80 -465 184 -681 49
-101 150 -276 171 -294 3 -3 21 -25 40 -50 57 -75 160 -189 192 -211 41 -30
91 -39 135 -26 63 20 220 193 337 372 123 189 241 484 272 679 3 21 8 48 10
60 12 61 12 61 29 275 8 98 25 130 69 131 10 0 68 -22 130 -49 105 -47 191
-76 253 -87 15 -3 39 -7 53 -9 30 -6 190 -18 240 -18 48 -1 240 12 270 18 14
3 41 8 60 11 19 3 71 14 115 25 44 11 91 22 103 25 40 8 213 70 297 106 89 38
110 65 85 112 -15 28 -38 39 -135 62 -605 142 -1205 499 -1477 881 -93 129
-200 366 -222 486 -2 12 -7 42 -11 67 -4 25 -9 54 -12 65 -7 36 -4 121 6 147
14 36 58 68 96 68 26 0 47 -13 106 -67 180 -162 333 -255 648 -392 141 -62
455 -173 526 -187 6 -1 30 -7 55 -14 25 -7 56 -14 69 -17 14 -2 28 -6 33 -9 4
-3 16 -7 25 -9 10 -2 52 -11 93 -20 348 -76 590 -80 830 -13 223 61 431 178
698 391 214 171 292 243 495 455 62 66 72 101 39 142 -18 22 -76 31 -101 15
-35 -21 -224 -79 -331 -101 -155 -32 -140 -29 -230 -44 -41 -6 -86 -13 -100
-16 -14 -2 -45 -6 -70 -9 -25 -3 -61 -8 -80 -11 -90 -12 -224 -18 -435 -19
-278 0 -395 9 -615 46 -806 138 -1295 565 -1519 1324 -19 64 -67 259 -77 309
-2 12 -6 32 -9 46 -2 14 -7 39 -9 55 -3 17 -12 71 -20 120 -9 50 -18 108 -21
130 -2 22 -6 49 -9 60 -2 11 -7 47 -10 80 -4 33 -9 76 -12 95 -11 77 -13 97
-19 155 -3 33 -8 76 -11 95 -3 19 -7 55 -9 80 -3 25 -7 65 -9 90 -3 25 -8 88
-11 140 -3 52 -8 124 -11 160 -10 125 -13 1177 -4 1211 15 52 41 68 103 63 28
-3 59 -7 67 -10 33 -11 130 -19 240 -18 188 1 326 54 456 176 120 112 204 243
204 315 -1 64 -34 91 -155 123 -44 12 -87 23 -95 25 -39 9 -204 71 -276 105
-71 33 -185 102 -221 134 -133 120 -208 227 -254 359 -36 104 -43 143 -44 242
0 93 21 146 75 183 54 37 67 33 192 -53 79 -54 89 -60 191 -112 61 -31 180
-79 217 -89 8 -2 52 -14 97 -28 46 -14 95 -27 110 -30 62 -11 89 -16 109 -21
12 -3 39 -7 60 -10 21 -4 46 -8 54 -10 8 -2 38 -7 65 -11 28 -3 58 -8 68 -10
10 -2 48 -6 85 -10 37 -3 69 -7 72 -9 3 -2 41 -6 85 -10 44 -4 82 -9 85 -10 3
-2 43 -6 89 -10 47 -4 92 -8 100 -10 9 -1 45 -6 81 -10 36 -3 83 -8 105 -11
22 -2 60 -7 85 -9 42 -5 153 -21 210 -31 14 -2 41 -7 60 -10 102 -15 250 -48
323 -70 348 -110 615 -371 732 -715 14 -41 28 -87 31 -104 3 -16 9 -47 15 -67
12 -46 15 -176 5 -243 -65 -461 -506 -718 -866 -505 -118 69 -190 165 -228
307 -48 174 9 311 186 446 78 59 112 99 112 128 0 45 -139 128 -261 155 -247
54 -483 -10 -659 -178 -88 -84 -168 -207 -185 -283 -2 -11 -9 -37 -14 -59 -5
-21 -8 -86 -6 -145 4 -150 32 -231 137 -396 86 -137 113 -195 103 -226 -8 -24
-49 -46 -103 -53 -23 -3 -59 -8 -80 -11 -332 -45 -675 -357 -833 -757 -91
-231 -84 -531 18 -788 101 -253 331 -502 593 -642 135 -72 368 -150 520 -173
25 -4 54 -9 65 -11 151 -30 523 -21 720 17 28 5 64 11 82 13 18 3 40 7 50 10
10 3 29 7 43 10 55 9 260 66 340 95 160 56 175 62 195 71 11 5 63 27 115 49
116 48 268 121 595 283 357 176 589 282 725 330 96 34 209 67 253 73 23 4 44
8 47 10 3 2 32 7 64 10 369 43 695 -65 890 -296 102 -122 174 -266 192 -384
21 -146 -1 -366 -47 -462 -36 -74 -137 -167 -229 -210 -142 -67 -271 -80 -397
-42 -241 74 -376 224 -399 444 -15 154 -82 179 -217 81 -39 -28 -65 -59 -98
-114 -160 -274 -205 -554 -122 -765 23 -58 68 -141 92 -169 11 -13 32 -36 46
-53 36 -41 65 -99 65 -129 0 -36 -54 -73 -131 -90 -35 -8 -118 -24 -184 -36
-444 -81 -816 -327 -1068 -705 -26 -38 -50 -74 -55 -80 -4 -5 -23 -39 -41 -75
-19 -36 -42 -78 -51 -95 -9 -16 -28 -58 -43 -92 -33 -73 -29 -107 13 -122 31
-10 24 -13 175 71 169 93 331 143 790 244 66 14 127 27 135 29 12 3 195 45
300 70 28 6 164 43 220 60 30 9 65 18 77 21 25 5 277 90 308 104 11 5 64 27
118 50 292 122 550 287 743 476 243 239 473 593 656 1008 62 142 64 147 94
224 16 40 42 89 58 108 25 31 32 34 64 29 20 -3 65 -20 101 -38 162 -82 258
-107 386 -103 138 5 244 50 405 175 103 79 119 98 120 134 0 41 -37 69 -125
95 -104 31 -209 84 -351 179 -197 132 -333 251 -659 575 -170 169 -332 325
-360 345 -27 21 -58 45 -68 54 -27 24 -182 110 -252 139 -56 24 -158 56 -208
66 -12 2 -33 6 -47 9 -14 3 -34 7 -45 9 -11 2 -56 12 -100 21 -112 23 -109 23
-146 29 -19 3 -45 8 -59 11 -14 2 -56 9 -93 14 -77 11 -113 30 -127 67 -12 30
-9 46 23 162 14 48 28 101 31 117 4 17 9 41 12 55 3 14 7 84 9 155 4 124 -12
268 -34 320 -5 11 -17 43 -26 70 -33 96 -108 226 -160 278 -36 36 -61 42 -90
23 -29 -19 -46 -50 -115 -215 -104 -249 -181 -395 -315 -596 -377 -563 -970
-1021 -1650 -1275 -99 -37 -288 -96 -334 -105 -13 -2 -38 -9 -55 -14 -17 -6
-42 -12 -56 -15 -14 -2 -54 -11 -90 -20 -283 -68 -400 -69 -670 -5 -69 16
-136 32 -149 35 -73 15 -160 76 -212 147 -152 209 -53 557 193 680 67 34 218
78 313 92 22 4 47 8 55 10 8 2 65 7 125 10 61 3 137 8 170 10 33 3 94 7 135
10 41 3 84 8 96 10 11 2 45 7 75 11 225 25 455 110 654 242 374 247 633 681
692 1162 16 127 9 470 -12 560 -3 14 -7 40 -10 58 -2 18 -6 36 -9 41 -3 4 -8
23 -11 42 -17 99 -106 313 -177 427 -284 456 -808 775 -1438 877 -19 3 -60 10
-90 15 -174 30 -547 61 -766 64 -89 1 -106 4 -123 21 -40 41 -31 78 32 139 93
89 187 232 239 361 24 61 37 157 34 250 -9 218 -119 418 -311 562 -48 36 -160
102 -185 108 -3 1 -17 7 -32 13 -31 13 -117 38 -163 48 -50 10 -235 13 -269 3
-42 -12 -65 -42 -61 -80 3 -17 23 -70 45 -119 55 -120 91 -247 94 -338 3 -66
-1 -98 -19 -179 -10 -44 -67 -129 -117 -175 -94 -86 -213 -129 -336 -122 -110
6 -226 57 -298 132 -78 81 -167 253 -198 382 -46 194 18 552 169 945 105 275
139 406 170 648 7 56 8 292 1 322 -2 12 -7 48 -11 80 -25 219 -130 491 -330
860 -21 39 -42 77 -46 85 -34 65 -194 332 -253 424 -106 163 -148 188 -207
125z"/>
</g>
</svg>
