<?xml version="1.0" standalone="no"?>
<!DOCTYPE svg PUBLIC "-//W3C//DTD SVG 20010904//EN"
 "http://www.w3.org/TR/2001/REC-SVG-20010904/DTD/svg10.dtd">
<svg version="1.0" xmlns="http://www.w3.org/2000/svg"
 width="1354.000000pt" height="1354.000000pt" viewBox="0 0 1354.000000 1354.000000"
 preserveAspectRatio="xMidYMid meet">
<metadata>
Created by potrace 1.11, written by Peter Selinger 2001-2013
</metadata>
<g transform="translate(0.000000,1354.000000) scale(0.100000,-0.100000)"
fill="#000000" stroke="none">
<path d="M12667 11576 c-12 -4 -51 -12 -87 -16 -58 -8 -154 -30 -260 -62 -136
-40 -736 -333 -865 -422 -16 -12 -39 -27 -50 -33 -85 -52 -237 -150 -270 -174
-22 -16 -65 -46 -95 -66 -68 -44 -383 -280 -443 -331 -24 -20 -88 -73 -142
-117 -519 -423 -1283 -1209 -1718 -1768 -371 -477 -655 -912 -899 -1377 -55
-106 -113 -239 -106 -246 2 -2 19 22 38 54 160 274 364 566 531 763 37 43 69
82 70 86 2 5 18 19 35 31 18 12 31 30 30 39 0 11 13 24 36 35 43 20 56 37 38
48 -9 6 -1 13 26 25 21 9 58 35 81 58 23 23 65 63 95 89 29 26 80 72 113 101
33 30 78 64 99 77 22 13 62 43 88 67 27 24 70 54 96 67 49 25 123 73 183 119
46 35 224 117 252 116 28 -1 86 14 114 29 26 14 191 8 206 -7 6 -6 16 -11 23
-11 6 0 32 -19 58 -42 48 -45 103 -156 91 -185 -3 -8 0 -33 6 -55 15 -58 13
-230 -5 -328 -36 -203 -123 -337 -330 -510 -91 -77 -161 -161 -184 -223 -33
-88 -52 -230 -48 -363 2 -66 9 -130 15 -142 6 -11 11 -38 11 -60 0 -22 7 -59
16 -83 38 -104 32 -388 -12 -559 -41 -158 -93 -251 -229 -409 -67 -79 -75 -84
-209 -151 l-138 -69 -100 4 c-55 3 -106 10 -114 16 -8 6 -21 8 -30 5 -10 -4
-25 1 -35 10 -10 9 -22 13 -27 10 -5 -3 -15 1 -22 9 -7 8 -18 15 -25 15 -7 0
-24 9 -38 20 -14 11 -32 20 -40 20 -8 0 -22 10 -31 23 -15 21 -16 21 -27 3
-11 -17 -13 -16 -30 20 -18 39 -95 121 -104 112 -13 -13 49 -136 87 -172 24
-23 54 -69 74 -113 19 -40 53 -95 77 -121 24 -26 61 -78 81 -117 21 -38 55
-90 76 -115 20 -25 56 -78 80 -119 24 -41 53 -84 65 -95 11 -12 34 -39 50 -61
28 -38 59 -75 178 -209 98 -111 172 -183 302 -294 72 -61 140 -121 153 -132
12 -11 27 -20 32 -20 4 0 21 -13 37 -30 15 -16 32 -30 37 -30 5 0 24 -11 42
-25 18 -14 36 -25 40 -25 4 0 15 -6 23 -14 9 -8 40 -26 69 -41 29 -15 55 -31
58 -36 3 -5 12 -9 21 -9 9 0 24 -6 32 -13 14 -12 76 -41 166 -78 27 -11 94
-30 165 -45 14 -3 35 -10 47 -16 12 -6 28 -8 36 -5 8 3 19 1 24 -4 10 -10 135
-21 233 -20 141 2 309 34 438 85 168 66 378 213 537 375 129 131 161 169 278
331 188 258 243 374 310 650 94 390 114 723 67 1130 -11 98 -50 298 -74 385
-25 86 -57 268 -81 454 -11 85 -5 397 9 501 32 229 58 340 116 493 72 193 86
215 247 387 111 119 160 163 317 288 178 142 228 188 306 280 248 294 363 569
421 1010 13 104 7 489 -10 582 -5 30 -15 89 -21 130 -19 118 -37 174 -97 296
-77 156 -148 222 -318 295 -59 25 -322 44 -368 25z m-2116 -2116 c-25 -21 -41
-26 -41 -12 0 9 38 30 55 31 6 0 -1 -9 -14 -19z m79 -5 c0 -8 -7 -15 -15 -15
-26 0 -18 20 13 29 1 1 2 -6 2 -14z m-210 -10 c0 -2 -14 -12 -31 -20 -40 -21
-63 -13 -24 8 29 16 55 22 55 12z m270 -9 c0 -3 -4 -8 -10 -11 -5 -3 -10 -1
-10 4 0 6 5 11 10 11 6 0 10 -2 10 -4z m50 -21 c0 -8 -4 -15 -10 -15 -5 0 -10
7 -10 15 0 8 5 15 10 15 6 0 10 -7 10 -15z m61 -37 c10 -13 18 -26 19 -31 0
-4 18 -44 40 -88 42 -85 46 -99 31 -99 -5 0 -12 13 -16 30 -4 16 -11 32 -16
35 -5 4 -9 15 -9 26 0 10 -4 19 -10 19 -5 0 -10 8 -10 18 0 9 -9 28 -20 42
-11 14 -20 31 -20 38 0 6 -4 12 -10 12 -5 0 -10 5 -10 10 0 16 10 12 31 -12z
m-1011 -232 c0 -6 -91 -56 -102 -56 -20 0 6 23 46 40 42 19 56 23 56 16z
m1117 -108 c-3 -8 -6 -5 -6 6 -1 11 2 17 5 13 3 -3 4 -12 1 -19z m-1357 -53
c0 -2 -13 -11 -30 -20 -16 -9 -30 -12 -30 -7 0 5 10 14 23 20 25 12 37 14 37
7z m-175 -135 c-3 -5 -13 -10 -21 -10 -8 0 -12 5 -9 10 3 6 13 10 21 10 8 0
12 -4 9 -10z m-130 -110 c-3 -5 -13 -10 -21 -10 -8 0 -12 5 -9 10 3 6 13 10
21 10 8 0 12 -4 9 -10z m-129 -105 c-11 -8 -22 -12 -25 -9 -6 6 19 24 34 24 6
-1 1 -7 -9 -15z m-296 -275 c0 -5 -5 -10 -11 -10 -5 0 -7 5 -4 10 3 6 8 10 11
10 2 0 4 -4 4 -10z m1840 -200 c0 -5 -4 -10 -10 -10 -5 0 -10 5 -10 10 0 6 5
10 10 10 6 0 10 -4 10 -10z m-100 -88 c0 -5 -12 -14 -27 -21 l-28 -12 25 21
c29 22 30 23 30 12z m-130 -117 c-7 -9 -15 -13 -17 -11 -7 7 7 26 19 26 6 0 6
-6 -2 -15z m-98 -97 c-7 -7 -12 -8 -12 -2 0 14 12 26 19 19 2 -3 -1 -11 -7
-17z m-212 -618 c0 -5 -5 -10 -11 -10 -5 0 -7 5 -4 10 3 6 8 10 11 10 2 0 4
-4 4 -10z m0 -89 c0 -6 -4 -13 -10 -16 -5 -3 -10 1 -10 9 0 9 5 16 10 16 6 0
10 -4 10 -9z m30 -268 c0 -7 -4 -13 -10 -13 -5 0 -10 6 -10 14 0 8 -3 23 -6
33 -6 16 -5 16 9 -2 9 -11 17 -26 17 -32z m36 -180 c-8 -8 -12 -3 -21 27 l-7
25 17 -23 c9 -13 14 -26 11 -29z m34 -254 c0 -5 -4 -9 -10 -9 -5 0 -10 7 -10
16 0 8 5 12 10 9 6 -3 10 -10 10 -16z m-1670 -875 c0 -8 -4 -12 -10 -9 -5 3
-10 10 -10 16 0 5 5 9 10 9 6 0 10 -7 10 -16z m70 -60 c0 -8 -4 -12 -10 -9 -5
3 -10 10 -10 16 0 5 5 9 10 9 6 0 10 -7 10 -16z m20 -30 c0 -8 -5 -12 -10 -9
-6 4 -8 11 -5 16 9 14 15 11 15 -7z m78 -55 c-2 -6 -8 -10 -13 -10 -5 0 -11 4
-13 10 -2 6 4 11 13 11 9 0 15 -5 13 -11z m72 -58 c0 -6 -4 -13 -10 -16 -5 -3
-10 1 -10 9 0 9 5 16 10 16 6 0 10 -4 10 -9z m50 -27 c0 -8 -5 -12 -10 -9 -6
4 -8 11 -5 16 9 14 15 11 15 -7z m880 -37 c-8 -8 -44 -26 -80 -41 -36 -16 -93
-44 -127 -62 -39 -22 -64 -30 -68 -24 -4 6 11 18 37 28 23 9 84 37 133 63 93
48 133 61 105 36z m-800 -11 c0 -8 -4 -18 -10 -21 -5 -3 -10 3 -10 14 0 12 5
21 10 21 6 0 10 -6 10 -14z m50 -26 c0 -5 -4 -10 -10 -10 -5 0 -10 5 -10 10 0
6 5 10 10 10 6 0 10 -4 10 -10z m90 -44 c0 -3 -4 -8 -10 -11 -5 -3 -10 -1 -10
4 0 6 5 11 10 11 6 0 10 -2 10 -4z m60 -20 c0 -2 -7 -7 -16 -10 -8 -3 -12 -2
-9 4 6 10 25 14 25 6z m80 -5 c0 -12 -20 -25 -27 -18 -7 7 6 27 18 27 5 0 9
-4 9 -9z m57 -28 c-9 -9 -19 -14 -23 -11 -10 10 6 28 24 28 15 0 15 -1 -1 -17z
m99 2 c-22 -17 -36 -19 -36 -7 0 14 12 22 34 22 21 -1 21 -1 2 -15z"/>
<path d="M7010 7578 c-66 -25 -104 -58 -135 -119 -34 -66 -39 -107 -21 -170
14 -49 43 -90 88 -125 16 -13 67 -36 118 -54 37 -13 57 -20 103 -39 15 -6 34
-11 42 -11 20 0 46 55 85 175 30 96 31 103 19 160 -14 65 -64 143 -103 160
-13 6 -29 15 -37 21 -28 23 -101 23 -159 2z"/>
<path d="M7420 6944 c-8 -3 -65 -28 -126 -56 -114 -51 -141 -76 -127 -115 3
-10 150 -319 326 -688 729 -1526 645 -1356 681 -1370 22 -7 43 -1 129 40 116
56 147 79 147 111 0 12 -40 104 -89 205 -48 101 -110 229 -136 284 -66 139
-150 314 -230 480 -67 140 -134 280 -225 470 -26 55 -77 161 -112 235 -36 74
-91 189 -123 255 -53 113 -80 156 -94 154 -3 0 -13 -3 -21 -5z"/>
<path d="M7690 6900 c-19 -35 -40 -100 -32 -100 9 0 54 111 48 117 -2 3 -10
-5 -16 -17z"/>
<path d="M4695 6832 c-1 -1 -72 -5 -156 -8 -85 -3 -185 -7 -224 -10 -38 -2
-95 -6 -125 -8 -136 -9 -246 -17 -332 -26 -128 -14 -195 -20 -248 -23 -25 -2
-56 -7 -69 -11 -14 -5 -45 -10 -70 -12 -43 -3 -111 -11 -261 -33 -144 -21
-218 -32 -281 -40 -37 -4 -72 -12 -79 -16 -7 -5 -43 -12 -79 -16 -66 -8 -135
-21 -221 -41 -25 -5 -76 -16 -115 -23 -38 -7 -83 -18 -100 -25 -16 -6 -58 -16
-91 -21 -34 -5 -82 -18 -108 -29 -26 -11 -59 -20 -73 -20 -14 0 -65 -14 -114
-30 -48 -17 -123 -39 -166 -50 -43 -11 -112 -33 -153 -49 -41 -16 -120 -43
-175 -61 -125 -40 -235 -86 -490 -207 -245 -116 -351 -174 -478 -266 -191
-137 -324 -282 -391 -428 -58 -127 -64 -242 -20 -397 15 -53 34 -105 43 -115
8 -10 24 -34 36 -52 86 -145 287 -353 505 -525 14 -11 41 -33 61 -50 20 -16
41 -30 46 -30 6 0 18 -9 28 -20 10 -11 26 -22 36 -25 11 -4 42 -22 70 -41 28
-19 57 -34 64 -34 7 0 18 -7 25 -15 7 -8 19 -15 28 -15 8 0 23 -6 31 -13 9 -8
43 -24 76 -37 33 -13 65 -26 70 -30 6 -3 30 -13 55 -20 25 -7 51 -18 57 -23 7
-5 19 -7 27 -4 8 3 38 -3 66 -13 28 -10 59 -19 68 -19 9 0 42 -5 72 -11 55
-10 187 -22 225 -19 23 1 51 1 80 0 77 -3 264 21 320 42 22 8 64 17 94 21 30
4 63 12 73 17 18 10 54 16 238 40 41 5 121 11 176 13 56 2 106 6 111 9 5 3 36
2 69 -4 32 -5 68 -10 79 -12 35 -5 153 -40 220 -66 67 -26 292 -137 315 -156
8 -6 22 -15 30 -19 24 -11 52 -28 114 -71 32 -22 68 -47 81 -55 116 -77 441
-400 499 -494 10 -17 38 -52 62 -78 24 -26 44 -51 44 -56 0 -8 93 -117 140
-165 8 -9 26 -28 40 -43 40 -43 65 -68 86 -85 10 -9 27 -25 36 -35 20 -22 72
-68 173 -152 57 -48 222 -164 310 -219 135 -84 255 -148 345 -185 14 -6 32
-14 40 -19 8 -5 22 -12 30 -15 35 -14 66 -27 82 -35 10 -5 27 -9 37 -9 11 0
23 -5 26 -11 4 -6 13 -8 20 -5 7 2 17 0 23 -6 6 -6 21 -12 34 -14 13 -2 64
-11 113 -19 180 -30 558 -38 725 -15 47 6 112 15 145 19 33 4 69 12 80 17 11
6 49 17 85 24 36 7 103 28 150 47 320 128 581 394 705 718 69 181 89 264 119
490 15 115 14 91 14 310 0 236 -1 253 -34 505 -25 192 -104 513 -167 681 -13
36 -24 76 -24 90 0 14 -19 71 -42 127 -22 56 -41 119 -41 138 0 36 -47 146
-81 191 l-16 22 -18 -34 c-14 -25 -16 -37 -7 -47 8 -11 8 -24 -3 -53 -7 -22
-19 -69 -25 -105 -22 -118 -122 -282 -202 -332 -15 -10 -74 -39 -130 -65 -80
-36 -117 -48 -163 -50 -33 -2 -85 -5 -115 -6 -67 -4 -281 21 -294 34 -6 5 -17
9 -25 9 -19 0 -118 47 -126 60 -3 6 -14 10 -25 10 -10 0 -20 7 -24 15 -3 8
-12 15 -21 15 -9 0 -28 11 -43 25 -15 14 -32 25 -38 25 -6 0 -21 11 -34 25
-13 14 -28 25 -34 25 -6 0 -24 16 -39 35 -15 19 -34 35 -42 35 -8 0 -26 18
-40 40 -14 21 -38 49 -54 61 -16 12 -40 42 -52 67 -13 24 -38 54 -55 65 -17
11 -40 35 -52 54 -12 18 -29 33 -37 33 -8 0 -24 14 -37 30 -12 17 -26 30 -31
30 -6 0 -24 10 -41 23 -26 19 -93 54 -213 110 -12 5 -29 7 -38 3 -9 -3 -24 0
-35 6 -14 9 -25 9 -45 0 -19 -9 -32 -9 -46 -1 -16 8 -30 7 -58 -4 -20 -8 -49
-13 -64 -10 -16 3 -48 -3 -75 -13 -26 -10 -69 -20 -97 -21 -49 -2 -63 -2 -135
-2 -19 0 -40 5 -47 11 -7 5 -24 8 -37 4 -14 -3 -28 0 -35 8 -7 8 -21 12 -31 9
-11 -3 -20 0 -20 6 0 6 -11 11 -24 11 -13 0 -29 7 -36 15 -7 8 -16 13 -20 10
-9 -5 -70 31 -102 59 -10 9 -25 16 -33 16 -8 0 -24 14 -37 30 -12 17 -27 30
-34 30 -7 0 -27 18 -44 40 -17 22 -38 40 -45 40 -7 0 -24 17 -36 38 -12 20
-35 53 -51 74 -26 33 -49 105 -50 153 0 35 42 132 75 173 52 64 202 171 314
223 56 27 109 46 116 43 7 -2 27 2 43 11 16 8 35 15 42 15 6 0 55 18 108 40
57 23 111 39 132 39 21 0 65 11 100 25 41 16 74 23 92 19 20 -3 47 4 87 23 91
44 100 47 86 33 -36 -36 0 -38 67 -4 57 29 64 30 56 10 -7 -20 32 -20 58 0 23
17 63 20 68 4 2 -7 18 -5 47 7 35 14 47 15 62 5 15 -9 27 -8 53 3 19 8 37 12
40 9 3 -3 108 -7 233 -8 236 -3 374 -9 478 -21 33 -4 78 -8 100 -9 22 -1 47
-5 55 -9 22 -9 44 9 37 29 -5 11 -13 14 -27 10 -12 -4 -27 -2 -34 4 -7 6 -39
13 -70 15 -31 2 -63 9 -70 15 -7 6 -21 9 -30 5 -9 -3 -22 -1 -30 5 -7 6 -27
12 -42 12 -47 0 -90 5 -102 13 -6 4 -42 9 -78 12 -37 2 -71 7 -75 10 -9 5 -94
14 -180 18 -25 1 -50 6 -56 9 -7 4 -24 7 -40 8 -15 0 -48 2 -73 4 -110 10
-316 23 -480 30 -118 5 -691 11 -695 7z m625 -196 c0 -2 -7 -7 -16 -10 -8 -3
-12 -2 -9 4 6 10 25 14 25 6z m-125 -16 c-3 -5 -14 -10 -23 -10 -15 0 -15 2
-2 10 20 13 33 13 25 0z m-127 -16 c-9 -9 -22 -14 -30 -11 -8 3 -4 8 12 15 35
15 37 14 18 -4z m-128 -18 c-8 -8 -26 -17 -40 -20 l-25 -7 24 20 c27 25 66 31
41 7z m-130 -15 c0 -5 -13 -14 -30 -20 -34 -11 -39 -5 -12 15 20 15 42 18 42
5z m-140 -20 c0 -11 -59 -36 -66 -28 -3 3 7 12 23 21 33 18 43 19 43 7z m-170
-32 c0 -9 -59 -39 -77 -39 -7 1 67 50 75 50 1 0 2 -5 2 -11z m-190 -48 c0 -10
-80 -44 -87 -38 -5 6 58 45 75 46 6 1 12 -3 12 -8z m-250 -76 c-11 -13 -110
-55 -128 -55 -12 1 112 68 127 69 11 1 11 -2 1 -14z m-690 -330 c-7 -8 -20
-15 -29 -15 -13 1 -13 3 3 15 26 19 42 19 26 0z m-105 -95 c-3 -5 -11 -10 -16
-10 -6 0 -7 5 -4 10 3 6 11 10 16 10 6 0 7 -4 4 -10z m-55 -69 c0 -6 -4 -13
-10 -16 -5 -3 -10 1 -10 9 0 9 5 16 10 16 6 0 10 -4 10 -9z m100 -392 c0 -5
-4 -9 -10 -9 -5 0 -10 7 -10 16 0 8 5 12 10 9 6 -3 10 -10 10 -16z m20 -29 c0
-5 -4 -10 -10 -10 -5 0 -10 5 -10 10 0 6 5 10 10 10 6 0 10 -4 10 -10z m70
-66 c0 -8 -4 -12 -10 -9 -5 3 -10 10 -10 16 0 5 5 9 10 9 6 0 10 -7 10 -16z
m100 -89 c0 -8 -7 -15 -15 -15 -8 0 -15 7 -15 15 0 8 7 15 15 15 8 0 15 -7 15
-15z m70 -55 c0 -5 -4 -10 -10 -10 -5 0 -10 5 -10 10 0 6 5 10 10 10 6 0 10
-4 10 -10z m50 -20 c0 -5 -5 -10 -11 -10 -5 0 -7 5 -4 10 3 6 8 10 11 10 2 0
4 -4 4 -10z m76 -67 c-10 -10 -19 5 -10 18 6 11 8 11 12 0 2 -7 1 -15 -2 -18z
m3854 -9 c0 -8 -4 -14 -10 -14 -5 0 -10 9 -10 21 0 11 5 17 10 14 6 -3 10 -13
10 -21z m-3799 -7 c-13 -13 -26 -3 -16 12 3 6 11 8 17 5 6 -4 6 -10 -1 -17z
m929 -12 c-7 -8 -20 -15 -29 -15 -13 1 -13 3 3 15 26 19 42 19 26 0z m97 -2
c-9 -9 -19 -14 -23 -11 -10 10 6 28 24 28 15 0 15 -1 -1 -17z m-967 3 c0 -3
-4 -8 -10 -11 -5 -3 -10 -1 -10 4 0 6 5 11 10 11 6 0 10 -2 10 -4z m741 -16
c-25 -21 -41 -26 -41 -12 0 9 38 30 55 31 6 0 -1 -9 -14 -19z m-691 -10 c0 -5
-5 -10 -11 -10 -5 0 -7 5 -4 10 3 6 8 10 11 10 2 0 4 -4 4 -10z m60 -15 c0 -8
-7 -15 -16 -15 -14 0 -14 3 -4 15 7 8 14 15 16 15 2 0 4 -7 4 -15z m480 -5
c-34 -27 -63 -26 -31 0 13 11 31 20 40 20 12 0 10 -5 -9 -20z m-410 -10 c0
-12 -28 -25 -36 -17 -9 9 6 27 22 27 8 0 14 -5 14 -10z m75 -10 c-3 -5 -14
-10 -23 -10 -15 0 -15 2 -2 10 20 13 33 13 25 0z m181 -5 c-11 -8 -25 -15 -30
-15 -6 0 -2 7 8 15 11 8 25 15 30 15 6 0 2 -7 -8 -15z m-111 -9 c-11 -8 -23
-12 -28 -9 -13 8 3 23 26 23 20 0 20 0 2 -14z m925 -16 c0 -5 -4 -10 -10 -10
-5 0 -10 5 -10 10 0 6 5 10 10 10 6 0 10 -4 10 -10z m2505 -9 c3 -5 1 -12 -5
-16 -5 -3 -10 1 -10 9 0 18 6 21 15 7z m-2447 -13 c-6 -18 -28 -21 -28 -4 0 9
7 16 16 16 9 0 14 -5 12 -12z m118 -85 c-10 -10 -19 5 -10 18 6 11 8 11 12 0
2 -7 1 -15 -2 -18z m84 -48 c0 -8 -7 -15 -15 -15 -16 0 -20 12 -8 23 11 12 23
8 23 -8z m70 -60 c0 -8 -4 -15 -10 -15 -5 0 -10 7 -10 15 0 8 5 15 10 15 6 0
10 -7 10 -15z m90 -96 c0 -11 -4 -17 -10 -14 -5 3 -10 13 -10 21 0 8 5 14 10
14 6 0 10 -9 10 -21z m110 -136 c0 -7 -4 -13 -10 -13 -5 0 -10 9 -10 19 0 11
-4 23 -10 26 -5 3 -10 12 -10 18 1 16 39 -34 40 -50z m110 -128 c0 -8 -4 -15
-10 -15 -5 0 -10 7 -10 15 0 8 5 15 10 15 6 0 10 -7 10 -15z m92 -90 c0 -5 -5
-11 -11 -13 -6 -2 -11 4 -11 13 0 9 5 15 11 13 6 -2 11 -8 11 -13z m68 -61 c0
-8 -5 -12 -10 -9 -6 4 -8 11 -5 16 9 14 15 11 15 -7z m80 -53 c0 -6 -4 -13
-10 -16 -5 -3 -10 1 -10 9 0 9 5 16 10 16 6 0 10 -4 10 -9z m72 -56 c0 -5 -5
-11 -11 -13 -6 -2 -11 4 -11 13 0 9 5 15 11 13 6 -2 11 -8 11 -13z m78 -53 c0
-13 -12 -22 -22 -16 -10 6 -1 24 13 24 5 0 9 -4 9 -8z m50 -27 c0 -8 -4 -15
-10 -15 -5 0 -10 7 -10 15 0 8 5 15 10 15 6 0 10 -7 10 -15z m1155 5 c-7 -12
-276 -142 -282 -136 -7 7 23 24 97 55 41 18 100 45 130 61 63 33 63 33 55 20z
m-1075 -54 c0 -3 -4 -8 -10 -11 -5 -3 -10 -1 -10 4 0 6 5 11 10 11 6 0 10 -2
10 -4z m60 -15 c0 -5 -7 -14 -15 -21 -12 -10 -15 -10 -15 2 0 8 3 18 7 21 9
10 23 9 23 -2z m46 -38 c-10 -10 -19 5 -10 18 6 11 8 11 12 0 2 -7 1 -15 -2
-18z m64 -2 c0 -12 -20 -25 -27 -18 -7 7 6 27 18 27 5 0 9 -4 9 -9z m60 -20
c0 -12 -20 -25 -27 -18 -7 7 6 27 18 27 5 0 9 -4 9 -9z m80 -11 c0 -5 -7 -10
-16 -10 -8 0 -12 5 -9 10 3 6 10 10 16 10 5 0 9 -4 9 -10z m384 -5 c-10 -8
-28 -15 -38 -15 -20 0 -20 0 0 15 10 8 28 15 38 15 20 0 20 0 0 -15z m-314
-10 c-14 -7 -27 -11 -30 -9 -6 7 22 24 40 23 9 0 5 -6 -10 -14z m96 0 c-23
-17 -36 -19 -36 -6 0 11 18 19 40 20 11 0 10 -3 -4 -14z m98 0 c-10 -8 -26
-14 -34 -14 -11 0 -10 3 4 14 11 8 27 15 35 15 11 0 10 -4 -5 -15z"/>
<path d="M6805 6640 c-4 -7 -3 -16 2 -21 12 -12 45 0 40 15 -5 15 -34 19 -42
6z"/>
<path d="M6880 6630 c-11 -7 -12 -12 -3 -21 14 -14 46 -4 41 13 -6 16 -20 19
-38 8z"/>
<path d="M6945 6609 c-10 -15 1 -23 20 -15 9 3 13 10 10 16 -8 13 -22 13 -30
-1z"/>
<path d="M7010 6591 c0 -6 5 -13 10 -16 6 -3 10 1 10 9 0 9 -4 16 -10 16 -5 0
-10 -4 -10 -9z"/>
<path d="M8186 5977 c7 -25 35 -59 42 -52 8 8 -19 63 -35 69 -11 5 -13 1 -7
-17z"/>
<path d="M7400 5768 c0 -7 5 -20 10 -28 8 -12 10 -11 10 7 0 12 -4 25 -10 28
-5 3 -10 0 -10 -7z"/>
<path d="M7460 5544 c0 -27 43 -174 50 -174 13 0 21 48 14 78 -15 61 -64 135
-64 96z"/>
</g>
</svg>
