<svg xmlns="http://www.w3.org/2000/svg" viewBox="0 0 149.37 44.81"><defs><style>.cls-1{fill:#fc1114}.cls-2{fill:#fff}.cls-3{isolation:isolate}</style></defs><title>logobhead</title><g id="Слой_2" data-name="Слой 2"><g id="Слой_1-2" data-name="Слой 1"><path class="cls-1" d="M9.94.33v4.06h2.37v24.07h4.45V.33H9.94z" id="Layer_19" data-name="Layer 19"/><path class="cls-1" d="M0 .33v4.06h2.37v24.07h4.45V.33H0z" id="Layer_18" data-name="Layer 18"/><path class="cls-2" d="M35.01.19v4.06h9.49v24.07h4.75V4.25h9.79V.19H35.01z" id="Layer_16" data-name="Layer 16"/><path class="cls-2" d="M114.22.19h4.45v28.13h-4.45z" id="Layer_15" data-name="Layer 15"/><path class="cls-2" d="M134.53.19a14.23 14.23 0 0 0-14.39 14.07 14.39 14.39 0 0 0 28.78 0A14.23 14.23 0 0 0 134.54.19zm0 24.65a10.71 10.71 0 0 1-10.83-10.58 10.83 10.83 0 0 1 21.66 0 10.71 10.71 0 0 1-10.83 10.58z"/><path class="cls-2" d="M84.85 17.46V.19H81v15.08c0 8.41-3.41 9.57-8.9 9.57s-8.31-2.32-8.31-9.57V.19h-3.56v18.27c0 5.61 5.51 10.15 12.31 10.15s12.31-4.06 12.31-10.15" id="Layer_13" data-name="Layer 13"/><path class="cls-2" d="M98.35.19H86.63v28.13h11.72a14.23 14.23 0 0 0 14.39-14.07A14.23 14.23 0 0 0 98.35.19zM97 24.66h-6.22V4H97c6.55 0 11.86 4.63 11.86 10.35S103.57 24.66 97 24.66z" id="Layer_12" data-name="Layer 12"/><path class="cls-2" d="M33.67 2.07C27.74-2 18.54 0 18.54 7c0 4.93 2.73 6.38 5.93 8.12 2.67 1.45 6.23 3.48 6.23 6.38 0 2.61-2.92 3.37-4.9 3.34-3.79-.07-7.27-3.92-7.27-3.92v4.93a10.68 10.68 0 0 0 11.87 2 6.75 6.75 0 0 0 4.15-6.67c-.15-3.92-1.48-5.8-5.64-8.12C26.89 12 22.4 10.48 22.4 7c0-1.74 1.78-3.48 4.45-3.48 3.26 0 6.82 3.48 6.82 3.48z" id="Layer_11" data-name="Layer 11"/><path class="cls-2" d="M34.44 35.57h.89v2.32h-.89zm2.28 0h.89v2.32h-.89zm4.57 0h.89v4.06h-.89zm-11.41 0h.89v4.06h-.89zm-2.28 0h.89v2.32h-.89zm-2.28 0h.89v2.32h-.89zm-2.28 0h.89v2.32h-.89zm-2.28 0h.89v2.32h-.89zm-2.28 0h.89v4.06h-.89zm-2.28 0h.89v2.32h-.89zm-2.28 0h.89v2.32h-.89zm-2.28 0h.89v2.32h-.89zm-2.28 0h.89v2.32h-.89zm-2.28 0h.89v4.06h-.89zm-2.29 0h.89v2.32h-.89zm-2.28 0h.89v2.32h-.89zm29.65 0h.89v2.32h-.89zm6.85 0h.89v2.32h-.89zm4.56 0h.89v2.32h-.89zm4.56 0h.89v2.32h-.89zm47.89 0h.89v2.32h-.89zm2.28 0h.89v4.06h-.89zm4.57 0h.89v2.32h-.89zm-57.02 0h.89v2.32h-.89zm45.61 0h.89v2.32h-.89zm-2.28 0h.89v2.32h-.89zm-2.28 0h.89v4.06h-.89zm-2.28 0h.89v2.32h-.89zm-2.28 0h.89v2.32h-.89zm-2.28 0h.89v2.32h-.89zm-2.28 0h.89v2.32h-.89zm-2.28 0h.89v4.06h-.89zm-2.28 0h.89v2.32h-.89zm-2.28 0h.89v2.32h-.89zm-2.28 0h.89v2.32h-.89zm-2.29 0h.89v2.32h-.89zm-2.28 0h.89v4.06h-.89zm-2.28 0h.89v2.32h-.89zm-2.28 0h.89v2.32h-.89zm-2.28 0h.89v2.32h-.89zm-2.28 0h.89v2.32h-.89zm-2.28 0h.89v4.06h-.89zm-2.28 0h.89v2.32h-.89zm43.33 0h.89v2.32h-.89zm6.84 0h.89v2.32h-.89zm4.57 0h.89v2.32h-.89zm4.56 0h.89v4.06h-.89zm-2.28 0h.89v2.32h-.89zm41.05 0h.89v2.32h-.89zm-2.28 0h.89v2.32h-.89zm-2.28 0h.89v4.06h-.89zm-2.28 0h.89v2.32h-.89zm-2.28 0h.89v2.32h-.89zm-2.28 0h.89v2.32h-.89zm-2.28 0h.89v2.32h-.89zm-2.28 0h.89v4.06h-.89zm-2.29 0h.89v2.32h-.89zm-2.28 0h.89v2.32h-.89zm-2.28 0h.89v2.32h-.89zm-2.28 0h.89v2.32h-.89zm-2.28 0h.89v4.06h-.89zm-2.28 0h.89v2.32h-.89zm-2.28 0h.89v2.32h-.89zm-2.28 0h.89v2.32h-.89zm-2.28 0h.89v2.32h-.89z" id="Layer_10" data-name="Layer 10"/><g class="cls-3" id="Layer_9" data-name="Layer 9"><path class="cls-2" d="M76.72 41.63a1.09 1.09 0 0 1-.21.73.81.81 0 0 1-1.18 0 1.08 1.08 0 0 1-.22-.73V41a1.09 1.09 0 0 1 .22-.73.81.81 0 0 1 1.18 0 1.09 1.09 0 0 1 .22.73zm-.34-.63a.81.81 0 0 0-.12-.48.45.45 0 0 0-.69 0 .82.82 0 0 0-.12.48v.72a.82.82 0 0 0 .12.48.4.4 0 0 0 .35.16.4.4 0 0 0 .34-.16.83.83 0 0 0 .12-.49z"/></g><g class="cls-3" id="Layer_8" data-name="Layer 8"><path class="cls-2" d="M98.91 42.57h-.34v-2.14H98v-.24l.86-.09z"/></g><g class="cls-3" id="Layer_7" data-name="Layer 7"><path class="cls-2" d="M122.47 42.57h-1.64v-.23l.83-.9a2.28 2.28 0 0 0 .3-.39.6.6 0 0 0 .08-.29.46.46 0 0 0-.11-.31.37.37 0 0 0-.29-.13.51.51 0 0 0-.39.13.52.52 0 0 0-.12.37h-.33a.69.69 0 0 1 .22-.54.86.86 0 0 1 .63-.22.75.75 0 0 1 .54.19.66.66 0 0 1 .2.5.78.78 0 0 1-.12.41 2.61 2.61 0 0 1-.34.44l-.67.71h1.22z"/></g><g class="cls-3" id="Layer_6" data-name="Layer 6"><path class="cls-2" d="M144 41.18h.3a.4.4 0 0 0 .32-.11.46.46 0 0 0 .09-.31.44.44 0 0 0-.11-.32.43.43 0 0 0-.32-.11.45.45 0 0 0-.32.11.4.4 0 0 0-.12.31h-.33a.59.59 0 0 1 .21-.48.81.81 0 0 1 .57-.2.82.82 0 0 1 .56.18.66.66 0 0 1 .21.52.57.57 0 0 1-.09.31.59.59 0 0 1-.28.23.56.56 0 0 1 .32.23.72.72 0 0 1-.13.88.86.86 0 0 1-.58.19.88.88 0 0 1-.57-.18.58.58 0 0 1-.22-.5h.33a.4.4 0 0 0 .12.31.47.47 0 0 0 .34.12.48.48 0 0 0 .34-.12.44.44 0 0 0 .12-.34.46.46 0 0 0-.11-.34.48.48 0 0 0-.35-.11h-.3z"/></g><g class="cls-3" id="Layer_5" data-name="Layer 5"><path class="cls-2" d="M51.61 41.66h-.85v-.26h.85zm1.25.91h-.34v-2.14H52v-.24l.86-.09z"/></g><g class="cls-3" id="Layer_4" data-name="Layer 4"><path class="cls-2" d="M28.71 41.66h-.85v-.26h.85zm1.91.91H29v-.23l.83-.9a2.28 2.28 0 0 0 .3-.39.6.6 0 0 0 .08-.29.46.46 0 0 0-.11-.31.37.37 0 0 0-.29-.13.51.51 0 0 0-.39.13.52.52 0 0 0-.12.37h-.33a.69.69 0 0 1 .22-.54.86.86 0 0 1 .63-.22.75.75 0 0 1 .54.19.66.66 0 0 1 .2.5.78.78 0 0 1-.12.41 2.61 2.61 0 0 1-.34.44l-.67.71h1.22z"/></g><g class="cls-3" id="Layer_3" data-name="Layer 3"><path class="cls-2" d="M5.77 41.66h-.85v-.26h.85zm.74-.48h.3a.4.4 0 0 0 .32-.11.46.46 0 0 0 .09-.31.44.44 0 0 0-.11-.32.43.43 0 0 0-.32-.11.45.45 0 0 0-.32.11.4.4 0 0 0-.12.31H6a.59.59 0 0 1 .21-.48.81.81 0 0 1 .57-.2.82.82 0 0 1 .56.18.66.66 0 0 1 .21.52.57.57 0 0 1-.09.31.59.59 0 0 1-.28.23.56.56 0 0 1 .32.23.72.72 0 0 1-.13.88.86.86 0 0 1-.58.19.88.88 0 0 1-.57-.18.58.58 0 0 1-.22-.5h.33a.4.4 0 0 0 .12.31.47.47 0 0 0 .34.12.48.48 0 0 0 .34-.12.44.44 0 0 0 .12-.34.46.46 0 0 0-.11-.34.48.48 0 0 0-.35-.11h-.3z"/></g><path class="cls-2" d="M75.94 42.99l-1.08 1.82h2.15l-1.07-1.82z" id="Layer_2" data-name="Layer 2"/></g></g></svg>