<svg xmlns="http://www.w3.org/2000/svg" viewBox="0 0 455.8 675.34"><defs><style>.cls-1{fill:#11325b}.cls-G{fill:#fff}.cls-3{fill:#b22327}</style></defs><g id="Слой_2" data-name="Слой 2"><g id="Слой_1-2" data-name="Слой 1"><path d="M228.78 0C59-.23-52.84 177.94 25.5 327.72 84 439.46 147.31 548.67 208.82 658.81c12.51 22.3 26.56 22 39.26-.75 60.81-108.79 123.12-216.73 181.26-326.92C509 180.19 398.94.28 228.78 0z" class="cls-1"/><path d="M226.91 398.79A172.82 172.82 0 0 1 54.17 223.71c1-92.9 79.55-168.15 175.08-167.82 95.9.33 171.85 76.18 172.88 172.6.98 92.86-78.9 170.51-175.22 170.3z" class="cls-G"/><path d="M221.81 271.28v-72.07a25.31 25.31 0 0 0-.21-3.43 75.93 75.93 0 0 0-7.09-23c-17.18-32.75-51.28-29.55-65.37-27.67S116.2 155.7 116.2 155.7v22.55l7 .75c.75-12.24 29.55-27.33 50.45-14.68s19.77 27.53 21.09 40.9-10.12 13.16-10.12 13.16l-38.55.36a42.86 42.86 0 0 0-7.59.64 44.11 44.11 0 0 0-10.33 3.33 46.57 46.57 0 0 0-26.63 43.13 44.77 44.77 0 0 0 13.59 31.38c10 9.6 20.9 14.5 48 15.44s42.73-14.12 42.73-14.12c11.14 19 40.66 10.73 40.66 10.73-18.11-9-24.69-37.99-24.69-37.99zm-28.61-6.42c0 14.45-10.44 27-24.74 29.05a50.69 50.69 0 0 1-16.4-.65 28 28 0 0 1-20.36-15.79 37.85 37.85 0 0 1-3.15-12.33c-1.44-15.72 9.42-30.37 25.11-32.12q.93-.1 1.9-.15c15.44-.75 37.65-1.51 37.65-1.51z" class="cls-3"/><path d="M348.5 239c-14.59-20.9-38.22-19.48-38.22-19.48h-35.76v20.25l6 .28c11.06-6.44 20.06-6.19 26.38-4.21a26.57 26.57 0 0 1 14.78 9.46 23.11 23.11 0 0 1 4.41 8.3 26.47 26.47 0 0 1 1.15 5.66v1.18a33.82 33.82 0 0 1-3.89 17.78c-8.62 16.75-28.19 17.13-45.78 13.47s-16.94-28.89-16.94-28.89v-67.34a31.09 31.09 0 0 1 5.06-17.26q.79-1.18 1.64-2.28a42.72 42.72 0 0 1 33.18-16.2 76.18 76.18 0 0 1 10.87.54c11.85 1.51 19.24 16.38 19.24 16.38h7.91v-23c-28.3-14.87-49.12-12.12-55.89-10.54-1.79.42-3.59.73-5.41 1-22.74 3.55-36.1 26-41.74 38.08a33.14 33.14 0 0 0-3.11 14v65c1.41 13.27 4.89 28.35 21.18 40.94s38.68 11.3 59.39 9.42c18.22-1.66 29.66-16 32.14-19.41a10.93 10.93 0 0 0 .89-1.44c2.52-4.76 15.81-32.64 2.52-51.69z" class="cls-1"/></g></g></svg>