<svg id="Слой_1" xmlns="http://www.w3.org/2000/svg" viewBox="0 0 500 702"><style>.st0{fill:#fff}</style><path class="st0" d="M427 702H73c-.6-.3-1.1-.7-1.8-.8-41-7-67.3-36.9-69.4-78.5C1.4 613.8.6 604.9 0 596v-60c.3-1.8.7-3.6.8-5.3 1.5-42.4 6.2-84.4 14.2-126 11.1-57.6 27.9-113.3 54.5-165.8 18.5-36.5 41-70.1 71.4-97.9 1.4-1.3 2-4.1 2-6.1.1-25 0-50 .1-75 .1-28 18.6-51.4 45.8-58.2 2.1-.5 4.1-1.2 6.1-1.7h111c.4.2.9.6 1.3.7 33.4 7.1 51.3 29.2 51.3 63.2 0 24.2-.1 48.3.1 72.5 0 2.3 1.1 5.3 2.7 6.9 14.8 14.1 28 29.5 39.6 46.3 38.3 55.3 61.1 117.2 76.8 182 11.1 46.1 17.7 92.9 20.4 140.2.5 8.1 1.1 16.2 1.7 24.3v76c-.6 4.2-1.7 8.3-1.9 12.5-1.6 35.9-25.8 65.9-60.6 75-3.2.8-6.8 1.6-10.3 2.4zm16.9-345.2c-.4-1.6-.6-2.5-.9-3.5-9.3-34.1-21.4-67.2-37.2-98.9-16.6-33.1-36.7-63.8-63.8-89.4-2.5-2.3-5-3.3-8.4-3.3-55.5.1-111 .1-166.5 0-4.2 0-7.1 1.3-10.1 4.1-29.6 28.3-51 62.3-68 99.1C52.9 343.4 36.7 426.5 31 512c-2.4 36.3-2 72.6-.1 108.9C32.5 652.2 53.7 673 85 673h329.9c4.1 0 8.3-.3 12.4-1 23-3.9 41.7-26.2 41-49.3H304.5c-12 0-17.6-5.6-17.6-17.3V373.9c0-11.6 5.6-17 17.2-17h133c2.2-.1 4.2-.1 6.8-.1zm26 236.3c.1-2.1.3-3.7.3-5.3-.1-18 .3-36-.3-54-1.5-48.2-7.4-95.9-17.5-143.1-.8-3.9-2.3-4.9-6.2-4.9-41.5.1-83 .1-124.5.1h-4.9v207.2h153.1zM203.1 132.6V127c0-19.5-.1-39 0-58.5 0-9.7 6.5-16 15.5-15.7 8.4.4 13.8 6.6 13.9 16.3.1 19.2 0 38.3.1 57.5 0 1.9.2 3.8.3 5.8h32.2v-5.7c0-19.5-.1-39 0-58.5 0-9.6 6.6-15.9 15.7-15.4 8 .4 13.5 6.5 13.6 15.5.1 19.5 0 39 .1 58.5 0 1.9.2 3.8.3 5.6h34.4v-5.2-65.5c0-20.1-12.6-32.7-32.7-32.8h-90.9c-20.4 0-33 12.7-33 33.1-.1 21.7 0 43.3 0 65 0 1.8.2 3.6.2 5.5 10.1.1 19.9.1 30.3.1z"/><path class="st0" d="M222.2 334.9c0 27.8.9 55.7-.2 83.5-1.6 38.2-33.6 69.4-71.9 71.5-38.4 2.2-70.7-20.8-79.5-56.8-3.9-15.9-2.7-31.5 4-46.4 22.6-50.4 45.3-100.8 68.1-151.1 7.7-17 24.1-26.3 42-24.4 18.1 1.8 32.9 14.5 36.7 31.8.9 3.9 1 7.9 1 11.9.1 26.7 0 53.3 0 80h-.2zm-29.2-.4s.1 0 0 0v-80.9c0-6.8-2.4-10.6-7.7-12.6-7.2-2.6-12.9-.1-16.4 7.7-11 24.2-21.9 48.5-32.9 72.7-11.4 25.3-22.8 50.6-34.2 76-5.7 12.8-5.6 25.6.7 38.1 9.7 19.6 30.6 29.1 53 24.3 21.1-4.5 37.3-23.6 37.5-44.8.2-26.8 0-53.6 0-80.5z"/></svg>