<svg id="Слой_1" xmlns="http://www.w3.org/2000/svg" viewBox="0 0 496.1 582"><style>.st0{fill:#e31f25}</style><path class="st0" d="M174 0h148c6.7 2.7 12.9 6.4 14.4 13.9 1 5.2 3.6 5.5 7.7 5.5 40.2-.1 80.3-.1 120.5 0 19.3 0 31.5 11.8 31.5 30.4v501.9c0 18.2-12.1 30.3-30.5 30.3H30.7c-3.6 0-7.4-.5-10.8-1.6C7.3 576.4 0 565.7 0 551.3V50.4c0-1.2 0-2.3.1-3.5.5-7.6 3.4-14.2 9-19.5 6.5-6.1 14.3-8.1 23-8.1h126.2C161 7.9 162.8 5.7 174 0zm163.7 78c-2.7 13.4-9.5 19-22.7 19H181c-2.3 0-4.7 0-6.9-.6-9.5-2.4-14.3-9-15.6-18.3H60v445.6h376.4V78h-98.7zM158.6 38.9H33c-10.5 0-13 2.5-13 12.9v498c0 10.2 2.7 13 13.1 13h430c10.6 0 13.3-2.7 13.3-13.3V52c0-10.5-2.5-13.1-12.9-13.1H337.8v19.3h96.1c15.1 0 22.7 7.6 22.7 22.8v439.5c0 15.4-7.3 22.8-22.6 22.8H62.5c-15.3 0-22.6-7.4-22.6-22.7 0-146.5.1-293-.2-439.5 0-15.7 10.8-23.2 23.3-23 30 .4 60 .1 90 .1h5.7c-.1-6.9-.1-12.8-.1-19.3zm20.5-19.6v58.1c1.2.1 2 .2 2.8.2 43.8 0 87.6 0 131.4.1 3.8 0 4.3-1.5 4.3-4.8-.1-16-.2-32 .1-48 .1-4.7-1.4-5.8-5.9-5.8-42.5.2-85 .1-127.4.1-1.6.1-3.2.1-5.3.1z"/><path class="st0" d="M288.6 291.1h-81.2c-.3.8-.8 1.6-1.1 2.5-6.3 16.3-20.3 26.3-37 26.4-17.1.2-31.4-9.4-37.9-25.8-1.1-2.7-2.4-3.5-5.1-3.3-3.7.2-7.3.1-11 0-15-.2-25.4-9.7-26-24.6-.5-13-.5-26 0-39 .6-14.5 11.2-24.2 25.7-24.6.7 0 1.4-.1 2 0 13.2 2.7 21.3-3.1 28.2-14.2 8.5-13.7 18.9-26.2 28.4-39.2 6.4-8.8 15.1-13.4 26-13.5 32.2-.1 64.3-.1 96.5 0 11.3 0 20.1 4.8 26.8 13.9 12 16.4 24.1 32.8 36 49.2 1.9 2.7 3.9 4 7.4 3.8 5.6-.3 11.3-.2 17 0 13.6.5 24.1 10.6 24.6 24.1.4 12.8.4 25.7 0 38.5-.4 14.6-11.6 25.2-26.2 25.5-.7 0-1.3.1-2 0-8.8-1.4-14 1-18.6 10-7.3 14.4-21.3 20.4-37.4 18.9-15.7-1.5-26.8-9.9-33.2-24.5-.5-1.2-1-2.4-1.5-3.7-.1 0-.2-.1-.4-.4zm-40-69H117.1c-5.3 0-8 2.1-8 6.8-.1 12-.1 24 0 36 0 4.4 2.7 6.6 7 6.8 3.3.1 6.7-.1 10 .1 2.9.2 4.3-.9 5.4-3.7 6.8-16.4 19.4-24.9 37.1-25.4 17-.5 31.5 9 38.1 24.9 1.4 3.4 3.2 4.3 6.6 4.2 23.3-.1 46.6-.2 70 0 4 0 5.9-1 7.6-5 6.4-15 18.2-22.9 34.4-24.1 15.9-1.2 29.4 4.4 36 19 4.3 9.5 9.9 11 18.6 10.1 5.9-.6 8-2.3 8-8.4v-31.5c0-8.2-1.6-9.8-10-9.8H248.6zm-10.9-19.5v-48.4c-13.2 0-26-.2-38.8.1-4.8.1-8.8 2.6-11.7 6.7l-27 38.4c-.6.9-1 1.9-1.6 3.2h79.1zm99.5-.1c-10.4-14.3-20.4-27.8-30.1-41.5-3.4-4.9-7.9-6.9-13.6-6.8-9.5.1-19 0-28.5 0h-6.8v48.4c26.2-.1 52.1-.1 79-.1zM168.6 262c-11 .1-19.8 8.8-19.7 19.6.1 10.5 8.9 19.1 19.6 19.2 10.8.1 19.9-8.8 20-19.4.1-10.7-8.9-19.5-19.9-19.4zm178.6 19.3c0-10.8-8.8-19.4-19.8-19.4-10.8 0-19.5 8.5-19.6 19.1-.1 10.8 8.7 19.6 19.6 19.7 10.8.2 19.8-8.6 19.8-19.4zM174 417.1c24 0 48-.1 72 .2 3.3 0 7.6 1.3 9.8 3.6 5.3 5.3 1.5 14.3-6 15.5-1.6.3-3.3.3-5 .3H102.3c-1.7 0-3.3 0-5-.3-5-.8-8-4.3-8.1-9.3-.1-4.7 2.6-8.4 7.3-9.5 1.9-.4 4-.4 5.9-.4 23.9-.1 47.8-.1 71.6-.1zM173.5 485H100c-7.8 0-12.1-5.3-10.3-12.3 1-4 3.6-6.3 7.7-6.8 1-.1 2-.1 3-.1h146.5c6.3 0 9.9 2.5 11 7.3 1.5 6.7-2.9 11.9-10.3 12-18 .1-36 0-54 0-6.8-.1-13.4-.1-20.1-.1zM173.7 368.7h73c7.5 0 11.3 3.5 11.3 9.7 0 5.1-3.3 8.9-8.4 9.5-1 .1-2 .1-3 .1h-146c-7.7 0-12-4.2-11.2-10.7.6-5.1 3.8-8.3 9.4-8.5 7.3-.2 14.7-.1 22-.1h52.9zM347.7 438.5c1.3-1.8 2.4-3.2 3.5-4.6 12.3-16.8 24.5-33.6 36.8-50.3 4.5-6.1 10.4-7.1 15.4-2.8 4.5 3.9 4.8 8.5.7 14.1-14.3 19.6-28.7 39.2-43 58.8-1.4 1.9-2.7 3.8-3.7 5.9-3.5 7-13.5 8.4-18.1 2-6.9-9.5-13.5-19.4-19.9-29.3-3.1-4.8-1.6-10.2 2.9-13.1 4.8-3 10.4-2.2 13.7 2.4 4 5.4 7.6 10.9 11.7 16.9z"/></svg>