<svg id="Слой_1" xmlns="http://www.w3.org/2000/svg" viewBox="0 0 500 440"><style>.st0{fill:#fff}</style><path class="st0" d="M158 0h186c1.1.3 2.2.8 3.3.9 39 5 72 36.9 76.5 75.8 1.9 16.6 1 33.5 1.3 50.3v5.7c3.7 0 6.7.1 9.7 0 29.2-.6 54.6 18.1 62.7 46.2 1 3.3 1.7 6.7 2.5 10.1v15c-.4 1.1-.8 2.1-1.1 3.2-4 17.1-13.8 29.7-29.7 37.2-3.8 1.8-8 2.9-12.3 4.4v133.9c0 18.7-13.4 32.2-32 32.4-15 .1-30 0-45 0H374c0 5.2-.3 9.8.1 14.4.3 4.7-1.2 8.1-5.1 10.5h-5c-4.1-2.6-5.4-6.3-5.1-11 .3-4.4.1-8.9.1-13.6H141c0 4.7-.2 9.2.1 13.6.3 4.7-1 8.4-5.1 11h-5c-4.2-2.5-5.4-6.3-5.1-11 .3-4.4.1-8.9.1-13.9H78.6c-3 0-6-.1-8.9-.7-15.2-3.3-24.7-15.6-24.7-31.9-.1-42.5-.1-85 .1-127.5 0-4.4-.8-6.4-5.6-7.7-19.4-5.2-31.8-17.9-37.5-37.2-.6-2-1.2-4.1-1.8-6.1v-15c.3-1.1.7-2.2.9-3.3 6-32.5 33.2-54.3 66.2-52.9 2.9.1 5.8.3 9.2.5 0-14.1-.1-27.8 0-41.4.4-43.6 28.1-79.4 69.5-89.4 3.9-1 7.9-1.7 12-2.5zm-17 261.8h218c0-16.7-.2-33 0-49.3.4-34.5 16.4-59.2 47.7-73.8 2.5-1.2 3.4-2.5 3.3-5.2-.1-14.2 0-28.3-.1-42.5-.2-42.6-33.2-75.7-75.9-75.7-55.7-.1-111.3-.1-167 0-41.6.1-74.4 32-75.4 73.5-.4 15.2-.2 30.3 0 45.5 0 1.6 1.5 4.1 2.9 4.8 30.9 15.4 46.3 40.4 46.3 74.9.2 15.8.2 31.6.2 47.8zm-81-13.1v131.4c0 14.2 5.7 19.9 20 19.9h341.5c14.5 0 20.4-5.8 20.4-20.2V254.3v-5c-1.2-.4-2.1-.8-3-1.1-19.8-4.9-32.2-19.1-34.4-39.2-2.2-20.2 14.5-39.5 34.6-39.9 5.3-.1 8.8 2.7 9 7.2.2 4.4-2.6 7.3-7.8 7.9-1 .1-2 .2-3 .4-10.5 1.9-17.7 10.3-17.8 21-.1 12.7 9 24.4 21.4 27.4 23.7 5.8 47.1-16.4 43.7-41.5-4.1-30.9-31.5-49.4-62.3-42-28.5 6.9-48.1 31.7-48.2 61.5-.2 40 0 80 0 120 0 8.8-2.1 11-10.8 11H136.8c-8.7 0-10.9-2.1-10.9-10.9 0-40.2.1-80.3 0-120.5-.1-26.7-16.6-50.1-41.5-59.1-29-10.4-58.1 2.7-67 30.2-7.2 22.5 3.3 44.3 24.3 50.7 17 5.1 33.2-3.2 37.7-19.2 3.4-12.2-2.2-24-13.3-27.6-2.5-.8-5.2-.9-7.8-1.4-4-.8-6.2-3.2-6.3-7.2-.1-4.3 2.3-6.9 6.4-7.7 1.9-.4 4-.1 6 .2 22.2 3.5 35.7 24.2 30.1 46.3-4.6 17.7-16.4 28.4-34.5 32.9zm298.9 29.1H141.4v48.6h217.5v-48.6z"/></svg>