<svg id="Слой_1" xmlns="http://www.w3.org/2000/svg" viewBox="0 0 500 440.9"><style>.st0{fill:#e31f25}</style><path class="st0" d="M0 377.9V0h500v377.9c-2.9 4-6.9 4.9-11.7 4.9-16.1-.2-32.3-.1-48.4-.1-1.8 0-3.5.1-5.7.2v5.8c0 13.8-.2 27.6.1 41.4.1 5.1-1.4 8.7-6.2 10.7h-6c-10.1-9.9-20.2-19.8-32.2-31.5-9.8 10.7-19.3 21.1-28.8 31.5h-5c-4.7-2.1-6.4-5.7-6.1-10.8.3-4.8.1-9.7.1-14.5v-32.9h-6.8c-110.3 0-220.6 0-330.9.1-5 .1-9.4-.4-12.4-4.8zM449.7 82.4c-17.4-4.3-28.1-15.2-32.4-32.2H82.7c-6.3 19-13.1 25.8-32.5 32.4-.1.9-.2 1.9-.2 2.8 0 70.3 0 140.7-.1 211 0 2.8.7 3.9 3.6 4.8 14.1 4.2 23.6 13.4 27.8 27.5 1.1 3.6 2.8 4.1 6 4.1 79.8-.1 159.7-.1 239.5-.1 1.4 0 2.8-.2 4.5-.3-33.7-37.6-27.1-85.7-1.5-113.6 13.4-14.6 30-23.8 49.6-26.6 26.6-3.8 49.9 4.1 70.3 22.5V82.4zM17.2 17v348.6h332.6v-16.2H79.2c-10.1 0-11.3-1.1-12.7-11-1.7-12.4-9.7-20.5-22.1-22.2-10-1.4-11.1-2.6-11.1-12.5v-172-55c0-7.2 2.1-9.3 9.2-10.4 3.9-.6 8-1.4 11.4-3.1 8.4-4.3 12.3-11.9 12.7-21.2.2-4.5 1.9-7.8 6.7-8.6 2.1-.4 4.3-.3 6.5-.3 113.5 0 227 0 340.5-.1 9.6 0 12.7 1.8 13.5 11.5 1 12.3 9.6 20.3 21.7 21.7 9.9 1.2 11.3 2.7 11.3 12.5 0 51.3 0 102.7.1 154 0 3.4 1.2 6.8 1.9 10.1 2 9.4 5.6 18.7 5.9 28.2 1.2 31-11.9 55.3-37.3 73.1-1.3.9-3 2.2-3.1 3.4-.3 6.1-.1 12.2-.1 18.2H483V17H17.2zm441 257.6c0-36.2-30.3-66.6-66.4-66.6-36.5 0-66.6 29.9-66.7 66.3-.1 36.7 30 66.8 66.7 66.7 36.6-.1 66.4-29.9 66.4-66.4zM367 410.9c.4.3.7.5 1.1.8 5.3-5.5 10.5-11 15.8-16.4 6-6.1 9.3-6 15.5.1 4.5 4.5 8.9 9 13.4 13.4.9.9 2.1 1.7 3.4 2.9v-57c-16.6 4.6-32.8 4.6-49.3 0 .1 19 .1 37.6.1 56.2z"/><path class="st0" d="M250 183H118.6c-6.5 0-9.5-2.2-10.2-7.2-.6-4.6 1.9-8.3 6.5-9.2 2.1-.4 4.3-.4 6.5-.4h257.4c2.3 0 4.7 0 6.9.5 4.3.8 6 4 6 8 0 4.3-2.2 7.3-6.7 8-1.6.3-3.3.1-5 .1-43.4.2-86.7.2-130 .2zM249.5 141.3H120.6c-8.7 0-12.2-2.3-12.2-8.2-.1-5.9 3.4-8.4 12-8.4h259.4c1.8 0 3.7-.1 5.5.2 4.5.8 6.5 4 6.4 8.2-.1 4-1.9 7.1-6.2 7.8-2 .3-4 .3-6 .3-43.4.1-86.7.1-130 .1zM225.2 207.9h57c6.4 0 10 3.4 9.5 8.9-.4 3.8-2.2 6.6-6.2 7.4-1.5.3-3 .4-4.5.4H169.1c-7.5 0-11.3-3.4-10.7-9.3.5-4.9 3.6-7.4 9.4-7.5 19.1.1 38.3.1 57.4.1zM250.5 83h48c6.1 0 9.1 2.4 9.7 7.2.7 6.2-2.7 9.6-9.7 9.6-21.2.1-42.3 0-63.5 0-11.3 0-22.7.1-34 0-6.4-.1-9.6-3.3-9.2-9.1.3-5.1 3.4-7.6 9.7-7.6 16.4-.1 32.7-.1 49-.1zM149.5 266.1H118c-6.4 0-9.7-2.8-9.7-8.1-.1-5.3 3.2-8.4 9.5-8.4 21.5-.1 42.9-.1 64.4 0 6.3 0 9.6 3.1 9.5 8.4-.1 5.3-3.3 8.1-9.8 8.1h-32.4zM249.5 266.1H218c-6.4 0-9.7-2.8-9.8-8.1-.1-5.3 3.2-8.4 9.5-8.4 21.5-.1 42.9-.1 64.4 0 6.3 0 9.6 3 9.5 8.4-.1 5.3-3.3 8.1-9.7 8.1h-32.4zM125 208c3 0 6-.2 9 0 4.6.3 7.4 3.2 7.7 7.6.3 4.5-2.3 8.4-7 8.7-6.4.4-13 .4-19.4 0-4.7-.3-7.3-4.2-7-8.8.3-4.4 3.1-7.3 7.7-7.6 3-.1 6 .1 9 .1zM341.8 271.6c1.1-25.3 22.7-46.4 48.1-46.9 6.4-.1 9.8 2.4 10.1 7.7.3 5.3-2.7 8.2-9.1 8.8-18.8 1.8-30.5 13.2-32.5 31.7-.8 7.3-3.6 10.3-9.1 9.9-5.4-.4-7.8-3.9-7.5-11.2zM393 324.4c-6 .1-9.3-2.6-9.7-7.7-.3-5.3 2.8-8.4 9-8.9 18.9-1.4 31.4-14 32.6-32.7.4-5.9 3.4-9.1 8.5-9 5.2.1 8.4 3.7 8.3 9.7-.3 26-22.6 48.2-48.7 48.6z"/></svg>