<svg id="Слой_1" xmlns="http://www.w3.org/2000/svg" viewBox="0 0 500 500"><style>.st0{fill:#fff}</style><path class="st0" d="M378 0c4.1 2.3 5.4 5.8 5.3 10.4-.2 10.3-.1 20.5-.1 31.1h-16.4V17.2H116.7v88.1c0 9.2-2.4 11.6-11.5 11.6H17v366.3h291v16.9H0v-393c1.9-2.6 3.6-5.5 5.9-7.8C36.4 68.6 66.9 38 97.5 7.5c2.7-2.7 5.6-5 8.5-7.5h272zM99.5 99.8V30.5L30.2 99.8h69.3z"/><path class="st0" d="M339 500c-4.5-2.2-5.8-5.8-5.8-10.6.1-59.6 0-119.2.1-178.8 0-8.1 2.6-10.6 10.9-10.6 48.3 0 96.5 0 144.8-.1 4.7 0 8.4 1.1 11 5.1v195H339zm11.1-17.1h132.7V367.1H350.1v115.8zm.1-133.2H483v-32.6H350.2v32.6zM500 160c-.9 4.2-1.8 8.4-2.8 12.5-10.4 41.8-49.5 71.2-91.8 69.1-45-2.2-80.8-33.9-87.5-77.5-7.8-50.8 26.9-97.8 77.5-105 50.3-7.2 96.7 27.7 103.7 78.1.1.9.6 1.8.9 2.7V160zm-16.8-9.9c0-41.7-33.1-75-74.7-75.1-41.6 0-75 33.1-75.2 74.7s33.4 75.3 75.1 75.3c41.6 0 74.8-33.2 74.8-74.9zM291.5 375.3v16H75.4v-16h216.1zM291.4 417.1V433H75.2v-15.9h216.2zM258.5 291.5h-16.6V161.9c-4.2 3.9-7.4 7-10.9 10.3-3.6-3.9-7.1-7.8-10.6-11.6 8-8.2 16.2-17 24.9-25.4 3-2.9 7-2.5 10 .4 8.5 8.2 16.7 16.7 24.9 25.1-3.8 3.8-7.5 7.5-11.7 11.8-2.8-3.2-5.8-6.6-8.7-9.9-.4.2-.9.4-1.3.7v128.2zM52.9 177.5c8.4-8.5 16.6-17 25.1-25.2 3.5-3.4 7.6-3.2 11.2.3 8.4 8.1 16.5 16.4 24.9 24.8-4 3.9-7.8 7.5-12.1 11.7-2.8-3.2-5.7-6.6-8.6-10-.4.2-.9.4-1.3.6v111.7H75.2V178.3c-4 4.4-7 7.7-10.1 11.2-4.7-4.5-8.4-8.3-12.2-12zM196.9 210.5l-11.6 11.6c-2.8-3.2-5.8-6.5-8.8-9.8-.4.2-.8.4-1.3.6v78.6h-16.8V212c-4.3 4-7.5 7.1-10.9 10.2-3.8-4-7.4-7.8-11.1-11.8 8.1-8.2 16.3-16.7 24.8-24.8 3.3-3.2 7.5-3.3 10.8 0 8.5 8.2 16.7 16.7 24.9 24.9zM75.4 333.5h124.2v16.1H75.4v-16.1zM283 83.6v16H158.6v-16H283zM207.9 58h-49.2V42.1h49.2V58zM249.8 349.8h-32.7v-16.2h32.7v16.2zM367 258.5h15.9v24.3H367v-24.3z"/><path class="st0" d="M375.2 399.7v-16.1h16.2v16.1h-16.2zM408.6 383.5h16.1v16.2h-16.1v-16.2zM375.3 466.4v-16.1h16.1v16.1h-16.1zM408.5 466.3v-15.9h16.1v15.9h-16.1zM408.6 433v-15.8h16.1V433h-16.1zM442.1 383.5H458v16.2h-15.9v-16.2zM375.3 417h16.1v15.8h-16.1V417zM458 466.5h-15.9v-16.1H458v16.1zM457.9 433h-15.8v-15.8h15.8V433zM374.8 325.4v16h-16.1v-16h16.1zM399.8 325.4v16.3c-4.8 0-9.5.1-14.2-.1-.8 0-2.1-1.9-2.2-2.9-.3-4.3-.1-8.6-.1-13.3h16.5zM408.5 341.4v-16.1h16.2v16.1h-16.2zM449.7 325.4v16.1h-16v-16.1h16zM474.8 325.3v16.2h-16.2v-16.2h16.2zM375.2 167h16.2c.2 2.5.4 4.9.6 7.7h32.6v-16.4h-12.1c-7.2 0-14.3.1-21.5-.1-9.7-.3-15.8-6.4-16-16.1-.1-5.5-.1-11 0-16.5.1-10.8 6.2-16.9 17-17.3 2.5-.1 4.9 0 7.8 0V92.2h16.6v15.9c8.5.4 18-1.2 22.5 7.7 2.5 4.9 2.6 11 3.9 17.2h-17.5c-.2-2.5-.3-4.9-.5-7.6h-32.7v16.5h21.4c4 0 8-.1 12 0 9.6.3 15.6 5.9 16.1 15.5.4 6.1.3 12.3 0 18.5-.5 9.8-6.4 15.4-16.4 15.9-2.6.1-5.3 0-8.4 0v16.1H400V192c-8.1-.4-16.1.8-21.6-6.2-4.2-5.5-3.5-11.9-3.2-18.8z"/></svg>