<svg id="Слой_1" xmlns="http://www.w3.org/2000/svg" viewBox="0 0 500 328"><style>.st0{fill:#e31f25}</style><path class="st0" d="M500 36v256c-.4 1.1-.8 2.2-1.1 3.3-4.5 16.9-15.2 27.5-32.2 31.7-.9.2-1.8.7-2.7 1H36c-1.1-.4-2.1-.8-3.2-1.1-10.6-2.6-19.5-8-25.2-17.3-3.3-5.4-5.1-11.7-7.6-17.6V36c.3-.9.8-1.8 1-2.7 4.3-17 14.9-27.6 31.8-32.2C33.9.8 34.9.4 36 0h428c.9.3 1.8.8 2.7 1 16 3.9 26.4 13.7 31.5 29.3L500 36zM32.5 18.4c-.1.5-.1 1-.2 1.4C104.8 80 177.3 140.2 250 200.5 322.8 140 395.3 79.9 467.8 19.8c-.1-.4-.2-.9-.3-1.3-3.7-.5-7.5-1.4-11.2-1.4-30.7-.1-61.3-.1-92-.1-106.4 0-212.9 0-319.3.1-4.2 0-8.3.8-12.5 1.3zm146 144.9c-49 48.9-97.5 97.4-146.3 146.1 3.8.5 8 1.5 12.2 1.5 137 .1 273.9.1 410.9.1 2 0 4 .1 6-.3 2.4-.5 4.8-1.5 7-2.2-48.9-48.8-97.3-97.2-146-145.8-.8.7-2.2 1.7-3.4 2.7-19.9 16.5-39.7 33-59.6 49.5-8.5 7-10.1 7-18.8-.2-4.6-3.8-9.2-7.7-13.8-11.5-16.4-13.6-32.8-27.2-48.2-39.9zM19 30.9c-.8 4.6-1.9 8.1-1.9 11.6-.1 81-.1 162 0 242.9 0 3.1.9 6.3 1.4 9.1 48.3-48.2 96.2-96.1 144.4-144.2C115.5 111 67.8 71.4 19 30.9zm462.2-.1c-49 40.7-96.8 80.3-144.2 119.6 48.2 48.2 96.2 96.1 144.5 144.4.4-3.2 1.3-6.5 1.3-9.9.1-80.6.1-161.3 0-241.9 0-3.6-.9-7.2-1.6-12.2z"/></svg>