<svg id="Слой_1" xmlns="http://www.w3.org/2000/svg" viewBox="0 0 495.9 494.9"><style>.st0{fill:#e31f25}</style><path class="st0" d="M0 489.4v-462c.2-.2.6-.4.7-.7C6.8 7.8 17.3 0 37.2 0h421.9c4 0 8.1.2 11.9 1.2 15.9 4.1 24.9 17.2 24.9 35.9V483c0 1.2.1 2.3 0 3.5-.4 5.3-2.8 7.8-8.1 8.3-2.2.2-4.3.1-6.5.1H75.4c-21.5 0-43-.1-64.5 0-4.8 0-8.6-1-10.9-5.5zm41-299.6c-5.1-.7-7.9-3.6-7.9-8.7 0-16.3-.1-32.7 0-49 0-5.2 2.8-8 7.9-8.5 1.5-.1 3-.1 4.5-.1h404.4c1.3 0 2.7-.1 4 0 5.7.3 8.7 3.1 8.8 8.7.1 16.2.2 32.3-.1 48.5-.1 2.7-2.1 6.5-4.3 7.6-3.4 1.6-3.9 3.5-3.9 6.8.1 92.5.1 185 .1 277.5v5.4h24.7v-5.8V36.8c0-14.3-6.1-20.4-20.3-20.4H37c-14 0-20.3 6.2-20.3 20v436.4c0 1.7.2 3.5.3 5.2h24.1c-.1-95.9-.1-191.7-.1-288.2zM58.1 478h379.5V289H58.1v189zm387.7-304.9v-32.3H50.1v32.3h395.7zm-8 16.8H58.3v15.9h379.5v-15.9zM58.1 238.8h379.6v-15.9H58.1v15.9zm0 33h379.6v-15.9H58.1v15.9z"/><path class="st0" d="M248.2 33h111.5c10.2 0 12.2 2 12.2 12.4v51c0 8.4-2.5 10.9-11.1 10.9h-226c-8.3 0-10.8-2.5-10.8-10.7v-53c0-8.3 2.3-10.6 10.8-10.6h113.4zM140.7 90.3h214.2V49.7H140.7v40.6zM281.7 437.3h-41c-5 0-10 .3-15-.1-7.2-.5-12.3.2-16.1 8.5-5.3 11.5-16.4 16.6-29.4 16-12.9-.6-22.2-7.1-28.2-18.5-.9-1.8-1.6-3.7-2.5-5.9-3.7 0-7.5.1-11.3 0-13.8-.3-22.3-8.9-22.5-22.7-.1-10-.1-20 0-30 .2-13.9 8.8-23.2 22.6-22.1 11.8 1 18.9-2.9 24.9-12.9 6.6-11.1 15-21.2 22.5-31.8 5.2-7.3 12.1-11.4 21-11.6 9.7-.2 19.3-.2 29-.2 16.3 0 32.6.2 48.9-.1 11.6-.2 20.4 4.1 27 13.9 9 13.2 18.5 26.1 28 38.9 1.3 1.8 4.1 3.1 6.4 3.3 4.8.5 9.7 0 14.5.2 11.3.5 20.1 9.2 20.4 20.6.2 10.8.3 21.7 0 32.5-.3 12.4-9.4 21.9-22.1 21.7-8.3-.1-13.2 1.5-17.5 9.7-6 11.5-17.4 16.1-30.5 14.9-12.7-1.2-21.5-8.1-27-19.5-.7-1.5-1.3-3.1-2.1-4.8zm64.6-17.1c.6.1 1.1.3 1.6.3 3.2 0 6.3.1 9.5 0 5.4-.1 6.9-1.4 7-6.8.1-9.2.1-18.3 0-27.5 0-6.4-1.5-7.9-8.1-7.8-9.1.2-18.3.8-27.4.8-38.3.1-76.6.1-114.9 0-24.8-.1-49.6-.6-74.3-.8-5.7-.1-7.4 1.8-7.5 7.4-.1 7 0 14 0 21 0 13.8 0 13.8 13.8 13.7 2.6 0 4-.6 5.1-3.3 5.6-13.7 16-20.9 30.8-21.4 13.8-.5 25.8 7.4 31.4 20.6 1.5 3.5 3.4 4.1 6.7 4.1 19-.1 38-.2 57 0 3.7 0 5.4-.9 6.9-4.5 5.9-13.4 16.5-20.1 31-20.2 14.2-.1 23.8 7.1 29.6 19.8.5 1.6 1.2 3.1 1.8 4.6zm-172.8-58.4h65.8v-40.2c-8.6 0-16.8.5-24.9-.1-9.6-.8-16 2.8-20.9 11-6 9.9-13 19.1-20 29.3zm147.4.1c-.4-1-.6-1.6-.9-2.1-8-11.3-15.9-22.6-24.1-33.7-1.5-2-4.6-4-7-4.1-10.8-.4-21.5-.2-32.4-.2v40.1h64.4zM182 412.4c-9-.1-16.6 7.2-16.8 16.2-.2 8.9 7.4 16.6 16.3 16.7 9.1.1 16.5-7.2 16.6-16.3.2-9.1-7-16.4-16.1-16.6zm131.8 0c-9.1.1-16.4 7.6-16.3 16.6.1 9 7.7 16.4 16.7 16.3 9-.1 16.4-7.6 16.3-16.7-.2-9-7.6-16.2-16.7-16.2z"/></svg>