<svg id="Слой_1" xmlns="http://www.w3.org/2000/svg" viewBox="0 0 490.4 479.1"><style>.st0{fill:#e31f25}</style><path class="st0" d="M179.1 479.1c-5.4-3-7.2-7.7-6.9-13.8.3-7.1.1-14.3.1-21.1-.7-.5-.9-.8-1.2-.9-4.5-1-9.8-4-13.3-2.5s-5.1 7.3-7.5 11.3c-1.8 3-3.5 6.1-5.3 9-3.6 5.8-8.5 7.3-14.5 4-16.6-9.3-33.1-18.6-49.5-28.1-5.7-3.3-6.9-8.4-3.7-14.1 4-7.1 8.2-14.1 13.1-22.3-3.1-2.7-6.3-5.8-9.9-8.5-.9-.7-3.1-.5-4.3.2-6.2 3.3-12.2 6.9-18.3 10.3-7 3.9-11.8 2.7-15.9-4.2l-27.3-46.5c-4.1-7-2.8-11.7 4.3-15.8 6.9-4 13.8-7.9 20.9-11.9-1-4-2.1-7.6-2.9-11.3-.5-2.6-1.8-3.5-4.5-3.4-7 .2-14 .1-21 0-8.1-.1-11.5-3.6-11.5-11.7v-53c0-8.7 3.3-11.9 12.2-11.9h23.6c1.4-4.9 2.7-9.5 4.1-14.7-6.8-3.9-13.7-7.9-20.6-11.8-7.7-4.4-8.9-8.8-4.4-16.4 8.9-15.2 17.9-30.4 26.8-45.6 4.4-7.4 9-8.6 16.6-4.3 6 3.3 11.8 6.9 17.9 10 1.3.6 3.8.3 4.9-.6 3-2.4 5.5-5.3 8.6-8.4-3.7-6.3-7.5-12.7-11.2-19.2-5.2-8.8-4.1-12.9 4.6-17.9 15.2-8.6 30.4-17.3 45.6-25.9 7.8-4.4 12.4-3.1 17 4.6 3.3 5.6 6.7 11.1 9.8 16.8 1.4 2.6 2.9 3.1 5.6 2.2 3.4-1.2 7-2 11.1-3V76.9c0-10.4 3.2-14.5 13.3-13.4 14 1.5 24.4-2.7 33.3-13.6 7.1-8.7 15.9-16.1 24-24 5.6-5.5 10.8-5.5 16.5.1 3.9 3.8 7.7 7.9 11.9 11.4 1.2 1 3.8 1.4 5.4.9 4-1.2 7.6-3.7 11.6-4.6 5.5-1.2 6.6-4.2 6.2-9.2-.4-4.3-.2-8.7-.1-13 .2-7.8 3.8-11.3 11.4-11.4 18.7-.1 37.3-.1 56 0 7.8 0 11.3 3.5 11.4 11.2.1 5.5-.2 11 .2 16.5.1 1.6 1.7 3.8 3.2 4.5 4.8 2.3 9.7 4.3 14.8 6 1.5.5 3.9.1 5-.8 4.4-3.8 8.4-8.1 12.6-12.1 5-4.8 10.4-4.9 15.4 0 13.5 13.1 26.9 26.4 40.3 39.6 5.1 5 5 10.1-.1 15.3-4.7 4.8-9.4 9.4-14.1 14.1-.1.1-.1.3-.2.3 2.5 6.1 4.8 12.1 7.5 18 .5 1.2 2.6 2.3 4 2.3 5.8.3 11.7 0 17.5.1 7.1.1 10.9 3.7 10.9 10.8.1 18.7.1 37.3 0 56 0 7.1-3.6 10.7-10.8 10.8-5.8.1-11.7-.2-17.5.2-1.6.1-3.7 1.7-4.5 3.2-2.3 4.4-3.8 9.2-6 13.7-1.3 2.5-1.2 4 .9 6 4.1 3.7 7.9 7.6 11.8 11.5 5.5 5.5 5.5 10.5 0 16-12.8 12.7-25.7 25.2-38.4 38-1.6 1.6-2.5 4.5-2.8 6.9-.5 3.4-.1 7-.1 10.5-.2 7.1-3.7 10.7-10.9 10.9-7.2.2-14.3.1-21.5 0-2.8-.1-4 .8-4.8 3.7-2.8 11-3 11 7 16.7 4 2.3 8.2 4.5 12.1 6.9 5.6 3.4 7 8.5 3.8 14.1-9.4 16.3-19 32.5-28.6 48.6-3.3 5.5-8.4 6.8-14.2 3.6-7.3-4-14.5-8.1-22.1-12.5-3.3 3.8-6.5 7.5-10.2 11.8 3.4 5.8 7.4 12.6 11.4 19.5s2.7 11.8-4.3 15.8c-15.8 9-31.5 18-47.3 26.9-7 4-11.8 2.7-15.9-4.2-3.5-5.9-7-11.7-10.3-17.7-1.2-2.2-2.4-3-5.1-2.2-11.6 3.1-11.6 3-11.6 15.1 0 3.2-.2 6.4.1 9.5.6 6-1.2 10.7-6.4 14-21.5-.1-43.2-.1-64.8-.1zm223.8-227h-22c-7.8 0-10.5-2.4-12.4-10.1-2-7.9-4.1-15.8-6.4-23.6-2-6.7-.8-10.3 5.2-13.8 6.4-3.8 12.9-7.4 19.8-11.4-6.5-11.1-12.9-21.9-19.3-32.8-7.2 4.1-13.6 7.8-20.2 11.4-5.8 3.2-9.8 2.3-14.3-2.4-5.9-6.1-11.9-12.1-18.1-17.9-5.4-5-6.1-8.6-2.5-14.9 3.7-6.3 7.4-12.6 11.3-19.3-11.2-6.3-22.1-12.5-33.4-19-4.1 7-7.9 13.6-11.9 20.1-3.1 5.1-7 6.3-12.8 4.7-8.5-2.3-17-4.6-25.6-6.7-7.1-1.8-9.5-4.5-9.6-11.8-.1-7.1 0-14.3 0-21.7H192V105c0 6.6-2.6 9.6-9 11.2-8.1 2-16.2 3.9-24.1 6.3-8.4 2.5-11.5 1.5-16-6.2-3.5-6-7-11.9-10.7-18.1-11.4 6.5-22.3 12.6-33.4 18.9 3.9 6.7 7.8 13.2 11.5 19.6 3.4 5.9 2.5 9.8-2.6 14.5-6.1 5.7-12.1 11.5-17.8 17.5-5.2 5.4-8.7 6.2-15.4 2.4-6.4-3.5-12.7-7.2-19.4-11-6.5 11.1-12.8 21.8-19.3 32.8 6.7 3.8 13 7.4 19.3 11 6.6 3.8 7.8 7.4 5.6 14.5-2.4 7.8-4.5 15.6-6.4 23.6-1.8 7.3-4.5 9.7-12.1 9.7H20.3v38c7.9 0 15.4-.1 22.8 0 6.5.1 9.6 2.9 11.1 9.2 1.8 7.6 3.7 15.2 6 22.6 2.8 9.2 2 11.9-6.3 16.7-6 3.4-12 6.9-18.1 10.3 6.7 11.3 13 22 19.3 32.8 7.1-4 13.4-7.6 19.8-11.2 6-3.4 9.9-2.6 14.7 2.3 5.9 6.1 12 12.1 18.2 17.9 5.2 4.9 6 8.6 2.4 15-3.6 6.3-7.3 12.6-11.2 19.2 11.2 6.4 22.2 12.6 33.4 18.9 3.9-6.6 7.5-12.8 11.1-18.9 3.8-6.5 7.5-7.7 14.6-5.7 7.8 2.3 15.7 4.4 23.6 6.3 8.3 2 10.5 4.4 10.5 13v20.7h38.7v-21.4c.1-7.7 2.4-10.3 9.8-12.1 7.9-1.9 15.8-3.9 23.6-6.2 8-2.4 11.3-1.3 15.7 6.1 3.5 6 7 12 10.7 18.2 11.4-6.5 22.3-12.7 33.4-19-4-6.8-7.7-13.1-11.3-19.4-3.6-6.3-2.8-9.9 2.6-14.9 6-5.5 11.8-11.2 17.5-17.1 5.4-5.6 8.9-6.4 15.8-2.5 6.3 3.5 12.7 7.1 19.3 10.8 6.5-11.1 12.8-21.8 19.3-32.8-6.9-3.9-13.4-7.6-19.9-11.4-5.8-3.4-7.1-7-5.2-13.4 2.4-8.1 4.6-16.3 6.7-24.5 1.8-7.2 4.7-9.6 12.3-9.6h22c-.3-12.4-.3-24.7-.3-37.5zm40.7-17.6L432.1 223c-5-5-5.1-8.3-2-14.7 3.9-8.2 7.6-16.6 10.7-25.2 2.8-7.7 5-9.8 13.3-9.8h16.3v-38.8c-6.2 0-12.2.1-18.1 0-6.5-.1-9-2.5-11.3-8.5-3.4-9-7.1-17.9-11.1-26.6-2.9-6.2-2.8-9.6 1.9-14.4 4.1-4.1 8.3-8.2 11.7-11.5-9.1-9.6-17.9-18.9-27.5-29-4.2 4.6-8 9-12 13.1-4.7 4.7-8.4 4.8-14.4 2-8.6-3.9-17.3-7.6-26.2-10.8-7.6-2.7-9.6-4.8-9.6-12.9V19.7h-39.5V37c-.1 6.8-2.3 9.2-8.7 11.5-9.2 3.4-18.2 7.1-27.2 11.1-6 2.7-9.7 2.6-14.4-2.1-4.1-4.1-7.8-8.6-11.5-12.7-6.6 6.9-12.2 12.7-17.6 18.3.2 0 1.1.1 1.9.1 11.2.2 13.8 2.8 13.8 13.9v21.4c4.2 1.1 7.9 2 11.5 3.2 2.5.8 3.9.2 5.2-2.1 3.3-6 6.8-11.8 10.3-17.7 4.1-6.8 9-8.2 15.9-4.3 15.8 8.9 31.6 17.9 47.3 26.9 7.1 4.1 8.3 9 4.1 16.2-3.9 6.7-7.9 13.4-11.7 20 2.9 3.1 5.7 5.7 8.2 8.6 1.8 2.1 3.3 2.1 5.6.7 6.3-3.8 12.7-7.4 19.1-10.9 5.5-3 10.9-1.9 13.9 3.3 9.8 16.4 19.5 32.9 29.1 49.5 3 5.2 1.5 10.2-3.6 13.4-4.1 2.6-8.4 4.8-12.6 7.2-9.9 5.6-9.8 5.6-7 16.7.8 3.2 2.3 3.8 5.2 3.8 7-.1 14-.1 21 0 7.2.1 10.7 3.6 10.9 10.7.1 3.9 0 7.8 0 12.5 7.2-7.7 13.7-14.5 20.6-21.7z"/><path class="st0" d="M211.3 369.5c-55.1-.1-100.1-44.4-100-98.5.1-54.2 45.1-98.2 100.3-98.1 55.3.1 100 44.1 99.8 98.4-.1 54.3-44.9 98.3-100.1 98.2zm.2-19.4c44.1 0 80.2-35.4 80.3-78.8.1-43.5-36.2-79.2-80.5-79.2-44.1 0-80.2 35.5-80.3 78.8.1 43.8 36.1 79.2 80.5 79.2z"/><path class="st0" d="M280.4 271c.1 37.4-30.7 67.9-68.6 68-38.2.1-69.4-30.3-69.5-67.8-.1-37.2 30.9-67.9 68.8-68.1 38.1-.1 69.2 30.3 69.3 67.9zm-68.7-48.3c-27.3-.1-49.5 21.5-49.6 48.2-.1 26.7 21.9 48.6 49.1 48.8 27 .2 49.5-21.7 49.7-48.3.1-26.7-22-48.6-49.2-48.7z"/></svg>