<svg id="Слой_1" xmlns="http://www.w3.org/2000/svg" viewBox="0 0 487.7 487"><style>.st0{fill:#fff}</style><path class="st0" d="M248.3 0c7.5 4.5 15.3 8.5 22.5 13.6 6 4.2 11.8 5.5 18.7 2.9 5.3-2 10.7-3.6 16.2-4.9 9.3-2.2 17.6 0 24 7.3 3.9 4.3 7.5 9 10.6 13.8 4.3 6.6 10.1 9.2 17.7 9 5.2-.2 10.3-.1 15.5.2 10.2.6 17.7 5.6 21.7 15 2.4 5.7 4.3 11.5 6.1 17.4 1.9 6 5.6 10 11.8 11.7 4.6 1.3 9.2 3 13.7 4.5 12.8 4.3 18.9 13.4 19.2 26.7.1 5.2.1 10.3.1 15.5 0 5.1 2 9 6 12 4.7 3.5 9.4 6.8 14 10.4 9.7 7.6 12.9 17.4 9.3 29.3-1.4 4.8-2.8 9.6-4.5 14.3-2.3 6.2-1.3 11.7 2.7 16.9 3.1 3.9 5.9 8 8.7 12.2 7 10.4 6.9 20.8 0 31.3-4.1 6.1-8 12.2-12.2 18.2-.6.8-2.1 1.5-3.1 1.4-3.9-.5-7.9-1.3-12.9-2.1 2-4.3 3.5-8.3 5.6-11.8 2.8-4.5 6.1-8.8 9.3-13 4.2-5.5 4.3-10.9.1-16.5-2.8-3.7-5.4-7.6-8.2-11.3-6.5-8.8-8.3-18.3-4.7-28.8 1.5-4.6 3-9.2 4.4-13.8 2.2-7.5 1.3-10.4-4.9-15.2-3.8-3-7.8-5.7-11.7-8.5-8.3-6.1-12.9-14.1-13-24.6 0-6.2-.3-12.3-.5-18.5-.1-4.3-2.4-7.2-6.4-8.7-4.7-1.7-9.4-3.5-14.1-4.8-12.3-3.4-20.1-11.2-23.5-23.5-1.2-4.3-2.7-8.5-4.2-12.8-1.8-5.4-5.6-8-11.3-7.9-5 .1-10-.1-15-.1-11.1 0-20-4.3-26.5-13.5-2.9-4.1-5.9-8-8.9-12.1-3.4-4.7-7.8-6.5-13.5-4.5-5 1.7-10.1 3.2-15.2 4.8-10.1 3.1-19.4 1.8-27.9-4.5-4.3-3.1-8.7-6.2-13-9.3-4.6-3.3-9.2-3.4-13.9-.1-4.1 2.9-8.2 5.7-12.2 8.7-9.1 6.8-18.9 8.5-29.7 4.8-4.9-1.6-9.9-3-14.8-4.6-5.3-1.8-9.5-.2-12.8 4.1-2.9 3.8-5.8 7.7-8.6 11.7-6.8 9.8-16.1 14.6-28 14.4-4.5-.1-9 .1-13.5 0-6.4-.2-10.4 2.8-12.3 8.8-1.2 4-2.7 7.9-3.9 11.9-3.4 12.3-11.1 20.1-23.5 23.6-4.6 1.3-9.2 3-13.7 4.6-4.6 1.6-7 4.9-7 9.8l-.3 17c-.1 11-4.8 19.5-13.8 25.8-4 2.8-7.8 5.8-11.7 8.6-5.1 3.6-6.3 8.2-4.4 14 1.6 4.9 3 9.9 4.6 14.8 3.4 10.1 1.7 19.4-4.5 27.9-3.1 4.3-6.2 8.7-9.3 13-3.3 4.6-3.3 9.2 0 13.9 3 4.2 6.2 8.3 8.9 12.6 2.5 4.2 4.5 8.7 7.1 13.6-6 1-10.7 1.7-14.7 2.4-4.2-6-7.9-11.4-11.7-16.8-9.8-13.9-9.9-23.7.1-37.5 13.2-18.1 12.7-15.1 5.9-36.1-5.5-17.1-2.6-25.8 11.9-36.3 17.4-12.6 16.2-10.1 16.2-31.3 0-18.7 5.4-27.1 23.4-31.5C79 86 86.2 78.5 89.7 64.6c4.4-17.5 12.6-22.9 30.8-22.9 22.8 0 20 0 32.2-16.6C163.1 11 172 7.9 188.6 13.3c21.6 6.9 18.2 7.2 36.6-5.9 4.3-3 9.3-5 14-7.4h9.1z"/><path class="st0" d="M432.4 267.2c-4.7-.6-9.4-1.2-14.3-1.8 5.4-59.9-12.5-110.7-56.6-151.3-33.3-30.6-73.2-45.7-118.4-45.5-108.2.4-187.4 97.1-173.5 196.7-4.7.6-9.4 1.2-14.6 1.9-3.7-27.4-1.2-53.9 6.9-79.8 12.2-39 34.7-71 67.3-95.7 64.9-49.2 154.1-51.5 221.2-5.9 70.9 48.2 90.8 126.8 82 181.4zM45.9 387.2c4.8-3.6 8.6-6.3 11.7-8.6 7.2 2.6 13.8 5.3 20.5 7.3 12.1 3.5 19.7 11.2 23.2 23.2 1.3 4.5 2.8 8.9 4.4 13.3 1.8 5.2 5.6 7.6 11 7.6 7 .1 14 .2 20.9.7 7.8.5 13.9 4.4 18.6 10.4 3.7 4.7 7.2 9.6 10.8 14.4s8 6.6 14 4.6c5-1.8 10.1-3.3 15.2-4.8 9.9-3 19.1-1.7 27.5 4.5 4.4 3.2 9 6.4 13.5 9.5 4.5 3.2 9 3.1 13.4 0s8.7-6.1 13-9.3c8.7-6.4 18.2-7.8 28.4-4.6 5.2 1.6 10.5 3.1 15.7 4.9 5.2 1.7 9.2.1 12.3-4 3.1-3.9 6.1-7.9 8.9-12.1 6.7-9.7 15.9-14.3 27.6-14.1 4.5.1 9-.1 13.5 0 6.6.2 10.7-2.8 12.6-9.1 1.2-3.8 2.6-7.6 3.7-11.4 3.5-12.4 11.3-20.3 23.8-23.9 6.5-1.8 12.7-4.5 20-7.1 2.9 2.1 6.8 4.9 11.7 8.5-4.2 2.9-7.6 5.9-11.5 7.6-5.6 2.5-11.5 4.3-17.4 6.1-5.9 1.8-9.6 5.6-11.4 11.5-1.6 5.2-3.3 10.5-5.3 15.6-4.3 11.2-12.5 16.9-24.4 17.2-5.3.1-10.7.2-16 .2-6.1 0-10.9 2.4-14.3 7.5-2.7 4-5.6 7.9-8.5 11.7-7.9 10.5-18.3 13.9-30.9 10-5.2-1.6-10.5-3.2-15.7-4.9-4.6-1.5-8.9-.8-12.8 2-4.1 2.9-8.1 5.9-12.2 8.7-12.8 8.7-22.2 8.8-35 0-4-2.7-7.9-5.6-11.8-8.5-4.2-3.1-8.7-3.8-13.7-2.2-6.2 2-12.4 3.9-18.6 5.5-9.7 2.5-18.2-.1-24.8-7.7-4-4.6-7.7-9.6-11.2-14.7s-8.2-7.6-14.3-7.5c-5.5 0-11 0-16.5-.2-11.3-.4-19.3-5.7-23.5-16.2-2-5.1-3.9-10.3-5.4-15.5-1.9-7-6.3-11-13.1-13-5.4-1.6-10.9-3.2-16-5.6-4-1.7-7.3-4.7-11.6-7.5z"/><path class="st0" d="M360 393.8c-64.5 51.9-164.1 54.1-232.3.1 3-3.8 6-7.7 8.9-11.6 63.2 49.7 155 46.6 214.4-.1 3 3.8 5.9 7.5 9 11.6zM297.2 331.4v41.2h-14.8c-.1-1.6-.3-3-.3-4.5v-76.5c0-4.5.6-8.4 5.7-9.7 4.5-1.1 7.5 1 9.9 6.9 4.6 11.4 9.1 22.7 14.6 34V282h15c.1 1.2.4 2.4.4 3.5v78c0 3.7-.8 7-4.5 8.7-4.3 2-8.5 0-10.6-5.2-4.8-11.8-9.5-23.7-14.3-35.6-.4-.1-.7-.1-1.1 0zM274.1 372.6h-14.7v-14.5H244v14.5h-14.6c-.4-.4-.6-.5-.6-.7 0-23.3-.6-46.6.1-69.9.4-12.6 11.7-21.1 24-20.3 12.1.8 21.2 10.4 21.3 22.8.1 21.5 0 43 0 64.5.1 1.1 0 2.2-.1 3.6zm-14.9-30.5v-19.7c0-6 .2-12-.1-18-.2-4.3-2.6-7.2-7.2-7.5-4.2-.2-7.6 2-7.7 6.1-.4 12.9-.1 25.8-.1 39 5.1.1 9.7.1 15.1.1zM167.3 372.6h-14.8v-14.7h-14.9v14.5h-15c-.1-.7-.4-1.5-.4-2.3 0-22.2-.2-44.3.1-66.5.1-11.4 8.5-20.5 19.4-21.9 11.6-1.4 21.8 5 25 16 .6 2 .9 4.3.9 6.4.1 21.8.1 43.6 0 65.5 0 .9-.2 1.7-.3 3zm-14.9-30.5c0-13 .1-25.5-.1-37.9-.1-4.5-3.4-7.5-7.7-7.4-4 .1-7.1 3-7.3 7.3-.2 6.6-.1 13.3-.1 20v18h15.2zM190.4 350.7v21.9h-14.8c-.1-1.6-.3-3.2-.3-4.8v-75.9c0-8 2.3-10.3 10.4-10.4 3.2 0 6.3-.1 9.5.1 13.7.7 23.7 9.9 25.6 23.5 1.7 12.1-5.9 24-18.2 28.3-1.1.4-2.1.7-4 1.3 7.4 8.1 12.6 17.6 22.2 25.2v12.5c-6.5 1.3-11.8.5-15.9-5.4-4-5.8-8.8-11.2-13.3-16.7-.4.1-.8.3-1.2.4zm.3-31.4c5.8.7 10.4-.4 13.3-5.2 2.5-4.2 2.4-8.6-.5-12.6-3.2-4.4-7.5-5.4-12.8-4.2v22zM183.1 205.1c0-6.8-.3-13.7.1-20.5.8-14.3 12.4-24.9 26.9-24.8 13.9.2 25.7 11.2 26.1 25.2.4 13.7.4 27.3 0 41-.4 13.9-12.3 24.9-26.2 25-14.3.1-26-10.6-26.8-24.9-.4-6.9-.1-14-.1-21zm15.1.3v18.5c.2 7 4.9 12 11.3 12 6.1 0 11.3-4.8 11.5-11.5.2-12.6.2-25.3 0-37.9-.1-6.9-5.5-11.8-11.9-11.5-6.3.2-10.8 5.1-10.9 11.9-.1 6.2 0 12.3 0 18.5zM244 205.5c0-6.3-.1-12.7 0-19 .3-15.3 11.7-26.7 26.6-26.7 14.8 0 26.4 11.5 26.6 26.7.2 12.5.2 25 0 37.5-.2 15.4-11.9 27-26.9 26.9-14.7-.1-26.1-11.7-26.3-27-.1-6 0-12.2 0-18.4zm15.2-.1c0 6.2-.1 12.3 0 18.5.1 6.9 4.5 11.7 10.8 12.1 6.1.3 11.7-4.3 11.9-10.9.4-13 .3-25.9 0-38.9-.2-6.7-5.6-11.3-11.8-11-6.3.2-10.8 5.1-10.9 11.9-.1 6 0 12.1 0 18.3zM68.9 281.9h15V346c0 1.7 0 3.3.2 5 .5 4.1 3.1 6.3 7 6.6 3.9.3 6.7-1.9 7.7-5.7.5-1.7.4-3.6.4-5.4V288v-5.9H114c.1 1 .4 2.1.4 3.2 0 21.7.1 43.3 0 65-.1 11.5-8.2 20.5-19.6 22.4-10.4 1.7-21.2-4.8-24.7-15.2-.8-2.5-1.4-5.2-1.4-7.8-.1-21.5-.1-43-.1-64.5-.1-1 .1-2 .3-3.3zM38.4 342v-14.7c5.5 0 10.9-.3 16.3.1 3.7.3 6 3.2 6.1 6.9.2 6.5.4 13-.4 19.4-1.6 11.6-12.3 19.9-23.7 19.1-11.9-.9-21.2-10.4-21.4-22.3-.2-15.3-.1-30.7 0-46 .1-12.4 9.2-22 21.3-22.8 12.2-.8 22.4 7.5 24.1 19.8.4 3.2.1 6.6.1 10.2H45.7c0-2.5.1-5 0-7.4-.3-4.5-3.1-7.2-7.2-7.4-4.3-.1-7.8 2.8-7.8 7.4-.2 15.3-.2 30.7 0 46 .1 4.4 3.8 7.6 7.9 7.4 4-.2 6.9-3.1 7.2-7.5.2-2.3 0-4.6 0-7.3-2.6-.4-4.7-.6-7.4-.9zM426.5 357.6v15.1c-10.6 0-21.1.4-31.5-.2-5.2-.3-6.5-4.9-6.5-9.7v-51.4c0-6.7-.1-13.3 0-20 .1-7.2 2.5-9.8 9.5-9.8 8.8-.1 17.6 0 26.5 0 .5 0 .9.2 1.8.4v14.6h-21.9v22.7h21.9v15.4h-22v22.7c7.4.2 14.5.2 22.2.2zM472.2 281.6v15H450v22.7h22.1v15.3H450v22.7h22.1v15.2c-10.5 0-21.1.3-31.6-.2-3.9-.2-6-3.5-6-7.5-.1-25.1-.1-50.3 0-75.4 0-4.9 2.9-7.8 7.8-7.9 9.7 0 19.5.1 29.9.1zM350.5 372.5v-75.6h-14.9v-15h45.3v14.7h-14.8v76c-5.4-.1-10.1-.1-15.6-.1zM175.3 250.8h-15.1v-75.5c-2.8-.2-5.1-.3-7.5-.5v-14.6c5.7 0 11.6-.6 17.1.3 2.2.4 5.2 4.4 5.3 6.7.3 27.7.2 55.5.2 83.6zM334.5 246.9c-4.8-2.4-8.9-4.5-13.6-6.8 10.2-20.3 20.2-40.4 30.5-60.8 4.7 2.4 8.9 4.5 13.6 6.8-10.2 20.3-20.2 40.3-30.5 60.8zM327.2 205.2h-14.3v-14.7h14.3v14.7zM358.6 221H373v14.6h-14.4V221z"/></svg>