<svg id="Слой_1" xmlns="http://www.w3.org/2000/svg" viewBox="0 0 500 485"><style>.st0{fill:#fff}</style><path class="st0" d="M0 217h58v25.3c34.8 1.7 68.7 5.6 99.8 25.7-10.7-24.6-10.6-47.7 1.7-70.2 8.4-15.5 21-26.5 37.3-33.3 32.4-13.4 69.6-2.2 89.9 26.8 19.4 27.7 20 71.1-13.4 100.8 17.4 12.4 34.5 25 31.4 50.7-.2-.2 0 .2.2.2 15.2.2 30.3-.6 45-4.7 3.6-1 7.2-2.7 10.4-4.7 22-13.4 43.8-27.3 66.1-40.2 10.3-5.9 21.5-10.6 32.7-14.5 20.1-7 33.9 5.9 40 20.9.3.8.7 1.5 1 2.3v10c-2.6 7-6.8 12.7-13.1 17-4.5 3.1-8.7 6.7-13 10.1-37.6 29.5-75.3 59-112.8 88.5-8.2 6.5-17.6 9.9-27.8 11.4-28.8 4.2-57.7 8.3-86.4 12.7-28.8 4.4-57.6 8.7-86.9 8.4-31.8-.4-63.6-.1-95.5-.1h-6.4v25H.2C0 395.7 0 306.3 0 217zm58.4 226.1h5.9c26.3 0 52.7-.6 79 .2 37.7 1.1 74.7-3.8 111.8-9.8 24.5-3.9 49.1-7.2 73.6-10.8 8-1.1 15.6-3.2 22.1-8.3 21.4-17 42.9-33.8 64.4-50.7 21.2-16.6 42.5-33.2 63.8-49.9 5.1-4 5.6-7.8 2-12.9-5-7.1-9.4-9.2-17.6-6.2-9.8 3.6-19.6 7.6-28.6 12.8-22.1 12.9-43.7 26.8-65.7 40-5.3 3.2-11.3 6.3-17.4 7.2-16.4 2.4-33 4.7-49.6 5-41.6.6-83.3 0-125 0-5 0-10 .4-14.9 1.4-8.2 1.8-11.7 6.4-12.4 14.7-.4 5.5-4.1 9.1-8.9 8.8-4.8-.3-8.1-4.3-7.8-9.8.7-12.5 6.1-22.5 18-27 7.6-2.9 16.1-4.5 24.2-4.7 28.8-.5 57.7 0 86.5-.3 6.9-.1 13.9-1.3 20.6-3 6.5-1.7 7.4-4.8 4.3-10.9-1.2-2.4-2.6-4.7-4.2-6.8-10.5-13.4-24.4-20.4-41.3-21.1-11.8-.5-23.7 0-35.5-.2-21.2-.4-40.6-6.3-57.9-18.8-5.5-3.9-11.6-7.3-17.8-9.9-18.3-7.7-37.7-10.7-57.4-12.1-4.7-.3-9.4-.5-14.3-.7.1 61.5.1 122.3.1 183.8zM41.5 234.2H17.1v233.6h24.4V234.2zm183.3-58.5c-22.6.1-43.3 13-52.5 33.6-9.8 22-7.1 42.8 7.6 61.9 6.8 8.8 15.1 13.5 26.9 13 14.6-.6 29.3.6 43.9.7 2.1 0 4.5-.9 6.4-2.1 21.6-14 31.3-40.8 23.8-65.6-7.4-24.6-30.3-41.6-56.1-41.5zM359 0c3 .7 6.1 1.4 9.1 2.2 34.8 8.6 58.5 41 56.8 77.7-1.6 34.8-29.4 65-64.4 69.9-40.1 5.6-78.5-22.6-84.5-62-6.2-41.9 21-80.1 61.8-86.8 1.1-.2 2.1-.7 3.2-1h18zm-67.2 75.2c0 32.3 26.2 58.7 58.3 58.6 31.9-.1 58-26.2 58.1-58.3.1-32.5-25.8-58.7-58.1-58.7s-58.3 26-58.3 58.4z"/><path class="st0" d="M224.9 276c-22.8 0-41.6-18.9-41.6-41.8s18.7-41.8 41.6-41.9 42.1 19.2 41.9 42.1c-.3 22.9-19 41.6-41.9 41.6zm.1-16.9c13.9 0 25.1-11.2 25-25.1-.1-13.6-11.2-24.8-24.7-25-13.8-.1-25.2 11.1-25.3 24.9-.1 14 11.1 25.2 25 25.2zM350 117c-22.9 0-41.7-18.7-41.7-41.6-.1-22.8 18.9-42 41.5-41.9 23.3.1 41.9 18.7 42 41.9.1 22.7-18.9 41.6-41.8 41.6zm-.2-16.8c13.9.1 25.1-11 25.2-24.9 0-13.6-11-24.9-24.6-25.2-13.7-.2-25.3 11.1-25.4 24.8-.1 14 11 25.2 24.8 25.3z"/></svg>