<svg id="Слой_1" xmlns="http://www.w3.org/2000/svg" viewBox="0 0 500 483"><style>.st0{fill:#e31f25}</style><path class="st0" d="M235 483c-1.4-.5-2.7-1-4.1-1.5-16.4-5.2-26.1-20.9-23.9-38.6 2.1-16 15.9-28.6 32.5-29.1 12-.4 24-.5 36 0 16.4.6 26.5 10 32.2 25.2h109.9c37.4 0 66.1-30.7 64-68.1 0-.3-.2-.6-.3-.9-.3 0-.7-.2-.9-.1-11.5 8.9-24.5 12-38.9 11.4-11.1-.5-22.3 0-33.5-.1-14.1-.1-23.1-9.1-23.1-23.2-.1-48.2-.1-96.3 0-144.5 0-13 8.2-22.5 20.7-23 15.3-.6 30.7-.3 46 .1 11 .3 20.6 4.8 29.3 11.7 0-9.5 1-18.6-.2-27.5-7.6-59-38-101.8-92.7-126-12-5.3-25.5-7.3-38.3-10.7-3-.8-5 0-7 2.9-4.8 7.5-12.1 11.4-21 11.4-47.8.1-95.7.1-143.5 0-8.5 0-15.8-3.5-20.4-10.7-2.5-4-5.3-4.2-9.1-3.6C113.8 43.7 83.9 59 59.9 85c-30.5 32.9-43.2 72.2-41.4 116.7.5.1 1 .3 1.1.2 11.9-9.3 25.6-12.1 40.4-11.6 10.5.4 21 0 31.5.1 14.6.1 23.7 9.1 23.7 23.8v143.5c0 14.8-8.9 23.6-23.7 23.7h-38c-26.5-.1-47.1-16.9-52.6-43-.2-.8-.6-1.5-.9-2.2v-159c.3-1.4.8-2.9.9-4.4 4.1-38.9 19.3-72.6 45.9-101C74.7 42 109.2 24.7 149.7 19.2c1.5-.2 3.8-.7 4.2-1.7C157.3 8.3 164.3 3.3 173 0h154c6.7 2.8 13.7 5.7 16.5 12.7 2.3 5.7 6.2 7 11.3 7.3.8 0 1.7.1 2.5.3C428 34.7 473.5 76.7 494 145.7c3 10.1 4 20.8 6 31.3v208c-.3.9-.8 1.8-.9 2.7-2.8 17.8-10.4 33.2-23.2 46-16.5 16.5-36.7 24-59.9 24-34.6-.1-69.3 0-103.9.1-1.7 0-4.6.6-5 1.7-4.8 12.8-14.3 20-27.1 23.5h-45zM70.7 363.1V209.2c-7.7 0-15.1-.7-22.3.1-18.1 2.1-30 16.6-30.1 36.3-.1 26.7 0 53.3 0 80 0 2.7.3 5.3.6 8 1.8 13.6 12.7 25.9 26.2 28.1 8.3 1.4 16.9 1 25.6 1.4zm358.5-.3h16.6c20.9-.2 35.5-13.9 35.8-34.9.5-28 .3-56 0-84-.1-14.3-6.7-25.3-19.8-31.7-10.5-5.1-21.7-2.9-32.7-3.2.1 51.6.1 102.4.1 153.8zm-179-344.1h-58c-4.7 0-9.3-.1-14 .1-4.3.2-6.7 2.7-7.2 6.9-.5 3.9 2.4 7.4 6.6 8.1 1.5.2 3 .2 4.5.2H318c2.1 0 4.9.3 6.2-.9 2.1-1.9 4.2-4.8 4.5-7.4.4-3.5-2.3-6.1-6.1-6.7-1.6-.2-3.3-.2-5-.2-22.4-.1-44.9-.1-67.4-.1zm7.2 445.6c5.7 0 11.3.1 17 0 9.2-.3 15.8-6.9 15.8-15.8s-6.4-16-15.5-16.2c-11.3-.3-22.6-.3-34 0-9.1.2-15.7 7.4-15.6 16.2.1 8.8 6.8 15.6 15.9 15.9 5.4 0 10.9-.1 16.4-.1zM89.8 362.5c4.9.8 7.1-.8 7.1-5.5 0-47.5 0-95-.1-142.4 0-5.1-1.5-6.1-7-4.8v152.7zm320.4-153.1c-4.7-.9-7.1.4-7.1 5.2V357c0 5.1 1.6 6.1 7 5 .1-50.7.1-101.5.1-152.6z"/></svg>