<svg id="Слой_1" xmlns="http://www.w3.org/2000/svg" viewBox="0 0 500 500"><style>.st0{fill:#e31f25}</style><path class="st0" d="M120 0c4.1 2.6 5.2 6.4 5.1 11-.3 7.1-.1 14.3-.1 22.2 2.8 0 5.4-.1 8 0 5.7.3 9 3.7 8.7 8.8-.2 5-3.4 7.8-9 8-2.3.1-4.7 0-7.8 0v40.3c0 6.4-2.8 9.6-8.2 9.7-5.4.1-8.5-3.1-8.5-9.4-.1-26.9 0-53.9-.1-80.8 0-4.2 1.8-7.2 4.8-9.7 2.4-.1 4.8-.1 7.1-.1zM500 387c-2.8 3.4-6.2 4.9-10.7 4.8-26.3-.1-52.6 0-78.8-.2-2.9 0-6.7-1.1-8.4-3.1-1.6-2-1.8-5.9-1.2-8.7.7-3.7 4.2-4.8 7.8-4.9h41c1.1-6.8-2.4-16.6 8.7-16.5 10.7.1 7.6 9.6 8.6 16.5 7.3 0 14.6.2 21.9-.1 4.7-.2 8.5.9 11 5.1.1 2.4.1 4.8.1 7.1zM0 455c2.5-4.1 6.3-5.2 11-5.1 9.8.2 19.6 0 29.4.1 6.9 0 9.6 2.8 9.7 9.7.1 9.8-.1 19.6.1 29.4.1 4.7-1 8.4-5.1 11h-7c-4-2.9-5-6.9-4.8-11.7.2-7.1.1-14.1.1-21.5-7.7 0-14.6-.2-21.5.1-5 0-9-1-11.9-5v-7zM45 0c4.1 2.5 5.2 6.3 5.1 11-.2 9.8 0 19.6-.1 29.4 0 6.9-2.7 9.6-9.7 9.7-10 .1-19.9-.2-29.9.1-4.5 0-7.9-1.5-10.4-5.2v-7c2.9-3.9 6.9-5 11.7-4.8 7.1.2 14.1.1 21.5.1 0-7.7.2-14.6-.1-21.5C33 6.9 34 2.9 38 0h7zM500 45c-2.5 4.1-6.3 5.2-11 5.1-9.8-.2-19.6 0-29.4-.1-6.9 0-9.6-2.8-9.7-9.7-.1-9.8.1-19.6-.1-29.4-.1-4.7 1-8.4 5.1-11h7c3.9 2.9 5 6.9 4.8 11.7-.2 7.1-.1 14.1-.1 21.5 7.7 0 14.6.2 21.5-.1 4.7-.2 8.8.8 11.7 4.8.2 2.5.2 4.9.2 7.2zM455 500c-3.7-2.5-5.2-5.9-5.1-10.6.3-10 0-20 .1-30 0-6.6 2.8-9.4 9.4-9.5 9.8-.1 19.7.1 29.5-.1 4.7-.1 8.5 1 11 5.1v7c-2.9 4-6.9 5-11.7 4.8-7.1-.2-14.1-.1-21.5-.1 0 7.7-.2 14.6.1 21.5.2 4.7-.9 8.8-4.8 11.7-2.3.2-4.7.2-7 .2zM108.2 250c-7.7 0-14.5-.1-21.3 0-4.5.1-9.1 0-10.9-5-1.7-4.7 1-8.2 4.5-11.3 24.1-21.5 48.2-43.1 72.3-64.6l50.7-45.3c22.5-20 54.3-20.2 76.9-.1 41.3 36.7 82.5 73.7 123.7 110.6 3.2 2.8 5.6 6 4 10.4-1.7 4.7-5.8 5.4-10.3 5.3-7.5-.1-14.9 0-22.9 0v130.3c0 9.2-2.3 11.5-11.6 11.5H119.9c-9.5 0-11.8-2.3-11.8-11.8V256.5c.1-2 .1-3.9.1-6.5zm250 124.8v-6.9V244c0-8.2 2.6-10.7 10.8-10.8h9c-3.3-3-5.3-4.9-7.4-6.7-33.4-29.9-66.8-59.7-100.2-89.6-17.6-15.8-39.6-16-57.2-.3-34.8 31-69.6 62.1-104.3 93.2-.9.8-1.6 1.8-3 3.3h6.4c10.9 0 12.8 1.9 12.8 12.8v128.8c77.9.1 155.1.1 233.1.1zM212.6 49.9c-2 0-4 .3-6-.1-4.1-.7-6.4-3.4-6.6-7.5-.2-4.3 1.5-7.8 5.9-8.5 3.9-.6 7.9-.7 11.9-.3 4.7.4 7.3 3.9 7.1 8.6-.2 4.7-3 7.5-7.9 7.9-1.5.1-3 0-4.5 0 .1 0 .1-.1.1-.1zM450 287c-.1-8.7 2.6-12.3 8.8-12 5.8.3 7.9 3.6 7.9 12.5s-2.1 12.2-7.9 12.5c-4.9.2-8.3-2.6-8.8-7.5-.1-1.8 0-3.7 0-5.5zM50 337.7v3.5c-.2 5.6-3.1 8.6-8.1 8.8-5.1.1-8.2-2.8-8.6-8.2-.2-2.8-.2-5.7 0-8.5.4-5.5 3.5-8.4 8.6-8.3 5 .1 7.9 3.2 8.1 8.7.1 1.4 0 2.7 0 4zM87.7 450c1.5 0 3-.1 4.5 0 4.8.4 7.6 3.4 7.8 8.1.1 4.7-2.5 8-7.3 8.5-3.3.4-6.6.3-9.9.1-5.1-.4-7.9-3.7-7.8-8.6.1-4.8 3.1-7.8 8.3-8.1 1.5-.1 3 0 4.4 0zM212.3 466.9c-2-.2-4-.1-5.9-.5-4.3-.9-6.7-4.3-6.3-8.8.4-4.4 2.8-7.1 7.2-7.5 3-.3 6-.2 9-.1 5.6.2 8.6 3.1 8.8 8.1.1 5.1-2.8 8.2-8.2 8.6-1.5.1-3 0-4.5 0-.1.1-.1.1-.1.2zM50 212.6v3c-.1 6.2-3 9.5-8.4 9.4-5.2 0-8.1-3.1-8.4-9.1-.1-2.6-.2-5.3.1-8 .5-5.3 3.8-8.2 8.9-7.9 4.8.3 7.5 3.2 7.8 8.6.1 1.3 0 2.6 0 4zM337 50c-1.5 0-3 .1-4.5 0-4.6-.5-7.3-3.3-7.5-7.8-.2-4.5 2.1-8 6.5-8.6 3.9-.5 8-.5 11.9 0 4.4.6 6.8 4 6.5 8.6-.2 4.5-2.9 7.3-7.5 7.8-1.7.1-3.6 0-5.4 0zM450.1 162.6c0-2-.3-4 .1-6 .7-4.1 3.4-6.4 7.6-6.6 4.3-.2 7.8 1.5 8.5 6 .6 3.9.7 7.9.3 11.9-.4 4.7-3.9 7.3-8.6 7.1-4.6-.2-7.5-3-7.9-7.9-.1-1.5 0-3 0-4.5-.1 0 0 0 0 0zM50 87.3c0 1.7.1 3.3 0 5-.4 4.8-3.4 7.6-8.1 7.7-4.7.1-8-2.5-8.5-7.3-.4-3.3-.3-6.7-.1-9.9.4-5.1 3.7-7.9 8.6-7.7 4.8.1 7.7 3.1 8 8.3.2 1.2.1 2.5.1 3.9zM337.6 466.9c-2.1-.2-4.3-.1-6.4-.6-4.4-1-6.3-4.1-6.1-8.4.1-4.4 2.5-7.3 6.9-7.8 3.3-.4 6.6-.3 9.9-.1 4.9.2 7.8 3.1 8.1 7.7.3 4.9-2.4 8.2-7.4 8.9-1.6.2-3.3 0-5 0v.3zM49.9 170.9c0 1.8.2 3.7 0 5.5-.7 4.4-3.3 6.7-7.8 6.8-4.3.1-7.7-1.6-8.3-6.1-.6-3.7-.6-7.6-.3-11.4.4-4.7 3.8-7.5 8.3-7.5 4.8.1 7.9 3.1 8.2 8.2.1 1.5 0 3-.1 4.5.1 0 0 0 0 0zM50 296.1c0 9.2-2.9 12.8-9.6 12-.7-.1-1.4-.1-1.9-.4-7.1-3.3-4.9-9.7-5.1-15.3-.2-4.3 1.5-7.8 6.2-8.9 5.5-1.3 10 1.9 10.4 7.6.1 1.7 0 3.4 0 5zM50 421.1c0 9.2-2.8 12.8-9.6 12-.7-.1-1.4-.1-1.9-.4-7.1-3.2-4.9-9.7-5.1-15.2-.2-4.3 1.5-7.8 6.2-8.9 5.5-1.3 10 1.9 10.5 7.5 0 1.7-.1 3.4-.1 5zM253.8 50c-9.2 0-12.8-2.9-12-9.7.1-.7.1-1.4.4-1.9 3.3-7.1 9.7-4.9 15.3-5.1 4.4-.2 7.8 1.6 8.9 6.3 1.3 5.5-1.9 9.9-7.6 10.4-1.7.1-3.3 0-5 0zM450 328.8c0-9.2 2.9-12.8 9.7-12 .7.1 1.4.1 1.9.4 6.8 3.1 4.9 9.4 5.1 14.8.2 4.3-1.1 7.9-5.8 9.3-5.6 1.6-10.4-1.6-10.9-7.5-.1-1.6 0-3.3 0-5zM295.9 50c-1.3 0-2.7.1-4 0-5.5-.3-8.6-3.3-8.6-8.3 0-4.9 3.1-8.1 8.5-8.5 2.1-.2 4.3-.1 6.5 0 6.8.1 10 2.8 10 8.3 0 5.6-3.1 8.4-9.8 8.5h-2.6zM450 245.8c-.1-8.9 2.4-12.5 8.3-12.5s8.4 3.7 8.4 12.6c0 1.8.1 3.7-.2 5.5-.8 4.8-3.8 7.1-8.7 6.9-4.5-.2-7.3-2.8-7.8-7.4-.1-1.8 0-3.4 0-5.1zM50 379.4c0 8.8-2.5 12.5-8.5 12.4-5.8-.1-8.3-3.8-8.3-12.2 0-1.7-.1-3.3.1-5 .6-5.2 3.5-7.8 8.5-7.7 5 .1 7.8 2.9 8.1 8.1.2 1.4.1 2.9.1 4.4zM379.2 50c-1.7 0-3.3.1-5 0-4.6-.4-7.2-3.3-7.4-7.8-.2-4.9 2.1-8.1 6.9-8.7 3.6-.4 7.3-.4 10.9 0 4.6.5 7.3 4.1 7.1 8.7-.3 4.6-3.1 7.5-8 7.8-1.5.1-3 0-4.5 0zM420.6 50c-8.8 0-12.5-2.5-12.3-8.6.1-5.8 3.8-8.2 12.3-8.2 1.7 0 3.3-.1 5 .1 5.2.6 7.8 3.5 7.7 8.6-.1 5-2.9 7.8-8.1 8.1-1.6.1-3.1 0-4.6 0zM450 420.4c0-1.3-.1-2.7 0-4 .4-5.1 3.4-8.1 8.2-8.2 4.7-.1 8 2.9 8.5 8 .2 2.6.2 5.3.1 8-.2 6-3 9-8.3 9-5.5 0-8.3-3.1-8.5-9.3-.1-1.1 0-2.3 0-3.5zM450 79.1c0-1.5-.1-3 0-4.5.4-4.9 3.2-7.7 7.9-7.9 5.1-.2 8.3 2.4 8.7 7.5.3 3.3.3 6.6 0 9.9-.5 4.7-3.8 7.6-8.3 7.5-4.8 0-7.9-3.1-8.3-8.1-.1-1.4 0-2.9 0-4.4zM466.8 120.9c-.1 1.8 0 3.7-.3 5.5-.8 4.8-3.9 7.1-8.8 6.9-4.5-.2-7.4-2.9-7.7-7.5-.2-3-.2-6 0-8.9.2-5.4 3.4-8.6 8.4-8.5 4.7 0 7.8 3 8.3 8.1.1 1.5 0 3 0 4.5l.1-.1zM128.9 466.6c-9.2.1-12.8-2.8-12-9.6.1-.7.1-1.4.4-1.9 3.2-7.2 9.7-4.7 15.2-5.1 4.2-.2 7.5 1.3 8.8 5.7 1.6 5.4-1.3 10.1-6.9 10.9-1.9.3-3.7 0-5.5 0zM171.2 450c9.2 0 12.8 2.9 12 9.6-.1.7-.1 1.4-.4 1.9-3.3 7.1-9.7 4.9-15.3 5.1-4.3.2-7.8-1.5-8.9-6.2-1.3-5.5 1.9-10 7.6-10.4 1.6-.1 3.3 0 5 0zM466.8 204.3v2.5c-.2 6.5-3.2 10-8.6 9.9-5.3-.1-8.1-3.4-8.2-9.7v-6c.1-6.1 2.8-9.1 8-9.2 5.5-.2 8.5 2.9 8.8 9.1v3.4zM254.5 450c1.3 0 2.7-.1 4 0 5.1.3 8.1 3.3 8.2 8.1.1 4.7-2.9 8.1-7.9 8.5-2.8.3-5.6.2-8.4.1-5.8-.3-8.7-3.3-8.6-8.7.1-5.1 3.1-7.8 8.7-8 1.3-.1 2.7 0 4 0zM50 129.3c0 8.9-2.5 12.5-8.5 12.4-5.8-.1-8.3-3.8-8.3-12.2 0-1.7-.1-3.3.1-5 .6-5.2 3.5-7.8 8.5-7.8 5 .1 7.8 2.9 8.2 8.1.1 1.5 0 3 0 4.5zM79 50c-9.3.1-12.9-2.7-12.2-9.5.1-.7.1-1.4.3-2 3.3-7.4 10-5 15.6-5.3 4.4-.2 7.7 1.8 8.7 6.5 1.1 5.3-2 9.6-7.5 10.1-1.6.3-3.2.2-4.9.2zM379.8 449.6c2.6.5 5.8.1 7.6 1.6 2.1 1.8 3.8 4.9 4.2 7.7.4 3.4-1.6 6.6-5.4 7.3-3.4.6-6.9.7-10.4.6-6-.2-8.9-3.1-8.9-8.4 0-5.3 3-8.1 8.9-8.3h4c-.1-.3-.1-.4 0-.5zM420.8 450c1.7 0 3.3-.1 5 0 4.6.4 7.2 3.3 7.4 7.8.2 4.9-2.1 8.1-6.9 8.7-3.4.4-7 .4-10.4.1-4.9-.5-7.8-4-7.6-8.8.3-4.6 3.2-7.5 8-7.8 1.5-.1 3 0 4.5 0zM50 254.5c0 1.3.1 2.7 0 4-.3 5.1-3.4 8.1-8.2 8.2-4.7.1-8-2.9-8.5-7.9-.3-2.8-.2-5.6-.1-8.5.3-5.8 3.3-8.7 8.7-8.6 5.1.2 7.8 3.1 8 8.8.2 1.4.1 2.7.1 4zM170.8 50c-8.9.1-12.5-2.3-12.5-8.3 0-5.9 3.7-8.4 12.6-8.4 1.8 0 3.7-.1 5.5.2 4.8.8 7.1 3.8 6.9 8.7-.2 4.5-2.8 7.3-7.4 7.8-1.8.1-3.4 0-5.1 0zM295.8 450c1.7 0 3.3-.1 5 0 4.6.4 7.2 3.3 7.4 7.8.2 4.9-2.1 8.1-6.9 8.7-3.4.4-7 .4-10.4.1-4.9-.4-7.8-4-7.6-8.8.3-4.6 3.2-7.5 8-7.8 1.5-.1 3 0 4.5 0z"/></svg>