<svg id="Слой_1" xmlns="http://www.w3.org/2000/svg" viewBox="0 0 500 500"><style>.st0{fill:#fff}</style><path class="st0" d="M262 0c10.8 2 21.9 3 32.3 6.2 67.3 20.9 109.6 65.9 120 135.5 11.1 74.4-14.7 136.2-74.7 182.8-3.2 2.4-6.3 4.9-9.6 7.2-7.6 5.3-10.8 10.1-12.5 19.5 16.4 8.2 20.7 26 9.8 40.4 7.9 10.9 8.3 21.9.5 32.6 1.8 4.7 4.4 9 5.1 13.5 2.5 15.7-8.4 28.4-24.7 28.9-6.5.2-13 0-19.5.1-1.6 0-3.2.1-5.5.3 1.7 16.4-4.1 28-20.2 33h-26c-1.4-.6-2.7-1.1-4.1-1.7-9.8-4.1-15.4-11.4-16-22.1-.3-5.3-.2-10.7-.1-16 .1-7.4 2.9-10.2 10.3-10.3h77.5c1.5 0 3 .1 4.5-.1 4.4-.5 7.1-3 7.5-7.4.4-4.3-1.6-7.4-5.9-8.7-1.3-.4-2.6-.4-3.9-.7-4.3-1-6.7-3.8-6.6-8.2.1-4.3 2.5-7.1 6.8-8 1.1-.2 2.3-.3 3.4-.6 4.1-1 6.2-4 6.2-8 0-4.3-2.5-7.1-6.8-8.1-1-.2-2-.1-3-.3-4.2-1.1-6.7-3.8-6.7-8.2 0-4.1 2.2-6.9 6.3-8 1.3-.4 2.6-.4 3.9-.7 4.1-1 6.3-3.9 6.3-8 0-4-2.1-7-6.2-8-9.8-2.6-11.3-4.7-10.1-14.6 1.7-14.6 8.3-26.2 20.6-34.9 30.9-21.7 56.1-48.5 68.4-85 15.9-47.2 16.5-94-8.3-138.8C350.7 39 290.1 8.2 227.2 18.4 162 29.2 111.7 78.1 102.4 141c-10.1 68.6 11.3 125.8 66.6 169.1 2.8 2.2 5.4 4.5 8.4 6.3 12.4 7.7 19.6 18.7 22 33.6h72.4c1.5 0 3-.2 4.5.2 4 .9 6.5 3.2 6.8 7.5.3 4.4-1.8 7.4-6.1 8.5-1.9.5-4 .5-5.9.5h-75c-1.5 0-3-.1-4.5 0-4.9.3-8.3 3.7-8.3 8.2s3.4 7.9 8.3 8.2c1.5.1 3 0 4.5 0h74.5c1.3 0 2.7-.1 4 0 5.4.4 8.6 3.7 8.5 8.6-.1 4.8-3.4 7.9-8.9 8.1-1.3.1-2.7 0-4 0h-76.5c-6.5 0-10.4 3.1-10.5 8.2-.1 5.3 3.8 8.6 10.6 8.6h76.5c1.7 0 3.3-.1 5 .1 4.7.4 7.7 3.6 7.7 8.2 0 4.5-3 7.7-7.7 8.2-1.7.1-3.3.1-5 .1h-75c-1.5 0-3-.1-4.5.1-4.6.7-7.9 4.2-7.6 8.4.3 4.5 2.9 7.3 7.4 8.1 6.7 1.2 9.8 4.5 9.1 9.5-.7 5.2-5.3 7.9-11.8 6.9-18.2-2.8-27.2-22.6-17.4-38.2.6-1 1.3-1.9 1.9-2.8-8-14.4-8-21.1.1-33.7-5.1-6.5-7.3-14-5.4-22.2 1.9-8.4 7.3-14 15.3-17.8-1.3-8.1-4.9-14.6-11.7-19.4-30.2-21.2-56.1-46.8-70.5-81.3-25.3-60.9-26-121.3 11.9-177.8C140.9 30.1 182.2 6.3 233.8.7c1.3-.1 2.6-.6 3.9-.8C246 0 254 0 262 0zm-28.7 467v5.6c.1 7.7 2.8 10.5 10.5 10.6 4.8 0 9.7.1 14.5-.1s7.8-2.9 8.3-7.6c.3-2.7.1-5.5.1-8.8h-28.4c-1.5.1-3 .2-5 .3zM0 164c2.6-4.5 6.6-5.9 11.7-5.8 11.6.2 23.3.1 34.9.1 1.8 0 3.7 0 5.4.5 4.2 1.1 6.3 4.1 6.1 8.5-.2 4.2-3.2 7.6-7.7 7.7-14.1.2-28.3.3-42.4-.1-2.8-.1-5.4-3.1-8.1-4.8.1-2.1.1-4.1.1-6.1zM500 169c-2.3 4.6-5.9 6.2-11 6.1-12.3-.2-24.6-.1-36.9-.1-6.7 0-10.2-2.9-10.3-8.2-.1-5.3 3.5-8.5 10-8.5 12.6-.1 25.3.1 37.9-.1 4.7-.1 7.9 2 10.2 5.8.1 1.7.1 3.3.1 5z"/><path class="st0" d="M266.7 200.2h-33.5v112c0 1.8.1 3.7-.1 5.5-.5 4.3-3.9 7.3-8.1 7.4-4.2 0-7.6-2.9-8.2-7.2-.2-1.8-.2-3.7-.2-5.5V206.9v-6.8c-8 0-15.8.4-23.5-.1-5.7-.4-11.7-1.1-17-3.1-19.3-7.3-29.8-28.2-25-48.4s24-33.5 45.5-31.4c19.6 1.8 35.7 19 36.4 39.4.3 8.8.1 17.6.1 26.5h33.7c0-8.9-.2-17.5 0-26.2.6-19.1 13.5-34.9 32.2-38.9 16.6-3.6 30.9 1.2 41.6 14.4 10.5 13 12.6 27.8 5.6 43.1-7 15.5-19.6 23.6-36.5 24.5-8.6.5-17.2.1-26.4.1v112.4c0 2 .1 4-.3 6-.9 4.3-3.9 6.6-8.2 6.6-4.1-.1-6.9-2.4-7.8-6.4-.4-1.9-.3-4-.3-6v-106-6.4zM216.1 183c0-10.2.9-20.1-.2-29.8-1.4-12-13.6-20.8-25.5-19.9-13.4 1-23.3 11.4-23.5 24.6-.2 12.6 9.1 24 21.2 25 9.1.7 18.5.1 28 .1zm68 .1c8.5 0 17.3.3 26.1-.1 12.4-.5 22.4-11 22.9-23.4.5-13.4-8.3-24.1-21.7-26.1-12-1.8-25.3 6.3-27 18.4-1.4 10.1-.3 20.6-.3 31.2zM106 38.5c-1.8 2.4-3.1 5.6-5.4 6.6-2.3 1.1-6.5 1.1-8.3-.3C80.9 35.9 69.9 26.5 58.9 17c-3.2-2.7-3-7.8-.5-10.9 2.8-3.4 7.6-4.4 11.2-1.4 11.1 9 22.1 18.3 32.9 27.6 1.5 1.2 2.1 3.6 3.5 6.2zM70.2 98.1c.1 5.5-4.7 9.9-9.9 8.1-13.9-4.6-27.6-9.7-41.2-15-4.1-1.6-5.2-5.6-4-9.7 1.3-4.2 4.5-6.1 8.9-5.6 1 .1 2 .4 2.9.7 12.4 4.5 24.7 8.9 37 13.4 3.8 1.4 6.2 3.8 6.3 8.1zM402.2 47.3c-2.2-2.1-5.1-3.8-6.5-6.4-1.8-3.3-.5-6.8 2.5-9.4 7.2-6.1 14.5-12.2 21.8-18.3 3.3-2.8 6.5-5.7 10-8.3 4-3 8.7-2.5 11.6 1 2.8 3.4 2.6 8.5-1 11.7-10.5 9-21.1 17.8-31.8 26.6-1.6 1.3-3.6 1.8-6.6 3.1zM485.3 84c0 4-2.1 6.6-5.7 7.9-12.8 4.7-25.6 9.4-38.4 14-5 1.8-9.6-.5-11-4.9-1.5-4.5.6-8.9 5.6-10.8 12.6-4.7 25.3-9.4 38-13.8 6.1-2.1 11.5 1.6 11.5 7.6z"/></svg>