<svg id="Слой_1" xmlns="http://www.w3.org/2000/svg" viewBox="0 0 497.3 482.8"><style>.st0{fill:#e31f25}</style><path class="st0" d="M21.3 482.8c-1.1-.3-2.2-.7-3.3-1C7.8 479.3.7 470.9.1 460.4c-.1-1.7-.1-3.3-.1-5V245c0-3.3.1-6.7 1-9.9 2.8-10.3 11.7-16.9 23.2-17 36.8-.1 73.6-.1 110.5 0 10.9 0 17.2 7.4 21.4 16.3 1.8 3.8 3.8 4.7 7.5 4.4 4.3-.3 8.7-.5 13-.1 5.6.5 9.3-1.7 12.9-5.7 12.2-13.4 23.2-27.4 30.6-44.1 3.3-7.4 7.2-14.6 10.9-21.9 6.8-13.3 15.7-24.6 27.5-34.4 24.3-20 43.2-44.4 52.2-75.2 2.3-7.8 2.9-16 4.8-24 3.4-14.9 10.2-27.4 26.1-31.9C354-2 365.5-.4 375 9.8c17.7 19.1 29 40.6 26.4 67.5-1.4 14.8-7.6 28.2-13.5 41.6-7.7 17.6-17.2 34.2-28.8 49.5-1.2 1.6-2.2 3.4-2.8 5.2-2.7 7.7-1.1 9.9 6.8 9.9 21.8 0 43.7-.4 65.5.1 18.9.4 35.9 6.8 50.4 19.1 9.5 8 15.3 18.3 17.6 30.6.2 1.1.7 2.2 1 3.3v17c-3 7.6-5.7 15.5-9.2 22.9-1.4 3-1.9 4.9-.6 8 10.1 23.9 7 46.1-9.2 66.3-1.9 2.4-1.7 4-1 6.6 6.4 22.3 2.9 43-10.9 61.8-1 1.3-1.6 3.1-1.7 4.7-.3 6.1.3 12.3-.5 18.3-3 20.7-16.2 34.7-36.1 38.9-2.3.5-4.5.9-6.8 1.4h-226c-9.3-4.7-17.7-10.4-23.8-19.1-1.1-1.5-3.2-3.8-4.1-3.5-3.2 1-7.8 2.4-8.7 4.8-3.6 10-10.7 15.2-20.4 17.8-39.3.3-78.3.3-117.3.3zm433.3-203.5c2.9-2.1 4.8-4 7.1-5.3 16.7-9.3 22.1-42.1-.1-57.8-10.3-7.3-22-11.2-34.6-11.4-23.7-.2-47.3-.1-71 0-8.7 0-15.1-3.7-18.7-11.6-6-13.1-4-25.5 4.2-36.7 13.9-18.9 25-39.3 33-61.3 2.6-7.1 5-14.6 5.5-22.1 1.4-19.1-7.8-34.1-19.9-47.9-4.8-5.5-15.6-4.5-18.8.9-2.1 3.5-4.1 7.3-5 11.3-1.9 7.7-2.5 15.8-4.6 23.5-9.9 36.2-31.7 64.6-59.9 88.3-9.6 8.1-16.9 17.2-22.4 28.2-2.6 5.2-5.5 10.3-7.7 15.6-10.2 24.7-27.2 44.4-45.9 62.9-2.6 2.6-5.4 3.9-9.3 3.8-9.1-.2-18.2-.1-27.5-.1-.2 2-.4 3.2-.4 4.3 0 56.6 0 113.3-.1 169.9 0 3.4 1 4.6 4.5 4.8 8.2.3 14.7 3.8 19.3 10.7 5.3 8 13.3 11.9 22.3 12 56.8.4 113.6.3 170.4.3 15.7 0 31.3-.3 47-.8 6.2-.2 11.7-2.7 15.5-7.9 5.5-7.5 6.1-16.2 6.2-25.2.1-6.8-4.8-9.4-8.6-13.2-.1-.1-.1-.3-.4-1.2 17-2.6 20.2-16.1 23.7-29.9 4.1-16.2-3.5-26.8-17.7-36.1 17.5-4 27.8-13.1 30.6-29.4 2.8-16.3-2.3-29.2-16.7-38.6zm-316.5 71.3c0-35-.1-70 .1-105 0-4.7-1.2-6.4-6.2-6.3-35 .2-70 .2-105 0-4.6 0-5.9 1.4-5.9 6 .1 70 .1 140 0 209.9 0 5 1.7 6.1 6.3 6.1 34.7-.2 69.3-.1 104-.1 6.6 0 6.7 0 6.7-6.7V350.6z"/></svg>