<svg id="Слой_1" xmlns="http://www.w3.org/2000/svg" viewBox="0 0 500 721.4"><style>.st0{fill:#e31f25}</style><path class="st0" d="M500 283c-1 8.7-1.8 17.5-3 26.2-5.9 43.1-20.6 82.6-45.5 118.6-50.2 72.6-99.9 145.6-149.8 218.4l-48.3 70.5c-1 1.5-2.1 2.9-3.4 4.7-1.3-1.8-2.4-3.2-3.4-4.7C179 618.2 111.4 519.8 44.1 421.1c-22.9-33.5-35.5-71-41-110.9C1.8 301.5 1 292.7 0 284v-32c.3-1.6.8-3.2.9-4.9 1.6-28.8 7.1-56.8 17.3-83.7C51.7 75.3 115.1 22.3 207.4 3.9 216.8 2 226.5 1.2 236 0h28c1.6.3 3.2.8 4.8.9 27.1 1.9 53.3 8 78.2 19 89.2 39.7 135.8 110.8 149.9 205.4 1.4 9.2 2.1 18.4 3.1 27.7v30zM250 675.7c1.7-2.5 2.9-4.2 4.1-6 59.8-87.2 119.6-174.4 179.3-261.8 6.3-9.2 12-18.9 16.6-29 28-60.8 31.4-123.6 13.9-187.7C432 74.3 324.5 13.9 221.2 28.4 140.5 39.7 82 83.3 48.2 157.9 26.8 205 21.4 254.9 28.3 306c4.9 36.3 16.6 70.3 37.3 100.7 48.1 70.4 96.4 140.7 144.6 211 13.1 19.1 26.2 38.2 39.8 58z"/><path class="st0" d="M343.4 250.8c-.2 50.8-41.1 92.1-91.2 92-50.3-.1-91.3-41.8-91.1-92.7.2-50.6 41.6-92.1 91.5-91.8 50.3.3 91 41.7 90.8 92.5zm-25.8-.4c-.1-36.6-29.5-66-65.6-65.9-35.9.2-65 29.8-65 66.1 0 36.2 29.3 65.8 65.2 65.9 36 .1 65.5-29.6 65.4-66.1z"/></svg>