<svg id="Слой_1" xmlns="http://www.w3.org/2000/svg" viewBox="0 0 500 625"><style>.st0{fill:#fff}</style><path class="st0" d="M14 625c-7-2.8-11.9-7.3-12.1-15.4-.1-8.6 6.2-15.4 14.8-15.7 5.7-.2 11.3-.1 17-.1h200.6V420.9c-1.8 1.4-3 2.3-4.2 3.4-11 9.4-22 18.8-33.1 28.2-7.7 6.5-17.1 6.2-23.1-.8-5.8-6.8-4.9-16.1 2.5-22.6 21.1-18.2 42.2-36.3 63.4-54.3 6.5-5.6 14-5.6 20.4-.1 21.2 18 42.3 36.1 63.4 54.3 7.4 6.4 8.2 15.8 2.3 22.6-5.9 6.8-15.1 7.3-22.7.9-12.2-10.3-24.3-20.7-37.1-31.7v172.9h6.2c69.5 0 139 .1 208.4-.1 10.6 0 19 7.7 17.1 18.8-1.1 6.4-5.8 9.7-11 12.6H14zM254 0c9 3.9 12.1 10.9 11.6 20.4-.4 8.8-.1 17.6-.1 26.9H290c6.3 0 12.7-.2 19 .4 7.8.8 13.2 7.3 13.4 15 .2 7.8-5 14.1-12.7 15.6-2.1.4-4.3.4-6.5.4-25.3 0-50.7-.1-76 .1-16.7.1-30.9 12.3-33.2 28.3-2.5 17.5 7.5 33.5 24.2 38.2 3.5 1 7.2 1.4 10.8 1.4 14.5.2 29-.1 43.5.1 33.2.4 60.5 24.8 64.3 57.6 3.8 32.6-17.2 63.1-49.3 70.9-5.8 1.4-11.9 1.6-17.8 1.8-3.3.1-4.3 1.2-4.2 4.4.1 9.8.2 19.7-.2 29.5-.3 7.3-6 13-12.8 14-7.4 1.1-14.3-2.7-16.8-9.6-.9-2.4-1.2-5.2-1.2-7.8-.2-8.2 0-16.3-.1-24.5 0-1.8-.2-3.6-.3-5.8h-29.3c-4.3 0-8.7.1-13 0-9-.3-15.7-6.8-15.8-15.4-.1-8.7 6.8-15.7 16-15.7 19.5-.1 39 0 58.5 0 7.5 0 15 .1 22.5 0 18.5-.3 33-15.1 33.1-33.7.2-18.5-14.2-33.8-32.7-34.2-15.3-.3-30.7 0-46-.1-33.3-.2-62-26.2-64.5-58.5-2.7-35.4 20.1-65.5 54-71.2 5.5-.9 11.2-.9 17.4-1.4 0-8.9.3-17.7-.1-26.5C233.9 10.9 237 3.9 246 0h8zM0 118c.8-2.9 1.5-5.7 2.4-8.6 6.5-20.6 24.2-34.8 45.9-36.7 1.6-.1 3.3-.4 5.6-.6V54.2C54 44 60.3 37 69.4 37c9 0 15.5 7.1 15.6 17.2v18.2h8.1c6.5 0 13-.2 19.5.1 8.6.5 14.7 6.9 14.9 15.2.2 8.5-5.9 15.2-14.7 16-1.5.1-3 .1-4.5.1h-54c-13.5 0-23.2 9.2-23.1 21.6.1 12.2 9.8 21.3 22.9 21.4 10.5.1 21-.1 31.5 0 28.5.2 50.2 20.4 52.8 48.9 2.4 26.3-16.4 50.6-43.4 55.7-3.1.6-6.3.7-10.2 1.1 0 6.4.1 12.8 0 19.2-.2 9.2-6.5 16-14.9 16.3-8.5.3-15.6-6-16-14.5-.3-6.8-.1-13.6-.1-21.1-1.9-.1-3.5-.3-5-.3-7.5 0-15 .1-22.5 0-9.3-.1-16.2-6.6-16.2-15.4-.1-8.8 6.9-15.6 16.4-15.7 19.8-.1 39.7.1 59.5-.1 16.3-.2 26.4-17.1 18.9-31.4-4-7.6-10.5-11.5-19.1-11.5-10.8-.1-21.7 0-32.5 0-26.1-.1-46.9-17.1-52.3-42.7-.2-1.1-.6-2.2-1-3.3v-14zM500 207c-.4 1.2-.9 2.4-1.1 3.7-5.3 23.7-25 40.2-49.4 41.5-.8 0-1.6.1-3.4.3 0 6.9.1 13.8 0 20.7-.2 6.5-4.2 11.8-10.3 14-5.8 2.1-12.6.9-16.3-4.2-2.3-3.2-3.8-7.4-4.2-11.3-.7-6.2-.2-12.6-.2-19.5-9.7 0-19 .1-28.3 0-8.1-.1-14.3-6-15.1-13.8-.9-9.7 6-17.2 16.2-17.3 20-.1 40 .1 60-.1 10.2-.1 18.3-7.1 20.6-17.2 2-9.2-2.6-19.3-11.4-23.3-3.2-1.5-7-2.2-10.6-2.3-10.8-.3-21.7-.1-32.5-.1-28.6-.2-51.3-22.2-52.4-51-1.1-28 19.8-51.7 47.9-54.3 1.6-.2 3.3-.4 5.6-.6 0-6.5-.2-12.9 0-19.4.3-7.9 5.3-13.9 12.5-15.5 6.7-1.4 14.1 2.1 16.9 8.6 1.1 2.5 1.4 5.5 1.5 8.2.2 5.8.1 11.6.1 18.3h17.7c3.8 0 7.7-.1 11.5.3 7.7.9 13.3 7.3 13.5 14.9.2 7.4-4.9 13.9-12.2 15.6-2.1.5-4.3.6-6.4.6h-54.5c-13.7 0-23.1 8.9-23 21.5.1 12.5 9.6 21.4 23.2 21.5h30.5c26.6.1 47.2 17 52.6 42.9.2.8.6 1.5.9 2.2.1 5.1.1 10.1.1 15.1z"/></svg>