<svg id="Слой_1" xmlns="http://www.w3.org/2000/svg" viewBox="0 0 495.8 487.3"><style>.st0{fill:#e31f25}</style><path class="st0" d="M0 60.3c.8-3.4 1.5-6.8 2.4-10.1C16.2.9 79.5-16.6 116.8 18.5c5.6 5.2 5.6 9.4.3 14.9-11.9 12.5-23.8 25.2-35.4 37.5 3.3 3.4 7.9 8.1 12.4 12.9 89.2-78.7 223.4-73.9 307.5.2 4.6-4.8 9.1-9.6 12.4-13-11.4-12.1-22.9-24.6-34.7-36.8-6.4-6.6-6.4-10.6.5-16.6 40.3-35.4 104-14.4 114.5 37.9 4.5 22.6-1.9 42.5-17.6 59.4-4.8 5.1-9.7 5.2-14.7.3-11.2-10.9-22.4-21.8-34-33.1-4.4 4.9-8.5 9.7-13 14.7 48.6 52.3 71.3 114.7 61.1 187.1-10.2 72.2-49.5 125.8-110 163.3 7.8 8.2 15.7 16.6 23.6 24.9 4.2 4.4 4.4 9.8.4 13.1-3.7 3.1-8.4 2.8-12.5-1.2-8.3-8-16.5-16-24.6-24.2-2.8-2.9-4.9-3.5-8.9-1.7-64.4 28.1-128.8 28-193.2-.2-3.6-1.6-5.5-1.1-8.1 1.5-8.3 8.4-16.9 16.6-25.3 24.9-3 3-6.5 4-10.5 2-3.6-1.8-5.2-4.9-4.3-8.6.6-2.3 2.1-4.5 3.7-6.2 7.5-8.2 15.2-16.3 22.8-24.4C68.7 409.7 29.5 356 19.3 283.8 9.2 211.5 31.8 149.1 81.2 96c-.5-.7-.9-1.2-1.3-1.7-3.8-4.2-7.6-8.4-11.8-12.9-6 5.9-11.2 11-16.4 16-6.2 6.1-12.3 12.2-18.6 18.2-4.4 4.2-9.3 4.1-13.6-.2C9.6 105.6 3.6 93.7 1 80.1c-.2-1.3-.7-2.5-1-3.8v-16zm250.1 401.8c26.6-.2 54.6-5.6 81.3-16.8 105.7-44.4 157-162.6 115.9-267.2C403.6 66.5 273.8 13 162.8 60.6 67.6 101.6 16.4 201.7 40 301.2c22.1 93.4 109.2 160.9 210.1 160.9zM468.6 97.7c15.7-19.4 12.3-49.8-7-67.3-21.5-19.4-52.5-15-65.2-3.4 24 23.5 48 47 72.2 70.7zM99.4 26.8c-19.4-15.5-51-12.1-68.7 6.9-16.6 17.8-18.4 47.4-3.5 63.9 24-23.6 48-47.1 72.2-70.8z"/><path class="st0" d="M256.3 176.4c0 13.2.1 26.3-.1 39.5 0 3 .6 4.6 3.8 5.8 9.4 3.4 16.1 10 19.6 19.4 1 2.8 2.4 3.3 5.1 3.3 18.5-.1 37-.2 55.5.1 3 .1 7 1.9 8.8 4.2 4 5.4-.5 12.3-8 12.5-8.8.2-17.7.1-26.5.1-9.5 0-19 .2-28.5-.1-3.7-.1-5.4.9-6.9 4.4-7.3 17.4-27.1 25.2-44.5 18-17.1-7.1-25.4-26.1-18.6-42.9 3.7-9.2 10.3-15.5 19.4-18.9 3.1-1.2 3.8-2.7 3.8-5.8-.1-26-.1-52-.1-77.9 0-6.5 2.5-10.1 7.3-10.8 5.7-.8 9.7 2.9 9.7 9.2.3 13.2.2 26.5.2 39.9zm-8.2 59.7c-9.6-.1-17.1 7.1-17.2 16.4-.1 9.3 7.3 16.8 16.7 16.9 9.4.1 17.1-7.2 17.3-16.4.2-9.2-7.4-16.8-16.8-16.9zM64.3 243.3h2c6.7.1 10.7 3.3 10.6 8.5-.1 5.1-4 8.2-10.3 8.3-2 0-4 .1-6 0-5.6-.2-9.3-3.5-9.4-8.3-.1-4.9 3.8-8.4 9.6-8.5h3.5zM431.8 243.3h3.5c5.6.2 9.1 3.5 9.1 8.4s-3.5 8.1-9.2 8.4c-2.3.1-4.6.1-7 0-5.9-.2-9.5-3.6-9.3-8.7.1-4.9 3.6-7.9 9.4-8.1h3.5zM382.8 390.3c-6.9.1-16.8-8.7-16.4-13.8.2-2.6 2-6.1 4.1-7.2 2.3-1.3 6.4-1.3 8.7 0 3.4 1.8 6.5 4.9 8.5 8.2 1.3 2.1 1.4 6 .4 8.3-1.1 2.3-4.2 3.6-5.3 4.5zM256.3 72v3.5c-.3 5.3-3.5 8.6-8.3 8.7-4.7.1-8.3-3.3-8.7-8.4-.2-2.5-.2-5 0-7.5.3-5.9 3.7-9.3 8.9-9.1 5 .2 8 3.5 8.1 9.3V72zM129.4 374.4c-.1 7.2-9.6 16.5-14.9 15.7-2.6-.4-6-2.4-7-4.5-1-2.4-.5-6.3.8-8.7 1.6-2.9 4.4-5.7 7.4-7.2 2.6-1.3 6.5-1.6 9.2-.6 2.3.8 3.6 4.2 4.5 5.3zM389.2 119.4c.2 7.5-9.3 16.9-14.9 16-2.6-.4-5.8-2.4-6.9-4.6s-.6-6.1.7-8.2c1.9-3.2 4.9-6.1 8.2-7.9 2.4-1.3 6.2-1.2 8.8-.2 2 .8 3.3 3.9 4.1 4.9zM256.3 431.8c0 8.7-2.6 12.5-8.5 12.5s-8.6-4-8.6-12.6c0-1.2-.1-2.3 0-3.5.4-5.6 3.7-9 8.7-9 5.1 0 8.2 3.4 8.4 9.1v3.5zM106.3 120.9c.4-6.3 7.7-10.1 13-6.5 3.2 2.2 6.2 5.1 8.6 8.3 3.7 4.8.6 11.7-5.2 12.7-6.3 1.1-16.8-8.3-16.4-14.5z"/></svg>