<svg id="Слой_1" xmlns="http://www.w3.org/2000/svg" viewBox="0 0 500 500"><style>.st0{fill:#e31f25}</style><path class="st0" d="M177 0l.3 49.9v6.5h183.9c21.1 0 37.2 12.8 41.2 32.8.7 3.5.7 7.3.7 10.9V247l1.2.3 7.4-29.6c4.1 0 8.7-.2 13.3.1 1 .1 2.4 1.7 2.6 2.8 4.5 29.3 18.2 54.7 32.9 79.8 6.1 10.5 12.5 20.9 18.6 31.3 10 17.2 17.8 35.3 20.8 55.1v17c-1.8 6.7-3 13.7-5.4 20.1-13.6 36.1-51.8 57.4-89.7 50.2-3.2-.6-4.6.2-6.1 3-2 3.8-4.6 7.3-7.4 10.6-5.9 6.7-14.1 9.7-22.4 12.1h-335c-1.5-.5-3.1-1.1-4.6-1.6-12.9-3.9-21.8-12-26.7-24.6-1-2.6-1.8-5.3-2.7-7.9C0 341 0 216 0 91c.2-.4.5-.9.6-1.3 3.5-16.2 13.2-26.8 29-31.9 1.2-.4 2.4-2.6 2.4-3.9.1-18 0-35.9 0-53.9h145zm208.2 468.8c-.6-.7-.6-.8-.8-.9-1.3-.7-2.6-1.4-3.9-2.2-27.2-16.3-41.7-40-41.7-71.9 0-19.2 6.6-36.6 15.7-53.1 9.8-17.8 20.4-35.1 30.5-52.7 1.2-2 1.9-4.6 1.9-7 .1-61 .1-122 .1-183 0-15.1-9.9-25.3-24.9-25.3-107-.1-214 0-321-.1-7.4 0-13.7 2.4-18.7 7.9S16 92.7 16 99.9c.1 118.5 0 237 0 355.5 0 19.2 9.3 28.5 28.5 28.5H359c1.7 0 3.3.1 5-.1 10-.8 17-5.8 21.2-15zm34.7-214.1c-7.1 14-13.6 28-21 41.6-7.5 13.7-16.1 26.8-23.8 40.4-4.6 8.1-8.8 16.4-12.6 24.9-5.7 12.9-8.9 26.6-7.2 40.8 4.4 36.9 38.5 62.5 74.9 56.4 35.9-6 59.6-40.8 52.4-76.9-3.3-16.6-10.9-31.3-19.2-45.8-15.5-26.8-33.2-52.3-43.5-81.4zM48.7 56.1h15.5V16.3H48.7v39.8zm32.5-39.7v39.7h15.4V16.4H81.2zm47.4 39.7V16.3h-15.3v39.8h15.3zm16.8-39.7v39.7h15.5V16.4h-15.5z"/><path class="st0" d="M220 96.9h108.7c16.2 0 26.2 9.9 26.2 26.1v78.9c-45.6-35.1-90.4-69.5-135.2-104 .1-.3.2-.7.3-1zm45.7 16c24.9 19.2 48.6 37.4 73.1 56.2v-45.9c0-7.5-2.8-10.3-10.3-10.3h-62.8zM330.5 346.6H315l-.9-3.9c-2-11.5-11.1-19.6-22.8-20-8.3-.3-16.7-.1-25-.1-49.3 0-98.7.3-148-.2-14.9-.1-27.2 5.4-30 24.4H73.2c-1.7-18.5 14.2-37.2 33.3-39.9 2.1-.3 4.3-.5 6.5-.5 59 0 118-.1 177 0 21.8.1 38.3 15.5 40.5 37.1.1.9 0 1.7 0 3.1zM72.5 234.1h15.8c.5 2.4.9 4.7 1.6 6.8 3 10 11.9 17 22.2 17 59.6.1 119.3.1 178.9 0 11.5 0 21-8.5 23.1-19.8.2-1.3.5-2.6.9-4.3h12c1.1 0 2.3.2 3.3.3.8 20.2-16.7 39-37.1 39.7-10.8.4-21.6.1-32.5.1H113.8c-20.1 0-35.7-12.3-40.2-31.6-.6-2.3-.7-5-1.1-8.2zM40.4 112.7V97.2h15.7v15.5H40.4zM88.4 112.7H73V97.1h15.4v15.6zM105.2 97.1h15.4v15.5h-15.4V97.1zM56.4 443.9c0 4.6.2 8.8-.1 13.1-.1 1-1.6 2.6-2.5 2.6-4.3.3-8.5.1-13.2.1v-15.8h15.8zM88.5 459.5H73v-15.6h15.5v15.6zM452.1 395.4h15.2c2.2 24.5-24.5 51-48 47.4 0-4.2-.2-8.5.1-12.7.1-1 1.5-2.6 2.5-2.7 17.8-2.5 27.4-12.9 29.7-30.4.1-.6.4-1 .5-1.6z"/></svg>