<svg id="Слой_1" xmlns="http://www.w3.org/2000/svg" viewBox="0 0 500 500"><style>.st0{fill:#e31f25}</style><path class="st0" d="M234 0h32c1.3.3 2.6.6 3.9.8 11.7 1.7 23.5 2.9 35 5.3 96.5 20.4 174.9 102.4 191.2 199.8 1.6 9.3 2.6 18.7 3.9 28.1v32c-.3 1.4-.6 2.9-.9 4.3-1.7 11.5-2.9 23.2-5.2 34.5C474 399.4 394.6 477 299.5 495c-11.1 2.1-22.3 3.3-33.5 5h-32c-1.3-.3-2.6-.6-3.9-.8-11.7-1.7-23.5-2.9-35-5.3C98.6 473.5 20.2 391.5 3.9 294.1 2.4 284.8 1.3 275.4 0 266v-32c.3-1.4.6-2.9.9-4.3 1.7-11.5 2.9-23.2 5.2-34.5C26 100.6 105.4 23 200.5 5c11.1-2.1 22.3-3.4 33.5-5zm16.3 20C123.8 20 20.2 122.9 20 248.6 19.9 376.1 122.5 479.9 249 480c127.4.1 231-102.7 231-229.3C480 123.4 377 20.1 250.3 20z"/><path class="st0" d="M214.7 318.3c3.1-3.9 4.9-6.8 7.2-9.1 50.2-48.8 100.4-97.5 150.8-146.1 2.9-2.8 6.7-5.1 10.5-6.1 6.1-1.7 12.1 1.6 15.3 7 3.1 5.2 2.6 12-1.2 16.9-1 1.3-2.2 2.5-3.4 3.6C338.5 238 283.3 291.6 228 345.2c-10.3 10-17.3 9.9-27.3-.1l-62.2-62.2c-3.4-3.4-5.8-7.2-5.7-12.3.1-5.9 2.7-10.3 7.8-13 5.3-2.8 10.6-2.5 15.6.8 1.6 1.1 3 2.6 4.5 4 16.6 16.6 33.3 33.2 49.8 49.9 1.2 1.3 2.1 3 4.2 6z"/></svg>