<svg id="Слой_1" xmlns="http://www.w3.org/2000/svg" viewBox="0 0 500 457"><style>.st0{fill:#fff}</style><path class="st0" d="M281 0c6.3 1.4 12.7 2.5 18.9 4.4 40.9 12.5 68.4 49.9 68.1 92.7-.2 35.3-9.9 67.7-31.3 96.1-4.2 5.6-9 10.8-14.1 15.5-31.6 29.2-71.5 29.6-103.4.7-22.3-20.2-34.7-46-41.1-75-4.8-21.8-6.7-43.8-.1-65.7 1.1-3.6 2.4-7.2 3.6-10.8-19-12.3-49-9.5-68.4 6.3C98 76.7 90.1 92.9 90 112.5c-.1 23 5.9 44.4 18.4 63.9 6.2 9.7 14 17.7 24.1 23.5 5.4 3.1 7.1 8 4.4 12.5-2.7 4.5-8.3 6-12.9 2.4-5.7-4.5-11.2-4.3-17.5-2.2-9 3.1-18.2 5.4-27.1 8.7-25 9.3-41.1 27.1-48.4 52.7-4.5 15.8-9 31.7-13.4 47.6-1.5 5.5-.4 7 5.3 7.1 21 .1 42-.1 63 .1 3.4 0 4.4-1.4 5.4-4.3 4-12.5 7.1-25.5 12.8-37.2 14.9-30.9 40.3-49.3 73.6-56.9 7.6-1.7 14.8.2 20.1 6.2 14.8 16.9 34.2 23 55.8 23.5 17.5.4 35 1.3 52.1-3.8 10.8-3.2 20.3-8.5 27.7-17 7.4-8.4 16.1-10.9 26.9-8.1 37.6 9.9 63.3 32.8 76.2 69.6 3.3 9.2 5.7 18.8 8.3 28.2 1.7 6-.6 10.7-5.6 12-5.2 1.4-9.4-1.3-11.2-7.2-2.8-9.4-5.1-19-8.4-28.2-11.1-31.2-33.3-50.2-65.3-58-1.9-.5-5 .3-6.3 1.6-18.2 20.4-41.7 27.6-68 28.5-17.5.6-35 .6-52.2-3.4-15.9-3.7-29.4-11.5-40.4-23.5-2.8-3.1-5.4-4-9.6-2.9-33.4 8.8-55.1 29.8-65 62.8-5.7 18.8-10.9 37.7-16.4 56.6-2.6 9-.3 12.1 9 12.1h264.5c2.3 0 4.7 0 6.9.5 4.3 1.1 6.4 4.2 6.2 8.5-.2 4.4-2.8 7-7.1 7.8-1.8.3-3.7.2-5.5.2-88.5 0-177-.3-265.5.3-17 0-31.9-14.9-24.9-34.3 1.8-5.1 3.1-10.5 4.8-16.4-2.1-.1-3.9-.3-5.6-.3-17.7 0-35.3-.4-53 .1-13 .4-21.8-4.5-26.3-16.8v-9c.4-.9.9-1.7 1.2-2.6C5.5 302.2 9.9 287 14 271.8c9.3-33.7 30-56.9 63.2-68.5 7.8-2.7 15.8-5.1 23.9-7.6-.4-.7-.6-1.3-1-1.8-18.8-24-27.1-51.6-27-81.8.1-49.6 46.2-87.1 94.9-77.2 7.7 1.6 15.1 4.5 22.9 6.8.6-.7 1.3-1.6 2-2.6C207.3 20.2 226.2 8 249.4 2.4c3.8-.9 7.7-1.6 11.6-2.4h20zm20.5 75.7c-10.3 13.2-23.7 20.8-39.1 25.4-18.2 5.4-36.7 6-55.4 4.4-5.2-.4-10.4-1.2-16.8-2 2.1 11.5 3.3 22.2 6 32.6 6.4 24.7 17.7 46.6 37.7 63.2 22.7 18.9 49.5 19.4 72.6 1.1 5.8-4.6 11.2-10 15.8-15.9 19.4-25 27.5-53.9 28.6-85.1.1-3.4 0-6.8 0-10.4-19.1 3.1-35-1.6-49.4-13.3zm-109.3 10c.7.3 1.1.7 1.6.7 20.7 3.6 41.4 4.5 61.9-1.1 14.7-4 28.1-10.5 35-25 4.1-8.5 12.2-9 17.9-1.7 9.5 12 22.7 16 37.8 13.9-4.6-29.5-41.6-56.1-76.9-55.6-38.7.7-72.6 30.7-77.3 68.8z"/><path class="st0" d="M367 457c-7.8-5.2-8.3-9.9-1.7-16.5 16.1-16.2 32.2-32.3 48.4-48.4 1.3-1.3 3-2.1 4.8-3.4-2.2-2.3-3.4-3.6-4.6-4.9-16-15.9-31.9-31.7-47.9-47.5-1.1-1.1-2.2-2.1-3.1-3.2-2.9-3.6-2.6-8.2.5-11.3 3.2-3.2 7.6-3.6 11.3-.6 2.3 1.9 4.3 4.1 6.5 6.2 15.2 15 30.4 29.9 45.6 44.9 1.2 1.2 2.4 2.3 4.5 4.2 17.6-17.9 34.9-35.7 52.4-53.3 2-2 4.8-3.7 7.5-4.2 4.4-.9 6.8 2.6 8.9 5.9v5c-2 2.2-3.9 4.5-6 6.6-15.9 15.9-31.8 31.7-47.7 47.5-1.2 1.2-2.4 2.5-3.8 4 17.6 17.6 34.8 34.6 51.9 51.9 2.3 2.3 3.8 5.3 5.6 8v9h-12c-2.5-2.4-5.1-4.6-7.6-7.1-15.6-15.4-31.1-30.9-46.7-46.4-1.2-1.2-2.5-2.4-3.8-3.6-17.4 17.3-34.3 34.3-51.2 51.1-2.1 2.1-4.4 3.9-6.7 5.9-1.8.2-3.4.2-5.1.2z"/></svg>