<svg id="Слой_1" xmlns="http://www.w3.org/2000/svg" viewBox="0 0 500 521"><style>.st0{fill:#e31f25}</style><path class="st0" d="M387 521c-10.6-2.2-21.3-3.7-31.6-6.6-37.9-10.6-72.2-29.1-104.2-51.5-90.6-63.3-163.9-142.4-216.3-240.1-15.1-28.1-26.7-57.6-32.4-89.2C1.6 128.4.8 123.2 0 118V96c.3-1.8.8-3.5 1-5.3C3.4 74.5 9.3 60 21.1 48.2c9.2-9.2 18.2-18.5 27-28.1C56.2 11.1 64.8 3 77 0h12c15.4 3.4 24.6 13.5 31.9 27 21.5 39.8 43.6 79.3 65.5 118.9 10.9 19.8 8.7 37.5-7 53.8-7 7.3-14.1 14.6-21.1 22-7.8 8.3-8.3 17.7-1.4 26.6 31 39.9 65.7 76.1 104.3 108.7 9.1 7.7 18.1 7.1 26.5-1.5 7.5-7.8 14.9-15.7 22.5-23.4 13.6-13.9 31.5-16.3 48.3-6.3 40.3 24.1 80.5 48.3 120.8 72.3 11.6 6.9 17.7 17.1 20.8 29.7v12c-2.2 8.4-5.2 16.4-11.5 22.8-12.3 12.6-24.4 25.4-36.6 38.1-7.7 8-16.9 13.4-27.5 16.4-5.4 1.5-10.9 2.5-16.4 3.8-7.1.1-14.1.1-21.1.1zm81-60.3c-55.3-32.9-109.8-65.3-164.8-98-1.3 1.5-2.4 3-3.7 4.3-15.2 15.7-33.1 16.5-49.7 2.4-38.1-32.4-72.5-68.3-103.4-107.6-15-19.1-14.2-37 2.7-54.3 2.6-2.7 2.6-4.5.9-7.6C120.2 146 90.5 92.1 60.7 38.2c-.8-1.4-1.7-2.7-2.5-4.1.5.7 1 1.3 1.4 2C51 43.7 42.2 51.2 33.7 59c-9.9 9-15.2 20.7-16.3 33.8-.9 10.2-.9 20.7.3 30.9 3.4 28.4 13.7 54.8 26.1 80.3 23 47.6 53.4 90.2 88.1 129.8 44.2 50.4 93.5 94.9 151.1 129.7 28.3 17.1 58 31.4 90.7 38 17.7 3.5 35.5 4.8 52.5-2.9 17.8-8.1 27.1-25.5 41.8-37.9zm11.3-12.8c8.3-12.9 4.9-27.1-8.1-34.9l-119.4-71.7c-13.8-8.3-27.1-4.8-35.6 9.5 54.2 32.4 108.5 64.7 163.1 97.1zM70.2 21.7c31.3 56.7 62.5 113.1 93.7 169.6 14.3-11.9 16.4-22.5 7.8-38-14.2-25.8-28.5-51.5-42.7-77.3-8.7-15.7-17.2-31.5-26.1-47.1-7-12.5-21.2-15.7-32.7-7.2z"/></svg>