<svg id="Слой_1" xmlns="http://www.w3.org/2000/svg" viewBox="0 0 500 414"><style>.st0{fill:#fff}</style><path class="st0" d="M436 414c-2.5-2.1-5.2-4.1-7.6-6.3L286.5 271.8c-1.3-1.3-2.7-2.5-4.4-4.1-1.4 1.2-2.7 2.4-4 3.6l-134.7 129c-10.8 10.3-23.4 13.8-37.7 9.7-26.3-7.5-34.5-38.9-15-58 23.6-23.1 47.6-45.7 71.4-68.6l63.9-61.2c1.3-1.3 2.8-2.3 4.6-3.9-28.7-27.5-56.9-54.6-85.3-81.7-1.8 1.7-3.2 3-4.7 4.4-4.4 4-8.5 4.4-13.6 1.2-5.4-3.4-11.6-2.2-17 3.2-5.1 5.2-5.9 10.5-2.2 16 2.8 4.3 2.8 8.2-.9 11.8-9.4 9.2-18.9 18.4-28.5 27.3-4.3 4-9.6 3.8-13.9-.3-20.5-19.5-41-39.1-61.4-58.8-1.1-1.3-2-2.9-3.1-4.4v-5c10.9-10.7 21.5-21.7 32.8-32 2-1.8 7.3-1.8 10.1-.5 9.8 4.5 19.9.7 22.6-9.6.6-2.3.1-5.4-1-7.5-4-6.8-3.9-9.6 2-15.2l52.2-50.1c9.6-9.2 11.9-9.2 21.9-.3.4.3.8.5 1.5 1 9.8-7.2 20.7-12.3 32.6-15.2 3.1-.8 6.2-1.7 9.4-2.6h23c1 .4 2 .9 3.1 1 20.7 3.5 38.4 12.8 52.5 28.5 3 3.4 4.7 7 2.3 11.3-2.5 4.6-6.6 5.3-11.6 4.9-7.4-.6-15-1.3-22.4-.6-15.6 1.5-28.2 9-38.4 20.9 12.6 13.3 11.2 13.9.3 25.5 28 26.9 56.1 53.7 84.2 80.6 12-13.2 22.4-31.5 26.8-49.8 4.2-17.6 7.3-35.5 10.9-53.3 2.2-11.2 6.5-13.6 17.2-9.8 11.9 4.2 23.7 8.4 35.7 12.7.5-.9.9-1.4 1.1-2 11.6-30.4 33.9-47.6 65.5-53.6 4.2-.8 8-.4 10.9 3.1 2.8 3.4 2.4 7 .9 10.8-4 10.2-7.9 20.5-11.8 30.7-3.8 10.1-7.7 20.1-11.6 30.5 5.9 2.1 11.3 4 16.9 6 .7-1.5 1.2-2.5 1.6-3.6C448.1 76 455 58.1 462 40.3c3.8-9.8 11.8-11.2 18.8-3.2 8.6 9.8 14.3 21.1 17.3 33.9.5 2.3 1.3 4.6 2 6.9v22c-.6 1.5-1.4 2.9-1.7 4.4-6.3 26.1-21.2 45.3-46.1 55.8-26.5 11.2-53.3 21.7-79.8 32.7-16.1 6.7-30.3 16.5-43.6 30 1.7 1.1 3.2 1.8 4.4 3 47.9 45.8 95.8 91.7 143.6 137.6 1 .9 2 1.8 2.9 2.8 3.5 4 3.6 8.7-.1 12.6-3.1 3.3-6.4 6.3-9.7 9.4-9.2 8.6-18.5 17.1-27.8 25.7-2.2.1-4.2.1-6.2.1zM332.4 79.2c-1.9 9.6-3.9 18.7-5.4 27.9-5.7 36-22 66.2-48.6 91.2-28.8 27-57.1 54.6-85.6 81.9-29.2 28-58.5 56-87.7 84.1-6.1 5.9-7.5 12.7-4.2 19.5 3.2 6.5 10.4 10.8 17.8 9.1 4.4-1 9-3.7 12.3-6.9 61.5-58.6 122.9-117.4 184.1-176.3 16.6-15.9 35.3-28.1 56.7-36.6 24.3-9.6 48.4-19.7 72.6-29.4 8.8-3.5 15.8-9.1 21.9-16.2 15.7-18.2 19.1-45.6 8.1-65.2-.8 1.9-1.6 3.5-2.2 5.2-5.5 14.1-10.9 28.2-16.4 42.3-3.4 8.8-7.4 10.6-16.3 7.5-25.1-8.9-50.2-17.8-75.2-26.7-10.5-3.9-21-7.6-31.9-11.4zm126.5 293.4c-48-46-95.6-91.6-143.7-137.7-6.3 7.1-12.3 13.8-18.3 20.6 46.8 44.9 94.4 90.5 142.1 136.2 6.8-6.6 13.2-12.7 19.9-19.1zM129.7 32.5c-14.7 14.1-29.2 28-43.9 42 16.4 15.7 32.4 31 48.5 46.4 14.7-14.1 29.1-27.9 43.8-42-16.2-15.5-32.2-30.8-48.4-46.4zm132.8 151.9c-27.1-26-55.3-52.9-83.6-80.1-6.9 6.6-13.3 12.8-19.9 19.1 28.5 27.4 56.7 54.3 85.2 81.6 6.3-7 12.2-13.6 18.3-20.6zM38.1 120.3c-5.2 4.9-9.9 9.5-14.9 14.2 16.4 15.7 32.3 31 48.5 46.4 5.1-4.9 9.9-9.4 14.9-14.2-16.3-15.6-32.1-30.7-48.5-46.4zm139.4-66.5c20.8-18.8 24-20.6 49.5-27.4-17.9-12.2-54.4-10-69.7 4.2 6.6 7.6 13.3 15.3 20.2 23.2zM85.2 98.7c-7.6 7.5-14.1 13.9-19.1 18.9 6.9 7.9 14.5 16.5 21.2 24.2 7.4-6.8 14.2-13 19.8-18.2-7-7.9-14.8-16.7-21.9-24.9zm319.4-13.6c5.9-15.4 11.6-30.2 17.7-46.2-18.4 8.7-30.1 21.3-36 39.7 6.2 2.2 12 4.2 18.3 6.5z"/><path class="st0" d="M382.3 159.3c-.9-.2-2.7-.6-4.4-1.2-14.5-4.9-28.9-9.9-43.4-14.9-8-2.8-9.9-6.7-7-14.5 3.3-9 6.7-18.1 10.2-27.1 2.6-6.7 7-8.9 13.8-6.5 15.1 5.1 30.2 10.3 45.3 15.6 6.9 2.4 8.8 6.8 6.2 13.7-3.4 9.2-6.8 18.4-10.3 27.6-1.8 5-4.9 7.3-10.4 7.3zm-4.9-20.9c1.8-4.7 3.3-8.7 4.9-13.1-9.8-3.4-19.3-6.6-29.2-10.1-1.7 4.5-3.2 8.7-4.9 13.2 9.9 3.3 19.3 6.6 29.2 10zM117.9 385.2c-5.7 0-10-4.1-10-9.5s4.4-9.7 10-9.7c5.5 0 10.1 4.4 10.1 9.6 0 5.3-4.5 9.6-10.1 9.6z"/></svg>