<svg id="Слой_1" xmlns="http://www.w3.org/2000/svg" viewBox="0 0 500 493"><style>.st0{fill:#e31f25}</style><path class="st0" d="M500 414c-4.8-.2-9.6-.5-14.4-.5-16.5-.1-32.9 0-50 0v-15.4h-24.3V437h-32v-15.4h15.4V231.1h-15.5v23.1h-16.3c0-7.6-.2-15.3.1-22.8.1-3.3-1-5.1-3.7-6.8-12.1-7.7-23.9-15.7-36-23.4-2-1.3-4.6-2-6.9-2.1-49.5-.1-99-.1-148.4 0-2.2 0-4.9 1-6.6 2.5-15 12.4-29.8 25.1-44.8 37.6-2.5 2.1-3.7 4.1-3.7 7.5.1 47.3.1 94.6 0 142 0 3.3 1 5 3.9 6.6 14.3 7.8 28.4 16 42.7 23.8 2.5 1.4 5.6 2.2 8.4 2.2 25.3.2 50.6.1 76 .1h5.8v16h-5.5c-26.7 0-53.3.1-80-.1-3.3 0-6.9-1-9.8-2.6-16.1-8.8-31.9-17.9-48-26.8-2.3-1.3-5.3-2-8-2.1-12-.2-24-.1-36-.1h-5.8v-63.2H16.3v63.6H0v-199h15.9v70.7h40.4v-47.1c8.8 0 17-.8 25 .2 14.4 1.7 25.7-2.7 36.1-13 11.7-11.6 24.9-21.6 37.7-32.1 2-1.6 5-2.6 7.5-2.7 15.5-.2 30.9-.1 46.8-.1v-47.7h-64v-15.7h193.1v15.5h-64v48h16.4c11.5.1 23.7-2.2 34.3.9 10.4 3.1 19.7 11 28.5 18.1 13 10.5 27.2 15.1 43.8 12.9 4.2-.6 8.6-.1 13.6-.1v47.2h24.1v-23.2c2.4-.1 4.1-.3 5.9-.3h53c2 0 3.9-.3 5.9-.5V414zm-16.4-16.7V254.9H452v142.4h31.6zm-387-7.9V246.8H73.1v142.6h23.5zm315-110.9v102.9H435V278.5h-23.4zm-153.7-143h-31.6v47.1h31.6v-47.1zM16.4 325.7h39.7v-31.2H16.4v31.2zM48 48.1V0h17v47.7h47.7v16.2H65l.1.2c-.3-5.3-.7-10.6-1.1-16.1H47.9l.1.1z"/><path class="st0" d="M0 48c16 0 32 0 48 .1l-.1-.1v16.1l.1-.2C32 64 16 64 0 64V48zM500 135c-10.7 0-21.4 0-32-.1l.1.1v-16.1l-.1.1c10.7 0 21.4 0 32-.1V135zM484 461.1c5.3 0 10.7 0 16-.1v16c-5.4 0-10.7 0-16.1-.1l.1.1v-16.1.2zM468 493c0-5.4.1-10.7.1-16.1l-.2.2H484l-.1-.1c0 5.4 0 10.7.1 16.1-5.3-.1-10.7-.1-16-.1zM468 134.9v31.7h-16.4v-31.5h-32V119H452l-.1-.1V135H468v-.1zM65 63.9c-.1 13.5-.3 26.9-.4 40.4v6.7H48V64l-.1.2h17.2l-.1-.3z"/><path class="st0" d="M452.1 119V87.8H468V119l.1-.1H452l.1.1zM180.5 334.2c1.1-2.3 1.6-3.6 2.3-4.9 14.7-28.9 29.3-57.9 44-86.8 1.2-2.3 2.1-4.1 5.4-4.1 23.3.1 46.6.1 70 .1.9 0 1.9.3 3.5.5-13.3 18.3-26.2 36.2-39.7 54.8h58.4c.2.4.5.8.7 1.2-38.1 37.6-76.2 75.2-114.4 112.8-.2-.2-.5-.3-.7-.5 7-24.2 14-48.5 21.2-73.2-16.9.1-33.3.1-50.7.1zm53.8-24.1c13.6-18.8 26.5-36.7 40.2-55.5-12 0-22.9-.1-33.8.2-1.2 0-2.8 2-3.6 3.5-9.6 18.7-19 37.4-28.5 56.1-.5 1.1-.9 2.3-1.5 3.9h45.5c-3.3 11.7-6.5 22.9-9.8 34.2.2.1.5.2.7.3 13.7-14.3 27.5-28.5 41-42.5-15.8-.2-32.4-.2-50.2-.2zM323 436.9v39.8h-16.4v-39.2h-40.1v-15.9h39.8v-39.5h16.8v39l.2-.1-16.2.9v15.3h16.2l-.3-.3z"/><path class="st0" d="M322.9 421h39.7v15.9h-39.7l.1.1v-16.1l-.1.1zM468.1 461v-15.6H484V461l.1-.1H468l.1.1z"/><path class="st0" d="M468.1 476.9H452V461h16.1l-.1-.1V477l.1-.1z"/></svg>