<svg id="Слой_1" xmlns="http://www.w3.org/2000/svg" viewBox="0 0 500 517"><style>.st0{fill:#e31f25}</style><path class="st0" d="M240 517c-11.2-1.7-22.3-3.3-33.5-5-1.5-.2-2.9-.6-4.4-1-5.2-1.4-8.1-5.8-6.9-10.4 1.1-4.6 5.7-7.2 10.9-6.4 9 1.4 18 3 27.1 4.3 4.6.6 9.3.6 14.8 1V485c.1-7.1 3.1-10.9 8.8-11 5.9-.1 9.1 3.8 9.1 11.2v13.3c17 3.4 72.4-11 92.2-23.9l-7.2-12.3c-3.4-5.9-2.8-10.7 1.7-13.6 4.9-3.1 10-1.3 13.6 4.8 2.3 3.8 4.6 7.7 6.9 11.6.2.3.5.4 1.1.9 27.4-17.1 50.1-39 68.3-66.6-4.8-2.7-9.3-5.1-13.7-7.7-5.5-3.2-7.2-7.9-4.7-12.4s7.8-5.7 13.1-2.9c4.7 2.5 9.3 5.2 13.9 7.7 12.9-18.3 26.8-68.1 25.3-91.1h-15.3c-6.7-.1-10.6-3.2-10.6-8.6 0-5.4 3.8-8.5 10.6-8.6h15.7c-1.6-32.7-9.8-62.8-25.3-91.4-4.7 2.7-9 5.1-13.4 7.5-5.9 3.2-11.3 2.2-13.9-2.5-2.6-4.6-.7-9.3 5.2-12.6 4.2-2.4 8.4-4.7 13.1-7.4-17.9-27.4-40.7-49.3-68.7-66.9-2.7 4.5-5.2 8.7-7.7 12.9-3.5 5.7-8.6 7.5-13.3 4.7-4.6-2.7-5.4-7.7-2-13.5 2.4-4.1 4.9-8.3 7.5-12.8-29.1-14.9-59.5-22.8-92.4-24.5v14.9c-.1 6.7-3.6 10.8-9.2 10.7-5.4-.2-8.6-4.1-8.7-10.6 0-4.5-.1-9-.1-13.5 0-.3-.2-.6-.6-1.9-10.3 1.2-20.8 2.3-31.2 3.6-3.3.4-6.5 1.3-9.8 1.8-5.7 1-10.2-1.7-11.2-6.5-1-4.9 2-9.2 7.7-10.3 8.2-1.6 16.4-2.8 24.6-4.2.8-.1 1.6-.3 2.6-.5v-9.7h-11.4C206.2 43 197.2 36 195.2 25c-1.8-10.5 4.1-19.7 15.7-24.1.4-.2.8-.6 1.1-.9h90c.4.3.7.7 1.1.9 11.7 4.5 17.7 13.9 15.6 24.6-2.1 10.7-11.1 17.6-23.3 17.6h-11.6c0 2.3.2 4 0 5.6-.5 3.5.9 4.9 4.5 5.3 36.4 4.7 70 17.1 100.5 37.3 10.2 6.8 19.8 14.5 30 22 5.6-6 11.5-12.3 17.7-19-3.3-3.3-7.2-7.3-9.8-9.8 11.7-12.7 23.4-25.5 35.1-38.3C475.1 59 487.5 71 500 83v1c-2 1.7-4.1 3.3-6 5.2-10.5 10.1-21 20.3-32.7 31.7-3.7-4.7-7.3-9.1-11-13.9-6.8 7.3-12.6 13.6-18.6 20 .7.8 1.8 2 2.9 3.2 48.6 55.2 68.6 119.1 56.9 191.8-15.5 96.2-95.2 174.8-192 191-9.5 1.6-19.1 2.7-28.6 4H240zm25.8-491.1h11.7c6.2 0 12.4.3 18.5-.2 1.8-.2 3.4-2.7 5.1-4.2-1.7-1.4-3.3-2.9-5.2-4.2-.6-.4-1.6-.1-2.5-.1h-73c-1.2 0-2.6-.4-3.4.2-1.6 1.1-3.9 2.7-3.9 4.1 0 1.4 2.2 3.6 3.9 4.1 2.3.7 4.9.3 7.4.3h23.7v25.7h17.6c.1-8.5.1-16.8.1-25.7zM462.4 71c-4.2 4.5-8 8.6-10.7 11.5 3.5 4.1 7.1 8.3 11 12.8 4.1-4.2 7.8-8.1 11.7-12.2-3.9-3.8-7.7-7.7-12-12.1zM0 307c2.9-4.3 6.9-5.5 11.9-5.5 54.1.1 108.3.1 162.4.1 1.7 0 3.4 0 5 .3 3.8.8 6.2 3.3 6.6 7.2.5 4.1-1.2 7.3-5.1 8.8-2.1.8-4.5 1-6.8 1-54 0-108 0-161.9.1-5.3 0-9.4-1.3-12.2-6 .1-2 .1-4 .1-6z"/><path class="st0" d="M262.3 327.4c-14.1.1-26.2-8.5-30.4-21.5-4.1-12.7.4-26.1 12-34.3 37.5-26.5 75.1-52.9 112.7-79.3 5-3.5 9.7-3.4 13.1 0 3.4 3.4 3.2 7.8-.6 13-26.9 36.2-53.9 72.4-80.8 108.6-6.5 8.7-15.1 13.3-26 13.5zm59.4-87.9c-.2-.2-.4-.4-.6-.7-.7.4-1.4.8-2 1.2-21.4 15-42.8 30.1-64.2 45.1-4.7 3.3-7.5 7.7-6.5 13.6 1 5.8 4.7 9.6 10.3 10.9 5.9 1.4 10.9-.4 14.6-5.3 16.2-21.5 32.2-43.2 48.4-64.8zM110.5 241.1H174c2.1 0 4.4.1 6.4.8 4.1 1.4 6.1 4.5 5.7 8.9-.4 4.1-2.9 6.6-7 7.4-1.6.3-3.3.3-5 .3H47.7c-1.7 0-3.4 0-5-.3-4.3-.8-6.8-3.5-7.1-7.8-.3-4.3 1.8-7.4 6.1-8.6 1.9-.5 3.9-.6 5.9-.6 20.9-.1 41.9-.1 62.9-.1zM119.5 361.9H174c1.5 0 3-.1 4.5.1 4.5.6 7.6 4 7.6 8.4s-3 7.9-7.5 8.5c-1.6.2-3.3.1-5 .1H65.7c-1.3 0-2.7 0-4-.1-5-.4-8.6-4.1-8.5-8.7.1-4.4 3.6-7.9 8.4-8.3 1.5-.1 3-.1 4.5-.1 17.7.1 35.6.1 53.4.1zM132.9 198.1H91c-7.4 0-11.1-2.8-11.1-8.4-.1-5.6 3.7-8.7 10.9-8.7h84.9c6.2 0 9.9 2.8 10.4 7.7.5 5.5-3.3 9.3-9.7 9.4-14.5.1-29 0-43.5 0zM146.5 422.1h29c6.7 0 10.6 3.3 10.6 8.7 0 5.5-3.7 8.6-10.6 8.6-19.5.1-39 .1-58.5 0-6.7 0-10.6-3.4-10.6-8.7 0-5.3 4-8.6 10.6-8.7 9.8.1 19.7.1 29.5.1zM155 138c-7 0-14 .1-20.9 0-6.1-.1-10-3.7-10-8.8.1-5 3.7-8.4 9.7-8.5 14.3-.1 28.6-.1 42.9 0 6 .1 9.5 3.6 9.4 8.7-.1 5-3.8 8.4-9.7 8.6-7.1.1-14.3 0-21.4 0z"/></svg>