<svg id="Слой_1" xmlns="http://www.w3.org/2000/svg" viewBox="0 0 500 500"><style>.st0{fill:#e31f25}</style><path class="st0" d="M0 459V115c.2-.2.6-.4.6-.7 7.7-27.3 24-39.7 52.2-39.7 44.8 0 89.6 0 134.4-.1 3.1 0 6.6-.9 9.4-2.4 37.4-20.4 74.6-41 112-61.5 7-3.8 14.2-7.1 21.3-10.6h11c11.4 3.2 18.3 11 23.7 21.2 8.2 15.6 17.4 30.7 25.6 46.3 3 5.6 6.4 7.6 12.7 7.4 11-.5 22.1-.9 32.9.7 23.5 3.6 39.8 23.8 39.9 47.8.1 34.5 0 69 0 103.4v6.2h24.1v122h-24.1v6.8c0 29.8.1 59.5 0 89.3-.1 23.6-15.2 42.4-38.2 47.8-.9.2-1.8.7-2.7 1h-394c-1.1-.4-2.1-.8-3.2-1.1-17.4-4.4-29.3-15-35.4-31.9-.8-2.5-1.4-5.2-2.2-7.9zm456.1-320.4h-397c-2.2 0-4.4.1-6.5-.3-4.7-.8-7.6-4.5-7.7-9.1-.1-4.7 2.6-8.3 7.3-9.4 1.9-.5 4-.5 5.9-.5 16.3 0 32.7 0 49-.1 2.2 0 4.7-.4 6.7-1.4 13.3-7.2 26.6-14.5 39.8-21.9.6-.3 1.1-.9 2.5-2H51.6c-20.6 0-32.2 11.6-32.2 32.2v322.5c0 20.5 11.8 32.3 32.2 32.3 124.2 0 248.3-.1 372.5.2 17.8 0 32.8-11.9 32.4-32.4-.6-29.1-.2-58.3-.2-87.5v-5.9h-6c-21.3 0-42.7-.4-64 .1-31.5.7-67.1-25.8-59.7-72.3 4.7-29.7 29-49.8 59.1-50 21.7-.2 43.3 0 65 0h5.4v-94.5zM397 118.9c-.8-1.6-1.4-2.7-2-3.9-16.6-29.6-33.2-59.2-49.9-88.8-4.3-7.6-8.8-8.9-16.5-4.6-57.3 31.5-114.6 63-171.8 94.6-1.2.6-2.2 1.5-4 2.7H397zm83.3 133.5c-1.3-.1-2.2-.3-3.2-.3-30.6 0-61.3 0-91.9.1-3.5 0-7 .6-10.3 1.5-20.3 5.5-32.4 24.8-29.5 46.6 2.8 21 19.2 35.6 40.2 35.7 30.3.1 60.6 0 90.9 0 1.3 0 2.5-.2 3.8-.4v-83.2zM405.5 94c4.7 8.3 8.8 15.8 13.1 23.3.5.8 1.7 1.8 2.6 1.8 11.4.1 22.9.1 34.4.1-1.1-13-11.9-24.1-24.8-25-8.1-.6-16.2-.2-25.3-.2z"/><path class="st0" d="M394 273.8c12 .1 21.2 9.4 21.1 21.3-.1 11.8-9.6 21-21.5 20.9-11.8-.1-21.4-9.7-21.3-21.4.2-11.7 9.7-20.9 21.7-20.8z"/></svg>