<svg version="1" xmlns="http://www.w3.org/2000/svg" width="706.667" height="706.667" viewBox="0 0 530.000000 530.000000"><path d="M385.9 88.4c-.2.2-2.6.6-5.4 1-29.2 3.6-57.1 19-76.1 42.1-13.8 16.9-24.5 43-28 68.5-.3 2.5-.8 5.4-1.1 6.5-1.4 6.6-2.2 101.1-1 118.5 3.5 50.2 22 83.5 56.7 102.3 27.7 14.9 74.6 19.6 113.1 11.2 41-9 72.9-37.9 82.5-74.9 3.5-13.6 3.7-31.7.4-44.6-7.8-30.6-29.7-53.3-61.5-63.9-19.9-6.6-43.9-8.8-90.3-8.2l-11.3.1.4 19c.3 10.5.6 19.2.8 19.5.2.2 2.7.4 5.5.6 4.5.2 5.7-.1 9.3-3 9.4-7.5 26.1-8.8 47-3.6 14.3 3.5 22.2 7.6 30.1 15.5 11.7 11.7 16.2 24 15.6 42.5-1.2 35.1-25.8 63.5-58.8 68.1-27.2 3.8-58-9.1-68.1-28.3-4.7-9.1-8.7-23.7-10.3-37.8-.3-2.8-.8-6.1-1-7.5-.9-5.1-1.8-31.2-1.8-50 .1-24.4 1.3-72.2 2-77.5 2.6-19.9 5.3-29.3 11.8-40.9 9.7-17.3 31.1-33 51.1-37.6 2.8-.7 5.9-1.4 7-1.7 1.1-.3 7-.7 13-.9 16.7-.5 32.3 3.4 43.5 11 5.1 3.4 11.8 10.1 13.1 13.1.5 1.1 1.4 2.7 1.9 3.5.6.8 1.7 3.2 2.5 5.3 1.5 3.7 1.6 3.8 5.8 3.2 2.3-.3 5.4-.8 7-1.1l2.7-.6-.2-22.6-.3-22.7-12.5-5.7c-28-12.8-49.2-17.9-76.6-18.4-9.9-.2-18.3-.2-18.5 0z"/><path d="M122.7 91.6c-.1.1-3.8.5-8.2.9-8.8.8-18.8 2.6-28 5-3.3.9-6.7 1.8-7.5 2-4.8 1.1-21.2 7.5-31.5 12.4l-12 5.7v45.2l5.4.7c3 .4 6 .9 6.6 1.2.8.2 2.7-2.6 5-7.2 9.6-19.3 29.7-30.2 57.5-31 13.1-.4 20.2.5 31 4.1 25.2 8.4 44.2 29.3 51.1 56.1 2.6 10.2 3.3 16.6 3.3 29.3 0 14.9-3 21.7-11.4 26-8.6 4.4-16 5.2-54.5 5.5-30.6.3-35.4.6-48.5 3-59.7 11-92.7 61.8-76 117.1 11.9 39.4 49.5 67.8 96.6 73.1 16 1.8 46.8.7 63.4-2.3 1.4-.2 4.1-.7 6-1 15.1-2.5 37.2-13.3 47.7-23.3l2.2-2.1 3.5 4.8c8.5 11.5 20.1 19 33.6 21.7 5.5 1.1 27.1 1.4 32.2.5 4.9-1 13.4-2.2 15.7-2.3.8 0-.8-1.8-3.5-4.1-8.4-6.9-21.9-20.8-26.1-27.1-5.4-8-9.5-16.4-12.6-25.7-2.3-6.7-3.1-10.3-5.2-22.8-.5-2.6-1.3-11-2.1-22-.3-3.6-.7-30.8-.9-60.5-.5-65.9-.7-70.2-5.6-90.3-12.6-52.4-50.1-85.9-102.9-91.8-5.2-.6-23.8-1.2-24.3-.8zm70.4 186.2c.3 8.5.7 15.6 1.3 21.7 1.4 13.1 1.5 45.9.1 53.5-2.5 13.9-7.2 23.6-15.7 32-10 10-21.7 16.2-36.9 19.6-5.9 1.3-22.7 1.3-29.1-.1-16.9-3.5-31.5-13-41.7-27-5.8-7.8-11.3-20.6-12.9-30-.9-5.2-.9-21 .1-25.7 3.1-16.3 14.8-31.3 29.4-37.8 14.9-6.6 29.9-8.6 70.8-9.5 14.3-.3 26-.7 26.2-.8.1-.1 2-.3 4.2-.4l4.1-.2.1 4.7z"/></svg>