<svg id="Capa_1" data-name="Capa 1" xmlns="http://www.w3.org/2000/svg" viewBox="0 0 91.08 104.54"><defs><style>.cls-1{fill:none}</style></defs><title>list</title><path class="cls-1" d="M11.58 37.26h23.31v21.75H11.58z"/><path class="cls-1" d="M2 7.67v94.87h82.52V7.67H2zM38 92.6H8.62v-4.25H38v4.25zM8.46 69.35V65.1h29.33v4.25H8.46zM38 84.85H8.62V80.6H38v4.25zM49.37 18.6h29.34v4.25H49.37V18.6zm0 7.75h29.34v4.25H49.37v-4.25zm0 7.75h29.34v4.25H49.37V34.1zm0 7.75h29.34v4.25H49.37v-4.25zm0 7.75h29.34v4.25H49.37V49.6zm0 7.75h29.34v4.25H49.37v-4.25zm0 7.75h29.34v4.25H49.37V65.1zm0 7.75h29.34v4.25H49.37v-4.25zm0 7.75h29.34v4.25H49.37V80.6zm0 7.75h29.34v4.25H49.37v-4.25zM38 77.1H8.62v-4.25H38v4.25zM37.89 62H8.58V34.26h29.31V62zm-.1-31.4H8.46v-4.25h29.33v4.25zm-29.33-12h29.33v4.25H8.45v-4.21z"/><path class="cls-1" d="M6.56 5.67h79.93v91.2h2.62V2H6.56v3.67z"/><path d="M8.58 62h29.31V34.26H8.58V62zm3-24.75h23.31V59H11.58V37.26zM49.37 18.6H78.7v4.25H49.37zm0 7.75H78.7v4.25H49.37zM8.45 18.64h29.33v4.25H8.45zm.01 7.71h29.33v4.25H8.46zm40.91 7.75H78.7v4.25H49.37zm0 7.75H78.7v4.25H49.37zm0 7.75H78.7v4.25H49.37zm0 7.75H78.7v4.25H49.37zm0 7.75H78.7v4.25H49.37zm-40.91 0h29.33v4.25H8.46zm40.91 7.75H78.7v4.25H49.37zm0 7.75H78.7v4.25H49.37zm0 7.75H78.7v4.25H49.37zM8.62 72.85h29.33v4.25H8.62zm0 7.75h29.33v4.25H8.62zm0 7.75h29.33v4.25H8.62z"/><path d="M4.59 0v5.67H0v98.87h86.49v-5.67h4.59V0H4.59zm79.93 98.87v3.67H2V7.67h82.52v91.2zm4.59-2h-2.62V5.67H6.56V2h82.55v94.87z"/></svg>