<svg xmlns="http://www.w3.org/2000/svg" viewBox="0 0 1484.5 796"><defs><style>.cls-1{fill:#fc1114}</style></defs><g id="Слой_2" data-name="Слой 2"><g id="Layer_2" data-name="Layer 2"><circle cx="735.32" cy="316.02" r="212.96" class="cls-1"/><path d="M735.32.14C560.86.14 419.44 141.56 419.44 316s141.42 315.9 315.88 315.9 315.87-141.43 315.87-315.9S909.77.14 735.32.14zm0 553.6C604 553.74 497.59 447.31 497.59 316S604 78.29 735.32 78.29 973 184.73 973 316 866.61 553.74 735.32 553.74zM322.77 700.47h9v23.99h-9zm23.05 0h9v23.99h-9zm46.11 0h9v41.99h-9zm-115.27 0h9v41.99h-9zm-23.06 0h9v23.99h-9zm-23.05 0h9v23.99h-9zm-23.06 0h9v23.99h-9zm-23.05 0h9v23.99h-9zm-23.06 0h9v41.99h-9zm-23.05 0h9v23.99h-9zm-23.06 0h9v23.99h-9zm-23.05 0h9v23.99h-9zm-23.06 0h9v23.99h-9zm-23.05 0h9v41.99h-9zm-23.06 0h9v23.99h-9zm-23.05 0h9v23.99H0zm299.71 0h9v23.99h-9zm69.17 0h9v23.99h-9zm46.1 0h9v23.99h-9zm46.11 0h9v23.99h-9zm484.15 0h9v23.99h-9zm23.06 0h9v41.99h-9zm46.11 0h9v23.99h-9zm-576.37 0h9v23.99h-9zm461.09 0h9v23.99h-9zm-23.05 0h9v23.99h-9zm-23.06 0h9v41.99h-9zm-23.05 0h9v23.99h-9zm-23.06 0h9v23.99h-9zm-23.05 0h9v23.99h-9zm-23.06 0h9v23.99h-9zm-23.05 0h9v41.99h-9zm-23.05 0h9v23.99h-9zm-23.06 0h9v23.99h-9zm-23.05 0h9v23.99h-9zm-23.06 0h9v23.99h-9zm-23.05 0h9v41.99h-9zm-23.06 0h9v23.99h-9zm-23.05 0h9v23.99h-9zm-23.06 0h9v23.99h-9zm-23.05 0h9v23.99h-9zm-23.06 0h9v41.99h-9zm-23.05 0h9v23.99h-9zm438.04 0h9v23.99h-9zm69.16 0h9v23.99h-9zm46.11 0h9v23.99h-9zm46.11 0h9v41.99h-9zm-23.05 0h9v23.99h-9zm414.98 0h9v23.99h-9zm-23.05 0h9v23.99h-9zm-23.06 0h9v41.99h-9zm-23.05 0h9v23.99h-9zm-23.06 0h9v23.99h-9zm-23.05 0h9v23.99h-9zm-23.06 0h9v23.99h-9zm-23.05 0h9v41.99h-9zm-23.06 0h9v23.99h-9zm-23.05 0h9v23.99h-9zm-23.06 0h9v23.99h-9zm-23.05 0h9v23.99h-9zm-23.06 0h9v41.99h-9zm-23.05 0h9v23.99h-9zm-23.05 0h9v23.99h-9zm-23.06 0h9v23.99h-9zm-23.05 0h9v23.99h-9zM742.19 777.2L731.33 796h21.71l-10.85-18.8zM245.92 0h70.72v463.15h60.9v50.6h-60.9V633H234.3V513.75H.15V456zM234.3 117.37L50.19 463.15H234.3zM1336.36 0h70.72v463.15H1468v50.6h-60.9V633h-82.34V513.75H1090.6V456zm-11.62 117.37l-184.1 345.78h184.11zM497.91 762.22h-13.47v-2.68h13.48zm17.99 9.88h-3.26v-21.49l-6.71 2.55v-3l9.71-3.73h.26zm460.84 0h-3.26v-21.49l-6.71 2.55v-3l9.71-3.73h.26zm235.36 0h-16.81v-2.34l8.4-9.34q1.13-1.25 1.88-2.22a14.15 14.15 0 0 0 1.22-1.79 6.71 6.71 0 0 0 .65-1.55 5.87 5.87 0 0 0 .19-1.51 5.14 5.14 0 0 0-.31-1.79 4.16 4.16 0 0 0-.9-1.45 4.34 4.34 0 0 0-1.43-1 4.74 4.74 0 0 0-1.89-.36 6.07 6.07 0 0 0-2.23.37 4.16 4.16 0 0 0-1.57 1 4.31 4.31 0 0 0-.93 1.65 7.15 7.15 0 0 0-.31 2.17h-3.28a8.3 8.3 0 0 1 .56-3.06 7.32 7.32 0 0 1 1.63-2.51 7.82 7.82 0 0 1 2.61-1.71 9.19 9.19 0 0 1 3.51-.63 9.4 9.4 0 0 1 3.27.54 7.11 7.11 0 0 1 2.46 1.49 6.46 6.46 0 0 1 1.54 2.25 7.37 7.37 0 0 1 .54 2.84 6.87 6.87 0 0 1-.39 2.26 11.54 11.54 0 0 1-1 2.21 18.57 18.57 0 0 1-1.53 2.16q-.87 1.07-1.84 2.12l-6.89 7.47h12.88zm218.73-14.35h2.32a6.51 6.51 0 0 0 2.18-.33 4.71 4.71 0 0 0 1.59-.92 3.83 3.83 0 0 0 1-1.39 4.64 4.64 0 0 0 .33-1.78 4 4 0 0 0-4.49-4.51 5.58 5.58 0 0 0-1.89.31 4.11 4.11 0 0 0-1.46.89 4 4 0 0 0-.94 1.39 4.72 4.72 0 0 0-.33 1.81h-3.28a6.76 6.76 0 0 1 2.18-5 7.67 7.67 0 0 1 2.49-1.52 9 9 0 0 1 3.23-.56 10.12 10.12 0 0 1 3.15.47 6.74 6.74 0 0 1 2.45 1.38 6.17 6.17 0 0 1 1.59 2.27 8.12 8.12 0 0 1 .56 3.13 5.52 5.52 0 0 1-.23 1.53 6 6 0 0 1-.7 1.54 6.65 6.65 0 0 1-1.22 1.41 6.49 6.49 0 0 1-1.79 1.1 6.79 6.79 0 0 1 2.09 1.06 5.58 5.58 0 0 1 1.34 1.46 5.52 5.52 0 0 1 .7 1.71 8.06 8.06 0 0 1 .2 1.78 7.79 7.79 0 0 1-.62 3.19 6.69 6.69 0 0 1-1.71 2.35A7.44 7.44 0 0 1 1437 772a10 10 0 0 1-3.21.5 10.38 10.38 0 0 1-3.18-.47 7.53 7.53 0 0 1-2.58-1.39 6.7 6.7 0 0 1-1.74-2.24 6.79 6.79 0 0 1-.64-3h3.26a4.75 4.75 0 0 0 .34 1.83 3.92 3.92 0 0 0 1 1.41 4.36 4.36 0 0 0 1.54.9 6.09 6.09 0 0 0 2 .32 6.56 6.56 0 0 0 2-.29 3.87 3.87 0 0 0 2.51-2.38 5.83 5.83 0 0 0 .34-2.11 5 5 0 0 0-.4-2.07 4 4 0 0 0-1.11-1.45 4.7 4.7 0 0 0-1.73-.86 8.32 8.32 0 0 0-2.23-.28h-2.32zm-680.22 4.57q0 4.91-2.18 7.53a8.11 8.11 0 0 1-11.94 0q-2.2-2.62-2.2-7.52v-6.08q0-4.9 2.18-7.53a8.09 8.09 0 0 1 11.94 0q2.2 2.63 2.2 7.53zm-3.47-6.82a8.59 8.59 0 0 0-1.21-5 4.05 4.05 0 0 0-3.51-1.68 4 4 0 0 0-3.47 1.68 8.64 8.64 0 0 0-1.2 5v7.5a8.62 8.62 0 0 0 1.22 5 4.44 4.44 0 0 0 7 0 8.77 8.77 0 0 0 1.19-5zm-481.42 6.72h-13.48v-2.68h13.48zm23.14 9.88h-16.8v-2.34l8.4-9.34q1.13-1.25 1.88-2.22a14.15 14.15 0 0 0 1.22-1.79 6.71 6.71 0 0 0 .65-1.55 5.87 5.87 0 0 0 .19-1.51 5.14 5.14 0 0 0-.31-1.79 4.16 4.16 0 0 0-.9-1.45 4.34 4.34 0 0 0-1.43-1 4.74 4.74 0 0 0-1.89-.36 6.07 6.07 0 0 0-2.23.37 4.16 4.16 0 0 0-1.57 1 4.31 4.31 0 0 0-.93 1.65 7.15 7.15 0 0 0-.31 2.17h-3.28a8.3 8.3 0 0 1 .56-3.06 7.32 7.32 0 0 1 1.63-2.51 7.82 7.82 0 0 1 2.61-1.71 9.19 9.19 0 0 1 3.51-.63 9.4 9.4 0 0 1 3.27.54 7.11 7.11 0 0 1 2.46 1.49 6.46 6.46 0 0 1 1.54 2.25 7.37 7.37 0 0 1 .54 2.84 6.87 6.87 0 0 1-.39 2.26 11.54 11.54 0 0 1-1 2.21 18.57 18.57 0 0 1-1.53 2.16q-.87 1.07-1.84 2.12l-6.91 7.54h12.88zm-254.75-9.88H20.64v-2.68h13.47zm11.22-4.51h2.32a6.51 6.51 0 0 0 2.18-.33 4.71 4.71 0 0 0 1.59-.92 3.83 3.83 0 0 0 1-1.39 4.64 4.64 0 0 0 .33-1.78 4 4 0 0 0-4.49-4.51 5.58 5.58 0 0 0-1.89.31 4.11 4.11 0 0 0-1.46.89 4 4 0 0 0-.94 1.39 4.72 4.72 0 0 0-.33 1.81h-3.31a6.76 6.76 0 0 1 2.18-5 7.67 7.67 0 0 1 2.49-1.53 9 9 0 0 1 3.23-.56 10.12 10.12 0 0 1 3.15.47 6.74 6.74 0 0 1 2.45 1.38 6.17 6.17 0 0 1 1.59 2.27 8.12 8.12 0 0 1 .56 3.13 5.52 5.52 0 0 1-.23 1.53 6 6 0 0 1-.7 1.54 6.65 6.65 0 0 1-1.22 1.41 6.49 6.49 0 0 1-1.79 1.1 6.79 6.79 0 0 1 2.09 1.08 5.58 5.58 0 0 1 1.34 1.46 5.52 5.52 0 0 1 .7 1.71 8.06 8.06 0 0 1 .2 1.78 7.79 7.79 0 0 1-.62 3.19 6.69 6.69 0 0 1-1.71 2.35 7.44 7.44 0 0 1-2.58 1.46 10 10 0 0 1-3.21.5 10.38 10.38 0 0 1-3.18-.47 7.53 7.53 0 0 1-2.58-1.39 6.7 6.7 0 0 1-1.74-2.24 6.79 6.79 0 0 1-.64-3h3.26a4.75 4.75 0 0 0 .34 1.83 3.92 3.92 0 0 0 1 1.41 4.36 4.36 0 0 0 1.54.9 6.09 6.09 0 0 0 2 .32 6.56 6.56 0 0 0 2-.29 3.87 3.87 0 0 0 2.51-2.38 5.83 5.83 0 0 0 .34-2.11 5 5 0 0 0-.4-2.07 4 4 0 0 0-1.11-1.45 4.7 4.7 0 0 0-1.73-.86 8.32 8.32 0 0 0-2.23-.28h-2.3z"/></g></g></svg>