<svg xmlns="http://www.w3.org/2000/svg" viewBox="0 0 1383.75 334.31"><defs><style>.cls-1{fill:#fc1114}</style></defs><title>404animate</title><g id="Слой_2" data-name="Слой 2"><g id="_404page" data-name="404page"><ellipse id="_0" data-name="0" class="cls-1" cx="688.96" cy="131.8" rx="88.52" ry="88.82"/><path id="o" d="M689 .06c-72.52 0-131.3 59-131.3 131.73S616.44 263.54 689 263.54s131.3-59 131.3-131.75S761.48.06 689 .06zm0 230.88c-54.59 0-98.82-44.39-98.82-99.15S634.37 32.65 689 32.65s98.8 44.39 98.8 99.14-44.26 99.15-98.8 99.15z"/><path id="tr" d="M691.82 326.47l-4.52 7.84h9.03l-4.51-7.84z"/><path id="_4" data-name="4" d="M485.53 0h29.4v193.16h25.31v21.1h-25.31V264H480.7v-49.74h-97.33v-24.08zm-4.83 49l-76.53 144.16h76.53z"/><path id="_4-2" data-name="4" d="M938.8 0h29.4v193.16h25.32v21.1H968.2V264H934v-49.74h-97.36v-24.08zM934 49l-76.56 144.16H934z"/><path d="M517.47 292.14h3.74v10.01h-3.74zm9.59 0h3.74v10.01h-3.74zm19.16 0h3.74v17.51h-3.74zm-47.91 0h3.74v17.51h-3.74zm-9.59 0h3.74v10.01h-3.74zm-9.58 0h3.74v10.01h-3.74zm-9.58 0h3.74v10.01h-3.74zm-9.59 0h3.74v10.01h-3.74zm-9.58 0h3.74v17.51h-3.74zm-9.58 0h3.74v10.01h-3.74zm-9.59 0h3.74v10.01h-3.74zm-9.58 0h3.74v10.01h-3.74zm-9.59 0h3.74v10.01h-3.74zm-9.58 0h3.74v17.51h-3.74zm105.42 0h3.74v10.01h-3.74zm28.75 0h3.74v10.01h-3.74zm19.16 0h3.74v10.01h-3.74zm19.17 0h3.74v10.01h-3.74zm201.25 0h3.74v10.01h-3.74zm9.59 0h3.74v17.51h-3.74zm19.16 0h3.74v10.01h-3.74zm-239.58 0h3.74v10.01h-3.74zm191.66 0h3.74v10.01h-3.74zm-9.58 0h3.74v10.01h-3.74zm-9.58 0h3.74v17.51h-3.74zm-9.59 0h3.74v10.01h-3.74zm-9.58 0h3.74v10.01h-3.74zm-9.58 0h3.74v10.01h-3.74zm-9.59 0h3.74v10.01h-3.74zm-9.58 0h3.74v17.51h-3.74zm-9.58 0h3.74v10.01h-3.74zm-9.59 0h3.74v10.01h-3.74zm-9.58 0h3.74v10.01h-3.74zm-9.58 0h3.74v10.01h-3.74zm-9.58 0h3.74v17.51h-3.74zm-9.59 0h3.74v10.01h-3.74zm-9.58 0h3.74v10.01h-3.74zm-9.59 0h3.74v10.01h-3.74zm-9.58 0h3.74v10.01h-3.74zm-9.58 0h3.74v17.51h-3.74zm-9.58 0h3.74v10.01h-3.74zm182.08 0h3.74v10.01h-3.74zm28.75 0h3.74v10.01h-3.74zm19.16 0h3.74v10.01h-3.74zm19.17 0h3.74v17.51h-3.74zm-9.58 0h3.74v10.01h-3.74zm153.33 0h3.74v17.51h-3.74zm-9.58 0h3.74v10.01h-3.74zm-9.59 0h3.74v10.01h-3.74zm-9.58 0h3.74v10.01h-3.74zm-9.58 0h3.74v10.01h-3.74zm-9.59 0h3.74v17.51h-3.74zm-9.58 0h3.74v10.01h-3.74zm-9.58 0h3.74v10.01h-3.74zm-9.59 0h3.74v10.01h-3.74zm-9.58 0h3.74v10.01h-3.74zm-9.59 0h3.74v17.51h-3.74zm-9.58 0h3.74v10.01h-3.74zm-9.58 0h3.74v10.01h-3.74zm-9.58 0h3.74v10.01h-3.74zm-9.58 0h3.74v10.01h-3.74z"/><path d="M517.47 292.14h3.74v10.01h-3.74zm9.59 0h3.74v10.01h-3.74zm19.16 0h3.74v17.51h-3.74zm-47.91 0h3.74v17.51h-3.74zm-9.59 0h3.74v10.01h-3.74zm-9.58 0h3.74v10.01h-3.74zm-9.58 0h3.74v10.01h-3.74zm-9.59 0h3.74v10.01h-3.74zm-9.58 0h3.74v17.51h-3.74zm-9.58 0h3.74v10.01h-3.74zm-9.59 0h3.74v10.01h-3.74zm-9.58 0h3.74v10.01h-3.74zm-9.59 0h3.74v10.01h-3.74zm-9.58 0h3.74v17.51h-3.74zm-9.58 0h3.74v10.01h-3.74zm-9.58 0h3.74v10.01h-3.74zm-9.58 0h3.74v10.01h-3.74zm-9.58 0h3.74v10.01h-3.74zm-9.59 0h3.74v17.51h-3.74zm-9.58 0h3.74v10.01h-3.74zm-9.59 0h3.74v10.01h-3.74zm-9.58 0h3.74v10.01h-3.74zm-9.58 0h3.74v10.01h-3.74zm-9.58 0h3.74v17.51h-3.74z"/><path d="M383.31 292.14h3.74v10.01h-3.74zm-9.58 0h3.74v10.01h-3.74zm-9.58 0h3.74v10.01h-3.74zm-9.59 0h3.74v17.51h-3.74zm-9.58 0h3.74v10.01h-3.74zm-9.59 0h3.74v10.01h-3.74zm-9.58 0h3.74v10.01h-3.74zm-9.58 0h3.74v10.01h-3.74zm-9.58 0h3.74v17.51h-3.74zm201.24 0h3.74v10.01h-3.74zm28.75 0h3.74v10.01h-3.74zm19.16 0h3.74v10.01h-3.74zm19.17 0h3.74v10.01h-3.74zm201.25 0h3.74v10.01h-3.74zm9.59 0h3.74v17.51h-3.74zm19.16 0h3.74v10.01h-3.74zm-239.58 0h3.74v10.01h-3.74zm191.66 0h3.74v10.01h-3.74zm-9.58 0h3.74v10.01h-3.74zm-9.58 0h3.74v17.51h-3.74zm-9.59 0h3.74v10.01h-3.74zm-9.58 0h3.74v10.01h-3.74zm-9.58 0h3.74v10.01h-3.74zm-9.59 0h3.74v10.01h-3.74zm-9.58 0h3.74v17.51h-3.74zm-9.58 0h3.74v10.01h-3.74zm-9.59 0h3.74v10.01h-3.74zm-9.58 0h3.74v10.01h-3.74zm-9.58 0h3.74v10.01h-3.74zm-9.58 0h3.74v17.51h-3.74zm-9.59 0h3.74v10.01h-3.74zm-9.58 0h3.74v10.01h-3.74zm-9.59 0h3.74v10.01h-3.74zm-9.58 0h3.74v10.01h-3.74zm-9.58 0h3.74v17.51h-3.74zm-9.58 0h3.74v10.01h-3.74zm-450.4 0h3.74v10.01h-3.74zm9.58 0h3.74v10.01h-3.74zm19.17 0h3.74v17.51h-3.74zm-47.92 0h3.74v17.51h-3.74zm-9.58 0h3.74v10.01h-3.74zm-9.58 0h3.74v10.01h-3.74zm-9.59 0h3.74v10.01h-3.74zm-9.58 0h3.74v10.01h-3.74zm-9.58 0h3.74v17.51h-3.74zm-9.59 0h3.74v10.01h-3.74zm-9.58 0h3.74v10.01h-3.74zm-9.58 0h3.74v10.01h-3.74zm-9.59 0h3.74v10.01h-3.74zm-9.58 0h3.74v17.51h-3.74zm105.42 0h3.74v10.01h-3.74zm28.75 0h3.74v10.01h-3.74zm19.16 0h3.74v10.01h-3.74zm19.17 0h3.74v10.01h-3.74zm-9.58 0h3.74v10.01h-3.74zm115 0h3.74v10.01h-3.74zm-9.59 0h3.74v10.01h-3.74zm-9.58 0h3.74v10.01h-3.74zm-9.58 0h3.74v10.01h-3.74zm-9.59 0h3.74v17.51h-3.74zm-9.58 0h3.74v10.01h-3.74zm-9.58 0h3.74v10.01h-3.74zm-9.59 0h3.74v10.01h-3.74zm-9.58 0h3.74v10.01h-3.74zm-9.59 0h3.74v17.51h-3.74zm-9.58 0h3.74v10.01h-3.74z"/><path d="M134.16 292.14h3.74v10.01h-3.74zm9.58 0h3.74v10.01h-3.74zm19.17 0h3.74v17.51h-3.74zm-47.92 0h3.74v17.51h-3.74zm-9.58 0h3.74v10.01h-3.74zm-9.58 0h3.74v10.01h-3.74zm-9.59 0h3.74v10.01h-3.74zm-9.58 0h3.74v10.01h-3.74zm-9.58 0h3.74v17.51h-3.74zm-9.59 0h3.74v10.01h-3.74zm-9.58 0h3.74v10.01h-3.74zm-9.58 0h3.74v10.01h-3.74zm-9.59 0h3.74v10.01h-3.74zm-9.58 0h3.74v17.51h-3.74zm-9.58 0h3.74v10.01H9.58zm-9.58 0h3.74v10.01H0z"/><path d="M0 292.14h3.74v10.01H0zm124.58 0h3.74v10.01h-3.74zm28.75 0h3.74v10.01h-3.74zm19.16 0h3.74v10.01h-3.74zm19.17 0h3.74v10.01h-3.74zm-9.58 0h3.74v10.01h-3.74zm115 0h3.74v10.01h-3.74zm-9.59 0h3.74v10.01h-3.74zm-9.58 0h3.74v10.01h-3.74zm-9.58 0h3.74v10.01h-3.74zm-9.59 0h3.74v17.51h-3.74zm-9.58 0h3.74v10.01h-3.74zm-9.58 0h3.74v10.01h-3.74zm-9.59 0h3.74v10.01h-3.74zm-9.58 0h3.74v10.01h-3.74zm-9.59 0h3.74v17.51h-3.74zm-9.58 0h3.74v10.01h-3.74zm565.4 0h3.74v10.01h-3.74zm28.75 0h3.74v10.01h-3.74zm19.16 0h3.74v10.01h-3.74zm19.17 0h3.74v17.51h-3.74zm-9.58 0h3.74v10.01h-3.74zm153.33 0h3.74v17.51h-3.74zm-9.58 0h3.74v10.01h-3.74zm-9.59 0h3.74v10.01h-3.74zm-9.58 0h3.74v10.01h-3.74zm-9.58 0h3.74v10.01h-3.74zm-9.59 0h3.74v17.51h-3.74zm-9.58 0h3.74v10.01h-3.74zm-9.58 0h3.74v10.01h-3.74zm-9.59 0h3.74v10.01h-3.74zm-9.58 0h3.74v10.01h-3.74zm-9.59 0h3.74v17.51h-3.74zm-9.58 0h3.74v10.01h-3.74zm-9.58 0h3.74v10.01h-3.74zm-9.58 0h3.74v10.01h-3.74zm-9.58 0h3.74v10.01h-3.74zm316.28 0h3.74v10.01h-3.74zm9.59 0h3.74v17.51h-3.74zm19.17 0h3.74v10.01h-3.74zm-47.92 0h3.74v10.01h-3.74zm-9.58 0h3.74v10.01h-3.74zm-9.59 0h3.74v17.51h-3.74zm-9.58 0h3.74v10.01h-3.74zm-9.59 0h3.74v10.01h-3.74zm-9.58 0h3.74v10.01h-3.74zm-9.58 0h3.74v10.01h-3.74zm-9.58 0h3.74v17.51h-3.74zm-9.59 0h3.74v10.01h-3.74zm-9.58 0h3.74v10.01h-3.74zm-9.58 0h3.74v10.01h-3.74zm-9.59 0h3.74v10.01h-3.74zm-9.58 0h3.74v17.51h-3.74zm-9.58 0h3.74v10.01h-3.74zm-9.59 0h3.74v10.01h-3.74zm-9.58 0h3.74v10.01h-3.74zm-9.58 0h3.74v10.01h-3.74zm162.91 0h3.74v10.01h-3.74zm28.75 0h3.74v10.01h-3.74zm19.17 0h3.74v10.01h-3.74zm19.16 0h3.74v17.51h-3.74zm-9.58 0h3.74v10.01h-3.74zm153.33 0h3.74v17.51h-3.74zm-9.58 0h3.74v10.01h-3.74zm-9.58 0h3.74v10.01h-3.74zm-9.58 0h3.74v10.01h-3.74zm-9.59 0h3.74v10.01h-3.74zm-9.58 0h3.74v17.51h-3.74zm-9.59 0h3.74v10.01h-3.74zm-9.58 0h3.74v10.01h-3.74zm-9.58 0h3.74v10.01h-3.74zm-9.58 0h3.74v10.01h-3.74zm-9.59 0h3.74v17.51h-3.74zm-9.58 0h3.74v10.01h-3.74zm-9.58 0h3.74v10.01h-3.74zm-9.59 0h3.74v10.01h-3.74zm-9.58 0h3.74v10.01h-3.74z"/><path d="M1159.59 292.14h3.74v10.01h-3.74zm9.59 0h3.74v17.51h-3.74zm19.17 0h3.74v10.01h-3.74zm-47.92 0h3.74v10.01h-3.74zm-9.58 0h3.74v10.01h-3.74zm-9.59 0h3.74v17.51h-3.74zm-9.58 0h3.74v10.01h-3.74zm-9.59 0h3.74v10.01h-3.74zm-9.58 0h3.74v10.01h-3.74zm-9.58 0h3.74v10.01h-3.74zm-9.58 0h3.74v17.51h-3.74zm-9.59 0h3.74v10.01h-3.74zm-9.58 0h3.74v10.01h-3.74zm-9.58 0h3.74v10.01h-3.74zm-9.59 0h3.74v10.01h-3.74zm-9.58 0h3.74v17.51h-3.74zm-9.58 0h3.74v10.01h-3.74zm-9.59 0h3.74v10.01h-3.74zm-9.58 0h3.74v10.01h-3.74zm-9.58 0h3.74v10.01h-3.74zm162.91 0h3.74v10.01h-3.74zm28.75 0h3.74v10.01h-3.74zm19.17 0h3.74v10.01h-3.74zm19.16 0h3.74v17.51h-3.74zm-9.58 0h3.74v10.01h-3.74zm153.33 0h3.74v17.51h-3.74zm-9.58 0h3.74v10.01h-3.74zm-9.58 0h3.74v10.01h-3.74zm38.33 0h3.74v10.01h-3.74zm-9.58 0h3.74v10.01h-3.74zm-38.33 0h3.74v10.01h-3.74zm-9.59 0h3.74v10.01h-3.74zm-9.58 0h3.74v17.51h-3.74zm-9.59 0h3.74v10.01h-3.74zm-9.58 0h3.74v10.01h-3.74zm-9.58 0h3.74v10.01h-3.74zm-9.58 0h3.74v10.01h-3.74zm-9.59 0h3.74v17.51h-3.74zm-9.58 0h3.74v10.01h-3.74zm-9.58 0h3.74v10.01h-3.74zm-9.59 0h3.74v10.01h-3.74zm-9.58 0h3.74v10.01h-3.74zm-531.45 24.97a7.85 7.85 0 0 1-.8 4 3 3 0 0 1-4.93 0 10.55 10.55 0 0 1 0-8 2.69 2.69 0 0 1 2.46-1.27 2.67 2.67 0 0 1 2.47 1.32 7.93 7.93 0 0 1 .8 3.95zm-1.75 3.1a5 5 0 0 0 .28-1.28 20.27 20.27 0 0 0 0-3.64 4.89 4.89 0 0 0-.29-1.29 1.77 1.77 0 0 0-.56-.79 1.51 1.51 0 0 0-.93-.27 1.53 1.53 0 0 0-.93.27 1.79 1.79 0 0 0-.58.8 4.86 4.86 0 0 0-.28 1.31q-.07.79-.08 1.79t.06 1.78a4.79 4.79 0 0 0 .28 1.29 1.79 1.79 0 0 0 .56.81 1.75 1.75 0 0 0 1.89 0 1.74 1.74 0 0 0 .58-.78zm-101.13-1.68h-4.54v-1.11h4.54zm5.11-6.14v9.81h-1.16v-8.45l-2.25.91v-1.15l2.89-1.12zm191.39 0v9.81h-1.16v-8.45l-2.25.91v-1.15l2.89-1.12zM887 322.2h-7.35v-.84l2.84-2.48c2.38-2.09 3.08-2.69 3.08-3.7s-.85-1.83-2.21-1.83a2.34 2.34 0 0 0-2.45 2.06h-1.18a3.52 3.52 0 0 1 3.68-3.17c2 0 3.32 1.26 3.32 2.9 0 1.46-1 2.35-3.29 4.31l-1.88 1.63H887zm95.91-2.75c0 1.79-1.44 2.9-3.5 2.9s-3.54-1-3.84-3h1.18a2.4 2.4 0 0 0 2.65 1.85c1.46 0 2.34-.73 2.34-1.88 0-1-.59-1.72-2.18-1.72h-1.36v-1h1c1.48 0 2.2-.56 2.2-1.51s-.88-1.76-2.17-1.76a2.12 2.12 0 0 0-2.34 1.72h-1.18a3.27 3.27 0 0 1 3.54-2.83c1.88 0 3.32 1.11 3.32 2.73a2.1 2.1 0 0 1-1.41 2.06 2.41 2.41 0 0 1 1.75 2.44zm96.01.39h-1.44v2.35h-1.16v-2.35h-5.25v-1.09l4.68-6.36h1.74v6.36h1.44zm-2.61-1.09v-5.27h-.11l-3.85 5.25zm98.45.2a3.39 3.39 0 0 1-3.57 3.4 3.59 3.59 0 0 1-3.81-3.05h1.18a2.51 2.51 0 0 0 2.63 1.95 2.28 2.28 0 0 0 2.39-2.3 2.21 2.21 0 0 0-2.38-2.24 2.53 2.53 0 0 0-2.33 1.27h-1.12l1.19-5.59h5.35v1.11h-4.47l-.64 3.05a3.37 3.37 0 0 1 5.58 2.4zm95.7-.09a3.67 3.67 0 0 1-7.33 0c0-1.71 1-3.05 3.57-6.43h1.36l-2.79 3.73a3.57 3.57 0 0 1 1.83-.52 3.18 3.18 0 0 1 3.36 3.22zm-1.16 0a2.5 2.5 0 1 0-2.51 2.38 2.36 2.36 0 0 0 2.51-2.38zm96.57-6.47v.88l-4.4 8.92h-1.32l4.34-8.68h-5.31v-1.12zm-871.41 6.14h-4.54v-1.11h4.54zm9.18 3.67h-7.35v-.84l2.84-2.48c2.38-2.09 3.08-2.69 3.08-3.7s-.85-1.83-2.21-1.83a2.34 2.34 0 0 0-2.45 2.06h-1.18a3.52 3.52 0 0 1 3.68-3.17c2 0 3.32 1.26 3.32 2.9 0 1.46-1 2.35-3.29 4.31l-1.88 1.63h5.44zm-104.5-3.67h-4.54v-1.11h4.54zm9.18.92c0 1.79-1.44 2.9-3.5 2.9s-3.54-1-3.84-3h1.18a2.4 2.4 0 0 0 2.65 1.85c1.46 0 2.34-.73 2.34-1.88 0-1-.59-1.72-2.18-1.72h-1.37v-1h1c1.48 0 2.2-.56 2.2-1.51s-.88-1.76-2.17-1.76a2.12 2.12 0 0 0-2.34 1.72h-1.18a3.27 3.27 0 0 1 3.54-2.83c1.88 0 3.32 1.11 3.32 2.73a2.1 2.1 0 0 1-1.41 2.06 2.41 2.41 0 0 1 1.76 2.44zm-106.58-.92h-4.54v-1.11h4.54zm9.55 1.31h-1.44v2.35h-1.16v-2.35h-5.25v-1.09l4.68-6.36h1.74v6.36h1.44zm-2.61-1.09v-5.27h-.11l-3.85 5.25zm-101.92-.22h-4.54v-1.11h4.54zm9.24.42a3.39 3.39 0 0 1-3.57 3.4 3.59 3.59 0 0 1-3.81-3.05h1.18a2.51 2.51 0 0 0 2.63 1.95 2.28 2.28 0 0 0 2.39-2.3 2.21 2.21 0 0 0-2.38-2.24 2.53 2.53 0 0 0-2.33 1.27H209l1.19-5.59h5.35v1.11H211l-.64 3.05a3.37 3.37 0 0 1 5.58 2.4zm-104.8-.42h-4.54v-1.11h4.54zm9.15.33a3.67 3.67 0 0 1-7.33 0c0-1.71 1-3.05 3.57-6.43H118l-2.79 3.73a3.57 3.57 0 0 1 1.83-.52 3.18 3.18 0 0 1 3.31 3.22zm-1.16 0a2.5 2.5 0 1 0-2.51 2.38 2.36 2.36 0 0 0 2.51-2.38zm-103.26-.33h-4.54v-1.11h4.54zm8.37-6.14v.88l-4.4 8.92h-1.32l4.34-8.68h-5.3v-1.12z"/></g></g></svg>