<svg xmlns="http://www.w3.org/2000/svg" viewBox="0 0 528.79 354.54"><defs><style>.ALetter{fill:#005285}.GLetter{fill:#b10d15}</style></defs><title>123</title><g id="Слой_2" data-name="Слой 2"><g id="adver_logo"><path id="g" class="ALetter" d="M364.09 197.5l-.7-38c13.5-.5 27-1 40.5-.7 12.3.4 24.6 1.3 37.5 3 39.7 5.4 65.5 25.7 78.2 51.1a87.46 87.46 0 0 1 9.1 43.2 94.36 94.36 0 0 1-12.8 43.3c-16.1 28.1-47.4 50.4-93.3 54.2a224.84 224.84 0 0 1-30.7.7c-34.3-1.5-62.3-11.4-82.3-29.8-20.2-18.6-32.4-45.7-35.4-81.6-2.7-31.2-.6-68.2-.6-100.1 0-32.3 6.6-59.1 17.9-80.4 11.1-20.8 26.9-36.6 45.7-46.8C355.89 5.1 377.59 0 400.79 0c32.8 0 63.6 10 92.3 25.3v44.5c-4.6.8-9.2 1.5-13.7 2.2-6-18.9-19-29-37.9-34.2a86.63 86.63 0 0 0-37.9-1.5 85.24 85.24 0 0 0-37 15.7c-35.7 26.8-33.2 63.7-34.2 103-1.5 50.4-3.5 126.2 21.1 145.6 13.7 12.3 36.4 19.3 54.6 17.7 22.4-1.7 39.5-12.8 50.4-27.9a76.21 76.21 0 0 0 13.1-32.3 63.67 63.67 0 0 0-3-33.2c-5.2-13.7-15.7-24.9-31.8-30.7-9.7-3.2-24.4-6.8-37.6-6.1-9.7.4-17 2.9-23.6 10.1-3.8-.2-7.7-.4-11.5-.7z"/><path id="a" class="GLetter" d="M192.49 185.1l-21 1h-.1c-5.3.1-10.9.3-16.5.3-21.4.3-42.8.6-62.8 7.4a51 51 0 0 0-31.9 30.6 64.38 64.38 0 0 0-3.1 33.1 76.61 76.61 0 0 0 13.1 32.4 67.85 67.85 0 0 0 50.4 28 80 80 0 0 0 29.2-3.4 70.56 70.56 0 0 0 24.7-13.7l.1-.2c23.9-19 21.8-49.9 19.5-84.8-.7-10-1.5-20.3-1.6-30.7m-105-23.7c14.1-1.9 28.1-1.9 42.3-1.7 13.4 0 26.8.1 40-1.6a43.56 43.56 0 0 0 11.8-3 24 24 0 0 0 7.8-5.1 21.75 21.75 0 0 0 4.2-8.3 50.67 50.67 0 0 0 1.6-13.4c0-35.8-13.4-59.7-32.1-73.9a80.5 80.5 0 0 0-36.6-15.4 88.66 88.66 0 0 0-38 2c-19.6 5.4-33.6 16-39.9 35.7-4.5-.7-9.1-1.4-13.7-2.1V30c29.6-15.9 61.7-26.3 95.5-26.3 22.5 0 43.8 4.9 62.1 14.9a110.22 110.22 0 0 1 44.6 45.4c11 20.8 17.3 47 17.3 78.8v70.9c.2 5.1.4 10.2.5 15.2 1.5 43.7 2.6 80.6 44.9 114.3l6.1 5-7.7 1.3c-23 4.1-40 2.6-52.8-3-11.3-4.9-19.3-13-24.9-23a95.2 95.2 0 0 1-20.9 15.3 107.73 107.73 0 0 1-30.7 10.7 247.56 247.56 0 0 1-31 3.8 211 211 0 0 1-31.8-.2c-45.8-3.9-77.2-26-93.3-54.2a96.68 96.68 0 0 1-12.7-43.2 88.57 88.57 0 0 1 9.1-43.2c12.6-25.5 38.6-45.7 78.3-51.1z"/></g></g></svg>