<svg xmlns="http://www.w3.org/2000/svg" id="Layer_1" viewBox="0 0 210 70"><style id="style3">.st0{fill-rule:evenodd;clip-rule:evenodd}.st1{stroke:#000;stroke-width:.3988;stroke-miterlimit:10}</style><g id="g5" transform="matrix(1.01437 0 0 1.01437 -53.153 -36.81)"><path class="st0" d="M183.8 66.7v21.1c0 1.8.1 1.9 1.9 1.9.1 0 .3 0 .4.1h-6.5v-.2h1.1c.8 0 1.1-.3 1.2-1.2v-.7-18.3-.7c-.1-1-.5-1.6-1.5-1.7-1.1-.1-2.3-.1-3.4 0-1.1.2-1.8 1-2.1 2-.7 2.1-.6 4.3-.6 6.5h4.1v.2c-.1 0-.3.1-.4.1h-3.7v12c0 1.4.2 1.7 1.7 1.7h.6v.1h-6.4v-.1h.9c1.2 0 1.4-.3 1.4-1.4V75.9c-.8-.2-1.6.1-2.4-.2v-.2h2.3c.1-1.1.1-2.1.3-3.1.2-.9.4-1.8.8-2.7.9-2.1 2.7-3.2 5-3.2h4.4c.2 0 .4-.1.6-.1.2.3.2.3.3.3z" id="path7" fill-rule="evenodd"/><path class="st0" d="M152.2 66.7v21.7c0 1 .3 1.3 1.3 1.3h1v.2H148v-.1h.7c1.4 0 1.7-.3 1.7-1.7V69.5c0-1.1-.2-1.4-1.3-1.5h-1v-.2c.6-.1 1.2-.1 1.8-.3.8-.2 1.6-.6 2.4-.9l-.1.1z" id="path9" fill-rule="evenodd"/><path class="st0" d="M89.7 89.9h-6.2v-.1h1c1 0 1.4-.4 1.4-1.4V78c0-.8-.3-1.1-1.1-1.2-.4 0-.8 0-1.2-.1 1.4-.4 2.8-.7 4.2-1.1v1.3c3.2-2.3 6.6-1.7 7.8.2.9-.4 1.7-.9 2.6-1.3 1.1-.5 2.3-.5 3.5-.3 1.7.3 2.7 1.5 2.9 3.3.1.6.1 1.3.1 1.9v7.7c0 .9.3 1.2 1.2 1.2h1.1v.2h-6.2v-.1c.3 0 .5 0 .8-.1.9 0 1.2-.4 1.2-1.3v-2.7-5.9c0-.6-.1-1.2-.2-1.8-.3-1.2-1.4-2-2.7-2.1-1.4-.1-2.9.4-4.2 1.4.7 1.5.4 3.2.5 4.8v6.6c.1.6.3.9 1 .9.3 0 .6 0 1 .2h-5.8v-.1c.3 0 .6 0 .9-.1.7-.1 1-.4 1-1v-9.7c0-.8-.2-1.6-.8-2.2-1-1.1-2.3-.9-3.6-.7-.1 0-.2.1-.3.1-1.7.6-1.8.7-1.8 2.4V88c0 1.2.2 1.5 1.4 1.5h.6c-.1.3-.1.3-.1.4z" id="path11" fill-rule="evenodd"/><path class="st0" d="M65.7 89.9h-8.1v-.1c.1 0 .2-.1.4-.1h1.3c.8-.1 1.2-.4 1.2-1.2v-.9-17.2c0-1.2-.2-1.5-1.4-1.5-1.3-.1-2.7-.1-4 .4-1.5.5-2.4 1.1-2.5 3.3 0 .2-.1.4-.1.7h-.1c.1-1.5.2-2.9.3-4.5h18l.3 4.5h-.2c-.1-.5-.2-.9-.2-1.4 0-1.2-.8-1.9-1.7-2.3-1.7-.7-3.5-.8-5.2-.6-.6.1-.8.4-.8 1v17.7c0 1.8.2 2.1 2.1 2.1h.8c-.1 0-.1 0-.1.1z" id="path13" fill-rule="evenodd"/><path class="st0" d="M210 88c.5-1.4 1-2.8 1.5-4.1.5-1.2.9-2.5 1.4-3.7.1-.2.1-.5 0-.7-.3-.8-.6-1.6-.9-2.3-.3-.9-.9-1.4-1.8-1.3h-.2s-.1 0-.1-.1h5.4v.1c-.2 0-.4 0-.6.1-.9 0-1.1.4-.8 1.2.9 2.5 1.8 5 2.7 7.4.4 1.1.8 2.2 1.3 3.5.6-1.8 1.2-3.5 1.8-5.2.5-1.7 1-3.3 1.6-5v-.1c.3-1.5.1-1.7-1.4-1.8-.1 0-.2 0-.3-.1h4.7c-.2.1-.2.1-.3.1-.7-.1-1.1.3-1.4.8-.7 1.4-1.4 2.7-2 4.1-1.1 2.9-2.1 5.9-3.2 8.8 0 .1 0 .2-.1.3l-.3.3-.3-.3c-.4-1-.8-2-1.1-3-.8-2.2-1.7-4.4-2.6-6.7-.1.3-.2.4-.2.5-1.1 3-2.3 6-3.4 9-.1.2-.2.3-.3.4-.1-.1-.2-.3-.3-.4-1.7-4.1-3.4-8.3-5.1-12.4-.4-.9-.9-1.5-2-1.5 0 0-.1 0-.2-.1h5.4v.1c-.1 0-.3.1-.4.1-1 .1-1.3.6-.9 1.5.5 1.2.9 2.4 1.4 3.6 1.1 2.2 2 4.5 3 6.9z" id="path15" fill-rule="evenodd"/><path class="st0" d="M187.4 82.8c0-1.6.3-3.2 1.2-4.5 1.2-1.9 3-2.7 5.1-2.8 1.1 0 2.2.1 3.2.4 1.8.5 3 1.7 3.6 3.4 1 2.6 1 5.2-.4 7.7-1.4 2.6-4.2 3.5-6.8 3.2-3.5-.5-5.9-3.4-5.9-7.4zm2.2 0c.1.7.1 1.5.2 2.2.2 1.3.5 2.6 1.5 3.7 2.1 2.3 5.8 1.7 7-1.3 1.2-2.9 1.1-5.8.2-8.8-.4-1.1-1-2-2.1-2.6-1.8-.9-4.8-.7-6 2.5-.7 1.4-.8 2.9-.8 4.3z" id="path17" fill-rule="evenodd"/><path class="st0" d="M82.9 88.1c0 1.3-.8 2.1-1.9 2.2-1.4 0-2.1-.8-2.3-3.1-.1.1-.3.2-.4.3-1.1 1.1-2.2 2-3.6 2.5-.9.3-1.8.3-2.7.1-1.8-.4-2.7-2.4-1.9-4.2.4-1 1.2-1.7 2.2-2.2 1.7-1 3.6-1.5 5.6-1.9.9-.2.9-.2.9-1.1 0-.7 0-1.3-.1-2-.3-2.2-1.4-3.2-3.7-3.1-.5 0-1.1.2-1.6.4-.7.3-.9.9-.7 1.7.1.2.1.5.1.7 0 .6-.4.9-1 1-.6 0-1-.3-1.1-.9-.1-.8.2-1.4.8-1.9.8-.7 1.8-1 2.8-1.2 1.2-.1 2.4-.1 3.6.4 1.8.7 2.7 2 2.7 4v8c0 .4 0 .7.1 1.1.1.4.3.7.8.8.5.1.8-.2 1-.6.1-.3.2-.6.4-1zm-4.2-6.2c-1.6.3-3.2.7-4.6 1.5-1.2.7-1.9 1.6-2.2 3-.4 2.1 1 3.6 3 3.1 1.5-.4 2.6-1.4 3.6-2.4.1-.1.1-.2.1-.3.1-1.8.1-3.3.1-4.9z" id="path19" fill-rule="evenodd"/><path class="st0" d="M147.5 88.1c0 1.2-.7 2-1.7 2.1-1.4.2-2-.5-2.5-3-.7.6-1.4 1.3-2.2 1.9-1.2.8-2.5 1.3-4 1.1-2.9-.3-3.2-3.2-2.1-4.9.8-1.1 1.9-1.8 3.1-2.3 1.6-.5 3.2-.9 4.8-1.3.2 0 .4-.2.4-.3 0-1.1 0-2.2-.2-3.3-.3-1.9-1.5-2.7-3.6-2.6-.5 0-1.1.2-1.6.4-.7.3-.9.9-.7 1.7.1.3.1.5.1.8 0 .5-.4.9-1 .9s-1-.3-1.1-.8c-.2-.8.2-1.4.8-1.9.8-.7 1.8-1 2.8-1.2 1.2-.1 2.5-.1 3.6.4 1.7.7 2.7 2 2.7 4v8c0 .4 0 .7.1 1.1.1.4.3.7.8.8.5.1.8-.2 1-.6.2-.3.3-.6.5-1zm-4.2-6.3c-1.7.3-3.2.7-4.6 1.5-1.5.9-2.2 2.1-2.1 3.9.1 1.6 1.3 2.5 2.8 2.2 1.6-.3 2.8-1.4 3.8-2.5.1-.1.1-.2.1-.3v-4.8z" id="path21" fill-rule="evenodd"/><path class="st0" d="M236.8 81.5H227c.1 1.2.2 2.4.4 3.5.1.7.3 1.3.6 2 .9 2.2 2.9 3.2 5.2 2.5 1.3-.4 2.3-1.2 3-2.2.1-.1.2-.3.3-.4l.1.1c-.3.4-.6.9-1 1.3-1.6 1.8-3.7 2.3-6 1.8-2.3-.6-3.8-2.1-4.4-4.3-.7-2.6-.6-5.2.8-7.6 1.8-3 6.2-3.5 8.5-1.6 1.2 1 1.8 2.3 2 3.7.2.3.2.7.3 1.2zm-2.1-.2c0-1.4-.2-2.7-.8-3.9-1-2-3.4-2.5-5-1.1-.6.5-1 1.3-1.3 2-.4.9-.6 2-.6 3h7.7z" id="path23" fill-rule="evenodd"/><path class="st0" d="M258.3 76.5c0-.3 0-.5.1-.7h.1v3.5c-.1-.9-.6-1.7-1.2-2.4-.9-1.1-2.2-1.6-3.6-1.3-.9.2-1.5.8-1.7 1.7-.2 1 0 2 .9 2.6.6.5 1.3.8 2 1.2 1 .6 2.2 1.2 3.1 2 1.4 1.1 1.7 2.6 1.2 4.3-.5 1.6-1.8 2.4-3.4 2.6-1.8.3-3.4-.2-5.1-.8-.2-.1-.4-.1-.6-.2 0 .3 0 .6-.1.8h-.2v-3.7l.3.6c.8 1.9 2.9 3.3 4.9 3.2 1.2-.1 2-.6 2.5-1.7.5-1 .4-2-.3-2.9-.4-.5-1-.9-1.6-1.3-1.1-.7-2.3-1.3-3.5-2-.9-.6-1.6-1.3-1.8-2.4-.4-2.1.8-3.8 2.8-4.2 1.7-.3 3.2 0 4.7.8.1.2.3.2.5.3z" id="path25" fill-rule="evenodd"/><path class="st0" d="M115.3 76.7c1.5-.4 2.9-.7 4.3-1.1v3.1c.4-.6.6-1.2 1-1.8.9-1.2 2.4-1.7 3.6-1.3.8.3 1.3.9 1.2 1.7 0 .6-.5 1.1-1.1 1.1-.6 0-1-.4-.9-1.1 0-.4.1-.9-.4-1.2-.6-.3-1.2-.2-1.6.2-.5.5-1 1.1-1.3 1.8-.3.7-.5 1.5-.5 2.3-.1 2.6 0 5.3 0 7.9 0 1.1.3 1.4 1.4 1.4h.9v.2h-6.5v-.1c.1 0 .2-.1.3-.1h1c.7 0 1-.3 1.1-1.1v-.4-10.1c0-1-.3-1.3-1.3-1.4h-1.2z" id="path27" fill-rule="evenodd"/><path class="st0" d="M244.5 89.9H238v-.1c.1 0 .2-.1.3-.1h1c.7 0 1-.3 1.1-1v-.4-10.1c0-1-.3-1.3-1.3-1.4-.3 0-.7 0-1.2-.1 1.5-.4 2.9-.7 4.3-1.1v3.1c.4-.6.6-1.2 1-1.8.9-1.2 2.4-1.7 3.6-1.3.8.3 1.3.9 1.2 1.7 0 .6-.5 1.1-1.1 1.1-.6 0-1-.4-.9-1.1 0-.4.1-.9-.4-1.1-.6-.3-1.2-.2-1.6.2-.5.5-1 1.1-1.3 1.8-.3.7-.5 1.5-.5 2.3-.1 2.7 0 5.3 0 8 0 1 .3 1.3 1.3 1.3h.9c.1 0 .1 0 .1.1z" id="path29" fill-rule="evenodd"/><path class="st0" d="M114.4 89.9h-6.5v-.2h1.2c.8 0 1.1-.4 1.1-1.1V77.8c0-.7-.3-1-1.1-1-.4 0-.8 0-1.2-.1 1.4-.3 2.8-.7 4.2-1.1v12.7c0 1.2.3 1.5 1.5 1.5h.8v.1z" id="path31" fill-rule="evenodd"/><path class="st0" d="M130.9 75.5v12.3c0 1.7.1 1.8 1.8 1.9.2 0 .3 0 .5.1h-6.5v-.1h1c1.1 0 1.4-.3 1.4-1.4V78c0-1-.3-1.3-1.3-1.3-.4 0-.7 0-1.2-.1 1.5-.3 2.8-.7 4.3-1.1z" id="path33" fill-rule="evenodd"/><path class="st0" d="M112.5 71c0 .8-.6 1.4-1.3 1.4-.8 0-1.4-.5-1.4-1.3s.6-1.4 1.4-1.4c.7-.1 1.3.5 1.3 1.3z" id="path35" fill-rule="evenodd"/><path class="st0" d="M130 69.6c.8 0 1.3.6 1.3 1.4 0 .8-.6 1.4-1.4 1.3-.8 0-1.4-.6-1.4-1.4.1-.7.7-1.3 1.5-1.3z" id="path37" fill-rule="evenodd"/><path d="M159.7 105.1l-.7-.1s3.2-11.1 4.1-26.8c.9-14.2-1.7-25.9-1.7-25.9s.3-.1.5-.2.8-.2.8-.2 2.5 11.2 1.5 26.6c-1 14.7-4.5 26.6-4.5 26.6z" id="path39"/><ellipse transform="rotate(-82.733 159.483 37.1)" class="st1" cx="159.5" cy="37.1" rx=".4" ry=".4" id="ellipse41" stroke="#000" stroke-width=".399" stroke-miterlimit="10"/><ellipse transform="rotate(-86.59 159.725 38.837) scale(.99997)" class="st1" cx="159.7" cy="38.8" rx=".4" ry=".4" id="ellipse43" stroke="#000" stroke-width=".399" stroke-miterlimit="10"/><ellipse transform="rotate(-86.727 160.062 40.671) scale(1.00003)" class="st1" cx="160.1" cy="40.7" rx=".4" ry=".4" id="ellipse45" stroke="#000" stroke-width=".399" stroke-miterlimit="10"/><ellipse transform="matrix(.0568 -.9984 .9984 .0568 108.982 200.078)" class="st1" cx="160.4" cy="42.4" rx=".4" ry=".4" id="ellipse47" stroke="#000" stroke-width=".399" stroke-miterlimit="10"/><ellipse transform="rotate(-86.727 160.651 44.289) scale(1.00003)" class="st1" cx="160.7" cy="44.3" rx=".4" ry=".4" id="ellipse49" stroke="#000" stroke-width=".399" stroke-miterlimit="10"/><ellipse transform="rotate(-86.873 160.943 46.116) scale(.99999)" class="st1" cx="160.9" cy="46.1" rx=".4" ry=".4" id="ellipse51" stroke="#000" stroke-width=".399" stroke-miterlimit="10"/><ellipse transform="rotate(-86.727 161.234 47.943) scale(1.00003)" class="st1" cx="161.2" cy="47.9" rx=".4" ry=".4" id="ellipse53" stroke="#000" stroke-width=".399" stroke-miterlimit="10"/><ellipse transform="rotate(-86.581 161.184 39.729) scale(.99998)" class="st1" cx="161.2" cy="39.7" rx=".4" ry=".4" id="ellipse55" stroke="#000" stroke-width=".399" stroke-miterlimit="10"/><ellipse transform="matrix(.05695 -.9984 .9984 .05695 110.68 200.636)" class="st1" cx="161.5" cy="41.7" rx=".4" ry=".4" id="ellipse57" stroke="#000" stroke-width=".399" stroke-miterlimit="10"/><ellipse transform="rotate(-86.728 161.911 43.432) scale(1.00003)" class="st1" cx="161.9" cy="43.4" rx=".4" ry=".4" id="ellipse59" stroke="#000" stroke-width=".399" stroke-miterlimit="10"/><ellipse transform="rotate(-86.727 162.108 45.187) scale(1.00003)" class="st1" cx="162.1" cy="45.2" rx=".4" ry=".4" id="ellipse61" stroke="#000" stroke-width=".399" stroke-miterlimit="10"/><ellipse transform="rotate(-86.72 162.468 47.027) scale(1.00004)" class="st1" cx="162.5" cy="47" rx=".4" ry=".4" id="ellipse63" stroke="#000" stroke-width=".399" stroke-miterlimit="10"/><ellipse transform="scale(.99996) rotate(-86.598 162.78 48.784)" class="st1" cx="162.8" cy="48.8" rx=".4" ry=".4" id="ellipse65" stroke="#000" stroke-width=".399" stroke-miterlimit="10"/><ellipse transform="rotate(-86.873 162.412 40.657) scale(.99999)" class="st1" cx="162.4" cy="40.7" rx=".4" ry=".4" id="ellipse67" stroke="#000" stroke-width=".399" stroke-miterlimit="10"/><ellipse transform="matrix(.05695 -.9984 .9984 .05695 111.365 202.868)" class="st1" cx="163.1" cy="42.5" rx=".4" ry=".4" id="ellipse69" stroke="#000" stroke-width=".399" stroke-miterlimit="10"/><ellipse transform="rotate(-86.599 163.306 44.203) scale(.99996)" class="st1" cx="163.3" cy="44.2" rx=".4" ry=".4" id="ellipse71" stroke="#000" stroke-width=".399" stroke-miterlimit="10"/><ellipse transform="matrix(.05695 -.9984 .9984 .05695 112.111 204.883)" class="st1" cx="164.5" cy="43.1" rx=".4" ry=".4" id="ellipse73" stroke="#000" stroke-width=".399" stroke-miterlimit="10"/><ellipse transform="rotate(-86.59 163.67 46.025) scale(.99997)" class="st1" cx="163.7" cy="46" rx=".4" ry=".4" id="ellipse75" stroke="#000" stroke-width=".399" stroke-miterlimit="10"/><ellipse transform="rotate(-86.727 164.73 44.859) scale(1.00003)" class="st1" cx="164.7" cy="44.9" rx=".4" ry=".4" id="ellipse77" stroke="#000" stroke-width=".399" stroke-miterlimit="10"/><ellipse transform="rotate(-86.727 163.854 47.826) scale(1.00003)" class="st1" cx="163.9" cy="47.8" rx=".4" ry=".4" id="ellipse79" stroke="#000" stroke-width=".399" stroke-miterlimit="10"/><ellipse transform="rotate(-86.865 164.996 46.664)" class="st1" cx="165" cy="46.7" rx=".4" ry=".4" id="ellipse81" stroke="#000" stroke-width=".399" stroke-miterlimit="10"/><ellipse transform="rotate(-86.727 161.478 49.48) scale(1.00003)" class="st1" cx="161.5" cy="49.5" rx=".4" ry=".4" id="ellipse83" stroke="#000" stroke-width=".399" stroke-miterlimit="10"/><ellipse transform="rotate(-81.054 162.98 50.484)" class="st1" cx="163" cy="50.5" rx=".4" ry=".4" id="ellipse85" stroke="#000" stroke-width=".399" stroke-miterlimit="10"/><ellipse transform="rotate(-81.031 164.212 49.621)" class="st1" cx="164.2" cy="49.6" rx=".4" ry=".4" id="ellipse87" stroke="#000" stroke-width=".399" stroke-miterlimit="10"/><ellipse transform="rotate(-81.147 165.061 48.498)" class="st1" cx="165.1" cy="48.5" rx=".4" ry=".4" id="ellipse89" stroke="#000" stroke-width=".399" stroke-miterlimit="10"/><ellipse transform="rotate(-81.008 161.619 50.903)" class="st1" cx="161.6" cy="50.9" rx=".4" ry=".4" id="ellipse91" stroke="#000" stroke-width=".399" stroke-miterlimit="10"/><ellipse transform="rotate(-82.733 160.92 37.555)" class="st1" cx="160.9" cy="37.6" rx=".4" ry=".4" id="ellipse93" stroke="#000" stroke-width=".399" stroke-miterlimit="10"/><ellipse transform="rotate(-82.727 162.01 38.552)" class="st1" cx="162" cy="38.6" rx=".4" ry=".4" id="ellipse95" stroke="#000" stroke-width=".399" stroke-miterlimit="10"/><ellipse transform="rotate(-82.733 163.144 39.413)" class="st1" cx="163.1" cy="39.4" rx=".4" ry=".4" id="ellipse97" stroke="#000" stroke-width=".399" stroke-miterlimit="10"/><ellipse transform="rotate(-82.715 163.865 41.14)" class="st1" cx="163.9" cy="41.1" rx=".4" ry=".4" id="ellipse99" stroke="#000" stroke-width=".399" stroke-miterlimit="10"/><ellipse transform="rotate(-21.721 158.598 40.22)" class="st1" cx="158.6" cy="40.2" rx=".4" ry=".4" id="ellipse101" stroke="#000" stroke-width=".399" stroke-miterlimit="10"/><ellipse transform="rotate(-21.859 158.91 42.24)" class="st1" cx="158.9" cy="42.2" rx=".4" ry=".4" id="ellipse103" stroke="#000" stroke-width=".399" stroke-miterlimit="10"/><ellipse transform="rotate(-21.667 159.119 43.968)" class="st1" cx="159.1" cy="44" rx=".4" ry=".4" id="ellipse105" stroke="#000" stroke-width=".399" stroke-miterlimit="10"/><ellipse transform="rotate(-21.85 159.453 45.688)" class="st1" cx="159.5" cy="45.7" rx=".4" ry=".4" id="ellipse107" stroke="#000" stroke-width=".399" stroke-miterlimit="10"/><ellipse transform="rotate(-21.859 159.7 47.552)" class="st1" cx="159.7" cy="47.5" rx=".4" ry=".4" id="ellipse109" stroke="#000" stroke-width=".399" stroke-miterlimit="10"/><ellipse transform="rotate(-21.859 159.969 49.314)" class="st1" cx="160" cy="49.3" rx=".4" ry=".4" id="ellipse111" stroke="#000" stroke-width=".399" stroke-miterlimit="10"/><ellipse transform="rotate(-21.859 157.724 41.497)" class="st1" cx="157.7" cy="41.5" rx=".4" ry=".4" id="ellipse113" stroke="#000" stroke-width=".399" stroke-miterlimit="10"/><ellipse transform="rotate(-21.721 157.712 43.433)" class="st1" cx="157.7" cy="43.4" rx=".4" ry=".4" id="ellipse115" stroke="#000" stroke-width=".399" stroke-miterlimit="10"/><ellipse transform="rotate(-21.798 158.035 45.146)" class="st1" cx="158" cy="45.1" rx=".4" ry=".4" id="ellipse117" stroke="#000" stroke-width=".399" stroke-miterlimit="10"/><ellipse transform="rotate(-21.932 156.535 44.477)" class="st1" cx="156.5" cy="44.5" rx=".4" ry=".4" id="ellipse119" stroke="#000" stroke-width=".399" stroke-miterlimit="10"/><ellipse transform="rotate(-21.932 158.262 46.985)" class="st1" cx="158.3" cy="47" rx=".4" ry=".4" id="ellipse121" stroke="#000" stroke-width=".399" stroke-miterlimit="10"/><ellipse transform="rotate(-21.982 156.901 46.22)" class="st1" cx="156.9" cy="46.2" rx=".4" ry=".4" id="ellipse123" stroke="#000" stroke-width=".399" stroke-miterlimit="10"/><ellipse transform="rotate(-21.721 158.668 48.747)" class="st1" cx="158.7" cy="48.7" rx=".4" ry=".4" id="ellipse125" stroke="#000" stroke-width=".399" stroke-miterlimit="10"/><ellipse transform="rotate(-21.721 157.195 48.008)" class="st1" cx="157.2" cy="48" rx=".4" ry=".4" id="ellipse127" stroke="#000" stroke-width=".399" stroke-miterlimit="10"/><ellipse transform="rotate(-27.457 160.33 50.984)" class="st1" cx="160.3" cy="51" rx=".4" ry=".4" id="ellipse129" stroke="#000" stroke-width=".399" stroke-miterlimit="10"/><ellipse transform="rotate(-27.576 158.89 50.57)" class="st1" cx="158.9" cy="50.6" rx=".4" ry=".4" id="ellipse131" stroke="#000" stroke-width=".399" stroke-miterlimit="10"/><ellipse transform="rotate(-27.576 157.726 49.776)" class="st1" cx="157.7" cy="49.8" rx=".4" ry=".4" id="ellipse133" stroke="#000" stroke-width=".399" stroke-miterlimit="10"/><ellipse transform="rotate(-25.934 158.168 38.086)" class="st1" cx="158.2" cy="38.1" rx=".4" ry=".4" id="ellipse135" stroke="#000" stroke-width=".399" stroke-miterlimit="10"/><ellipse transform="rotate(-25.924 157.428 39.374)" class="st1" cx="157.4" cy="39.4" rx=".4" ry=".4" id="ellipse137" stroke="#000" stroke-width=".399" stroke-miterlimit="10"/><ellipse transform="rotate(-25.74 156.65 40.551)" class="st1" cx="156.6" cy="40.6" rx=".4" ry=".4" id="ellipse139" stroke="#000" stroke-width=".399" stroke-miterlimit="10"/><ellipse transform="rotate(-25.74 156.508 42.41)" class="st1" cx="156.5" cy="42.4" rx=".4" ry=".4" id="ellipse141" stroke="#000" stroke-width=".399" stroke-miterlimit="10"/><path d="M148.6 61.1s.7-3 2.3-4.1c4-2.5 7.8-2.5 9.7-5h-.5s-1.3 1.4-4.2 2.1c-2.4.6-7.6 1.6-8.9 4.8 1-.3 1.6-.5 1.6-.5s-.3 1.9 0 2.7z" id="path143"/><path d="M159 51.6s-.7.7-2.5.7c-1.7.1-3.4-.2-4.8.8-1.4.9-1.1 1.7-1.3 2.4-.5-.7-.7-3.6 2-3.6 1.2 0 2.7.1 4.1.1 1.3-.1 1.1-.4 2.1-.6.1 0 .4.2.4.2z" id="path145"/><path d="M143 49.2s7.8 3.4 13.7 3c1.1-.1 1.2-.5 2.2-.7-.3-.2-.4-.3-.4-.3s-1.2.6-2.7.7c-2.3.1-7.7-1.4-10.1-3.5 0 .8-1.2.6-2.7.8z" id="path147"/><path d="M157.3 50.8l-.6-.4s-4.8-.4-7.3-4.4c.4 1.4.4 1.7.3 1.8-.1.4-.4 1-1.2.8l-.3.1s5.7 2.7 9.1 2.1z" id="path149"/><path d="M165.9 47.3s2.9-.7 3.5-3.5c.9-.1 2.6-2 3.1-4.6.3.1.5.2.5.2s-.8 3.2-2 4.6c-1 1.3-2.9 3-5.1 3.6v-.3z" id="path151"/><path d="M166 48.6v.4s4.2-.9 9.9-4.2c1-2.1 1.1-3.5 1.1-3.5s-1.9 2.7-4.7 4.5c-1.4.9-4 2.2-6.3 2.8z" id="path153"/><path d="M165.3 50.1s1.9 1.5 3.7.7c1.2-.5 3.6-2.1 3.6-2.1l.3.1s-1.3 1.2.5.8c1.8-.5 1.9-.5 1.9-.5l.5.1s-2.8.9-.8 1.3c2.2.5 4.3 1.2 5.6 2l-.6.3s-5.3-3-11.6-.9c-1.2-.3-2.2-.8-3.4-1.6l.3-.2z" id="path155"/><path d="M162.7 51.8s1.3 2.5 5.1 4.1c3.8 1.6 5.3 1.9 7.1 4.1.4-.5-.2-1.4-1-2.2-.7-.7-3-1.6-3.2-3.9-.5 0-1.4.4-2.6.3-1.7-.1-3.3-.1-4.9-2.5-.3.1-.5.1-.5.1z" id="path157"/><path d="M156.6 49.4s-.1 0-.3-.4c-.7-.3-3.6-1.8-4.6-4.9l-.3.1s.4 1.6-1.5-.2c-.3.2.4.9.4.9s2.6 3.4 6.3 4.5z" id="path159"/><path d="M160.1 52s-.4 2.9-3.7 3.8c-3.4.9-4.7 3.4-4.9 4.5 1.6-1.9 3.6-2.4 3.6-2.4s1.1-.3.9.7c-.2 1.2-.1 2.3-.1 2.3l.5-.1s0-2.7.8-3.5c.7-.8 2.7-2.1 3.3-5.3h-.4z" id="path161"/><path d="M166.4 49.5s1.5.4 2.6-.3c-.9 0-2.1-.6-2.2-.7-.1-.1-.8.1-.8.1v.3c-.1.2-.1.4-.1.4s.3.2.5.2z" id="path163"/><path d="M165.2 50.5s-.3.7.8 1.8c-1.3-.3-1.8-.6-2.1-1 .5-.2 1.1-.8 1.2-1 .4.2.1.2.1.2z" id="path165"/><path d="M159.3 51.7l-.7-.3s-.4.9-1.3 1.5c.4.1 1.8-.8 2-1.2z" id="path167"/></g></svg>