<svg width="155" height="224" viewBox="0 0 155 224" xmlns="http://www.w3.org/2000/svg" xmlns:xlink="http://www.w3.org/1999/xlink"><title>earphones</title><defs><path id="a" d="M0 0h1440v2052H0z"/><path id="b" d="M0 0h1440v577H0z"/></defs><g fill="none" fill-rule="evenodd"><use fill="#EFF1F3" opacity=".396" xlink:href="#a" transform="translate(-1285 -1487)"/><use fill="#FFF" xlink:href="#b" transform="translate(-1285 -13)"/><g opacity=".5"><path d="M160.376-.18a6.886 6.886 0 0 1-.477-.813l6.35-5.812c.259.149.52.32.782.516l5.738-5.4 1.054.234.176 1.006-5.59 5.53c.152.208.302.437.452.687l-6.545 5.64a9.827 9.827 0 0 1-.569-.33c-.763.66-1.145.988-1.145.987-.665-.197-1.066-.6-1.203-1.21l.977-1.036zM28.37 107.815l-.006.01-.076-.041a.718.718 0 0 1-.136-.075c-2.665-1.5-3.374-3.563-2.126-6.188.306-.643 1.676-3.55 2.943-5.108 1.537-1.888 3.612-2.148 6.227-.78.004-.004.007-.007.009-.006 6.425 3.53 4.564 11.137 2.91 14.074-1.654 2.938-9.179 16.623-9.179 16.623a5.433 5.433 0 0 1-.91.222l-1.656 3.113c-.863.082-1.61-.07-2.239-.455-.63-.385-1.01-.903-1.14-1.552l1.416-2.664a6.888 6.888 0 0 1-.522-.791c5.795-10.284 8.592-15.543 8.389-15.777-.279-.323-2.976-.288-3.904-.605zm27.703-22.133v.012h-.086a.718.718 0 0 1-.156-.003c-3.058-.074-4.652-1.562-4.782-4.465-.032-.712-.187-3.922.2-5.892.47-2.388 2.181-3.592 5.132-3.612l.005-.01c7.331.1 9.258 7.69 9.177 11.06-.081 3.371-.3 18.987-.3 18.987a5.433 5.433 0 0 1-.7.623v3.526c-.724.478-1.454.695-2.19.65-.737-.045-1.316-.323-1.737-.835v-3.017a6.888 6.888 0 0 1-.832-.454c.29-11.8.29-17.756 0-17.868-.397-.154-2.763 1.142-3.731 1.298zM6.5 159a2.5 2.5 0 0 1 2.5 2.5v28a2.5 2.5 0 1 1-5 0v-28a2.5 2.5 0 0 1 2.5-2.5z" fill="#000" style="mix-blend-mode:overlay"/><path d="M25.106 127.98c-22.669 29.37-26.546 54.024-11.63 73.963 14.916 19.94 46.085 25.345 93.507 16.218" stroke="#000" style="mix-blend-mode:overlay"/><path d="M62.748 104.869c-3.34 29.906-2.111 52.933 3.687 69.082 8.698 24.222 34.437 46.875 55.487 48.353 21.05 1.478 44.354-3.802 52.363-28.51 8.008-24.709-38.007-54.795-39.464-81.104-1.457-26.308 8.053-61.008 44.398-56.87 36.346 4.138 33.135 35.643 28.784 49.049-4.35 13.405-22.47 29.318-53.271 13.405-30.802-15.912-40.687-57.965-17.497-82.977 23.189-25.012 92.287-15.28 89.515 39.487-2.771 54.769-51.661 44.416-72.018 32.928C134.375 96.223 116.716 39.75 160.499 1" stroke="#000" style="mix-blend-mode:overlay"/></g><g transform="translate(0 -13)"><path d="M58.748 116.869c-3.34 29.906-2.111 52.933 3.687 69.082 8.698 24.222 34.437 46.875 55.487 48.353 21.05 1.478 44.354-3.802 52.363-28.51 8.008-24.709-38.007-54.795-39.464-81.104-1.457-26.308 8.053-61.008 44.398-56.87 36.346 4.138 33.135 35.643 28.784 49.049-4.35 13.405-22.47 29.318-53.271 13.405-30.802-15.912-40.687-57.965-17.497-82.977 23.189-25.012 92.287-15.28 89.515 39.487-2.771 54.769-51.661 44.416-72.018 32.928C130.375 108.223 112.716 51.75 156.499 13" stroke="#D1D1D1"/><path d="M21.106 139.98c-22.669 29.37-26.546 54.024-11.63 73.963 14.916 19.94 46.085 25.345 93.507 16.218" stroke="#D1D1D1"/><path d="M56.636 114.332v3.392c.421.512 1 .79 1.736.835.737.045 1.467-.172 2.19-.65v-3.93l-3.926.353z" fill="#D8D8D8"/><path d="M51.846 97.695c.75.08 3.525-1.478 3.958-1.31.29.112.29 6.068 0 17.868 2.074 1.312 3.893 1.148 5.46-.493 0 0 .218-15.616.299-18.986.081-3.37-1.846-10.96-9.177-11.06-.084-.014-1.29 13.902-.54 13.981z" fill="#9B9B9B"/><path d="M52.404 83.723l-.331 13.972c-3.216 0-4.89-1.49-5.024-4.468-.032-.712-.187-3.922.2-5.892.472-2.395 2.19-3.598 5.155-3.612zm-31.821 52.935l-1.593 2.995c.131.65.512 1.167 1.141 1.552.63.386 1.376.537 2.24.455l1.845-3.47-3.633-1.532z" fill="#D8D8D8"/><path d="M24.164 119.72c.624.422 3.806.35 4.11.7.203.235-2.594 5.494-8.389 15.778 1.215 2.132 2.899 2.841 5.051 2.127 0 0 7.525-13.685 9.179-16.623 1.654-2.937 3.515-10.544-2.91-14.074-.068-.05-7.666 11.67-7.041 12.092z" fill="#9B9B9B"/><path d="M31.216 107.645l-6.852 12.18c-2.839-1.509-3.618-3.61-2.338-6.303.306-.643 1.676-3.55 2.943-5.108 1.54-1.893 3.623-2.149 6.247-.769z" fill="#D8D8D8"/><rect fill="#9B9B9B" y="171" width="5" height="33" rx="2.5"/></g></g></svg>