<svg xmlns="http://www.w3.org/2000/svg" id="svg2" viewBox="0 0 127.75245 100.01057" height="106.678" width="136.269" shape-rendering="crispEdges"><g transform="translate(-155.41 -383.066)" id="layer1"><path id="path3347" d="M215.69 480.931c-1.047-1.18-3.93-3.09-6.404-4.244-4.071-1.899-6.836-2.147-29-2.605l-24.5-.506-.263-35.34c-.258-34.686-.226-35.35 1.75-35.866 1.79-.469 2.013-1.352 2.013-7.976 0-12.109-1.816-11.318 25.97-11.318 13.935 0 25.073.43 26.715 1.032 1.548.567 3.842 2.255 5.098 3.75 2.14 2.549 2.35 2.603 3.353.874.588-1.015 2.936-2.693 5.217-3.729 3.682-1.672 6.802-1.885 27.862-1.905 27.575-.025 25.785-.81 25.785 11.296 0 6.624.223 7.507 2.013 7.976 1.975.516 2.008 1.18 1.75 35.866l-.263 35.34-24.5.506c-22.164.458-24.93.706-29 2.605-2.475 1.155-5.358 3.064-6.405 4.244-1.048 1.18-2.666 2.145-3.595 2.145-.93 0-2.548-.965-3.595-2.145zm5.16-12.959c.375-.607 2.54-1.947 4.81-2.978 3.59-1.63 6.742-1.876 24.253-1.896 15.79-.017 20.373-.316 21.263-1.39.811-.977 1.06-11.339.873-36.25l-.263-34.882-20.277-.27c-13.173-.176-20.987.109-22.304.813-1.114.597-2.9 2.519-3.97 4.271-1.797 2.948-1.942 5.217-1.946 30.355-.002 14.942-.276 27.88-.61 28.75-.353.918-1.775 1.581-3.393 1.581-1.618 0-3.04-.663-3.393-1.581-.334-.87-.609-13.358-.611-27.75-.004-30.075-.261-31.129-8.47-34.76-3.938-1.742-6.363-1.925-22.223-1.682l-17.803.273-.263 34.882c-.182 24.091.074 35.289.828 36.197.825.994 6.392 1.388 22.858 1.618l21.766.303 3.406 2.703c3.843 3.052 4.503 3.256 5.47 1.693z" fill="#fefefe"/></g></svg>