<svg xmlns="http://www.w3.org/2000/svg" id="svg2" viewBox="0 0 74.800768 120.21076" height="128.225" width="79.787" shape-rendering="crispEdges"><g transform="translate(-245.189 -361.751)" id="layer1"><path id="path3360" d="M277.189 475.051v-6.91l-4.488-2.173c-7.164-3.468-15.639-13.606-21.98-26.294-3.043-6.088-5.532-12.103-5.532-13.366 0-2.09.247-2.203 2.75-1.26 5.586 2.107 22.59 13.493 25.866 17.322l3.384 3.952V427.184l-3.25-.633c-1.788-.35-5.5-1.862-8.25-3.362-4.33-2.36-5.494-3.714-8.677-10.082-6.666-13.335-8.75-34.448-4.175-42.283 2.666-4.565 6.602-5.944 12.57-4.404 4.586 1.183 4.796 1.137 7.437-1.62 3.894-4.065 10.795-4.065 14.689 0 2.642 2.757 2.852 2.803 7.437 1.62 6.398-1.65 10.072-.176 12.673 5.087 5.026 10.173-.189 41.49-8.1 48.637-2.396 2.165-12.329 6.796-14.604 6.808-1.577.01-1.75 1.304-1.75 13.105v13.095l6.25-6.45c7.13-7.361 9.9-8.996 21.75-12.84 10.195-3.309 10.662-2.803 5.82 6.295-6.476 12.162-17.1 25.632-24.768 31.4-3.951 2.973-7.605 5.405-8.118 5.405-.514 0-.934 1.125-.934 2.5 0 2.111-.467 2.5-3 2.5h-3v-6.91zm22.25-19.248c3.162-3.86 5.75-7.366 5.75-7.79 0-.425 1.112-2.41 2.471-4.414l2.472-3.642-5.105 2.587c-9.729 4.93-18.116 15.118-20.439 24.827l-.696 2.91 4.898-3.73c2.694-2.05 7.486-6.887 10.649-10.748zm-23.195 2.35c-1.996-6.959-9.623-15.847-16.77-19.543l-3.028-1.566 2.967 5.893c2.811 5.582 14.284 18.025 16.62 18.025.638 0 .717-1.044.21-2.808zm16.197-40.434c6.733-5.136 11.162-18.307 11.215-33.353.039-10.797-1.038-12.897-6.184-12.062-7.98 1.295-28.42 16.42-34.527 25.552-3.285 4.912-1.848 13.998 2.894 18.29 4.32 3.91 7.686 4.916 15.428 4.613 6.462-.253 8.107-.7 11.174-3.04zm-22.07-42.502c-4.635-2.827-9.935-3.901-11.507-2.332-.701.7-1.313 5.408-1.518 11.677l-.342 10.505 8.524-8.802 8.524-8.803-3.682-2.245zm12.66-3.101l2.343-1.802-2.663-1.745c-2.508-1.644-2.813-1.647-5.25-.05l-2.588 1.696 2.408 1.852c2.946 2.265 2.87 2.264 5.75.049z" fill="#fefefe"/></g></svg>