<svg xmlns="http://www.w3.org/2000/svg" id="svg2" viewBox="0 0 37.999999 119.99999" height="128" width="40.533" shape-rendering="crispEdges"><g transform="translate(-328.72 -366.404)" id="layer1"><path id="path3373" d="M328.72 483.404v-3h38v6h-38v-3zm4.001-4.834c-1.084-.36-1.433-23.878-.395-26.584.334-.87 1.459-1.582 2.5-1.582 1.437 0 1.893-.723 1.893-3v-3h21v2.525c0 1.773.745 2.807 2.5 3.475 2.497.949 2.5.969 2.5 14.475 0 10.105-.316 13.548-1.25 13.615-4.034.29-27.913.354-28.748.076zm21.798-10.366c1.639-1.639 1.508-4.635-.279-6.422-1.042-1.042-3.153-1.39-7.146-1.179-6.356.337-8.081 1.851-7.003 6.146.633 2.52.984 2.655 6.947 2.655 3.552 0 6.803-.522 7.481-1.2zm-2.05-17.535c-2.612-.206-6.887-.206-9.5 0-2.612.206-.475.374 4.75.374s7.363-.168 4.75-.374zm-8.765-8.015c-.01-.413-.862-7.95-1.895-16.75-1.32-11.244-2.544-17.468-4.115-20.938-1.923-4.248-2.158-6.058-1.685-12.955.592-8.64 1.801-10.607 6.518-10.607 2.059 0 2.318-.34 1.715-2.25-1.369-4.339-1.74-7.747-1.115-10.237.54-2.155 1.195-2.513 4.592-2.513 3.393 0 4.052.36 4.59 2.503.68 2.71.172 7.944-1.044 10.747-.605 1.393-.267 1.75 1.656 1.75 4.61 0 5.78 1.91 6.436 10.5.543 7.118.33 8.662-1.925 14.008-1.906 4.518-2.928 9.79-4.124 21.259-.874 8.388-1.589 15.472-1.589 15.742 0 .81-7.999.552-8.015-.26z" fill="#fefefe"/></g></svg>