<svg xmlns="http://www.w3.org/2000/svg" id="svg2" viewBox="0 0 100.00222 102.29581" height="109.116" width="106.669" shape-rendering="crispEdges"><g transform="translate(-225.685 -368.522)" id="layer1"><path id="path3386" d="M240.886 469.529c-.66-.66-1.2-3.585-1.2-6.5v-5.3h-5.066c-9.244 0-8.934.763-8.934-21.979 0-23.394-.173-23.021 10.723-23.021h6.277v-20.345c0-18.214.186-20.514 1.775-21.951 1.514-1.371 5.282-1.629 25.74-1.759l23.966-.152 6.751 6.853 6.75 6.854.01 15.25.009 15.25h6.777c11.44 0 11.223-.437 11.223 22.485 0 22.585.027 22.515-8.572 22.515h-5.428v5.3c0 2.915-.54 5.84-1.2 6.5-1.719 1.718-67.882 1.718-69.6 0zm65.6-4c.66-.66 1.2-2.685 1.2-4.5v-3.3h-64v3.3c0 1.815.54 3.84 1.2 4.5 1.714 1.714 59.886 1.714 61.6 0zm15.02-15.55l.32-2.25h-46.07c-44.007 0-46.07.082-46.07 1.833 0 1.008.305 2.138.677 2.51.372.372 20.96.56 45.75.417l45.073-.26.32-2.25zm.18-16.669c0-6.83-.273-13.13-.607-14-.54-1.41-5.476-1.581-45.393-1.581-39.916 0-44.852.172-45.393 1.581-.334.87-.607 7.17-.607 14v12.419h92V433.31zm-11.824-5.452c-.796-.504-1.195-2.192-1-4.234.275-2.884.748-3.444 3.135-3.718 3.41-.39 5.69 1.31 5.69 4.245 0 3.917-4.29 5.949-7.825 3.707zm3.974-3.63c0-.522-.484-1.11-1.075-1.308-.591-.197-1.075.392-1.075 1.309 0 .916.484 1.505 1.075 1.308.591-.197 1.075-.786 1.075-1.308zm-11.15-25v-13.5h-3.893c-2.538 0-4.093.523-4.468 1.5-.863 2.248-36.639 2.248-36.639 0 0-1.278 2.684-1.5 18.155-1.5 17.525 0 18.098-.063 16.5-1.828-1.045-1.155-1.655-3.558-1.655-6.52v-4.691l-21.25.27-21.25.27-.271 19.75-.271 19.75h55.042v-13.5zm-45 8.023c0-1.309 2.61-1.522 18.584-1.522 14.421 0 18.49.28 18.167 1.25-.308.925-5.137 1.32-18.583 1.522-15.722.236-18.168.068-18.168-1.25zm0-10c0-1.309 2.61-1.522 18.584-1.522 14.421 0 18.49.28 18.167 1.25-.308.925-5.137 1.32-18.583 1.522-15.722.236-18.168.068-18.168-1.25zm39-18.522c-.589-1.1-1.237-2-1.441-2-.205 0-.136.9.151 2 .288 1.1.937 2 1.442 2 .507 0 .44-.895-.152-2z" fill="#fefefe"/></g></svg>