<svg xmlns="http://www.w3.org/2000/svg" xmlns:xlink="http://www.w3.org/1999/xlink" id="Слой_1" viewBox="0 0 230 37"><defs id="defs219"><linearGradient xlink:href="#SVGID_3_" id="linearGradient3312" gradientUnits="userSpaceOnUse" gradientTransform="scale(-45.5814 45.5814) rotate(41.4 780.737 297.554)" y1="595.182" x2="1" y2="595.182"/><linearGradient xlink:href="#SVGID_6_" id="linearGradient3314" gradientUnits="userSpaceOnUse" gradientTransform="scale(-45.5814 45.5814) rotate(41.4 780.587 297.498)" y1="595.188" x2="1" y2="595.188"/><linearGradient xlink:href="#SVGID_9_" id="linearGradient3316" gradientUnits="userSpaceOnUse" gradientTransform="scale(-45.5814 45.5814) rotate(41.4 780.582 297.496)" y1="595.198" x2="1" y2="595.198"/><linearGradient xlink:href="#SVGID_12_" id="linearGradient3318" gradientUnits="userSpaceOnUse" gradientTransform="scale(-45.5814 45.5814) rotate(41.4 780.09 297.31)" y1="594.802" x2="1" y2="594.802"/></defs><style id="style3">.st0{fill:#391d27}.st1{clip-path:url(#SVGID_2_);fill:url(#SVGID_3_)}.st2{clip-path:url(#SVGID_5_);fill:url(#SVGID_6_)}.st3{clip-path:url(#SVGID_8_);fill:url(#SVGID_9_)}.st4{clip-path:url(#SVGID_11_);fill:url(#SVGID_12_)}</style><g id="g3198"><g id="g5"><path id="path7" d="M182.2 209.6v17.5c0 1.3 0 2.5 1.3 3.4h-5.8c1.4-.9 1.3-2.3 1.3-3.6v-14.5c0-.5-.1-.9-.1-1.4-.1-.8-.5-1.5-1.4-2 .2-.1.3-.2.4-.2 3.1.1 6.3 0 9.4.2 1.9.1 3.7.8 5 2.3 2.5 2.8 1.2 7-2.6 8.4-.9.3-1.8.5-2.8.8.9 1.1 1.9 2.2 2.8 3.2 1.6 1.7 3.2 3.4 4.8 5 .4.4.9.6 1.4 1 .2.1.3.2.5.4-.2.2-.3.4-.5.5-1.5.7-3 .5-4.3-.5-1.2-1-2.3-2.1-3.3-3.3-1.6-1.8-3-3.7-4.5-5.5-.2-.3-.4-.5-.6-.8 1.1-.3 2.2-.4 3.3-.7 3.7-1.2 4.9-5.8 2.1-8.4-.7-.6-1.6-1.1-2.6-1.3-1.2-.5-2.5-.4-3.8-.5" class="st0" fill="#391d27" transform="translate(-45.805 -225.577) scale(1.08286)"/><path id="path9" d="M213.3 213.9v.6c.1 3.5.2 6.6.3 10.1 0 1 .2 2.1.4 3.1s.7 1.8 1.6 2.4c.1 0 .1.1.2.1v.2h-6.3v-.2c1.7-1.2 2-2.9 2.1-4.7.1-4 0-7.9.1-11.9 0-1.8-.4-3.6-2-4.7 0 0 .1 0 0-.2h2c1.1.1 1.6.2 2.2 1 4.2 5.2 7.8 10.4 12.1 15.6.1.2.3.4.6.6v-.5c0-3.9 0-7.8-.1-11.7 0-1.8-.3-3.5-2-4.7v-.2h6c0 .1 0 .2-.1.2-1.6 1.2-1.9 2.9-2 4.7-.2 5.6 0 11.3-.1 16.9 0 .1-.2.1-.3.1-.8 0-1.2-.5-1.5-.7-2.3-2.6-3.9-4.6-6.2-7.3-2.3-2.7-4-5.4-6.3-8.1-.3-.2-.5-.4-.7-.7" class="st0" fill="#391d27" transform="translate(-45.805 -225.577) scale(1.08286)"/><path id="path11" d="M248.5 220h6.2c0 .1-.1.2-.1.3-.9.5-1.2 1.3-1.2 2.2-.1 1.7 0 3.5 0 5.2 0 .5.2.9.3 1.5-1.3.7-2.8 1.1-4.3 1.4-2.6.5-5.3.5-7.8-.2-4.4-1.2-7.5-5.1-7.7-9.5-.1-2.6.2-5.1 1.7-7.4 1.9-2.9 4.8-4.5 8.3-4.9 3-.3 5.9.2 8.8 1.3.4.2.6.3.6.8v4.2c-.1 0-.1.1-.2.1-.1-.2-.3-.4-.4-.6-.6-1.4-1.5-2.7-2.8-3.7-3.1-2.2-7.7-1.6-10.1 1.3-1.8 2.2-2.4 4.8-2.4 7.5 0 2.9.6 5.6 2.6 8 1.9 2.2 5.3 3.2 8.2 2.3 1.3-.4 2.1-1.4 2.2-2.7.1-1.5.1-3 0-4.5 0-1-.5-1.8-1.5-2.2-.1 0-.2-.1-.3-.2-.1 0-.1-.1-.1-.2" class="st0" fill="#391d27" transform="translate(-45.805 -225.577) scale(1.08286)"/><path id="path13" d="M162.4 219.7V227.6c0 1.2.7 1.9 1.9 2 1.6.1 3.2.1 4.7 0 2-.2 3.3-1.3 4-3.2.1-.3.1-.5.3-.8 0-.1.2-.2.3-.2.1.1.2.2.2.3v4.8H158c.7-.6 1.1-1.3 1.2-2.1.1-.6.1-1.1.1-1.7v-14.1-.6c0-1.1-.2-2.3-1.3-3h15.2v4.5s-.1 0-.1.1c-.1-.1-.2-.3-.3-.4-1-2.3-2.9-3.3-5.5-3.3h-4.8v9.6c1.6-.1 3.2-.2 4.8-.5 1-.2 1.6-.9 1.9-1.7.1-.3.2-.6.4-1 .4.3.4 6.1.1 6.8-.1-.2-.2-.4-.3-.5-.4-1.4-1.4-2.2-2.9-2.3-1.3-.5-2.6-.5-4.1-.6" class="st0" fill="#391d27" transform="translate(-45.805 -225.577) scale(1.08286)"/><path id="path15" d="M124.2 212.8c-1.4 3.5-2.8 6.8-4.2 10.2h8.6c-1.5-3.5-2.9-6.8-4.4-10.2m-4.7 17.7h-5.9c.1-.2.2-.3.3-.3 1.5-.8 2.5-2.2 3.2-3.7l5.7-12.6c.7-1.7 1.5-3.3 2.2-5 .1-.2.3-.3.4-.5.1.2.3.3.4.5 1.7 3.8 3.3 7.6 5 11.4 1.1 2.4 2.1 4.9 3.2 7.3.5 1 1.1 1.9 2.1 2.5.1.1.2.1.2.2v.2h-6.8c1.7-1.1 1.2-2.4.8-3.7-.3-.9-.7-1.7-1-2.5-.1-.4-.4-.5-.8-.5h-8.3c-.2 0-.5.1-.6.3-.4 1.1-.9 2.3-1.1 3.4-.3 1.1.1 2.1 1.2 2.8-.1.1-.2.1-.2.2" class="st0" fill="#391d27" transform="translate(-45.805 -225.577) scale(1.08286)"/><path id="path17" d="M112.3 224.8v4.1c0 .2-.3.5-.5.6-1.5.9-3.3 1.1-5 1.3-2.5.2-4.9 0-7.2-1-3.6-1.6-5.6-4.4-6.2-8.1-.4-2.5-.2-4.9 1-7.2 1.8-3.5 4.9-5.4 8.9-5.9 2.9-.4 5.7.1 8.3 1.2.5.2.8.5.8 1.1-.1 1.3 0 2.7 0 4-.1 0-.1 0-.2.1-.1-.2-.3-.4-.4-.6-.6-1.5-1.4-2.8-2.7-3.8-3.1-2.2-7.7-1.5-10.1 1.7-1.2 1.5-1.8 3.3-2 5.2-.3 2.1-.2 4.3.4 6.3.8 2.6 2.2 4.8 5 5.8 2.5.9 5 .9 7.3-.8 1.2-.9 1.8-2.1 2.2-3.4l.3-.6h.1" class="st0" fill="#391d27" transform="translate(-45.805 -225.577) scale(1.08286)"/><path id="path19" d="M141.8 230.4c1.5-.9 1.4-2.2 1.4-3.4v-17.3c-1.8 0-3.5-.2-5 .8s-2 2.5-2.4 4.2c-.1 0-.2-.1-.2-.1V209h18.7v5.6c-.1 0-.1 0-.2.1-.1-.1-.2-.2-.2-.4-.4-.8-.6-1.7-1.1-2.5-.7-1.2-1.9-1.8-3.3-1.9-1-.1-2 0-3 0v17.6c.1 1.1.1 2.3 1.4 2.9-.6.2-5.1.2-6.1 0" class="st0" fill="#391d27" transform="translate(-45.805 -225.577) scale(1.08286)"/><path id="path21" d="M199.2 208.8h5.7v.2c-1 .6-1.2 1.6-1.2 2.6v16.2c0 1.1.2 1.4 1.3 2.5h-6.1c1.7-1 1.5-2.5 1.5-3.9v-14.1c0-.5 0-1.1-.1-1.6-.1-.8-.5-1.5-1.3-1.9.1.2.2.1.2 0" class="st0" fill="#391d27" transform="translate(-45.805 -225.577) scale(1.08286)"/><path id="path23" d="M94.4 241.3c.8 0 1.1-.4 1.1-.8 0-.8-.9-.8-1.1-.8h-.7v1.7h.7zm-.2-2c.1 0 .9 0 .9-.7 0-.3-.2-.7-.9-.7h-.5v1.4h.5zm-.1-1.7c.5 0 1.4.1 1.4 1 0 .4-.3.8-.6.9.6 0 1 .4 1 1 0 .9-.8 1.2-1.5 1.2h-1.1v-4h.8z" class="st0" fill="#391d27" transform="translate(-45.805 -225.577) scale(1.08286)"/><path id="path25" d="M100.8 237.6h.4v4h-.4v-4zm-2 3.7c.4 0 1.1-.1 1.1-.9s-.7-.8-1-.8h-.7v1.7h.6zm-1-3.7h.4v1.7h.7c.5 0 1.5.1 1.5 1.2 0 1.1-1.2 1.2-1.6 1.2h-.9v-4.1z" class="st0" fill="#391d27" transform="translate(-45.805 -225.577) scale(1.08286)"/></g><path id="polygon27" class="st0" fill="#391d27" d="M105.7 241.3v.3h-2.3v-4h2.3v.3h-1.9v1.3h1.8v.3h-1.8v1.8z" transform="translate(-45.805 -225.577) scale(1.08286)"/><g id="g29"><path id="path31" d="M107.4 238.1c.2-.3.6-.6 1.3-.6.6 0 1.1.4 1.1 1 0 .5-.3.8-.7.9.5.1.9.4.9 1.1 0 .9-.7 1.2-1.5 1.2-.6 0-1.1-.3-1.4-.9l.4-.2c.2.4.5.7 1 .7.6 0 1-.4 1-.9 0-.6-.4-.9-1.1-.9h-.4v-.3h.4c.4 0 .9-.1.9-.8 0-.7-.7-.7-.8-.7-.3 0-.7.1-.9.5l-.2-.1z" class="st0" fill="#391d27" transform="translate(-45.805 -225.577) scale(1.08286)"/><path id="path33" d="M112.9 239.7c0 .8-.1 1.3-.5 1.6h2v-3.4h-1.5v1.8zm1.9-2.1v3.7h.5v1.1h-.3v-.8h-3v.8h-.4v-1.1c.6 0 .8-.6.8-1.6v-2.1h2.4z" class="st0" fill="#391d27" transform="translate(-45.805 -225.577) scale(1.08286)"/></g><path id="polygon35" class="st0" fill="#391d27" d="M117.5 239.6v2h-.5v-4h.5v1.7h2.4v-1.7h.4v4h-.4v-2z" transform="translate(-45.805 -225.577) scale(1.08286)"/><g id="g37"><path id="path39" d="M126.4 239.6c0-1.1-.8-1.8-1.9-1.8-1 0-1.9.7-1.9 1.8s.8 1.8 1.9 1.8c1.1 0 1.9-.7 1.9-1.8m-4.1 0c0-1.3 1-2.1 2.3-2.1 1.3 0 2.3.9 2.3 2.1 0 1.3-1 2.1-2.3 2.1-1.3 0-2.3-.8-2.3-2.1" class="st0" fill="#391d27" transform="translate(-45.805 -225.577) scale(1.08286)"/></g><path id="polygon41" class="st0" fill="#391d27" d="M131.1 241.3v.3h-2.2v-4h2.2v.3h-1.8v1.3h1.8v.3h-1.8v1.8z" transform="translate(-45.805 -225.577) scale(1.08286)"/><g id="g43"><path id="path45" d="M136 239.4h.7c.3 0 .9-.1.9-.7 0-.8-.7-.7-.9-.7h-.7v1.4zm-.4-1.8h1.2c.5 0 1.3.1 1.3 1.1s-.8 1.1-1.3 1.1h-.8v1.9h-.4v-4.1z" class="st0" fill="#391d27" transform="translate(-45.805 -225.577) scale(1.08286)"/></g><path id="polygon47" class="st0" fill="#391d27" d="M142.3 241.3v.3H140v-4h2.3v.3h-1.9v1.3h1.8v.3h-1.8v1.8z" transform="translate(-45.805 -225.577) scale(1.08286)"/><g id="g49"><path id="path51" d="M147.8 241.3c-.5.4-1.1.5-1.5.5-1.3 0-2.2-.9-2.2-2.1 0-1.3 1-2.1 2.2-2.1.4 0 1 .1 1.5.5v.5c-.5-.5-1.1-.6-1.5-.6-.9 0-1.8.8-1.8 1.8s.7 1.8 1.8 1.8c.6 0 1.1-.2 1.5-.6v.3z" class="st0" fill="#391d27" transform="translate(-45.805 -225.577) scale(1.08286)"/></g><path id="polygon53" class="st0" fill="#391d27" d="M149.1 237.9v-.3h2.7v.3h-1.1v3.7h-.5v-3.7z" transform="translate(-45.805 -225.577) scale(1.08286)"/><g id="g55"><path id="path57" d="M157.4 239.6c0-1.1-.8-1.8-1.9-1.8-1 0-1.9.7-1.9 1.8s.8 1.8 1.9 1.8c1.1 0 1.9-.7 1.9-1.8m-4.1 0c0-1.3 1-2.1 2.3-2.1 1.3 0 2.3.9 2.3 2.1 0 1.3-1 2.1-2.3 2.1-1.3 0-2.3-.8-2.3-2.1" class="st0" fill="#391d27" transform="translate(-45.805 -225.577) scale(1.08286)"/><path id="path59" d="M160.3 239.4h.7c.3 0 .9-.1.9-.7 0-.8-.7-.7-.9-.7h-.7v1.4zm-.4-1.8h1.2c.5 0 1.3.1 1.3 1.1s-.8 1.1-1.3 1.1h-.8v1.9h-.4v-4.1z" class="st0" fill="#391d27" transform="translate(-45.805 -225.577) scale(1.08286)"/></g><path id="path61" d="M166.4 240l-.7-1.7-.7 1.7h1.4zm-.7-2.5l1.9 4.1h-.4l-.6-1.3h-1.8l-.6 1.3h-.4l1.9-4.1z" class="st0" fill="#391d27" transform="translate(-45.805 -225.577) scale(1.08286)"/><path id="polygon63" class="st0" fill="#391d27" d="M169.7 239.6v2h-.4v-4h.4v1.7h2.4v-1.7h.4v4h-.4v-2z" transform="translate(-45.805 -225.577) scale(1.08286)"/><path id="polygon65" class="st0" fill="#391d27" d="M175.1 239.6v2h-.4v-4h.4v1.7h2.5v-1.7h.4v4h-.4v-2z" transform="translate(-45.805 -225.577) scale(1.08286)"/><g id="g67"><path id="path69" d="M184.1 239.6c0-1.1-.8-1.8-1.9-1.8-1 0-1.9.7-1.9 1.8s.8 1.8 1.9 1.8c1.1 0 1.9-.7 1.9-1.8m-4.2 0c0-1.3 1-2.1 2.3-2.1 1.3 0 2.3.9 2.3 2.1 0 1.3-1 2.1-2.3 2.1-1.2 0-2.3-.8-2.3-2.1" class="st0" fill="#391d27" transform="translate(-45.805 -225.577) scale(1.08286)"/></g><path id="polygon71" class="st0" fill="#391d27" d="M188.8 241.3v.3h-2.3v-4h2.3v.3h-1.9v1.3h1.8v.3h-1.8v1.8z" transform="translate(-45.805 -225.577) scale(1.08286)"/><g id="g73"><path id="path75" d="M197.2 239.6c0-1.1-.8-1.8-1.9-1.8-1 0-1.9.7-1.9 1.8s.8 1.8 1.9 1.8c1.1 0 1.9-.7 1.9-1.8m-4.1 0c0-1.3 1-2.1 2.3-2.1 1.3 0 2.3.9 2.3 2.1 0 1.3-1 2.1-2.3 2.1-1.3 0-2.3-.8-2.3-2.1" class="st0" fill="#391d27" transform="translate(-45.805 -225.577) scale(1.08286)"/><path id="path77" d="M200.6 241.3c1 0 1.1-.5 1.1-.9 0-.9-.9-.9-1-.9h-.7v1.7h.6zm-1-3.7h2.1v.3H200v1.3h.7c.5 0 1.5.1 1.5 1.2 0 1.2-1.2 1.2-1.6 1.2h-.9v-4z" class="st0" fill="#391d27" transform="translate(-45.805 -225.577) scale(1.08286)"/><path id="path79" d="M207.7 241.3c-.5.4-1.1.5-1.5.5-1.3 0-2.2-.9-2.2-2.1 0-1.3 1-2.1 2.2-2.1.4 0 1 .1 1.5.5v.5c-.5-.5-1.1-.6-1.5-.6-.9 0-1.8.8-1.8 1.8s.7 1.8 1.8 1.8c.6 0 1.1-.2 1.5-.6v.3z" class="st0" fill="#391d27" transform="translate(-45.805 -225.577) scale(1.08286)"/><path id="path81" d="M212.3 237.6v4h-.4v-3.7h-1.5v2.2c0 .8-.1 1.6-1 1.6h-.3v-.3h.2c.6 0 .7-.6.7-1.2v-2.5h2.3z" class="st0" fill="#391d27" transform="translate(-45.805 -225.577) scale(1.08286)"/></g><path id="polygon83" class="st0" fill="#391d27" d="M215.8 240l1.1-2.4h.4l-1.9 4h-.4l.5-1.2-1.5-2.8h.5z" transform="translate(-45.805 -225.577) scale(1.08286)"/><path id="polygon85" class="st0" fill="#391d27" d="M221.2 239.5l1.7-1.9h.5l-1.8 2 1.9 2h-.6l-1.7-1.9v1.9h-.4v-1.9l-1.8 1.9h-.5l1.9-2-1.8-2h.5l1.7 1.9v-1.9h.4z" transform="translate(-45.805 -225.577) scale(1.08286)"/><path id="polygon87" class="st0" fill="#391d27" d="M225.6 240.8l2.9-3.4v4.2h-.4v-3.2l-2.9 3.4v-4.2h.4z" transform="translate(-45.805 -225.577) scale(1.08286)"/><g id="g89"><path id="path91" d="M231.8 241.3c.8 0 1.1-.4 1.1-.8 0-.8-.9-.8-1.1-.8h-.7v1.7h.7zm-.2-2c.1 0 .9 0 .9-.7 0-.3-.2-.7-.9-.7h-.5v1.4h.5zm-.1-1.7c.5 0 1.4.1 1.4 1 0 .4-.3.8-.6.9.6 0 1 .4 1 1 0 .9-.8 1.2-1.5 1.2h-1.1v-4h.8z" class="st0" fill="#391d27" transform="translate(-45.805 -225.577) scale(1.08286)"/></g><path id="path93" d="M237.4 240l-.7-1.7-.7 1.7h1.4zm-.8-2.5l1.9 4.1h-.4l-.6-1.3h-1.8l-.6 1.3h-.4l1.9-4.1z" class="st0" fill="#391d27" transform="translate(-45.805 -225.577) scale(1.08286)"/><path id="polygon95" class="st0" fill="#391d27" d="M240.6 239.6v2h-.4v-4h.4v1.7h2.5v-1.7h.4v4h-.4v-2z" transform="translate(-45.805 -225.577) scale(1.08286)"/><path id="polygon97" class="st0" fill="#391d27" d="M246.1 240.8l2.9-3.4v4.2h-.4v-3.2l-2.9 3.4v-4.2h.4z" transform="translate(-45.805 -225.577) scale(1.08286)"/><path id="polygon99" class="st0" fill="#391d27" d="M253.4 241.3v.3h-2.2v-4h2.2v.3h-1.8v1.3h1.8v.3h-1.8v1.8z" transform="translate(-45.805 -225.577) scale(1.08286)"/><g id="g101" transform="translate(-45.805 -225.577) scale(1.08286)"><defs id="defs103"><path d="M54.9 227.5c.3.1 1.7.4 2.5.6.4-2.4.9-5.3 1.3-7.7l-3.8 7.1z" id="SVGID_1_"/></defs><clipPath id="SVGID_2_"><use id="use107" xlink:href="#SVGID_1_" width="841.9" height="595.3" overflow="visible"/></clipPath><linearGradient gradientTransform="scale(-45.5814 45.5814) rotate(41.4 780.737 297.554)" y2="595.182" x2="1" y1="595.182" gradientUnits="userSpaceOnUse" id="SVGID_3_"><stop id="stop110" offset="0" stop-color="#81083f"/><stop id="stop112" offset=".029" stop-color="#81083f"/><stop id="stop114" offset=".32" stop-color="#81083f"/><stop id="stop116" offset=".33" stop-color="#840840"/><stop id="stop118" offset=".443" stop-color="#9e1046"/><stop id="stop120" offset=".561" stop-color="#b4144a"/><stop id="stop122" offset=".688" stop-color="#c4154c"/><stop id="stop124" offset=".826" stop-color="#ce164d"/><stop id="stop126" offset="1" stop-color="#d1164d"/></linearGradient><path clip-path="url(#SVGID_2_)" id="polygon128" class="st1" fill="url(#linearGradient3312)" d="M56.6 230l-5.5-6.2 6-5.2 5.5 6.2z"/></g><g id="g130" transform="translate(-45.805 -225.577) scale(1.08286)"><defs id="defs132"><path d="M61.9 217.8L60.1 229c.6.2 2.1.8 2.8 1.2 0 0 .4-2.4.6-3.9-2.2-.9-2-3.2.6-4.3.1-.8.2-1.6.3-2.3 0 0 .2-1.9 3-1.4l-.5 3.2c1.4 0 2.7.2 3.7.5.2-1.4-1-4.3-6.8-4.3-.5-.1-1.2 0-1.9.1" id="SVGID_4_"/></defs><clipPath id="SVGID_5_"><use id="use136" xlink:href="#SVGID_4_" width="841.9" height="595.3" overflow="visible"/></clipPath><linearGradient gradientTransform="scale(-45.5814 45.5814) rotate(41.4 780.587 297.498)" y2="595.188" x2="1" y1="595.188" gradientUnits="userSpaceOnUse" id="SVGID_6_"><stop id="stop139" offset="0" stop-color="#81083f"/><stop id="stop141" offset=".029" stop-color="#81083f"/><stop id="stop143" offset=".32" stop-color="#81083f"/><stop id="stop145" offset=".33" stop-color="#840840"/><stop id="stop147" offset=".443" stop-color="#9e1046"/><stop id="stop149" offset=".561" stop-color="#b4144a"/><stop id="stop151" offset=".688" stop-color="#c4154c"/><stop id="stop153" offset=".826" stop-color="#ce164d"/><stop id="stop155" offset="1" stop-color="#d1164d"/></linearGradient><path clip-path="url(#SVGID_5_)" id="polygon157" class="st2" fill="url(#linearGradient3314)" d="M64.8 235.6l-10.9-12.5 12.3-10.8 11 12.4z"/></g><g id="g159" transform="translate(-45.805 -225.577) scale(1.08286)"><defs id="defs161"><path d="M65.3 222.9c-1.8.3-2.9 1.7-1.6 2.3 0-.3.4-2.1 3.1-2.1l-.4 2.4c1.8-.2 3.2-.8 3.8-2-.8-.3-2.1-.7-3.4-.7-.5-.1-1 0-1.5.1" id="SVGID_7_"/></defs><clipPath id="SVGID_8_"><use id="use165" xlink:href="#SVGID_7_" width="841.9" height="595.3" overflow="visible"/></clipPath><linearGradient gradientTransform="scale(-45.5814 45.5814) rotate(41.4 780.582 297.496)" y2="595.198" x2="1" y1="595.198" gradientUnits="userSpaceOnUse" id="SVGID_9_"><stop id="stop168" offset="0" stop-color="#81083f"/><stop id="stop170" offset=".029" stop-color="#81083f"/><stop id="stop172" offset=".32" stop-color="#81083f"/><stop id="stop174" offset=".33" stop-color="#840840"/><stop id="stop176" offset=".443" stop-color="#9e1046"/><stop id="stop178" offset=".561" stop-color="#b4144a"/><stop id="stop180" offset=".688" stop-color="#c4154c"/><stop id="stop182" offset=".826" stop-color="#ce164d"/><stop id="stop184" offset="1" stop-color="#d1164d"/></linearGradient><path clip-path="url(#SVGID_8_)" id="polygon186" class="st3" fill="url(#linearGradient3316)" d="M65.9 229.3l-4.8-5.4 5.7-5.1 4.8 5.4z"/></g><g id="g188" transform="translate(-45.805 -225.577) scale(1.08286)"><defs id="defs190"><path d="M63.3 238c5 0 9.6-1.6 12.8-4.1.2-.2 1.1-.7 2-.2-3.4 3.3-8.8 5.5-14.8 5.5s-11.4-2.1-14.8-5.4c1-.5 1.8.1 2.1.3 3.2 2.3 7.7 3.9 12.7 3.9m0-26.6c10.3 0 18.6 6.2 18.6 13.9 0 2.5-.9 4.9-2.4 6.9.4.5.7 1 .7 1s-1.5.5-3-.6c-.7-.5-2.1-1.9-3.2-2.7-1-.7-2.1-1.3-3.4-1.2-4.1.2-3.7 5.4.3 4.4.9-.2 1.7-.8 2.3-1.5.2-.2.9-.9 1.9-.3.4.2.7.5.8.7-.8 1.2-1.9 2.1-3.1 2.5-2.2.8-4.2.7-5.6-.8-1.9-2-.7-5.5 2.7-6 1.5-.2 2.9.1 4.2.7-.2-1.6-1.1-2.9-2.2-3.7-1.2 1.3-3.4 2.2-5.7 2.3l-.9 5.9c-.1.8-.9.8-1.4.5-.1-.1-2.1-1.1-4.2-2.1l-.1.6s-.2 1.7-2.4 1.7h-.7s.3-1.3.6-3.4c-.4-.2-2.2-.9-4.5-1.2-1.8-.2-3.9 0-4.9.9-1.5 1.4-.3 3.1 1.6 2.3.9-.4 1.8-1.3 2.4-2.1.2-.3.8-.8 2.3-.6-.5.8-2.1 3.1-4.2 3.8-1.5.5-2.8.2-3.5-.7-.5-.6-.5-1.3-.4-1.8-.9-1.6-1.3-3.3-1.3-5.1 0-3.9 2.1-7.4 5.6-9.9.3-.2 1.2-.8 2.3-.1-4.1 2.3-6.7 6-6.7 10 0 1.3.3 2.6.8 3.8 1.4-1.8 4.1-2.1 6.7-1.8l4.8-8.9c-1.6.4-3.2.9-4.5 1.4-.7.3-.8.2-.4-.2.2-.2 2.1-1.9 5.7-2.9l.6-1.2c.2-.4.8-1.4 2.4-1.4h.5l-.3 2c.8-.1 1.9-.1 2.8-.1 5.8.1 9 3.5 7.9 6.8 2.3 1.3 4.3 3.9 3.9 6.8 1.1.8 1.9 1.6 1.9 1.7 1.3-1.8 2.1-3.8 2.1-6 0-7-7.8-12.7-17.5-12.7-2.1 0-4 .3-5.9.7.8.5 1.6 1.3 1.5 2.5 0 0-.6-1.3-2.7-2-1.5-.5-2.2-.4-3-.5 1.1.2 2.2.5 2.9.8 1.9.8 2.5 2.1 2.5 2.1-.3.3-2 .8-3.5.2-2.2-.9-3.6-3.2-3.6-3.2s2-.8 4-.5c2.4-1.3 5.1-1.7 7.9-1.7m-21 13.8c0 9 9.4 16.2 21 16.2s21-7.3 21-16.2c0-9-9.4-16.2-21-16.2s-21 7.3-21 16.2" id="SVGID_10_"/></defs><clipPath id="SVGID_11_"><use id="use194" xlink:href="#SVGID_10_" width="841.9" height="595.3" overflow="visible"/></clipPath><linearGradient gradientTransform="scale(-45.5814 45.5814) rotate(41.4 780.09 297.31)" y2="594.802" x2="1" y1="594.802" gradientUnits="userSpaceOnUse" id="SVGID_12_"><stop id="stop197" offset="0" stop-color="#81083f"/><stop id="stop199" offset=".029" stop-color="#81083f"/><stop id="stop201" offset=".32" stop-color="#81083f"/><stop id="stop203" offset=".33" stop-color="#840840"/><stop id="stop205" offset=".443" stop-color="#9e1046"/><stop id="stop207" offset=".561" stop-color="#b4144a"/><stop id="stop209" offset=".688" stop-color="#c4154c"/><stop id="stop211" offset=".826" stop-color="#ce164d"/><stop id="stop213" offset="1" stop-color="#d1164d"/></linearGradient><path clip-path="url(#SVGID_11_)" id="polygon215" class="st4" fill="url(#linearGradient3318)" d="M60.6 262.3l-34.4-39.1 39.7-35 34.4 39.1z"/></g></g></svg>