<svg xmlns="http://www.w3.org/2000/svg" xmlns:xlink="http://www.w3.org/1999/xlink" id="Слой_1" viewBox="0 0 230 107"><defs id="defs211"><linearGradient xlink:href="#SVGID_3_" id="linearGradient3300" gradientUnits="userSpaceOnUse" gradientTransform="scale(-89.9157 89.9157) rotate(41.4 781.867 292.153)" x1="-1.578" y1="593.397" x2="-.578" y2="593.397"/><linearGradient xlink:href="#SVGID_6_" id="linearGradient3302" gradientUnits="userSpaceOnUse" gradientTransform="scale(-89.9157 89.9157) rotate(41.4 781.717 292.096)" x1="-1.578" y1="593.403" x2="-.578" y2="593.403"/><linearGradient xlink:href="#SVGID_9_" id="linearGradient3304" gradientUnits="userSpaceOnUse" gradientTransform="scale(-89.9157 89.9157) rotate(41.4 781.712 292.094)" x1="-1.578" y1="593.413" x2="-.578" y2="593.413"/><linearGradient xlink:href="#SVGID_12_" id="linearGradient3306" gradientUnits="userSpaceOnUse" gradientTransform="scale(-89.9157 89.9157) rotate(41.4 781.22 291.909)" x1="-1.578" y1="593.017" x2="-.578" y2="593.017"/></defs><style id="style3">.st0{fill:#41252f}.st1{clip-path:url(#SVGID_2_);fill:url(#SVGID_3_)}.st2{clip-path:url(#SVGID_5_);fill:url(#SVGID_6_)}.st3{clip-path:url(#SVGID_8_);fill:url(#SVGID_9_)}.st4{clip-path:url(#SVGID_11_);fill:url(#SVGID_12_)}</style><g id="g3190"><g id="g5"><path id="path7" d="M437.1 92.5c-.1.6-.1.9-.1 1.1v33.3c0 2.5 0 5 2.6 6.7h-11.4c2.8-1.8 2.6-4.5 2.6-7.1.1-9.6 0-19.1 0-28.6 0-.9-.1-1.8-.2-2.7-.2-1.6-1-2.9-2.7-3.9.4-.2.6-.3.7-.3 6.2.1 12.4 0 18.6.4 3.8.2 7.3 1.6 9.9 4.6 4.9 5.6 2.3 13.8-5.2 16.5-1.8.6-3.6 1-5.6 1.6 1.9 2.1 3.7 4.3 5.6 6.3 3.1 3.3 6.3 6.6 9.5 9.8.8.8 1.8 1.3 2.8 1.9.3.2.6.5.9.7-.3.3-.6.8-1 1-3 1.4-6 1.1-8.4-.9-2.4-1.9-4.6-4.2-6.6-6.5-3.1-3.5-6-7.2-8.9-10.8-.4-.5-.8-1-1.2-1.6 2.3-.5 4.4-.8 6.4-1.5 7.3-2.3 9.7-11.5 4.2-16.6-1.3-1.2-3.2-2.1-5.1-2.6-2.2-.7-4.8-.6-7.4-.8" class="st0" fill="#41252f" transform="translate(-188.851 -6.707) scale(.7219)"/><path id="path9" d="M498.5 101.1c0 .6-.1.9-.1 1.2.1 6.9.3 13 .5 19.9.1 2.1.4 4.1.8 6.2.4 1.9 1.4 3.5 3.2 4.6l.3.3c0 .1 0 .2.1.4H491v-.3c3.3-2.3 4-5.7 4.1-9.2.2-7.9.1-15.6.1-23.5 0-3.5-.8-7.1-4-9.3-.1 0 .1 0 0-.4h4c2.1.1 3.1.4 4.3 1.9 8.4 10.3 15.4 20.5 23.8 30.8.3.3.7.8 1.1 1.2.1-.5.1-.7.1-1 0-7.7-.1-15.5-.2-23.2-.1-3.5-.6-6.9-4-9.2-.1-.1-.1-.2-.1-.5H532c0 .2 0 .4-.1.5-3.2 2.3-3.8 5.7-3.9 9.2-.3 11 .1 22.4-.2 33.4-.1.2-.4.2-.7.2-1.6 0-2.4-.9-3-1.4-4.5-5.1-7.8-9.1-12.3-14.5-4.5-5.3-7.8-10.7-12.3-16.1-.2-.3-.5-.7-1-1.2" class="st0" fill="#41252f" transform="translate(-188.851 -6.707) scale(.7219)"/><path id="path11" d="M567.9 113.1h12.3c-.1.2-.1.5-.3.6-1.7 1-2.3 2.6-2.4 4.3-.1 3.4-.1 6.9 0 10.3 0 .9.4 1.8.6 2.9-2.6 1.3-5.5 2.2-8.5 2.8-5.2.9-10.4.9-15.5-.5-8.7-2.4-14.8-10-15.2-18.8-.3-5.2.5-10.1 3.4-14.6 3.8-5.7 9.4-8.8 16.3-9.6 6-.7 11.7.4 17.3 2.5.8.3 1.2.7 1.2 1.6-.1 2.8 0 5.5 0 8.3-.1.1-.3.1-.4.2-.3-.4-.6-.8-.8-1.2-1.3-2.8-2.9-5.4-5.5-7.3-6.1-4.4-15.1-3.2-19.8 2.6-3.5 4.4-4.8 9.5-4.8 14.9 0 5.7 1.2 11.1 5.1 15.7 3.7 4.4 10.5 6.3 16.1 4.5 2.5-.8 4.2-2.8 4.3-5.3.1-2.9.1-5.9 0-8.9-.1-1.9-.9-3.5-2.9-4.4-.2-.1-.4-.2-.5-.4 0 .1.1 0 0-.2" class="st0" fill="#41252f" transform="translate(-188.851 -6.707) scale(.7219)"/><path id="path13" d="M398.1 112.5v15.6c.1 2.4 1.3 3.8 3.8 4 3.1.1 6.3.2 9.4-.1 4-.3 6.6-2.6 7.8-6.2.2-.5.3-1 .5-1.5.1-.2.4-.3.5-.5.1.2.4.4.4.5v9.4h-31.3c1.4-1.1 2.2-2.5 2.5-4.2.1-1.1.2-2.3.2-3.4V98.2 97c-.1-2.3-.4-4.4-2.6-6h30v8.9c-.1 0-.2.1-.2.1-.2-.3-.4-.5-.6-.8-2-4.6-5.7-6.6-10.8-6.6h-9.4v18.8c3.2-.3 6.4-.4 9.5-.9 1.9-.3 3.1-1.8 3.8-3.4.3-.6.5-1.3.7-1.9.7.7.9 11.9.2 13.4-.2-.4-.5-.7-.6-1.1-.9-2.7-2.8-4.3-5.7-4.6-2.7-.2-5.3-.2-8.1-.4" class="st0" fill="#41252f" transform="translate(-188.851 -6.707) scale(.7219)"/><path id="path15" d="M322.7 98.8c-2.8 6.9-5.6 13.4-8.3 20.1h17c-2.9-6.7-5.7-13.2-8.7-20.1m-9.3 34.9h-11.6c.3-.3.3-.5.5-.6 3-1.7 4.9-4.3 6.2-7.2 3.8-8.3 7.5-16.6 11.3-24.9 1.5-3.3 2.9-6.5 4.4-9.8.2-.4.5-.6.8-.9.3.3.6.6.8.9 3.3 7.5 6.5 14.9 9.8 22.4 2.1 4.8 4.2 9.6 6.4 14.3.9 2 2.2 3.7 4.1 4.9.2.1.3.3.5.4v.4H333c3.3-2.1 2.4-4.7 1.6-7.2-.6-1.7-1.4-3.3-2.1-4.9-.3-.7-.7-.9-1.5-.9h-16.3c-.4 0-1.1.2-1.2.5-.8 2.2-1.7 4.5-2.2 6.8-.5 2.2.2 4.1 2.3 5.4-.1.2-.1.3-.2.4" class="st0" fill="#41252f" transform="translate(-188.851 -6.707) scale(.7219)"/><path id="path17" d="M299.3 122.6v8.2c0 .4-.6.9-1 1.2-3 1.7-6.4 2.2-9.9 2.5-4.9.4-9.7 0-14.2-2.1-7.1-3.2-11-8.7-12.1-16-.8-4.9-.4-9.7 2-14.2 3.6-7 9.6-10.7 17.5-11.7 5.7-.7 11.2.2 16.4 2.5 1 .5 1.6 1 1.5 2.2-.1 2.6 0 5.3 0 7.9-.1 0-.3.1-.4.1-.2-.4-.5-.8-.7-1.2-1.2-2.9-2.7-5.6-5.4-7.5-6.1-4.4-15.1-2.9-20 3.3-2.4 3-3.5 6.5-4 10.2-.6 4.2-.3 8.4.9 12.5 1.5 5.2 4.4 9.4 9.9 11.3 4.9 1.8 9.9 1.7 14.3-1.6 2.3-1.7 3.5-4.2 4.4-6.7.1-.4.4-.7.6-1.1-.1.1.1.1.2.2" class="st0" fill="#41252f" transform="translate(-188.851 -6.707) scale(.7219)"/><path id="path19" d="M357.5 133.5c2.9-1.7 2.8-4.3 2.8-6.8V92.6c-3.5 0-6.9-.4-9.9 1.6-2.9 1.9-3.9 5-4.7 8.2-.2-.1-.3-.1-.5-.2V91.1H382v11.1c-.1 0-.2.1-.3.1-.1-.2-.3-.5-.4-.7-.7-1.7-1.3-3.4-2.2-5-1.4-2.3-3.7-3.6-6.4-3.8-1.9-.2-3.9 0-6 0 0 .4-.1.8-.1 1.3V127.7c.1 2.2.2 4.5 2.7 5.8-.9.4-9.9.6-11.8 0" class="st0" fill="#41252f" transform="translate(-188.851 -6.707) scale(.7219)"/><path id="path21" d="M470.6 91.1h11.3c0 .2 0 .4-.1.4-2 1.2-2.4 3.1-2.4 5.2v32c0 2.1.4 2.8 2.7 5h-12c3.3-2 3-4.9 3-7.6.1-9.2 0-18.5 0-27.7 0-1-.1-2.1-.2-3.1-.2-1.6-.9-3-2.5-3.8.1-.2.2-.3.2-.4" class="st0" fill="#41252f" transform="translate(-188.851 -6.707) scale(.7219)"/><path id="path23" d="M263.9 155.1c1.6 0 2.1-.9 2.1-1.6 0-1.7-1.8-1.6-2.1-1.6h-1.4v3.3h1.4zm-.3-3.9c.2 0 1.7 0 1.7-1.5 0-.6-.4-1.3-1.7-1.3h-1.1v2.8h1.1zm-.2-3.4c.9 0 2.7.1 2.7 1.9 0 .8-.5 1.5-1.3 1.7 1.1.1 1.9.8 1.9 2 0 1.8-1.6 2.3-2.9 2.3h-2.2v-8h1.8z" class="st0" fill="#41252f" transform="translate(-188.851 -6.707) scale(.7219)"/><path id="path25" d="M276.6 147.8h.8v8h-.8v-8zm-4 7.3c.8 0 2.3-.1 2.3-1.7 0-1.5-1.4-1.6-2-1.6h-1.4v3.3h1.1zm-2-7.3h.8v3.3h1.4c1 0 2.9.2 2.9 2.3 0 2.3-2.3 2.3-3.2 2.3h-1.9v-7.9z" class="st0" fill="#41252f" transform="translate(-188.851 -6.707) scale(.7219)"/></g><path id="polygon27" class="st0" fill="#41252f" d="M286.2 155.1v.7h-4.5v-8h4.5v.6h-3.7v2.6h3.6v.6h-3.6v3.5z" transform="translate(-188.851 -6.707) scale(.7219)"/><g id="g29"><path id="path31" d="M289.7 148.8c.4-.6 1.2-1.2 2.6-1.2 1.3 0 2.3.8 2.3 2 0 .9-.6 1.6-1.3 1.8.9.2 1.7.9 1.7 2.1 0 1.7-1.5 2.4-2.9 2.4-1.3 0-2.1-.6-2.7-1.7l.7-.3c.3.7 1 1.4 2 1.4 1.1 0 2.1-.7 2.1-1.9 0-1.1-.9-1.7-2.1-1.7h-.9v-.6h.8c.8 0 1.7-.3 1.7-1.5 0-1.4-1.3-1.4-1.5-1.4-.6 0-1.3.2-1.8 1l-.7-.4z" class="st0" fill="#41252f" transform="translate(-188.851 -6.707) scale(.7219)"/><path id="path33" d="M300.3 152c0 1.5-.2 2.5-1 3.2h4v-6.7h-3.1v3.5zm3.9-4.2v7.3h1v2.2h-.8v-1.6h-5.8v1.6h-.8v-2.2c1.1.1 1.7-1.1 1.7-3.2v-4.2h4.7z" class="st0" fill="#41252f" transform="translate(-188.851 -6.707) scale(.7219)"/></g><path id="polygon35" class="st0" fill="#41252f" d="M309.4 151.7v4.1h-.8v-8h.8v3.3h4.8v-3.3h.9v8h-.9v-4.1z" transform="translate(-188.851 -6.707) scale(.7219)"/><g id="g37"><path id="path39" d="M327.1 151.8c0-2.1-1.6-3.6-3.7-3.6-2 0-3.7 1.5-3.7 3.6s1.6 3.6 3.7 3.6c2.1-.1 3.7-1.5 3.7-3.6m-8.2 0c0-2.5 2-4.2 4.5-4.2s4.5 1.7 4.5 4.2-2 4.2-4.5 4.2c-2.4 0-4.5-1.7-4.5-4.2" class="st0" fill="#41252f" transform="translate(-188.851 -6.707) scale(.7219)"/></g><path id="polygon41" class="st0" fill="#41252f" d="M336.4 155.1v.7h-4.5v-8h4.5v.6h-3.7v2.6h3.6v.6h-3.6v3.5z" transform="translate(-188.851 -6.707) scale(.7219)"/><g id="g43"><path id="path45" d="M346 151.4h1.5c.6 0 1.7-.1 1.7-1.5 0-1.5-1.4-1.5-1.7-1.5H346v3zm-.8-3.6h2.3c.9 0 2.5.2 2.5 2.1 0 1.9-1.6 2.1-2.5 2.1H346v3.7h-.8v-7.9z" class="st0" fill="#41252f" transform="translate(-188.851 -6.707) scale(.7219)"/></g><path id="polygon47" class="st0" fill="#41252f" d="M358.3 155.1v.7h-4.5v-8h4.5v.6h-3.7v2.6h3.6v.6h-3.6v3.5z" transform="translate(-188.851 -6.707) scale(.7219)"/><g id="g49"><path id="path51" d="M369.2 155c-1 .7-2.1.9-3.1.9-2.6 0-4.3-1.9-4.3-4.2 0-2.5 2-4.2 4.3-4.2.9 0 1.9.1 3.1 1v.9c-1.1-1-2.2-1.2-3-1.2-1.9 0-3.5 1.5-3.5 3.6 0 1.9 1.4 3.6 3.5 3.6 1.2 0 2.2-.5 3-1.2v.8z" class="st0" fill="#41252f" transform="translate(-188.851 -6.707) scale(.7219)"/></g><path id="polygon53" class="st0" fill="#41252f" d="M371.8 148.4v-.6h5.3v.6h-2.2v7.4h-.8v-7.4z" transform="translate(-188.851 -6.707) scale(.7219)"/><g id="g55"><path id="path57" d="M388.3 151.8c0-2.1-1.6-3.6-3.7-3.6-2 0-3.7 1.5-3.7 3.6s1.6 3.6 3.7 3.6c2.1-.1 3.7-1.5 3.7-3.6m-8.2 0c0-2.5 2-4.2 4.5-4.2s4.5 1.7 4.5 4.2-2 4.2-4.5 4.2-4.5-1.7-4.5-4.2" class="st0" fill="#41252f" transform="translate(-188.851 -6.707) scale(.7219)"/><path id="path59" d="M393.8 151.4h1.5c.6 0 1.7-.1 1.7-1.5 0-1.5-1.4-1.5-1.7-1.5h-1.5v3zm-.8-3.6h2.3c.9 0 2.5.2 2.5 2.1 0 1.9-1.6 2.1-2.5 2.1h-1.5v3.7h-.8v-7.9z" class="st0" fill="#41252f" transform="translate(-188.851 -6.707) scale(.7219)"/></g><path id="path61" d="M406 152.5l-1.5-3.3-1.5 3.3h3zm-1.5-4.9l3.8 8.2h-.8l-1.2-2.6h-3.5l-1.2 2.6h-.8l3.7-8.2z" class="st0" fill="#41252f" transform="translate(-188.851 -6.707) scale(.7219)"/><path id="polygon63" class="st0" fill="#41252f" d="M412.4 151.7v4.1h-.8v-8h.8v3.3h4.8v-3.3h.8v8h-.8v-4.1z" transform="translate(-188.851 -6.707) scale(.7219)"/><path id="polygon65" class="st0" fill="#41252f" d="M423.1 151.7v4.1h-.8v-8h.8v3.3h4.9v-3.3h.8v8h-.8v-4.1z" transform="translate(-188.851 -6.707) scale(.7219)"/><g id="g67"><path id="path69" d="M440.9 151.8c0-2.1-1.6-3.6-3.7-3.6-2 0-3.7 1.5-3.7 3.6s1.6 3.6 3.7 3.6c2-.1 3.7-1.5 3.7-3.6m-8.2 0c0-2.5 2-4.2 4.5-4.2s4.5 1.7 4.5 4.2-2 4.2-4.5 4.2-4.5-1.7-4.5-4.2" class="st0" fill="#41252f" transform="translate(-188.851 -6.707) scale(.7219)"/></g><path id="polygon71" class="st0" fill="#41252f" d="M450.1 155.1v.7h-4.5v-8h4.5v.6h-3.7v2.6h3.6v.6h-3.6v3.5z" transform="translate(-188.851 -6.707) scale(.7219)"/><g id="g73"><path id="path75" d="M466.7 151.8c0-2.1-1.6-3.6-3.7-3.6-2 0-3.7 1.5-3.7 3.6s1.6 3.6 3.7 3.6c2.1-.1 3.7-1.5 3.7-3.6m-8.1 0c0-2.5 2-4.2 4.5-4.2s4.5 1.7 4.5 4.2-2 4.2-4.5 4.2-4.5-1.7-4.5-4.2" class="st0" fill="#41252f" transform="translate(-188.851 -6.707) scale(.7219)"/><path id="path77" d="M473.5 155.1c1.9 0 2.3-1 2.3-1.7 0-1.7-1.7-1.7-2.1-1.7h-1.4v3.4h1.2zm-2-7.3h4.2v.6h-3.4v2.6h1.4c1 0 2.9.2 2.9 2.3 0 2.3-2.3 2.4-3.2 2.4h-1.8v-7.9z" class="st0" fill="#41252f" transform="translate(-188.851 -6.707) scale(.7219)"/><path id="path79" d="M487.3 155c-1 .7-2.1.9-3.1.9-2.6 0-4.3-1.9-4.3-4.2 0-2.5 2-4.2 4.3-4.2.9 0 1.9.1 3.1 1v.9c-1.1-1-2.2-1.2-3-1.2-1.9 0-3.5 1.5-3.5 3.6 0 1.9 1.4 3.6 3.5 3.6 1.2 0 2.2-.5 3-1.2v.8z" class="st0" fill="#41252f" transform="translate(-188.851 -6.707) scale(.7219)"/><path id="path81" d="M496.5 147.8v8h-.8v-7.3h-3v4.3c0 1.6-.2 3.1-2 3.1-.1 0-.3 0-.7-.1v-.6c.1 0 .3.1.5.1 1.3 0 1.4-1.1 1.4-2.4v-5h4.6z" class="st0" fill="#41252f" transform="translate(-188.851 -6.707) scale(.7219)"/></g><path id="polygon83" class="st0" fill="#41252f" d="M503.3 152.5l2.3-4.7h.8l-3.8 8h-.9l1.2-2.5-3.1-5.5h1z" transform="translate(-188.851 -6.707) scale(.7219)"/><path id="polygon85" class="st0" fill="#41252f" d="M514 151.5l3.3-3.7h1.1l-3.6 3.9 3.8 4.1h-1.1l-3.5-3.9v3.9h-.8v-3.9l-3.4 3.9h-1.1l3.7-4.1-3.5-3.9h1l3.3 3.7v-3.7h.8z" transform="translate(-188.851 -6.707) scale(.7219)"/><path id="polygon87" class="st0" fill="#41252f" d="M522.7 154.1l5.8-6.6v8.3h-.9v-6.3l-5.7 6.6v-8.3h.8z" transform="translate(-188.851 -6.707) scale(.7219)"/><g id="g89"><path id="path91" d="M534.9 155.1c1.6 0 2.1-.9 2.1-1.6 0-1.7-1.8-1.6-2.1-1.6h-1.4v3.3h1.4zm-.3-3.9c.2 0 1.7 0 1.7-1.5 0-.6-.4-1.3-1.7-1.3h-1.1v2.8h1.1zm-.1-3.4c.9 0 2.7.1 2.7 1.9 0 .8-.5 1.5-1.3 1.7 1.1.1 1.9.8 1.9 2 0 1.8-1.6 2.3-2.9 2.3h-2.2v-8h1.8z" class="st0" fill="#41252f" transform="translate(-188.851 -6.707) scale(.7219)"/></g><path id="path93" d="M546 152.5l-1.5-3.3-1.5 3.3h3zm-1.5-4.9l3.8 8.2h-.8l-1.2-2.6h-3.5l-1.2 2.6h-.8l3.7-8.2z" class="st0" fill="#41252f" transform="translate(-188.851 -6.707) scale(.7219)"/><path id="polygon95" class="st0" fill="#41252f" d="M552.4 151.7v4.1h-.8v-8h.8v3.3h4.8v-3.3h.9v8h-.9v-4.1z" transform="translate(-188.851 -6.707) scale(.7219)"/><path id="polygon97" class="st0" fill="#41252f" d="M563.1 154.1l5.8-6.6v8.3h-.9v-6.3l-5.7 6.6v-8.3h.8z" transform="translate(-188.851 -6.707) scale(.7219)"/><path id="polygon99" class="st0" fill="#41252f" d="M577.6 155.1v.7h-4.5v-8h4.5v.6h-3.7v2.6h3.6v.6h-3.6v3.5z" transform="translate(-188.851 -6.707) scale(.7219)"/><g id="g101" transform="translate(-188.851 -6.707) scale(.7219)"><defs id="defs103"><path d="M404.5 46c.6.1 3.4.7 5 1.2.8-4.8 1.8-10.5 2.6-15.1L404.5 46z" id="SVGID_1_"/></defs><clipPath id="SVGID_2_"><use id="use107" xlink:href="#SVGID_1_" width="841.9" height="595.3" overflow="visible"/></clipPath><linearGradient gradientTransform="scale(-89.9157 89.9157) rotate(41.4 781.867 292.153)" y2="593.397" x2="-.578" y1="593.397" x1="-1.578" gradientUnits="userSpaceOnUse" id="SVGID_3_"><stop id="stop110" offset="0" stop-color="#81083f"/><stop id="stop112" offset=".32" stop-color="#81083f"/><stop id="stop114" offset=".326" stop-color="#83083f"/><stop id="stop116" offset=".431" stop-color="#9f0d44"/><stop id="stop118" offset=".542" stop-color="#b51148"/><stop id="stop120" offset=".665" stop-color="#c5144b"/><stop id="stop122" offset=".804" stop-color="#ce154c"/><stop id="stop124" offset="1" stop-color="#d1164d"/></linearGradient><path clip-path="url(#SVGID_2_)" id="polygon126" class="st1" fill="url(#linearGradient3300)" d="M407.8 51L397 38.7l11.7-10.3 10.8 12.2z"/></g><g id="g128" transform="translate(-188.851 -6.707) scale(.7219)"><defs id="defs130"><path d="M418.2 26.7L414.7 49c1.3.5 4.2 1.7 5.6 2.3 0 0 .7-4.7 1.1-7.7-4.4-1.8-3.9-6.4 1.2-8.4.2-1.6.5-3.2.7-4.5 0 0 .3-3.7 5.9-2.8l-.9 6.3c2.7-.1 5.4.4 7.4.9.5-2.7-1.9-8.5-13.3-8.5-1.4-.1-2.7 0-4.2.1" id="SVGID_4_"/></defs><clipPath id="SVGID_5_"><use id="use134" xlink:href="#SVGID_4_" width="841.9" height="595.3" overflow="visible"/></clipPath><linearGradient gradientTransform="scale(-89.9157 89.9157) rotate(41.4 781.717 292.096)" y2="593.403" x2="-.578" y1="593.403" x1="-1.578" gradientUnits="userSpaceOnUse" id="SVGID_6_"><stop id="stop137" offset="0" stop-color="#81083f"/><stop id="stop139" offset=".32" stop-color="#81083f"/><stop id="stop141" offset=".326" stop-color="#83083f"/><stop id="stop143" offset=".431" stop-color="#9f0d44"/><stop id="stop145" offset=".542" stop-color="#b51148"/><stop id="stop147" offset=".665" stop-color="#c5144b"/><stop id="stop149" offset=".804" stop-color="#ce154c"/><stop id="stop151" offset="1" stop-color="#d1164d"/></linearGradient><path clip-path="url(#SVGID_5_)" id="polygon153" class="st2" fill="url(#linearGradient3302)" d="M424 61.9l-21.6-24.6 24.3-21.4 21.6 24.6z"/></g><g id="g155" transform="translate(-188.851 -6.707) scale(.7219)"><defs id="defs157"><path d="M424.9 36.8c-3.5.7-5.6 3.3-3.1 4.5.1-.6.8-4.1 6-4.2l-.7 4.7c3.6-.3 6.3-1.7 7.6-4-1.6-.7-4.1-1.3-6.8-1.3-1 0-2 .1-3 .3" id="SVGID_7_"/></defs><clipPath id="SVGID_8_"><use id="use161" xlink:href="#SVGID_7_" width="841.9" height="595.3" overflow="visible"/></clipPath><linearGradient gradientTransform="scale(-89.9157 89.9157) rotate(41.4 781.712 292.094)" y2="593.413" x2="-.578" y1="593.413" x1="-1.578" gradientUnits="userSpaceOnUse" id="SVGID_9_"><stop id="stop164" offset="0" stop-color="#81083f"/><stop id="stop166" offset=".32" stop-color="#81083f"/><stop id="stop168" offset=".326" stop-color="#83083f"/><stop id="stop170" offset=".431" stop-color="#9f0d44"/><stop id="stop172" offset=".542" stop-color="#b51148"/><stop id="stop174" offset=".665" stop-color="#c5144b"/><stop id="stop176" offset=".804" stop-color="#ce154c"/><stop id="stop178" offset="1" stop-color="#d1164d"/></linearGradient><path clip-path="url(#SVGID_8_)" id="polygon180" class="st3" fill="url(#linearGradient3304)" d="M426 49.5l-9.3-10.6 11.3-10 9.3 10.6z"/></g><g id="g182" transform="translate(-188.851 -6.707) scale(.7219)"><defs id="defs184"><path d="M421 66.6c9.9 0 18.9-3.1 25.2-8 .4-.3 2.1-1.4 4-.5-6.7 6.5-17.3 10.8-29.2 10.8-11.9 0-22.4-4.1-29.1-10.6 2-1 3.6.1 4.2.6 6.2 4.7 15 7.7 24.9 7.7-.1 0 0 0 0 0m-.1-52.5c20.3 0 36.8 12.2 36.8 27.3 0 4.9-1.7 9.6-4.8 13.6.8 1.1 1.3 1.9 1.3 1.9s-2.9.9-5.9-1.2c-1.4-1-4.2-3.8-6.2-5.3-2-1.4-4.2-2.5-6.8-2.4-8 .3-7.3 10.6.5 8.7 1.7-.4 3.4-1.5 4.6-3 .4-.5 1.8-1.8 3.7-.6.7.4 1.3 1 1.6 1.3-1.5 2.4-3.8 4.1-6 4.9-4.3 1.6-8.3 1.3-11.1-1.7-3.7-3.9-1.4-10.9 5.4-11.9 2.9-.5 5.7.2 8.3 1.3-.4-3.1-2.3-5.7-4.3-7.3-2.4 2.6-6.8 4.3-11.3 4.6L425.1 56c-.2 1.5-1.7 1.5-2.8 1-.2-.1-4.1-2.2-8.2-4.2l-.2 1.2s-.4 3.3-4.8 3.3h-1.4s.5-2.6 1.2-6.8c-.8-.3-4.3-1.7-8.9-2.3h-.1c-3.6-.5-7.7-.1-9.7 1.8-3 2.8-.5 6.2 3.3 4.6 1.9-.8 3.6-2.6 4.8-4.2.4-.6 1.6-1.6 4.5-1.1-1 1.6-4.1 6.1-8.2 7.5-3 1.1-5.6.3-6.9-1.3-1-1.2-1.1-2.5-.9-3.6-1.7-3.1-2.6-6.6-2.6-10.1 0-7.7 4.2-14.6 11-19.6.6-.4 2.4-1.5 4.5-.2-8 4.6-13.2 11.8-13.2 19.8 0 2.6.6 5.1 1.6 7.5 2.7-3.5 8-4.1 13.2-3.5l9.6-17.6c-3.2.7-6.2 1.7-8.8 2.8-1.5.6-1.6.3-.8-.4.3-.3 4.2-3.7 11.3-5.6l1.2-2.4c.3-.8 1.5-2.8 4.7-2.8h.9l-.6 4c1.5-.2 3.8-.3 5.5-.2 11.4.2 17.7 6.9 15.6 13.4 4.5 2.6 8.6 7.7 7.6 13.3 2.1 1.5 3.8 3.2 3.8 3.3 2.6-3.5 4.1-7.6 4.1-11.9 0-13.8-15.5-25-34.5-25-4.1 0-7.9.5-11.5 1.5 1.6.9 3.2 2.6 2.9 5 0 0-1.1-2.5-5.4-3.9-3-1-4.3-.8-5.8-.9 2.2.3 4.3.9 5.7 1.5 3.8 1.7 4.9 4 4.9 4-.6.6-4 1.6-7 .4-4.3-1.7-7.1-6.3-7.1-6.3s3.9-1.6 7.9-1.1c4.7-1.8 9.9-2.8 15.4-2.8m-41.3 27.4c0 17.7 18.5 32 41.4 32 22.8 0 41.4-14.3 41.4-32s-18.5-32-41.4-32-41.4 14.3-41.4 32" id="SVGID_10_"/></defs><clipPath id="SVGID_11_"><use id="use188" xlink:href="#SVGID_10_" width="841.9" height="595.3" overflow="visible"/></clipPath><linearGradient gradientTransform="scale(-89.9157 89.9157) rotate(41.4 781.22 291.909)" y2="593.017" x2="-.578" y1="593.017" x1="-1.578" gradientUnits="userSpaceOnUse" id="SVGID_12_"><stop id="stop191" offset="0" stop-color="#81083f"/><stop id="stop193" offset=".32" stop-color="#81083f"/><stop id="stop195" offset=".326" stop-color="#83083f"/><stop id="stop197" offset=".431" stop-color="#9f0d44"/><stop id="stop199" offset=".542" stop-color="#b51148"/><stop id="stop201" offset=".665" stop-color="#c5144b"/><stop id="stop203" offset=".804" stop-color="#ce154c"/><stop id="stop205" offset="1" stop-color="#d1164d"/></linearGradient><path clip-path="url(#SVGID_11_)" id="polygon207" class="st4" fill="url(#linearGradient3306)" d="M415.8 114.6l-68-77.1 78.3-69 68 77z"/></g></g></svg>